  0
SECTION
  2
BLOCKS
  0
ENDSEC
  0
SECTION
  2
ENTITIES
  0
LINE
  8
0
 10
239.981
 20
86.925
 11
-43.4625
 21
86.925
  0
LINE
  8
0
 10
-43.4625
 20
86.925
 11
-43.4625
 21
-86.925
  0
LINE
  8
0
 10
-43.4625
 20
-86.925
 11
239.981
 21
-86.925
  0
LINE
  8
0
 10
239.981
 20
-86.925
 11
239.981
 21
86.925
  0
LINE
  8
0
 10
-22.1516
 20
58.5292
 11
-22.6285
 21
58.5625
  0
LINE
  8
0
 10
-22.6285
 20
58.5625
 11
-23.102
 21
58.6291
  0
LINE
  8
0
 10
-23.102
 20
58.6291
 11
-23.5697
 21
58.7285
  0
LINE
  8
0
 10
-23.5697
 20
58.7285
 11
-24.0293
 21
58.8603
  0
LINE
  8
0
 10
-24.0293
 20
58.8603
 11
-24.4785
 21
59.0238
  0
LINE
  8
0
 10
-24.4785
 20
59.0238
 11
-24.9153
 21
59.2182
  0
LINE
  8
0
 10
-24.9153
 20
59.2182
 11
-25.3375
 21
59.4427
  0
LINE
  8
0
 10
-25.3375
 20
59.4427
 11
-25.743
 21
59.6961
  0
LINE
  8
0
 10
-25.743
 20
59.6961
 11
-26.1298
 21
59.9771
  0
LINE
  8
0
 10
-26.1298
 20
59.9771
 11
-26.496
 21
60.2845
  0
LINE
  8
0
 10
-26.496
 20
60.2845
 11
-26.84
 21
60.6166
  0
LINE
  8
0
 10
-26.84
 20
60.6166
 11
-27.1599
 21
60.9719
  0
LINE
  8
0
 10
-27.1599
 20
60.9719
 11
-27.4543
 21
61.3487
  0
LINE
  8
0
 10
-27.4543
 20
61.3487
 11
-27.7216
 21
61.745
  0
LINE
  8
0
 10
-27.7216
 20
61.745
 11
-27.9607
 21
62.1591
  0
LINE
  8
0
 10
-27.9607
 20
62.1591
 11
-28.1703
 21
62.5889
  0
LINE
  8
0
 10
-28.1703
 20
62.5889
 11
-28.3494
 21
63.0322
  0
LINE
  8
0
 10
-28.3494
 20
63.0322
 11
-28.4971
 21
63.4869
  0
LINE
  8
0
 10
-28.4971
 20
63.4869
 11
-28.6128
 21
63.9508
  0
LINE
  8
0
 10
-28.6128
 20
63.9508
 11
-28.6958
 21
64.4217
  0
LINE
  8
0
 10
-28.6958
 20
64.4217
 11
-28.7458
 21
64.8972
  0
LINE
  8
0
 10
-28.7458
 20
64.8972
 11
-28.7625
 21
65.375
  0
LINE
  8
0
 10
-28.7625
 20
65.375
 11
-28.7458
 21
65.8528
  0
LINE
  8
0
 10
-28.7458
 20
65.8528
 11
-28.6958
 21
66.3283
  0
LINE
  8
0
 10
-28.6958
 20
66.3283
 11
-28.6128
 21
66.7992
  0
LINE
  8
0
 10
-28.6128
 20
66.7992
 11
-28.4971
 21
67.2631
  0
LINE
  8
0
 10
-28.4971
 20
67.2631
 11
-28.3494
 21
67.7178
  0
LINE
  8
0
 10
-28.3494
 20
67.7178
 11
-28.1703
 21
68.1611
  0
LINE
  8
0
 10
-28.1703
 20
68.1611
 11
-27.9607
 21
68.5909
  0
LINE
  8
0
 10
-27.9607
 20
68.5909
 11
-27.7216
 21
69.0049
  0
LINE
  8
0
 10
-27.7216
 20
69.0049
 11
-27.4543
 21
69.4013
  0
LINE
  8
0
 10
-27.4543
 20
69.4013
 11
-27.1599
 21
69.7781
  0
LINE
  8
0
 10
-27.1599
 20
69.7781
 11
-26.84
 21
70.1334
  0
LINE
  8
0
 10
-26.84
 20
70.1334
 11
-26.496
 21
70.4655
  0
LINE
  8
0
 10
-26.496
 20
70.4655
 11
-26.1298
 21
70.7729
  0
LINE
  8
0
 10
-26.1298
 20
70.7729
 11
-25.743
 21
71.0539
  0
LINE
  8
0
 10
-25.743
 20
71.0539
 11
-25.3375
 21
71.3073
  0
LINE
  8
0
 10
-25.3375
 20
71.3073
 11
-24.9153
 21
71.5317
  0
LINE
  8
0
 10
-24.9153
 20
71.5317
 11
-24.4785
 21
71.7262
  0
LINE
  8
0
 10
-24.4785
 20
71.7262
 11
-24.0293
 21
71.8897
  0
LINE
  8
0
 10
-24.0293
 20
71.8897
 11
-23.5697
 21
72.0215
  0
LINE
  8
0
 10
-23.5697
 20
72.0215
 11
-23.102
 21
72.1209
  0
LINE
  8
0
 10
-23.102
 20
72.1209
 11
-22.6285
 21
72.1875
  0
LINE
  8
0
 10
-22.6285
 20
72.1875
 11
-22.1516
 21
72.2208
  0
LINE
  8
0
 10
-22.1516
 20
72.2208
 11
-21.6734
 21
72.2208
  0
LINE
  8
0
 10
-21.6734
 20
72.2208
 11
-21.1965
 21
72.1875
  0
LINE
  8
0
 10
-21.1965
 20
72.1875
 11
-20.723
 21
72.1209
  0
LINE
  8
0
 10
-20.723
 20
72.1209
 11
-20.2553
 21
72.0215
  0
LINE
  8
0
 10
-20.2553
 20
72.0215
 11
-19.7957
 21
71.8897
  0
LINE
  8
0
 10
-19.7957
 20
71.8897
 11
-19.3464
 21
71.7262
  0
LINE
  8
0
 10
-19.3464
 20
71.7262
 11
-18.9097
 21
71.5317
  0
LINE
  8
0
 10
-18.9097
 20
71.5317
 11
-18.4875
 21
71.3073
  0
LINE
  8
0
 10
-18.4875
 20
71.3073
 11
-18.082
 21
71.0539
  0
LINE
  8
0
 10
-18.082
 20
71.0539
 11
-17.6952
 21
70.7729
  0
LINE
  8
0
 10
-17.6952
 20
70.7729
 11
-17.3289
 21
70.4655
  0
LINE
  8
0
 10
-17.3289
 20
70.4655
 11
-16.985
 21
70.1334
  0
LINE
  8
0
 10
-16.985
 20
70.1334
 11
-16.6651
 21
69.7781
  0
LINE
  8
0
 10
-16.6651
 20
69.7781
 11
-16.3707
 21
69.4013
  0
LINE
  8
0
 10
-16.3707
 20
69.4013
 11
-16.1034
 21
69.0049
  0
LINE
  8
0
 10
-16.1034
 20
69.0049
 11
-15.8643
 21
68.5909
  0
LINE
  8
0
 10
-15.8643
 20
68.5909
 11
-15.6547
 21
68.1611
  0
LINE
  8
0
 10
-15.6547
 20
68.1611
 11
-15.4756
 21
67.7178
  0
LINE
  8
0
 10
-15.4756
 20
67.7178
 11
-15.3279
 21
67.2631
  0
LINE
  8
0
 10
-15.3279
 20
67.2631
 11
-15.2122
 21
66.7992
  0
LINE
  8
0
 10
-15.2122
 20
66.7992
 11
-15.1292
 21
66.3283
  0
LINE
  8
0
 10
-15.1292
 20
66.3283
 11
-15.0792
 21
65.8528
  0
LINE
  8
0
 10
-15.0792
 20
65.8528
 11
-15.0625
 21
65.375
  0
LINE
  8
0
 10
-15.0625
 20
65.375
 11
-15.0792
 21
64.8972
  0
LINE
  8
0
 10
-15.0792
 20
64.8972
 11
-15.1292
 21
64.4217
  0
LINE
  8
0
 10
-15.1292
 20
64.4217
 11
-15.2122
 21
63.9508
  0
LINE
  8
0
 10
-15.2122
 20
63.9508
 11
-15.3279
 21
63.4869
  0
LINE
  8
0
 10
-15.3279
 20
63.4869
 11
-15.4756
 21
63.0322
  0
LINE
  8
0
 10
-15.4756
 20
63.0322
 11
-15.6547
 21
62.5889
  0
LINE
  8
0
 10
-15.6547
 20
62.5889
 11
-15.8643
 21
62.1591
  0
LINE
  8
0
 10
-15.8643
 20
62.1591
 11
-16.1034
 21
61.745
  0
LINE
  8
0
 10
-16.1034
 20
61.745
 11
-16.3707
 21
61.3487
  0
LINE
  8
0
 10
-16.3707
 20
61.3487
 11
-16.6651
 21
60.9719
  0
LINE
  8
0
 10
-16.6651
 20
60.9719
 11
-16.985
 21
60.6166
  0
LINE
  8
0
 10
-16.985
 20
60.6166
 11
-17.3289
 21
60.2845
  0
LINE
  8
0
 10
-17.3289
 20
60.2845
 11
-17.6952
 21
59.9771
  0
LINE
  8
0
 10
-17.6952
 20
59.9771
 11
-18.082
 21
59.6961
  0
LINE
  8
0
 10
-18.082
 20
59.6961
 11
-18.4875
 21
59.4427
  0
LINE
  8
0
 10
-18.4875
 20
59.4427
 11
-18.9097
 21
59.2182
  0
LINE
  8
0
 10
-18.9097
 20
59.2182
 11
-19.3464
 21
59.0238
  0
LINE
  8
0
 10
-19.3464
 20
59.0238
 11
-19.7957
 21
58.8603
  0
LINE
  8
0
 10
-19.7957
 20
58.8603
 11
-20.2553
 21
58.7285
  0
LINE
  8
0
 10
-20.2553
 20
58.7285
 11
-20.723
 21
58.6291
  0
LINE
  8
0
 10
-20.723
 20
58.6291
 11
-21.1965
 21
58.5625
  0
LINE
  8
0
 10
-21.1965
 20
58.5625
 11
-21.6734
 21
58.5292
  0
LINE
  8
0
 10
-21.6734
 20
58.5292
 11
-22.1516
 21
58.5292
  0
LINE
  8
0
 10
218.192
 20
58.5292
 11
217.715
 21
58.5625
  0
LINE
  8
0
 10
217.715
 20
58.5625
 11
217.241
 21
58.6291
  0
LINE
  8
0
 10
217.241
 20
58.6291
 11
216.773
 21
58.7285
  0
LINE
  8
0
 10
216.773
 20
58.7285
 11
216.314
 21
58.8603
  0
LINE
  8
0
 10
216.314
 20
58.8603
 11
215.865
 21
59.0238
  0
LINE
  8
0
 10
215.865
 20
59.0238
 11
215.428
 21
59.2182
  0
LINE
  8
0
 10
215.428
 20
59.2182
 11
215.006
 21
59.4427
  0
LINE
  8
0
 10
215.006
 20
59.4427
 11
214.6
 21
59.6961
  0
LINE
  8
0
 10
214.6
 20
59.6961
 11
214.213
 21
59.9771
  0
LINE
  8
0
 10
214.213
 20
59.9771
 11
213.847
 21
60.2845
  0
LINE
  8
0
 10
213.847
 20
60.2845
 11
213.503
 21
60.6166
  0
LINE
  8
0
 10
213.503
 20
60.6166
 11
213.183
 21
60.9719
  0
LINE
  8
0
 10
213.183
 20
60.9719
 11
212.889
 21
61.3487
  0
LINE
  8
0
 10
212.889
 20
61.3487
 11
212.622
 21
61.745
  0
LINE
  8
0
 10
212.622
 20
61.745
 11
212.382
 21
62.1591
  0
LINE
  8
0
 10
212.382
 20
62.1591
 11
212.173
 21
62.5889
  0
LINE
  8
0
 10
212.173
 20
62.5889
 11
211.994
 21
63.0322
  0
LINE
  8
0
 10
211.994
 20
63.0322
 11
211.846
 21
63.4869
  0
LINE
  8
0
 10
211.846
 20
63.4869
 11
211.73
 21
63.9508
  0
LINE
  8
0
 10
211.73
 20
63.9508
 11
211.647
 21
64.4217
  0
LINE
  8
0
 10
211.647
 20
64.4217
 11
211.597
 21
64.8972
  0
LINE
  8
0
 10
211.597
 20
64.8972
 11
211.581
 21
65.375
  0
LINE
  8
0
 10
211.581
 20
65.375
 11
211.597
 21
65.8528
  0
LINE
  8
0
 10
211.597
 20
65.8528
 11
211.647
 21
66.3283
  0
LINE
  8
0
 10
211.647
 20
66.3283
 11
211.73
 21
66.7992
  0
LINE
  8
0
 10
211.73
 20
66.7992
 11
211.846
 21
67.2631
  0
LINE
  8
0
 10
211.846
 20
67.2631
 11
211.994
 21
67.7178
  0
LINE
  8
0
 10
211.994
 20
67.7178
 11
212.173
 21
68.1611
  0
LINE
  8
0
 10
212.173
 20
68.1611
 11
212.382
 21
68.5909
  0
LINE
  8
0
 10
212.382
 20
68.5909
 11
212.622
 21
69.0049
  0
LINE
  8
0
 10
212.622
 20
69.0049
 11
212.889
 21
69.4013
  0
LINE
  8
0
 10
212.889
 20
69.4013
 11
213.183
 21
69.7781
  0
LINE
  8
0
 10
213.183
 20
69.7781
 11
213.503
 21
70.1334
  0
LINE
  8
0
 10
213.503
 20
70.1334
 11
213.847
 21
70.4655
  0
LINE
  8
0
 10
213.847
 20
70.4655
 11
214.213
 21
70.7729
  0
LINE
  8
0
 10
214.213
 20
70.7729
 11
214.6
 21
71.0539
  0
LINE
  8
0
 10
214.6
 20
71.0539
 11
215.006
 21
71.3073
  0
LINE
  8
0
 10
215.006
 20
71.3073
 11
215.428
 21
71.5317
  0
LINE
  8
0
 10
215.428
 20
71.5317
 11
215.865
 21
71.7262
  0
LINE
  8
0
 10
215.865
 20
71.7262
 11
216.314
 21
71.8897
  0
LINE
  8
0
 10
216.314
 20
71.8897
 11
216.773
 21
72.0215
  0
LINE
  8
0
 10
216.773
 20
72.0215
 11
217.241
 21
72.1209
  0
LINE
  8
0
 10
217.241
 20
72.1209
 11
217.715
 21
72.1875
  0
LINE
  8
0
 10
217.715
 20
72.1875
 11
218.192
 21
72.2208
  0
LINE
  8
0
 10
218.192
 20
72.2208
 11
218.67
 21
72.2208
  0
LINE
  8
0
 10
218.67
 20
72.2208
 11
219.147
 21
72.1875
  0
LINE
  8
0
 10
219.147
 20
72.1875
 11
219.62
 21
72.1209
  0
LINE
  8
0
 10
219.62
 20
72.1209
 11
220.088
 21
72.0215
  0
LINE
  8
0
 10
220.088
 20
72.0215
 11
220.547
 21
71.8897
  0
LINE
  8
0
 10
220.547
 20
71.8897
 11
220.997
 21
71.7262
  0
LINE
  8
0
 10
220.997
 20
71.7262
 11
221.434
 21
71.5317
  0
LINE
  8
0
 10
221.434
 20
71.5317
 11
221.856
 21
71.3073
  0
LINE
  8
0
 10
221.856
 20
71.3073
 11
222.261
 21
71.0539
  0
LINE
  8
0
 10
222.261
 20
71.0539
 11
222.648
 21
70.7729
  0
LINE
  8
0
 10
222.648
 20
70.7729
 11
223.014
 21
70.4655
  0
LINE
  8
0
 10
223.014
 20
70.4655
 11
223.358
 21
70.1334
  0
LINE
  8
0
 10
223.358
 20
70.1334
 11
223.678
 21
69.7781
  0
LINE
  8
0
 10
223.678
 20
69.7781
 11
223.972
 21
69.4013
  0
LINE
  8
0
 10
223.972
 20
69.4013
 11
224.24
 21
69.0049
  0
LINE
  8
0
 10
224.24
 20
69.0049
 11
224.479
 21
68.5909
  0
LINE
  8
0
 10
224.479
 20
68.5909
 11
224.688
 21
68.1611
  0
LINE
  8
0
 10
224.688
 20
68.1611
 11
224.868
 21
67.7178
  0
LINE
  8
0
 10
224.868
 20
67.7178
 11
225.015
 21
67.2631
  0
LINE
  8
0
 10
225.015
 20
67.2631
 11
225.131
 21
66.7992
  0
LINE
  8
0
 10
225.131
 20
66.7992
 11
225.214
 21
66.3283
  0
LINE
  8
0
 10
225.214
 20
66.3283
 11
225.264
 21
65.8528
  0
LINE
  8
0
 10
225.264
 20
65.8528
 11
225.281
 21
65.375
  0
LINE
  8
0
 10
225.281
 20
65.375
 11
225.264
 21
64.8972
  0
LINE
  8
0
 10
225.264
 20
64.8972
 11
225.214
 21
64.4217
  0
LINE
  8
0
 10
225.214
 20
64.4217
 11
225.131
 21
63.9508
  0
LINE
  8
0
 10
225.131
 20
63.9508
 11
225.015
 21
63.4869
  0
LINE
  8
0
 10
225.015
 20
63.4869
 11
224.868
 21
63.0322
  0
LINE
  8
0
 10
224.868
 20
63.0322
 11
224.688
 21
62.5889
  0
LINE
  8
0
 10
224.688
 20
62.5889
 11
224.479
 21
62.1591
  0
LINE
  8
0
 10
224.479
 20
62.1591
 11
224.24
 21
61.745
  0
LINE
  8
0
 10
224.24
 20
61.745
 11
223.972
 21
61.3487
  0
LINE
  8
0
 10
223.972
 20
61.3487
 11
223.678
 21
60.9719
  0
LINE
  8
0
 10
223.678
 20
60.9719
 11
223.358
 21
60.6166
  0
LINE
  8
0
 10
223.358
 20
60.6166
 11
223.014
 21
60.2845
  0
LINE
  8
0
 10
223.014
 20
60.2845
 11
222.648
 21
59.9771
  0
LINE
  8
0
 10
222.648
 20
59.9771
 11
222.261
 21
59.6961
  0
LINE
  8
0
 10
222.261
 20
59.6961
 11
221.856
 21
59.4427
  0
LINE
  8
0
 10
221.856
 20
59.4427
 11
221.434
 21
59.2182
  0
LINE
  8
0
 10
221.434
 20
59.2182
 11
220.997
 21
59.0238
  0
LINE
  8
0
 10
220.997
 20
59.0238
 11
220.547
 21
58.8603
  0
LINE
  8
0
 10
220.547
 20
58.8603
 11
220.088
 21
58.7285
  0
LINE
  8
0
 10
220.088
 20
58.7285
 11
219.62
 21
58.6291
  0
LINE
  8
0
 10
219.62
 20
58.6291
 11
219.147
 21
58.5625
  0
LINE
  8
0
 10
219.147
 20
58.5625
 11
218.67
 21
58.5292
  0
LINE
  8
0
 10
218.67
 20
58.5292
 11
218.192
 21
58.5292
  0
LINE
  8
0
 10
-22.1516
 20
-72.2208
 11
-22.6285
 21
-72.1875
  0
LINE
  8
0
 10
-22.6285
 20
-72.1875
 11
-23.102
 21
-72.1209
  0
LINE
  8
0
 10
-23.102
 20
-72.1209
 11
-23.5697
 21
-72.0215
  0
LINE
  8
0
 10
-23.5697
 20
-72.0215
 11
-24.0293
 21
-71.8897
  0
LINE
  8
0
 10
-24.0293
 20
-71.8897
 11
-24.4785
 21
-71.7262
  0
LINE
  8
0
 10
-24.4785
 20
-71.7262
 11
-24.9153
 21
-71.5317
  0
LINE
  8
0
 10
-24.9153
 20
-71.5317
 11
-25.3375
 21
-71.3073
  0
LINE
  8
0
 10
-25.3375
 20
-71.3073
 11
-25.743
 21
-71.0539
  0
LINE
  8
0
 10
-25.743
 20
-71.0539
 11
-26.1298
 21
-70.7729
  0
LINE
  8
0
 10
-26.1298
 20
-70.7729
 11
-26.496
 21
-70.4655
  0
LINE
  8
0
 10
-26.496
 20
-70.4655
 11
-26.84
 21
-70.1334
  0
LINE
  8
0
 10
-26.84
 20
-70.1334
 11
-27.1599
 21
-69.7781
  0
LINE
  8
0
 10
-27.1599
 20
-69.7781
 11
-27.4543
 21
-69.4013
  0
LINE
  8
0
 10
-27.4543
 20
-69.4013
 11
-27.7216
 21
-69.0049
  0
LINE
  8
0
 10
-27.7216
 20
-69.0049
 11
-27.9607
 21
-68.5909
  0
LINE
  8
0
 10
-27.9607
 20
-68.5909
 11
-28.1703
 21
-68.1611
  0
LINE
  8
0
 10
-28.1703
 20
-68.1611
 11
-28.3494
 21
-67.7178
  0
LINE
  8
0
 10
-28.3494
 20
-67.7178
 11
-28.4971
 21
-67.2631
  0
LINE
  8
0
 10
-28.4971
 20
-67.2631
 11
-28.6128
 21
-66.7992
  0
LINE
  8
0
 10
-28.6128
 20
-66.7992
 11
-28.6958
 21
-66.3283
  0
LINE
  8
0
 10
-28.6958
 20
-66.3283
 11
-28.7458
 21
-65.8528
  0
LINE
  8
0
 10
-28.7458
 20
-65.8528
 11
-28.7625
 21
-65.375
  0
LINE
  8
0
 10
-28.7625
 20
-65.375
 11
-28.7458
 21
-64.8972
  0
LINE
  8
0
 10
-28.7458
 20
-64.8972
 11
-28.6958
 21
-64.4217
  0
LINE
  8
0
 10
-28.6958
 20
-64.4217
 11
-28.6128
 21
-63.9508
  0
LINE
  8
0
 10
-28.6128
 20
-63.9508
 11
-28.4971
 21
-63.4869
  0
LINE
  8
0
 10
-28.4971
 20
-63.4869
 11
-28.3494
 21
-63.0322
  0
LINE
  8
0
 10
-28.3494
 20
-63.0322
 11
-28.1703
 21
-62.5889
  0
LINE
  8
0
 10
-28.1703
 20
-62.5889
 11
-27.9607
 21
-62.1591
  0
LINE
  8
0
 10
-27.9607
 20
-62.1591
 11
-27.7216
 21
-61.745
  0
LINE
  8
0
 10
-27.7216
 20
-61.745
 11
-27.4543
 21
-61.3487
  0
LINE
  8
0
 10
-27.4543
 20
-61.3487
 11
-27.1599
 21
-60.9719
  0
LINE
  8
0
 10
-27.1599
 20
-60.9719
 11
-26.84
 21
-60.6166
  0
LINE
  8
0
 10
-26.84
 20
-60.6166
 11
-26.496
 21
-60.2845
  0
LINE
  8
0
 10
-26.496
 20
-60.2845
 11
-26.1298
 21
-59.9771
  0
LINE
  8
0
 10
-26.1298
 20
-59.9771
 11
-25.743
 21
-59.6961
  0
LINE
  8
0
 10
-25.743
 20
-59.6961
 11
-25.3375
 21
-59.4427
  0
LINE
  8
0
 10
-25.3375
 20
-59.4427
 11
-24.9153
 21
-59.2182
  0
LINE
  8
0
 10
-24.9153
 20
-59.2182
 11
-24.4785
 21
-59.0238
  0
LINE
  8
0
 10
-24.4785
 20
-59.0238
 11
-24.0293
 21
-58.8603
  0
LINE
  8
0
 10
-24.0293
 20
-58.8603
 11
-23.5697
 21
-58.7285
  0
LINE
  8
0
 10
-23.5697
 20
-58.7285
 11
-23.102
 21
-58.6291
  0
LINE
  8
0
 10
-23.102
 20
-58.6291
 11
-22.6285
 21
-58.5625
  0
LINE
  8
0
 10
-22.6285
 20
-58.5625
 11
-22.1516
 21
-58.5292
  0
LINE
  8
0
 10
-22.1516
 20
-58.5292
 11
-21.6734
 21
-58.5292
  0
LINE
  8
0
 10
-21.6734
 20
-58.5292
 11
-21.1965
 21
-58.5625
  0
LINE
  8
0
 10
-21.1965
 20
-58.5625
 11
-20.723
 21
-58.6291
  0
LINE
  8
0
 10
-20.723
 20
-58.6291
 11
-20.2553
 21
-58.7285
  0
LINE
  8
0
 10
-20.2553
 20
-58.7285
 11
-19.7957
 21
-58.8603
  0
LINE
  8
0
 10
-19.7957
 20
-58.8603
 11
-19.3464
 21
-59.0238
  0
LINE
  8
0
 10
-19.3464
 20
-59.0238
 11
-18.9097
 21
-59.2182
  0
LINE
  8
0
 10
-18.9097
 20
-59.2182
 11
-18.4875
 21
-59.4427
  0
LINE
  8
0
 10
-18.4875
 20
-59.4427
 11
-18.082
 21
-59.6961
  0
LINE
  8
0
 10
-18.082
 20
-59.6961
 11
-17.6952
 21
-59.9771
  0
LINE
  8
0
 10
-17.6952
 20
-59.9771
 11
-17.3289
 21
-60.2845
  0
LINE
  8
0
 10
-17.3289
 20
-60.2845
 11
-16.985
 21
-60.6166
  0
LINE
  8
0
 10
-16.985
 20
-60.6166
 11
-16.6651
 21
-60.9719
  0
LINE
  8
0
 10
-16.6651
 20
-60.9719
 11
-16.3707
 21
-61.3487
  0
LINE
  8
0
 10
-16.3707
 20
-61.3487
 11
-16.1034
 21
-61.745
  0
LINE
  8
0
 10
-16.1034
 20
-61.745
 11
-15.8643
 21
-62.1591
  0
LINE
  8
0
 10
-15.8643
 20
-62.1591
 11
-15.6547
 21
-62.5889
  0
LINE
  8
0
 10
-15.6547
 20
-62.5889
 11
-15.4756
 21
-63.0322
  0
LINE
  8
0
 10
-15.4756
 20
-63.0322
 11
-15.3279
 21
-63.4869
  0
LINE
  8
0
 10
-15.3279
 20
-63.4869
 11
-15.2122
 21
-63.9508
  0
LINE
  8
0
 10
-15.2122
 20
-63.9508
 11
-15.1292
 21
-64.4217
  0
LINE
  8
0
 10
-15.1292
 20
-64.4217
 11
-15.0792
 21
-64.8972
  0
LINE
  8
0
 10
-15.0792
 20
-64.8972
 11
-15.0625
 21
-65.375
  0
LINE
  8
0
 10
-15.0625
 20
-65.375
 11
-15.0792
 21
-65.8528
  0
LINE
  8
0
 10
-15.0792
 20
-65.8528
 11
-15.1292
 21
-66.3283
  0
LINE
  8
0
 10
-15.1292
 20
-66.3283
 11
-15.2122
 21
-66.7992
  0
LINE
  8
0
 10
-15.2122
 20
-66.7992
 11
-15.3279
 21
-67.2631
  0
LINE
  8
0
 10
-15.3279
 20
-67.2631
 11
-15.4756
 21
-67.7178
  0
LINE
  8
0
 10
-15.4756
 20
-67.7178
 11
-15.6547
 21
-68.1611
  0
LINE
  8
0
 10
-15.6547
 20
-68.1611
 11
-15.8643
 21
-68.5909
  0
LINE
  8
0
 10
-15.8643
 20
-68.5909
 11
-16.1034
 21
-69.0049
  0
LINE
  8
0
 10
-16.1034
 20
-69.0049
 11
-16.3707
 21
-69.4013
  0
LINE
  8
0
 10
-16.3707
 20
-69.4013
 11
-16.6651
 21
-69.7781
  0
LINE
  8
0
 10
-16.6651
 20
-69.7781
 11
-16.985
 21
-70.1334
  0
LINE
  8
0
 10
-16.985
 20
-70.1334
 11
-17.3289
 21
-70.4655
  0
LINE
  8
0
 10
-17.3289
 20
-70.4655
 11
-17.6952
 21
-70.7729
  0
LINE
  8
0
 10
-17.6952
 20
-70.7729
 11
-18.082
 21
-71.0539
  0
LINE
  8
0
 10
-18.082
 20
-71.0539
 11
-18.4875
 21
-71.3073
  0
LINE
  8
0
 10
-18.4875
 20
-71.3073
 11
-18.9097
 21
-71.5317
  0
LINE
  8
0
 10
-18.9097
 20
-71.5317
 11
-19.3464
 21
-71.7262
  0
LINE
  8
0
 10
-19.3464
 20
-71.7262
 11
-19.7957
 21
-71.8897
  0
LINE
  8
0
 10
-19.7957
 20
-71.8897
 11
-20.2553
 21
-72.0215
  0
LINE
  8
0
 10
-20.2553
 20
-72.0215
 11
-20.723
 21
-72.1209
  0
LINE
  8
0
 10
-20.723
 20
-72.1209
 11
-21.1965
 21
-72.1875
  0
LINE
  8
0
 10
-21.1965
 20
-72.1875
 11
-21.6734
 21
-72.2208
  0
LINE
  8
0
 10
-21.6734
 20
-72.2208
 11
-22.1516
 21
-72.2208
  0
LINE
  8
0
 10
218.192
 20
-72.2208
 11
217.715
 21
-72.1875
  0
LINE
  8
0
 10
217.715
 20
-72.1875
 11
217.241
 21
-72.1209
  0
LINE
  8
0
 10
217.241
 20
-72.1209
 11
216.773
 21
-72.0215
  0
LINE
  8
0
 10
216.773
 20
-72.0215
 11
216.314
 21
-71.8897
  0
LINE
  8
0
 10
216.314
 20
-71.8897
 11
215.865
 21
-71.7262
  0
LINE
  8
0
 10
215.865
 20
-71.7262
 11
215.428
 21
-71.5317
  0
LINE
  8
0
 10
215.428
 20
-71.5317
 11
215.006
 21
-71.3073
  0
LINE
  8
0
 10
215.006
 20
-71.3073
 11
214.6
 21
-71.0539
  0
LINE
  8
0
 10
214.6
 20
-71.0539
 11
214.213
 21
-70.7729
  0
LINE
  8
0
 10
214.213
 20
-70.7729
 11
213.847
 21
-70.4655
  0
LINE
  8
0
 10
213.847
 20
-70.4655
 11
213.503
 21
-70.1334
  0
LINE
  8
0
 10
213.503
 20
-70.1334
 11
213.183
 21
-69.7781
  0
LINE
  8
0
 10
213.183
 20
-69.7781
 11
212.889
 21
-69.4013
  0
LINE
  8
0
 10
212.889
 20
-69.4013
 11
212.622
 21
-69.0049
  0
LINE
  8
0
 10
212.622
 20
-69.0049
 11
212.382
 21
-68.5909
  0
LINE
  8
0
 10
212.382
 20
-68.5909
 11
212.173
 21
-68.1611
  0
LINE
  8
0
 10
212.173
 20
-68.1611
 11
211.994
 21
-67.7178
  0
LINE
  8
0
 10
211.994
 20
-67.7178
 11
211.846
 21
-67.2631
  0
LINE
  8
0
 10
211.846
 20
-67.2631
 11
211.73
 21
-66.7992
  0
LINE
  8
0
 10
211.73
 20
-66.7992
 11
211.647
 21
-66.3283
  0
LINE
  8
0
 10
211.647
 20
-66.3283
 11
211.597
 21
-65.8528
  0
LINE
  8
0
 10
211.597
 20
-65.8528
 11
211.581
 21
-65.375
  0
LINE
  8
0
 10
211.581
 20
-65.375
 11
211.597
 21
-64.8972
  0
LINE
  8
0
 10
211.597
 20
-64.8972
 11
211.647
 21
-64.4217
  0
LINE
  8
0
 10
211.647
 20
-64.4217
 11
211.73
 21
-63.9508
  0
LINE
  8
0
 10
211.73
 20
-63.9508
 11
211.846
 21
-63.4869
  0
LINE
  8
0
 10
211.846
 20
-63.4869
 11
211.994
 21
-63.0322
  0
LINE
  8
0
 10
211.994
 20
-63.0322
 11
212.173
 21
-62.5889
  0
LINE
  8
0
 10
212.173
 20
-62.5889
 11
212.382
 21
-62.1591
  0
LINE
  8
0
 10
212.382
 20
-62.1591
 11
212.622
 21
-61.745
  0
LINE
  8
0
 10
212.622
 20
-61.745
 11
212.889
 21
-61.3487
  0
LINE
  8
0
 10
212.889
 20
-61.3487
 11
213.183
 21
-60.9719
  0
LINE
  8
0
 10
213.183
 20
-60.9719
 11
213.503
 21
-60.6166
  0
LINE
  8
0
 10
213.503
 20
-60.6166
 11
213.847
 21
-60.2845
  0
LINE
  8
0
 10
213.847
 20
-60.2845
 11
214.213
 21
-59.9771
  0
LINE
  8
0
 10
214.213
 20
-59.9771
 11
214.6
 21
-59.6961
  0
LINE
  8
0
 10
214.6
 20
-59.6961
 11
215.006
 21
-59.4427
  0
LINE
  8
0
 10
215.006
 20
-59.4427
 11
215.428
 21
-59.2182
  0
LINE
  8
0
 10
215.428
 20
-59.2182
 11
215.865
 21
-59.0238
  0
LINE
  8
0
 10
215.865
 20
-59.0238
 11
216.314
 21
-58.8603
  0
LINE
  8
0
 10
216.314
 20
-58.8603
 11
216.773
 21
-58.7285
  0
LINE
  8
0
 10
216.773
 20
-58.7285
 11
217.241
 21
-58.6291
  0
LINE
  8
0
 10
217.241
 20
-58.6291
 11
217.715
 21
-58.5625
  0
LINE
  8
0
 10
217.715
 20
-58.5625
 11
218.192
 21
-58.5292
  0
LINE
  8
0
 10
218.192
 20
-58.5292
 11
218.67
 21
-58.5292
  0
LINE
  8
0
 10
218.67
 20
-58.5292
 11
219.147
 21
-58.5625
  0
LINE
  8
0
 10
219.147
 20
-58.5625
 11
219.62
 21
-58.6291
  0
LINE
  8
0
 10
219.62
 20
-58.6291
 11
220.088
 21
-58.7285
  0
LINE
  8
0
 10
220.088
 20
-58.7285
 11
220.547
 21
-58.8603
  0
LINE
  8
0
 10
220.547
 20
-58.8603
 11
220.997
 21
-59.0238
  0
LINE
  8
0
 10
220.997
 20
-59.0238
 11
221.434
 21
-59.2182
  0
LINE
  8
0
 10
221.434
 20
-59.2182
 11
221.856
 21
-59.4427
  0
LINE
  8
0
 10
221.856
 20
-59.4427
 11
222.261
 21
-59.6961
  0
LINE
  8
0
 10
222.261
 20
-59.6961
 11
222.648
 21
-59.9771
  0
LINE
  8
0
 10
222.648
 20
-59.9771
 11
223.014
 21
-60.2845
  0
LINE
  8
0
 10
223.014
 20
-60.2845
 11
223.358
 21
-60.6166
  0
LINE
  8
0
 10
223.358
 20
-60.6166
 11
223.678
 21
-60.9719
  0
LINE
  8
0
 10
223.678
 20
-60.9719
 11
223.972
 21
-61.3487
  0
LINE
  8
0
 10
223.972
 20
-61.3487
 11
224.24
 21
-61.745
  0
LINE
  8
0
 10
224.24
 20
-61.745
 11
224.479
 21
-62.1591
  0
LINE
  8
0
 10
224.479
 20
-62.1591
 11
224.688
 21
-62.5889
  0
LINE
  8
0
 10
224.688
 20
-62.5889
 11
224.868
 21
-63.0322
  0
LINE
  8
0
 10
224.868
 20
-63.0322
 11
225.015
 21
-63.4869
  0
LINE
  8
0
 10
225.015
 20
-63.4869
 11
225.131
 21
-63.9508
  0
LINE
  8
0
 10
225.131
 20
-63.9508
 11
225.214
 21
-64.4217
  0
LINE
  8
0
 10
225.214
 20
-64.4217
 11
225.264
 21
-64.8972
  0
LINE
  8
0
 10
225.264
 20
-64.8972
 11
225.281
 21
-65.375
  0
LINE
  8
0
 10
225.281
 20
-65.375
 11
225.264
 21
-65.8528
  0
LINE
  8
0
 10
225.264
 20
-65.8528
 11
225.214
 21
-66.3283
  0
LINE
  8
0
 10
225.214
 20
-66.3283
 11
225.131
 21
-66.7992
  0
LINE
  8
0
 10
225.131
 20
-66.7992
 11
225.015
 21
-67.2631
  0
LINE
  8
0
 10
225.015
 20
-67.2631
 11
224.868
 21
-67.7178
  0
LINE
  8
0
 10
224.868
 20
-67.7178
 11
224.688
 21
-68.1611
  0
LINE
  8
0
 10
224.688
 20
-68.1611
 11
224.479
 21
-68.5909
  0
LINE
  8
0
 10
224.479
 20
-68.5909
 11
224.24
 21
-69.0049
  0
LINE
  8
0
 10
224.24
 20
-69.0049
 11
223.972
 21
-69.4013
  0
LINE
  8
0
 10
223.972
 20
-69.4013
 11
223.678
 21
-69.7781
  0
LINE
  8
0
 10
223.678
 20
-69.7781
 11
223.358
 21
-70.1334
  0
LINE
  8
0
 10
223.358
 20
-70.1334
 11
223.014
 21
-70.4655
  0
LINE
  8
0
 10
223.014
 20
-70.4655
 11
222.648
 21
-70.7729
  0
LINE
  8
0
 10
222.648
 20
-70.7729
 11
222.261
 21
-71.0539
  0
LINE
  8
0
 10
222.261
 20
-71.0539
 11
221.856
 21
-71.3073
  0
LINE
  8
0
 10
221.856
 20
-71.3073
 11
221.434
 21
-71.5317
  0
LINE
  8
0
 10
221.434
 20
-71.5317
 11
220.997
 21
-71.7262
  0
LINE
  8
0
 10
220.997
 20
-71.7262
 11
220.547
 21
-71.8897
  0
LINE
  8
0
 10
220.547
 20
-71.8897
 11
220.088
 21
-72.0215
  0
LINE
  8
0
 10
220.088
 20
-72.0215
 11
219.62
 21
-72.1209
  0
LINE
  8
0
 10
219.62
 20
-72.1209
 11
219.147
 21
-72.1875
  0
LINE
  8
0
 10
219.147
 20
-72.1875
 11
218.67
 21
-72.2208
  0
LINE
  8
0
 10
218.67
 20
-72.2208
 11
218.192
 21
-72.2208
  0
ENDSEC
  0
SECTION
  2
OBJECTS
  0
DICTIONARY
  0
ENDSEC
  0
EOF
