  0
SECTION
  2
BLOCKS
  0
ENDSEC
  0
SECTION
  2
ENTITIES
  0
LINE
  8
0
 10
219.994
 20
67.3937
 11
-196.597
 21
67.3937
  0
LINE
  8
0
 10
-196.597
 20
67.3937
 11
-196.597
 21
-191.219
  0
LINE
  8
0
 10
-196.597
 20
-191.219
 11
219.994
 21
-191.219
  0
LINE
  8
0
 10
219.994
 20
-191.219
 11
219.994
 21
67.3937
  0
LINE
  8
0
 10
-182.347
 20
48.5215
 11
-182.658
 21
48.5432
  0
LINE
  8
0
 10
-182.658
 20
48.5432
 11
-182.967
 21
48.5866
  0
LINE
  8
0
 10
-182.967
 20
48.5866
 11
-183.272
 21
48.6515
  0
LINE
  8
0
 10
-183.272
 20
48.6515
 11
-183.572
 21
48.7375
  0
LINE
  8
0
 10
-183.572
 20
48.7375
 11
-183.865
 21
48.8441
  0
LINE
  8
0
 10
-183.865
 20
48.8441
 11
-184.15
 21
48.971
  0
LINE
  8
0
 10
-184.15
 20
48.971
 11
-184.425
 21
49.1174
  0
LINE
  8
0
 10
-184.425
 20
49.1174
 11
-184.69
 21
49.2827
  0
LINE
  8
0
 10
-184.69
 20
49.2827
 11
-184.942
 21
49.4661
  0
LINE
  8
0
 10
-184.942
 20
49.4661
 11
-185.181
 21
49.6666
  0
LINE
  8
0
 10
-185.181
 20
49.6666
 11
-185.405
 21
49.8832
  0
LINE
  8
0
 10
-185.405
 20
49.8832
 11
-185.614
 21
50.115
  0
LINE
  8
0
 10
-185.614
 20
50.115
 11
-185.806
 21
50.3608
  0
LINE
  8
0
 10
-185.806
 20
50.3608
 11
-185.981
 21
50.6194
  0
LINE
  8
0
 10
-185.981
 20
50.6194
 11
-186.137
 21
50.8895
  0
LINE
  8
0
 10
-186.137
 20
50.8895
 11
-186.273
 21
51.1699
  0
LINE
  8
0
 10
-186.273
 20
51.1699
 11
-186.39
 21
51.4591
  0
LINE
  8
0
 10
-186.39
 20
51.4591
 11
-186.487
 21
51.7557
  0
LINE
  8
0
 10
-186.487
 20
51.7557
 11
-186.562
 21
52.0584
  0
LINE
  8
0
 10
-186.562
 20
52.0584
 11
-186.616
 21
52.3656
  0
LINE
  8
0
 10
-186.616
 20
52.3656
 11
-186.649
 21
52.6758
  0
LINE
  8
0
 10
-186.649
 20
52.6758
 11
-186.66
 21
52.9875
  0
LINE
  8
0
 10
-186.66
 20
52.9875
 11
-186.649
 21
53.2992
  0
LINE
  8
0
 10
-186.649
 20
53.2992
 11
-186.616
 21
53.6094
  0
LINE
  8
0
 10
-186.616
 20
53.6094
 11
-186.562
 21
53.9166
  0
LINE
  8
0
 10
-186.562
 20
53.9166
 11
-186.487
 21
54.2193
  0
LINE
  8
0
 10
-186.487
 20
54.2193
 11
-186.39
 21
54.5159
  0
LINE
  8
0
 10
-186.39
 20
54.5159
 11
-186.273
 21
54.8051
  0
LINE
  8
0
 10
-186.273
 20
54.8051
 11
-186.137
 21
55.0854
  0
LINE
  8
0
 10
-186.137
 20
55.0854
 11
-185.981
 21
55.3556
  0
LINE
  8
0
 10
-185.981
 20
55.3556
 11
-185.806
 21
55.6142
  0
LINE
  8
0
 10
-185.806
 20
55.6142
 11
-185.614
 21
55.86
  0
LINE
  8
0
 10
-185.614
 20
55.86
 11
-185.405
 21
56.0918
  0
LINE
  8
0
 10
-185.405
 20
56.0918
 11
-185.181
 21
56.3084
  0
LINE
  8
0
 10
-185.181
 20
56.3084
 11
-184.942
 21
56.5089
  0
LINE
  8
0
 10
-184.942
 20
56.5089
 11
-184.69
 21
56.6923
  0
LINE
  8
0
 10
-184.69
 20
56.6923
 11
-184.425
 21
56.8575
  0
LINE
  8
0
 10
-184.425
 20
56.8575
 11
-184.15
 21
57.004
  0
LINE
  8
0
 10
-184.15
 20
57.004
 11
-183.865
 21
57.1308
  0
LINE
  8
0
 10
-183.865
 20
57.1308
 11
-183.572
 21
57.2375
  0
LINE
  8
0
 10
-183.572
 20
57.2375
 11
-183.272
 21
57.3235
  0
LINE
  8
0
 10
-183.272
 20
57.3235
 11
-182.967
 21
57.3884
  0
LINE
  8
0
 10
-182.967
 20
57.3884
 11
-182.658
 21
57.4318
  0
LINE
  8
0
 10
-182.658
 20
57.4318
 11
-182.347
 21
57.4535
  0
LINE
  8
0
 10
-182.347
 20
57.4535
 11
-182.035
 21
57.4535
  0
LINE
  8
0
 10
-182.035
 20
57.4535
 11
-181.724
 21
57.4318
  0
LINE
  8
0
 10
-181.724
 20
57.4318
 11
-181.415
 21
57.3884
  0
LINE
  8
0
 10
-181.415
 20
57.3884
 11
-181.11
 21
57.3235
  0
LINE
  8
0
 10
-181.11
 20
57.3235
 11
-180.81
 21
57.2375
  0
LINE
  8
0
 10
-180.81
 20
57.2375
 11
-180.517
 21
57.1308
  0
LINE
  8
0
 10
-180.517
 20
57.1308
 11
-180.232
 21
57.004
  0
LINE
  8
0
 10
-180.232
 20
57.004
 11
-179.956
 21
56.8575
  0
LINE
  8
0
 10
-179.956
 20
56.8575
 11
-179.692
 21
56.6923
  0
LINE
  8
0
 10
-179.692
 20
56.6923
 11
-179.44
 21
56.5089
  0
LINE
  8
0
 10
-179.44
 20
56.5089
 11
-179.201
 21
56.3084
  0
LINE
  8
0
 10
-179.201
 20
56.3084
 11
-178.976
 21
56.0918
  0
LINE
  8
0
 10
-178.976
 20
56.0918
 11
-178.768
 21
55.86
  0
LINE
  8
0
 10
-178.768
 20
55.86
 11
-178.576
 21
55.6142
  0
LINE
  8
0
 10
-178.576
 20
55.6142
 11
-178.401
 21
55.3556
  0
LINE
  8
0
 10
-178.401
 20
55.3556
 11
-178.245
 21
55.0854
  0
LINE
  8
0
 10
-178.245
 20
55.0854
 11
-178.108
 21
54.8051
  0
LINE
  8
0
 10
-178.108
 20
54.8051
 11
-177.992
 21
54.5159
  0
LINE
  8
0
 10
-177.992
 20
54.5159
 11
-177.895
 21
54.2193
  0
LINE
  8
0
 10
-177.895
 20
54.2193
 11
-177.82
 21
53.9166
  0
LINE
  8
0
 10
-177.82
 20
53.9166
 11
-177.766
 21
53.6094
  0
LINE
  8
0
 10
-177.766
 20
53.6094
 11
-177.733
 21
53.2992
  0
LINE
  8
0
 10
-177.733
 20
53.2992
 11
-177.722
 21
52.9875
  0
LINE
  8
0
 10
-177.722
 20
52.9875
 11
-177.733
 21
52.6758
  0
LINE
  8
0
 10
-177.733
 20
52.6758
 11
-177.766
 21
52.3656
  0
LINE
  8
0
 10
-177.766
 20
52.3656
 11
-177.82
 21
52.0584
  0
LINE
  8
0
 10
-177.82
 20
52.0584
 11
-177.895
 21
51.7557
  0
LINE
  8
0
 10
-177.895
 20
51.7557
 11
-177.992
 21
51.4591
  0
LINE
  8
0
 10
-177.992
 20
51.4591
 11
-178.108
 21
51.1699
  0
LINE
  8
0
 10
-178.108
 20
51.1699
 11
-178.245
 21
50.8895
  0
LINE
  8
0
 10
-178.245
 20
50.8895
 11
-178.401
 21
50.6194
  0
LINE
  8
0
 10
-178.401
 20
50.6194
 11
-178.576
 21
50.3608
  0
LINE
  8
0
 10
-178.576
 20
50.3608
 11
-178.768
 21
50.115
  0
LINE
  8
0
 10
-178.768
 20
50.115
 11
-178.976
 21
49.8832
  0
LINE
  8
0
 10
-178.976
 20
49.8832
 11
-179.201
 21
49.6666
  0
LINE
  8
0
 10
-179.201
 20
49.6666
 11
-179.44
 21
49.4661
  0
LINE
  8
0
 10
-179.44
 20
49.4661
 11
-179.692
 21
49.2827
  0
LINE
  8
0
 10
-179.692
 20
49.2827
 11
-179.956
 21
49.1174
  0
LINE
  8
0
 10
-179.956
 20
49.1174
 11
-180.232
 21
48.971
  0
LINE
  8
0
 10
-180.232
 20
48.971
 11
-180.517
 21
48.8441
  0
LINE
  8
0
 10
-180.517
 20
48.8441
 11
-180.81
 21
48.7375
  0
LINE
  8
0
 10
-180.81
 20
48.7375
 11
-181.11
 21
48.6515
  0
LINE
  8
0
 10
-181.11
 20
48.6515
 11
-181.415
 21
48.5866
  0
LINE
  8
0
 10
-181.415
 20
48.5866
 11
-181.724
 21
48.5432
  0
LINE
  8
0
 10
-181.724
 20
48.5432
 11
-182.035
 21
48.5215
  0
LINE
  8
0
 10
-182.035
 20
48.5215
 11
-182.347
 21
48.5215
  0
LINE
  8
0
 10
205.432
 20
48.5215
 11
205.12
 21
48.5432
  0
LINE
  8
0
 10
205.12
 20
48.5432
 11
204.812
 21
48.5866
  0
LINE
  8
0
 10
204.812
 20
48.5866
 11
204.506
 21
48.6515
  0
LINE
  8
0
 10
204.506
 20
48.6515
 11
204.207
 21
48.7375
  0
LINE
  8
0
 10
204.207
 20
48.7375
 11
203.913
 21
48.8441
  0
LINE
  8
0
 10
203.913
 20
48.8441
 11
203.629
 21
48.971
  0
LINE
  8
0
 10
203.629
 20
48.971
 11
203.353
 21
49.1174
  0
LINE
  8
0
 10
203.353
 20
49.1174
 11
203.089
 21
49.2827
  0
LINE
  8
0
 10
203.089
 20
49.2827
 11
202.836
 21
49.4661
  0
LINE
  8
0
 10
202.836
 20
49.4661
 11
202.597
 21
49.6666
  0
LINE
  8
0
 10
202.597
 20
49.6666
 11
202.373
 21
49.8832
  0
LINE
  8
0
 10
202.373
 20
49.8832
 11
202.164
 21
50.115
  0
LINE
  8
0
 10
202.164
 20
50.115
 11
201.972
 21
50.3608
  0
LINE
  8
0
 10
201.972
 20
50.3608
 11
201.798
 21
50.6194
  0
LINE
  8
0
 10
201.798
 20
50.6194
 11
201.642
 21
50.8895
  0
LINE
  8
0
 10
201.642
 20
50.8895
 11
201.505
 21
51.1699
  0
LINE
  8
0
 10
201.505
 20
51.1699
 11
201.388
 21
51.4591
  0
LINE
  8
0
 10
201.388
 20
51.4591
 11
201.292
 21
51.7557
  0
LINE
  8
0
 10
201.292
 20
51.7557
 11
201.216
 21
52.0584
  0
LINE
  8
0
 10
201.216
 20
52.0584
 11
201.162
 21
52.3656
  0
LINE
  8
0
 10
201.162
 20
52.3656
 11
201.13
 21
52.6758
  0
LINE
  8
0
 10
201.13
 20
52.6758
 11
201.119
 21
52.9875
  0
LINE
  8
0
 10
201.119
 20
52.9875
 11
201.13
 21
53.2992
  0
LINE
  8
0
 10
201.13
 20
53.2992
 11
201.162
 21
53.6094
  0
LINE
  8
0
 10
201.162
 20
53.6094
 11
201.216
 21
53.9166
  0
LINE
  8
0
 10
201.216
 20
53.9166
 11
201.292
 21
54.2193
  0
LINE
  8
0
 10
201.292
 20
54.2193
 11
201.388
 21
54.5159
  0
LINE
  8
0
 10
201.388
 20
54.5159
 11
201.505
 21
54.8051
  0
LINE
  8
0
 10
201.505
 20
54.8051
 11
201.642
 21
55.0854
  0
LINE
  8
0
 10
201.642
 20
55.0854
 11
201.798
 21
55.3556
  0
LINE
  8
0
 10
201.798
 20
55.3556
 11
201.972
 21
55.6142
  0
LINE
  8
0
 10
201.972
 20
55.6142
 11
202.164
 21
55.86
  0
LINE
  8
0
 10
202.164
 20
55.86
 11
202.373
 21
56.0918
  0
LINE
  8
0
 10
202.373
 20
56.0918
 11
202.597
 21
56.3084
  0
LINE
  8
0
 10
202.597
 20
56.3084
 11
202.836
 21
56.5089
  0
LINE
  8
0
 10
202.836
 20
56.5089
 11
203.089
 21
56.6923
  0
LINE
  8
0
 10
203.089
 20
56.6923
 11
203.353
 21
56.8575
  0
LINE
  8
0
 10
203.353
 20
56.8575
 11
203.629
 21
57.004
  0
LINE
  8
0
 10
203.629
 20
57.004
 11
203.913
 21
57.1308
  0
LINE
  8
0
 10
203.913
 20
57.1308
 11
204.207
 21
57.2375
  0
LINE
  8
0
 10
204.207
 20
57.2375
 11
204.506
 21
57.3235
  0
LINE
  8
0
 10
204.506
 20
57.3235
 11
204.812
 21
57.3884
  0
LINE
  8
0
 10
204.812
 20
57.3884
 11
205.12
 21
57.4318
  0
LINE
  8
0
 10
205.12
 20
57.4318
 11
205.432
 21
57.4535
  0
LINE
  8
0
 10
205.432
 20
57.4535
 11
205.743
 21
57.4535
  0
LINE
  8
0
 10
205.743
 20
57.4535
 11
206.055
 21
57.4318
  0
LINE
  8
0
 10
206.055
 20
57.4318
 11
206.363
 21
57.3884
  0
LINE
  8
0
 10
206.363
 20
57.3884
 11
206.669
 21
57.3235
  0
LINE
  8
0
 10
206.669
 20
57.3235
 11
206.968
 21
57.2375
  0
LINE
  8
0
 10
206.968
 20
57.2375
 11
207.262
 21
57.1308
  0
LINE
  8
0
 10
207.262
 20
57.1308
 11
207.546
 21
57.004
  0
LINE
  8
0
 10
207.546
 20
57.004
 11
207.822
 21
56.8575
  0
LINE
  8
0
 10
207.822
 20
56.8575
 11
208.086
 21
56.6923
  0
LINE
  8
0
 10
208.086
 20
56.6923
 11
208.339
 21
56.5089
  0
LINE
  8
0
 10
208.339
 20
56.5089
 11
208.578
 21
56.3084
  0
LINE
  8
0
 10
208.578
 20
56.3084
 11
208.802
 21
56.0918
  0
LINE
  8
0
 10
208.802
 20
56.0918
 11
209.011
 21
55.86
  0
LINE
  8
0
 10
209.011
 20
55.86
 11
209.203
 21
55.6142
  0
LINE
  8
0
 10
209.203
 20
55.6142
 11
209.377
 21
55.3556
  0
LINE
  8
0
 10
209.377
 20
55.3556
 11
209.533
 21
55.0854
  0
LINE
  8
0
 10
209.533
 20
55.0854
 11
209.67
 21
54.8051
  0
LINE
  8
0
 10
209.67
 20
54.8051
 11
209.787
 21
54.5159
  0
LINE
  8
0
 10
209.787
 20
54.5159
 11
209.883
 21
54.2193
  0
LINE
  8
0
 10
209.883
 20
54.2193
 11
209.959
 21
53.9166
  0
LINE
  8
0
 10
209.959
 20
53.9166
 11
210.013
 21
53.6094
  0
LINE
  8
0
 10
210.013
 20
53.6094
 11
210.045
 21
53.2992
  0
LINE
  8
0
 10
210.045
 20
53.2992
 11
210.056
 21
52.9875
  0
LINE
  8
0
 10
210.056
 20
52.9875
 11
210.045
 21
52.6758
  0
LINE
  8
0
 10
210.045
 20
52.6758
 11
210.013
 21
52.3656
  0
LINE
  8
0
 10
210.013
 20
52.3656
 11
209.959
 21
52.0584
  0
LINE
  8
0
 10
209.959
 20
52.0584
 11
209.883
 21
51.7557
  0
LINE
  8
0
 10
209.883
 20
51.7557
 11
209.787
 21
51.4591
  0
LINE
  8
0
 10
209.787
 20
51.4591
 11
209.67
 21
51.1699
  0
LINE
  8
0
 10
209.67
 20
51.1699
 11
209.533
 21
50.8895
  0
LINE
  8
0
 10
209.533
 20
50.8895
 11
209.377
 21
50.6194
  0
LINE
  8
0
 10
209.377
 20
50.6194
 11
209.203
 21
50.3608
  0
LINE
  8
0
 10
209.203
 20
50.3608
 11
209.011
 21
50.115
  0
LINE
  8
0
 10
209.011
 20
50.115
 11
208.802
 21
49.8832
  0
LINE
  8
0
 10
208.802
 20
49.8832
 11
208.578
 21
49.6666
  0
LINE
  8
0
 10
208.578
 20
49.6666
 11
208.339
 21
49.4661
  0
LINE
  8
0
 10
208.339
 20
49.4661
 11
208.086
 21
49.2827
  0
LINE
  8
0
 10
208.086
 20
49.2827
 11
207.822
 21
49.1174
  0
LINE
  8
0
 10
207.822
 20
49.1174
 11
207.546
 21
48.971
  0
LINE
  8
0
 10
207.546
 20
48.971
 11
207.262
 21
48.8441
  0
LINE
  8
0
 10
207.262
 20
48.8441
 11
206.968
 21
48.7375
  0
LINE
  8
0
 10
206.968
 20
48.7375
 11
206.669
 21
48.6515
  0
LINE
  8
0
 10
206.669
 20
48.6515
 11
206.363
 21
48.5866
  0
LINE
  8
0
 10
206.363
 20
48.5866
 11
206.055
 21
48.5432
  0
LINE
  8
0
 10
206.055
 20
48.5432
 11
205.743
 21
48.5215
  0
LINE
  8
0
 10
205.743
 20
48.5215
 11
205.432
 21
48.5215
  0
LINE
  8
0
 10
-182.347
 20
-181.279
 11
-182.658
 21
-181.257
  0
LINE
  8
0
 10
-182.658
 20
-181.257
 11
-182.967
 21
-181.213
  0
LINE
  8
0
 10
-182.967
 20
-181.213
 11
-183.272
 21
-181.148
  0
LINE
  8
0
 10
-183.272
 20
-181.148
 11
-183.572
 21
-181.063
  0
LINE
  8
0
 10
-183.572
 20
-181.063
 11
-183.865
 21
-180.956
  0
LINE
  8
0
 10
-183.865
 20
-180.956
 11
-184.15
 21
-180.829
  0
LINE
  8
0
 10
-184.15
 20
-180.829
 11
-184.425
 21
-180.683
  0
LINE
  8
0
 10
-184.425
 20
-180.683
 11
-184.69
 21
-180.517
  0
LINE
  8
0
 10
-184.69
 20
-180.517
 11
-184.942
 21
-180.334
  0
LINE
  8
0
 10
-184.942
 20
-180.334
 11
-185.181
 21
-180.133
  0
LINE
  8
0
 10
-185.181
 20
-180.133
 11
-185.405
 21
-179.917
  0
LINE
  8
0
 10
-185.405
 20
-179.917
 11
-185.614
 21
-179.685
  0
LINE
  8
0
 10
-185.614
 20
-179.685
 11
-185.806
 21
-179.439
  0
LINE
  8
0
 10
-185.806
 20
-179.439
 11
-185.981
 21
-179.181
  0
LINE
  8
0
 10
-185.981
 20
-179.181
 11
-186.137
 21
-178.91
  0
LINE
  8
0
 10
-186.137
 20
-178.91
 11
-186.273
 21
-178.63
  0
LINE
  8
0
 10
-186.273
 20
-178.63
 11
-186.39
 21
-178.341
  0
LINE
  8
0
 10
-186.39
 20
-178.341
 11
-186.487
 21
-178.044
  0
LINE
  8
0
 10
-186.487
 20
-178.044
 11
-186.562
 21
-177.742
  0
LINE
  8
0
 10
-186.562
 20
-177.742
 11
-186.616
 21
-177.434
  0
LINE
  8
0
 10
-186.616
 20
-177.434
 11
-186.649
 21
-177.124
  0
LINE
  8
0
 10
-186.649
 20
-177.124
 11
-186.66
 21
-176.812
  0
LINE
  8
0
 10
-186.66
 20
-176.812
 11
-186.649
 21
-176.501
  0
LINE
  8
0
 10
-186.649
 20
-176.501
 11
-186.616
 21
-176.191
  0
LINE
  8
0
 10
-186.616
 20
-176.191
 11
-186.562
 21
-175.883
  0
LINE
  8
0
 10
-186.562
 20
-175.883
 11
-186.487
 21
-175.581
  0
LINE
  8
0
 10
-186.487
 20
-175.581
 11
-186.39
 21
-175.284
  0
LINE
  8
0
 10
-186.39
 20
-175.284
 11
-186.273
 21
-174.995
  0
LINE
  8
0
 10
-186.273
 20
-174.995
 11
-186.137
 21
-174.715
  0
LINE
  8
0
 10
-186.137
 20
-174.715
 11
-185.981
 21
-174.444
  0
LINE
  8
0
 10
-185.981
 20
-174.444
 11
-185.806
 21
-174.186
  0
LINE
  8
0
 10
-185.806
 20
-174.186
 11
-185.614
 21
-173.94
  0
LINE
  8
0
 10
-185.614
 20
-173.94
 11
-185.405
 21
-173.708
  0
LINE
  8
0
 10
-185.405
 20
-173.708
 11
-185.181
 21
-173.492
  0
LINE
  8
0
 10
-185.181
 20
-173.492
 11
-184.942
 21
-173.291
  0
LINE
  8
0
 10
-184.942
 20
-173.291
 11
-184.69
 21
-173.108
  0
LINE
  8
0
 10
-184.69
 20
-173.108
 11
-184.425
 21
-172.942
  0
LINE
  8
0
 10
-184.425
 20
-172.942
 11
-184.15
 21
-172.796
  0
LINE
  8
0
 10
-184.15
 20
-172.796
 11
-183.865
 21
-172.669
  0
LINE
  8
0
 10
-183.865
 20
-172.669
 11
-183.572
 21
-172.562
  0
LINE
  8
0
 10
-183.572
 20
-172.562
 11
-183.272
 21
-172.476
  0
LINE
  8
0
 10
-183.272
 20
-172.476
 11
-182.967
 21
-172.412
  0
LINE
  8
0
 10
-182.967
 20
-172.412
 11
-182.658
 21
-172.368
  0
LINE
  8
0
 10
-182.658
 20
-172.368
 11
-182.347
 21
-172.346
  0
LINE
  8
0
 10
-182.347
 20
-172.346
 11
-182.035
 21
-172.346
  0
LINE
  8
0
 10
-182.035
 20
-172.346
 11
-181.724
 21
-172.368
  0
LINE
  8
0
 10
-181.724
 20
-172.368
 11
-181.415
 21
-172.412
  0
LINE
  8
0
 10
-181.415
 20
-172.412
 11
-181.11
 21
-172.476
  0
LINE
  8
0
 10
-181.11
 20
-172.476
 11
-180.81
 21
-172.562
  0
LINE
  8
0
 10
-180.81
 20
-172.562
 11
-180.517
 21
-172.669
  0
LINE
  8
0
 10
-180.517
 20
-172.669
 11
-180.232
 21
-172.796
  0
LINE
  8
0
 10
-180.232
 20
-172.796
 11
-179.956
 21
-172.942
  0
LINE
  8
0
 10
-179.956
 20
-172.942
 11
-179.692
 21
-173.108
  0
LINE
  8
0
 10
-179.692
 20
-173.108
 11
-179.44
 21
-173.291
  0
LINE
  8
0
 10
-179.44
 20
-173.291
 11
-179.201
 21
-173.492
  0
LINE
  8
0
 10
-179.201
 20
-173.492
 11
-178.976
 21
-173.708
  0
LINE
  8
0
 10
-178.976
 20
-173.708
 11
-178.768
 21
-173.94
  0
LINE
  8
0
 10
-178.768
 20
-173.94
 11
-178.576
 21
-174.186
  0
LINE
  8
0
 10
-178.576
 20
-174.186
 11
-178.401
 21
-174.444
  0
LINE
  8
0
 10
-178.401
 20
-174.444
 11
-178.245
 21
-174.715
  0
LINE
  8
0
 10
-178.245
 20
-174.715
 11
-178.108
 21
-174.995
  0
LINE
  8
0
 10
-178.108
 20
-174.995
 11
-177.992
 21
-175.284
  0
LINE
  8
0
 10
-177.992
 20
-175.284
 11
-177.895
 21
-175.581
  0
LINE
  8
0
 10
-177.895
 20
-175.581
 11
-177.82
 21
-175.883
  0
LINE
  8
0
 10
-177.82
 20
-175.883
 11
-177.766
 21
-176.191
  0
LINE
  8
0
 10
-177.766
 20
-176.191
 11
-177.733
 21
-176.501
  0
LINE
  8
0
 10
-177.733
 20
-176.501
 11
-177.722
 21
-176.812
  0
LINE
  8
0
 10
-177.722
 20
-176.812
 11
-177.733
 21
-177.124
  0
LINE
  8
0
 10
-177.733
 20
-177.124
 11
-177.766
 21
-177.434
  0
LINE
  8
0
 10
-177.766
 20
-177.434
 11
-177.82
 21
-177.742
  0
LINE
  8
0
 10
-177.82
 20
-177.742
 11
-177.895
 21
-178.044
  0
LINE
  8
0
 10
-177.895
 20
-178.044
 11
-177.992
 21
-178.341
  0
LINE
  8
0
 10
-177.992
 20
-178.341
 11
-178.108
 21
-178.63
  0
LINE
  8
0
 10
-178.108
 20
-178.63
 11
-178.245
 21
-178.91
  0
LINE
  8
0
 10
-178.245
 20
-178.91
 11
-178.401
 21
-179.181
  0
LINE
  8
0
 10
-178.401
 20
-179.181
 11
-178.576
 21
-179.439
  0
LINE
  8
0
 10
-178.576
 20
-179.439
 11
-178.768
 21
-179.685
  0
LINE
  8
0
 10
-178.768
 20
-179.685
 11
-178.976
 21
-179.917
  0
LINE
  8
0
 10
-178.976
 20
-179.917
 11
-179.201
 21
-180.133
  0
LINE
  8
0
 10
-179.201
 20
-180.133
 11
-179.44
 21
-180.334
  0
LINE
  8
0
 10
-179.44
 20
-180.334
 11
-179.692
 21
-180.517
  0
LINE
  8
0
 10
-179.692
 20
-180.517
 11
-179.956
 21
-180.683
  0
LINE
  8
0
 10
-179.956
 20
-180.683
 11
-180.232
 21
-180.829
  0
LINE
  8
0
 10
-180.232
 20
-180.829
 11
-180.517
 21
-180.956
  0
LINE
  8
0
 10
-180.517
 20
-180.956
 11
-180.81
 21
-181.063
  0
LINE
  8
0
 10
-180.81
 20
-181.063
 11
-181.11
 21
-181.148
  0
LINE
  8
0
 10
-181.11
 20
-181.148
 11
-181.415
 21
-181.213
  0
LINE
  8
0
 10
-181.415
 20
-181.213
 11
-181.724
 21
-181.257
  0
LINE
  8
0
 10
-181.724
 20
-181.257
 11
-182.035
 21
-181.279
  0
LINE
  8
0
 10
-182.035
 20
-181.279
 11
-182.347
 21
-181.279
  0
LINE
  8
0
 10
205.432
 20
-181.279
 11
205.12
 21
-181.257
  0
LINE
  8
0
 10
205.12
 20
-181.257
 11
204.812
 21
-181.213
  0
LINE
  8
0
 10
204.812
 20
-181.213
 11
204.506
 21
-181.148
  0
LINE
  8
0
 10
204.506
 20
-181.148
 11
204.207
 21
-181.063
  0
LINE
  8
0
 10
204.207
 20
-181.063
 11
203.913
 21
-180.956
  0
LINE
  8
0
 10
203.913
 20
-180.956
 11
203.629
 21
-180.829
  0
LINE
  8
0
 10
203.629
 20
-180.829
 11
203.353
 21
-180.683
  0
LINE
  8
0
 10
203.353
 20
-180.683
 11
203.089
 21
-180.517
  0
LINE
  8
0
 10
203.089
 20
-180.517
 11
202.836
 21
-180.334
  0
LINE
  8
0
 10
202.836
 20
-180.334
 11
202.597
 21
-180.133
  0
LINE
  8
0
 10
202.597
 20
-180.133
 11
202.373
 21
-179.917
  0
LINE
  8
0
 10
202.373
 20
-179.917
 11
202.164
 21
-179.685
  0
LINE
  8
0
 10
202.164
 20
-179.685
 11
201.972
 21
-179.439
  0
LINE
  8
0
 10
201.972
 20
-179.439
 11
201.798
 21
-179.181
  0
LINE
  8
0
 10
201.798
 20
-179.181
 11
201.642
 21
-178.91
  0
LINE
  8
0
 10
201.642
 20
-178.91
 11
201.505
 21
-178.63
  0
LINE
  8
0
 10
201.505
 20
-178.63
 11
201.388
 21
-178.341
  0
LINE
  8
0
 10
201.388
 20
-178.341
 11
201.292
 21
-178.044
  0
LINE
  8
0
 10
201.292
 20
-178.044
 11
201.216
 21
-177.742
  0
LINE
  8
0
 10
201.216
 20
-177.742
 11
201.162
 21
-177.434
  0
LINE
  8
0
 10
201.162
 20
-177.434
 11
201.13
 21
-177.124
  0
LINE
  8
0
 10
201.13
 20
-177.124
 11
201.119
 21
-176.812
  0
LINE
  8
0
 10
201.119
 20
-176.812
 11
201.13
 21
-176.501
  0
LINE
  8
0
 10
201.13
 20
-176.501
 11
201.162
 21
-176.191
  0
LINE
  8
0
 10
201.162
 20
-176.191
 11
201.216
 21
-175.883
  0
LINE
  8
0
 10
201.216
 20
-175.883
 11
201.292
 21
-175.581
  0
LINE
  8
0
 10
201.292
 20
-175.581
 11
201.388
 21
-175.284
  0
LINE
  8
0
 10
201.388
 20
-175.284
 11
201.505
 21
-174.995
  0
LINE
  8
0
 10
201.505
 20
-174.995
 11
201.642
 21
-174.715
  0
LINE
  8
0
 10
201.642
 20
-174.715
 11
201.798
 21
-174.444
  0
LINE
  8
0
 10
201.798
 20
-174.444
 11
201.972
 21
-174.186
  0
LINE
  8
0
 10
201.972
 20
-174.186
 11
202.164
 21
-173.94
  0
LINE
  8
0
 10
202.164
 20
-173.94
 11
202.373
 21
-173.708
  0
LINE
  8
0
 10
202.373
 20
-173.708
 11
202.597
 21
-173.492
  0
LINE
  8
0
 10
202.597
 20
-173.492
 11
202.836
 21
-173.291
  0
LINE
  8
0
 10
202.836
 20
-173.291
 11
203.089
 21
-173.108
  0
LINE
  8
0
 10
203.089
 20
-173.108
 11
203.353
 21
-172.942
  0
LINE
  8
0
 10
203.353
 20
-172.942
 11
203.629
 21
-172.796
  0
LINE
  8
0
 10
203.629
 20
-172.796
 11
203.913
 21
-172.669
  0
LINE
  8
0
 10
203.913
 20
-172.669
 11
204.207
 21
-172.562
  0
LINE
  8
0
 10
204.207
 20
-172.562
 11
204.506
 21
-172.476
  0
LINE
  8
0
 10
204.506
 20
-172.476
 11
204.812
 21
-172.412
  0
LINE
  8
0
 10
204.812
 20
-172.412
 11
205.12
 21
-172.368
  0
LINE
  8
0
 10
205.12
 20
-172.368
 11
205.432
 21
-172.346
  0
LINE
  8
0
 10
205.432
 20
-172.346
 11
205.743
 21
-172.346
  0
LINE
  8
0
 10
205.743
 20
-172.346
 11
206.055
 21
-172.368
  0
LINE
  8
0
 10
206.055
 20
-172.368
 11
206.363
 21
-172.412
  0
LINE
  8
0
 10
206.363
 20
-172.412
 11
206.669
 21
-172.476
  0
LINE
  8
0
 10
206.669
 20
-172.476
 11
206.968
 21
-172.562
  0
LINE
  8
0
 10
206.968
 20
-172.562
 11
207.262
 21
-172.669
  0
LINE
  8
0
 10
207.262
 20
-172.669
 11
207.546
 21
-172.796
  0
LINE
  8
0
 10
207.546
 20
-172.796
 11
207.822
 21
-172.942
  0
LINE
  8
0
 10
207.822
 20
-172.942
 11
208.086
 21
-173.108
  0
LINE
  8
0
 10
208.086
 20
-173.108
 11
208.339
 21
-173.291
  0
LINE
  8
0
 10
208.339
 20
-173.291
 11
208.578
 21
-173.492
  0
LINE
  8
0
 10
208.578
 20
-173.492
 11
208.802
 21
-173.708
  0
LINE
  8
0
 10
208.802
 20
-173.708
 11
209.011
 21
-173.94
  0
LINE
  8
0
 10
209.011
 20
-173.94
 11
209.203
 21
-174.186
  0
LINE
  8
0
 10
209.203
 20
-174.186
 11
209.377
 21
-174.444
  0
LINE
  8
0
 10
209.377
 20
-174.444
 11
209.533
 21
-174.715
  0
LINE
  8
0
 10
209.533
 20
-174.715
 11
209.67
 21
-174.995
  0
LINE
  8
0
 10
209.67
 20
-174.995
 11
209.787
 21
-175.284
  0
LINE
  8
0
 10
209.787
 20
-175.284
 11
209.883
 21
-175.581
  0
LINE
  8
0
 10
209.883
 20
-175.581
 11
209.959
 21
-175.883
  0
LINE
  8
0
 10
209.959
 20
-175.883
 11
210.013
 21
-176.191
  0
LINE
  8
0
 10
210.013
 20
-176.191
 11
210.045
 21
-176.501
  0
LINE
  8
0
 10
210.045
 20
-176.501
 11
210.056
 21
-176.812
  0
LINE
  8
0
 10
210.056
 20
-176.812
 11
210.045
 21
-177.124
  0
LINE
  8
0
 10
210.045
 20
-177.124
 11
210.013
 21
-177.434
  0
LINE
  8
0
 10
210.013
 20
-177.434
 11
209.959
 21
-177.742
  0
LINE
  8
0
 10
209.959
 20
-177.742
 11
209.883
 21
-178.044
  0
LINE
  8
0
 10
209.883
 20
-178.044
 11
209.787
 21
-178.341
  0
LINE
  8
0
 10
209.787
 20
-178.341
 11
209.67
 21
-178.63
  0
LINE
  8
0
 10
209.67
 20
-178.63
 11
209.533
 21
-178.91
  0
LINE
  8
0
 10
209.533
 20
-178.91
 11
209.377
 21
-179.181
  0
LINE
  8
0
 10
209.377
 20
-179.181
 11
209.203
 21
-179.439
  0
LINE
  8
0
 10
209.203
 20
-179.439
 11
209.011
 21
-179.685
  0
LINE
  8
0
 10
209.011
 20
-179.685
 11
208.802
 21
-179.917
  0
LINE
  8
0
 10
208.802
 20
-179.917
 11
208.578
 21
-180.133
  0
LINE
  8
0
 10
208.578
 20
-180.133
 11
208.339
 21
-180.334
  0
LINE
  8
0
 10
208.339
 20
-180.334
 11
208.086
 21
-180.517
  0
LINE
  8
0
 10
208.086
 20
-180.517
 11
207.822
 21
-180.683
  0
LINE
  8
0
 10
207.822
 20
-180.683
 11
207.546
 21
-180.829
  0
LINE
  8
0
 10
207.546
 20
-180.829
 11
207.262
 21
-180.956
  0
LINE
  8
0
 10
207.262
 20
-180.956
 11
206.968
 21
-181.063
  0
LINE
  8
0
 10
206.968
 20
-181.063
 11
206.669
 21
-181.148
  0
LINE
  8
0
 10
206.669
 20
-181.148
 11
206.363
 21
-181.213
  0
LINE
  8
0
 10
206.363
 20
-181.213
 11
206.055
 21
-181.257
  0
LINE
  8
0
 10
206.055
 20
-181.257
 11
205.743
 21
-181.279
  0
LINE
  8
0
 10
205.743
 20
-181.279
 11
205.432
 21
-181.279
  0
ENDSEC
  0
SECTION
  2
OBJECTS
  0
DICTIONARY
  0
ENDSEC
  0
EOF
