  0
SECTION
  2
BLOCKS
  0
ENDSEC
  0
SECTION
  2
ENTITIES
  0
LINE
  8
0
 10
168.675
 20
0
 11
114.3
 21
0
  0
LINE
  8
0
 10
114.3
 20
0
 11
114.145
 21
5.94986
  0
LINE
  8
0
 10
114.145
 20
5.94986
 11
113.681
 21
11.8836
  0
LINE
  8
0
 10
113.681
 20
11.8836
 11
112.908
 21
17.7851
  0
LINE
  8
0
 10
112.908
 20
17.7851
 11
111.829
 21
23.6384
  0
LINE
  8
0
 10
111.829
 20
23.6384
 11
110.447
 21
29.4276
  0
LINE
  8
0
 10
110.447
 20
29.4276
 11
108.765
 21
35.137
  0
LINE
  8
0
 10
108.765
 20
35.137
 11
106.789
 21
40.7511
  0
LINE
  8
0
 10
106.789
 20
40.7511
 11
104.523
 21
46.2547
  0
LINE
  8
0
 10
104.523
 20
46.2547
 11
101.973
 21
51.6329
  0
LINE
  8
0
 10
101.973
 20
51.6329
 11
99.1472
 21
56.8711
  0
LINE
  8
0
 10
99.1472
 20
56.8711
 11
96.0524
 21
61.9551
  0
LINE
  8
0
 10
96.0524
 20
61.9551
 11
92.6971
 21
66.8711
  0
LINE
  8
0
 10
92.6971
 20
66.8711
 11
89.0904
 21
71.6058
  0
LINE
  8
0
 10
89.0904
 20
71.6058
 11
85.2422
 21
76.1463
  0
LINE
  8
0
 10
85.2422
 20
76.1463
 11
81.1629
 21
80.4803
  0
LINE
  8
0
 10
81.1629
 20
80.4803
 11
76.8634
 21
84.5961
  0
LINE
  8
0
 10
76.8634
 20
84.5961
 11
72.3556
 21
88.4825
  0
LINE
  8
0
 10
72.3556
 20
88.4825
 11
67.6515
 21
92.129
  0
LINE
  8
0
 10
67.6515
 20
92.129
 11
62.7641
 21
95.5257
  0
LINE
  8
0
 10
62.7641
 20
95.5257
 11
57.7064
 21
98.6634
  0
LINE
  8
0
 10
57.7064
 20
98.6634
 11
52.4922
 21
101.534
  0
LINE
  8
0
 10
52.4922
 20
101.534
 11
47.1358
 21
104.128
  0
LINE
  8
0
 10
47.1358
 20
104.128
 11
41.6515
 21
106.441
  0
LINE
  8
0
 10
41.6515
 20
106.441
 11
36.0542
 21
108.465
  0
LINE
  8
0
 10
36.0542
 20
108.465
 11
30.3593
 21
110.194
  0
LINE
  8
0
 10
30.3593
 20
110.194
 11
24.582
 21
111.625
  0
LINE
  8
0
 10
24.582
 20
111.625
 11
18.738
 21
112.754
  0
LINE
  8
0
 10
18.738
 20
112.754
 11
12.8432
 21
113.576
  0
LINE
  8
0
 10
12.8432
 20
113.576
 11
6.9136
 21
114.091
  0
LINE
  8
0
 10
6.9136
 20
114.091
 11
0.965256
 21
114.296
  0
LINE
  8
0
 10
0.965256
 20
114.296
 11
-4.98569
 21
114.191
  0
LINE
  8
0
 10
-4.98569
 20
114.191
 11
-10.9231
 21
113.777
  0
LINE
  8
0
 10
-10.9231
 20
113.777
 11
-16.831
 21
113.054
  0
LINE
  8
0
 10
-16.831
 20
113.054
 11
-22.6931
 21
112.025
  0
LINE
  8
0
 10
-22.6931
 20
112.025
 11
-28.4938
 21
110.691
  0
LINE
  8
0
 10
-28.4938
 20
110.691
 11
-34.2172
 21
109.058
  0
LINE
  8
0
 10
-34.2172
 20
109.058
 11
-39.8478
 21
107.129
  0
LINE
  8
0
 10
-39.8478
 20
107.129
 11
-45.3704
 21
104.91
  0
LINE
  8
0
 10
-45.3704
 20
104.91
 11
-50.7699
 21
102.406
  0
LINE
  8
0
 10
-50.7699
 20
102.406
 11
-56.0318
 21
99.6239
  0
LINE
  8
0
 10
-56.0318
 20
99.6239
 11
-61.1417
 21
96.5721
  0
LINE
  8
0
 10
-61.1417
 20
96.5721
 11
-66.0859
 21
93.2585
  0
LINE
  8
0
 10
-66.0859
 20
93.2585
 11
-70.8508
 21
89.692
  0
LINE
  8
0
 10
-70.8508
 20
89.692
 11
-75.4237
 21
85.8822
  0
LINE
  8
0
 10
-75.4237
 20
85.8822
 11
-79.792
 21
81.8396
  0
LINE
  8
0
 10
-79.792
 20
81.8396
 11
-83.944
 21
77.5751
  0
LINE
  8
0
 10
-83.944
 20
77.5751
 11
-87.8683
 21
73.1002
  0
LINE
  8
0
 10
-87.8683
 20
73.1002
 11
-91.5544
 21
68.4272
  0
LINE
  8
0
 10
-91.5544
 20
68.4272
 11
-94.9922
 21
63.5685
  0
LINE
  8
0
 10
-94.9922
 20
63.5685
 11
-98.1725
 21
58.5376
  0
LINE
  8
0
 10
-98.1725
 20
58.5376
 11
-101.087
 21
53.3478
  0
LINE
  8
0
 10
-101.087
 20
53.3478
 11
-103.727
 21
48.0135
  0
LINE
  8
0
 10
-103.727
 20
48.0135
 11
-106.085
 21
42.5489
  0
LINE
  8
0
 10
-106.085
 20
42.5489
 11
-108.156
 21
36.9689
  0
LINE
  8
0
 10
-108.156
 20
36.9689
 11
-109.934
 21
31.2888
  0
LINE
  8
0
 10
-109.934
 20
31.2888
 11
-111.414
 21
25.5238
  0
LINE
  8
0
 10
-111.414
 20
25.5238
 11
-112.591
 21
19.6895
  0
LINE
  8
0
 10
-112.591
 20
19.6895
 11
-113.464
 21
13.8019
  0
LINE
  8
0
 10
-113.464
 20
13.8019
 11
-114.028
 21
7.87686
  0
LINE
  8
0
 10
-114.028
 20
7.87686
 11
-114.284
 21
1.93047
  0
LINE
  8
0
 10
-114.284
 20
1.93047
 11
-114.229
 21
-4.02116
  0
LINE
  8
0
 10
-114.229
 20
-4.02116
 11
-113.865
 21
-9.9619
  0
LINE
  8
0
 10
-113.865
 20
-9.9619
 11
-23.9102
 21
-2.09187
  0
LINE
  8
0
 10
-23.9102
 20
-2.09187
 11
-23.7788
 21
-3.34189
  0
LINE
  8
0
 10
-23.7788
 20
-3.34189
 11
-23.4878
 21
-4.99248
  0
LINE
  8
0
 10
-23.4878
 20
-4.99248
 11
-23.0823
 21
-6.61873
  0
LINE
  8
0
 10
-23.0823
 20
-6.61873
 11
-22.5644
 21
-8.21275
  0
LINE
  8
0
 10
-22.5644
 20
-8.21275
 11
-21.9365
 21
-9.76675
  0
LINE
  8
0
 10
-21.9365
 20
-9.76675
 11
-21.2018
 21
-11.2732
  0
LINE
  8
0
 10
-21.2018
 20
-11.2732
 11
-20.3638
 21
-12.7247
  0
LINE
  8
0
 10
-20.3638
 20
-12.7247
 11
-19.4265
 21
-14.1142
  0
LINE
  8
0
 10
-19.4265
 20
-14.1142
 11
-18.3946
 21
-15.4349
  0
LINE
  8
0
 10
-18.3946
 20
-15.4349
 11
-17.2731
 21
-16.6805
  0
LINE
  8
0
 10
-17.2731
 20
-16.6805
 11
-16.0675
 21
-17.8448
  0
LINE
  8
0
 10
-16.0675
 20
-17.8448
 11
-14.7836
 21
-18.9221
  0
LINE
  8
0
 10
-14.7836
 20
-18.9221
 11
-13.4276
 21
-19.9073
  0
LINE
  8
0
 10
-13.4276
 20
-19.9073
 11
-12.0062
 21
-20.7954
  0
LINE
  8
0
 10
-12.0062
 20
-20.7954
 11
-10.5264
 21
-21.5823
  0
LINE
  8
0
 10
-10.5264
 20
-21.5823
 11
-8.99524
 21
-22.264
  0
LINE
  8
0
 10
-8.99524
 20
-22.264
 11
-7.42026
 21
-22.8372
  0
LINE
  8
0
 10
-7.42026
 20
-22.8372
 11
-5.80914
 21
-23.2992
  0
LINE
  8
0
 10
-5.80914
 20
-23.2992
 11
-4.16972
 21
-23.6477
  0
LINE
  8
0
 10
-4.16972
 20
-23.6477
 11
-2.50998
 21
-23.881
  0
LINE
  8
0
 10
-2.50998
 20
-23.881
 11
-0.838013
 21
-23.9979
  0
LINE
  8
0
 10
-0.838013
 20
-23.9979
 11
0.838013
 21
-23.9979
  0
LINE
  8
0
 10
0.838013
 20
-23.9979
 11
2.50998
 21
-23.881
  0
LINE
  8
0
 10
2.50998
 20
-23.881
 11
4.16972
 21
-23.6477
  0
LINE
  8
0
 10
4.16972
 20
-23.6477
 11
5.80914
 21
-23.2992
  0
LINE
  8
0
 10
5.80914
 20
-23.2992
 11
7.42026
 21
-22.8372
  0
LINE
  8
0
 10
7.42026
 20
-22.8372
 11
8.99524
 21
-22.264
  0
LINE
  8
0
 10
8.99524
 20
-22.264
 11
10.5264
 21
-21.5823
  0
LINE
  8
0
 10
10.5264
 20
-21.5823
 11
12.0062
 21
-20.7954
  0
LINE
  8
0
 10
12.0062
 20
-20.7954
 11
13.4276
 21
-19.9073
  0
LINE
  8
0
 10
13.4276
 20
-19.9073
 11
14.7836
 21
-18.9221
  0
LINE
  8
0
 10
14.7836
 20
-18.9221
 11
16.0675
 21
-17.8448
  0
LINE
  8
0
 10
16.0675
 20
-17.8448
 11
17.2731
 21
-16.6805
  0
LINE
  8
0
 10
17.2731
 20
-16.6805
 11
18.3946
 21
-15.4349
  0
LINE
  8
0
 10
18.3946
 20
-15.4349
 11
19.4265
 21
-14.1142
  0
LINE
  8
0
 10
19.4265
 20
-14.1142
 11
20.3638
 21
-12.7247
  0
LINE
  8
0
 10
20.3638
 20
-12.7247
 11
21.2018
 21
-11.2732
  0
LINE
  8
0
 10
21.2018
 20
-11.2732
 11
21.9365
 21
-9.76675
  0
LINE
  8
0
 10
21.9365
 20
-9.76675
 11
22.5644
 21
-8.21275
  0
LINE
  8
0
 10
22.5644
 20
-8.21275
 11
23.0823
 21
-6.61873
  0
LINE
  8
0
 10
23.0823
 20
-6.61873
 11
23.4878
 21
-4.99248
  0
LINE
  8
0
 10
23.4878
 20
-4.99248
 11
23.7788
 21
-3.34189
  0
LINE
  8
0
 10
23.7788
 20
-3.34189
 11
23.954
 21
-1.67502
  0
LINE
  8
0
 10
23.954
 20
-1.67502
 11
24.0125
 21
0
  0
LINE
  8
0
 10
24.0125
 20
0
 11
85.725
 21
0
  0
LINE
  8
0
 10
85.725
 20
0
 11
85.725
 21
-76.2
  0
LINE
  8
0
 10
85.725
 20
-76.2
 11
168.675
 21
-76.2
  0
LINE
  8
0
 10
168.675
 20
-76.2
 11
168.675
 21
0
  0
LINE
  8
0
 10
-0.589813
 20
60.3595
 11
-1.47093
 21
60.4565
  0
LINE
  8
0
 10
-1.47093
 20
60.4565
 11
-2.34315
 21
60.6147
  0
LINE
  8
0
 10
-2.34315
 20
60.6147
 11
-3.20221
 21
60.8334
  0
LINE
  8
0
 10
-3.20221
 20
60.8334
 11
-4.04391
 21
61.1115
  0
LINE
  8
0
 10
-4.04391
 20
61.1115
 11
-4.86417
 21
61.4476
  0
LINE
  8
0
 10
-4.86417
 20
61.4476
 11
-5.659
 21
61.8401
  0
LINE
  8
0
 10
-5.659
 20
61.8401
 11
-6.4245
 21
62.287
  0
LINE
  8
0
 10
-6.4245
 20
62.287
 11
-7.15695
 21
62.7863
  0
LINE
  8
0
 10
-7.15695
 20
62.7863
 11
-7.8528
 21
63.3355
  0
LINE
  8
0
 10
-7.8528
 20
63.3355
 11
-8.50864
 21
63.9319
  0
LINE
  8
0
 10
-8.50864
 20
63.9319
 11
-9.12128
 21
64.5726
  0
LINE
  8
0
 10
-9.12128
 20
64.5726
 11
-9.68774
 21
65.2544
  0
LINE
  8
0
 10
-9.68774
 20
65.2544
 11
-10.2052
 21
65.9741
  0
LINE
  8
0
 10
-10.2052
 20
65.9741
 11
-10.6713
 21
66.7281
  0
LINE
  8
0
 10
-10.6713
 20
66.7281
 11
-11.0836
 21
67.5129
  0
LINE
  8
0
 10
-11.0836
 20
67.5129
 11
-11.4402
 21
68.3244
  0
LINE
  8
0
 10
-11.4402
 20
68.3244
 11
-11.7393
 21
69.1589
  0
LINE
  8
0
 10
-11.7393
 20
69.1589
 11
-11.9794
 21
70.0122
  0
LINE
  8
0
 10
-11.9794
 20
70.0122
 11
-12.1595
 21
70.8802
  0
LINE
  8
0
 10
-12.1595
 20
70.8802
 11
-12.2785
 21
71.7586
  0
LINE
  8
0
 10
-12.2785
 20
71.7586
 11
-12.336
 21
72.6432
  0
LINE
  8
0
 10
-12.336
 20
72.6432
 11
-12.3317
 21
73.5296
  0
LINE
  8
0
 10
-12.3317
 20
73.5296
 11
-12.2655
 21
74.4136
  0
LINE
  8
0
 10
-12.2655
 20
74.4136
 11
-12.1378
 21
75.2908
  0
LINE
  8
0
 10
-12.1378
 20
75.2908
 11
-11.9493
 21
76.1569
  0
LINE
  8
0
 10
-11.9493
 20
76.1569
 11
-11.7008
 21
77.0078
  0
LINE
  8
0
 10
-11.7008
 20
77.0078
 11
-11.3935
 21
77.8393
  0
LINE
  8
0
 10
-11.3935
 20
77.8393
 11
-11.029
 21
78.6474
  0
LINE
  8
0
 10
-11.029
 20
78.6474
 11
-10.609
 21
79.428
  0
LINE
  8
0
 10
-10.609
 20
79.428
 11
-10.1356
 21
80.1774
  0
LINE
  8
0
 10
-10.1356
 20
80.1774
 11
-9.61102
 21
80.892
  0
LINE
  8
0
 10
-9.61102
 20
80.892
 11
-9.0379
 21
81.5683
  0
LINE
  8
0
 10
-9.0379
 20
81.5683
 11
-8.41901
 21
82.2029
  0
LINE
  8
0
 10
-8.41901
 20
82.2029
 11
-7.75734
 21
82.7928
  0
LINE
  8
0
 10
-7.75734
 20
82.7928
 11
-7.05615
 21
83.3351
  0
LINE
  8
0
 10
-7.05615
 20
83.3351
 11
-6.31883
 21
83.8272
  0
LINE
  8
0
 10
-6.31883
 20
83.8272
 11
-5.54898
 21
84.2667
  0
LINE
  8
0
 10
-5.54898
 20
84.2667
 11
-4.75035
 21
84.6513
  0
LINE
  8
0
 10
-4.75035
 20
84.6513
 11
-3.92682
 21
84.9794
  0
LINE
  8
0
 10
-3.92682
 20
84.9794
 11
-3.08243
 21
85.2492
  0
LINE
  8
0
 10
-3.08243
 20
85.2492
 11
-2.22127
 21
85.4594
  0
LINE
  8
0
 10
-2.22127
 20
85.4594
 11
-1.34755
 21
85.609
  0
LINE
  8
0
 10
-1.34755
 20
85.609
 11
-0.465515
 21
85.6974
  0
LINE
  8
0
 10
-0.465515
 20
85.6974
 11
0.420517
 21
85.724
  0
LINE
  8
0
 10
0.420517
 20
85.724
 11
1.30626
 21
85.6887
  0
LINE
  8
0
 10
1.30626
 20
85.6887
 11
2.18739
 21
85.5917
  0
LINE
  8
0
 10
2.18739
 20
85.5917
 11
3.0596
 21
85.4335
  0
LINE
  8
0
 10
3.0596
 20
85.4335
 11
3.91866
 21
85.2148
  0
LINE
  8
0
 10
3.91866
 20
85.2148
 11
4.76036
 21
84.9368
  0
LINE
  8
0
 10
4.76036
 20
84.9368
 11
5.58063
 21
84.6007
  0
LINE
  8
0
 10
5.58063
 20
84.6007
 11
6.37544
 21
84.2082
  0
LINE
  8
0
 10
6.37544
 20
84.2082
 11
7.14095
 21
83.7612
  0
LINE
  8
0
 10
7.14095
 20
83.7612
 11
7.8734
 21
83.2619
  0
LINE
  8
0
 10
7.8734
 20
83.2619
 11
8.56924
 21
82.7127
  0
LINE
  8
0
 10
8.56924
 20
82.7127
 11
9.2251
 21
82.1163
  0
LINE
  8
0
 10
9.2251
 20
82.1163
 11
9.83774
 21
81.4757
  0
LINE
  8
0
 10
9.83774
 20
81.4757
 11
10.4042
 21
80.7938
  0
LINE
  8
0
 10
10.4042
 20
80.7938
 11
10.9217
 21
80.0741
  0
LINE
  8
0
 10
10.9217
 20
80.0741
 11
11.3878
 21
79.3201
  0
LINE
  8
0
 10
11.3878
 20
79.3201
 11
11.8001
 21
78.5354
  0
LINE
  8
0
 10
11.8001
 20
78.5354
 11
12.1566
 21
77.7238
  0
LINE
  8
0
 10
12.1566
 20
77.7238
 11
12.4557
 21
76.8893
  0
LINE
  8
0
 10
12.4557
 20
76.8893
 11
12.6959
 21
76.036
  0
LINE
  8
0
 10
12.6959
 20
76.036
 11
12.8759
 21
75.1681
  0
LINE
  8
0
 10
12.8759
 20
75.1681
 11
12.995
 21
74.2897
  0
LINE
  8
0
 10
12.995
 20
74.2897
 11
13.0525
 21
73.4051
  0
LINE
  8
0
 10
13.0525
 20
73.4051
 11
13.0482
 21
72.5186
  0
LINE
  8
0
 10
13.0482
 20
72.5186
 11
12.982
 21
71.6347
  0
LINE
  8
0
 10
12.982
 20
71.6347
 11
12.8543
 21
70.7575
  0
LINE
  8
0
 10
12.8543
 20
70.7575
 11
12.6658
 21
69.8913
  0
LINE
  8
0
 10
12.6658
 20
69.8913
 11
12.4172
 21
69.0404
  0
LINE
  8
0
 10
12.4172
 20
69.0404
 11
12.11
 21
68.2089
  0
LINE
  8
0
 10
12.11
 20
68.2089
 11
11.7455
 21
67.4009
  0
LINE
  8
0
 10
11.7455
 20
67.4009
 11
11.3255
 21
66.6202
  0
LINE
  8
0
 10
11.3255
 20
66.6202
 11
10.852
 21
65.8708
  0
LINE
  8
0
 10
10.852
 20
65.8708
 11
10.3275
 21
65.1562
  0
LINE
  8
0
 10
10.3275
 20
65.1562
 11
9.75436
 21
64.48
  0
LINE
  8
0
 10
9.75436
 20
64.48
 11
9.13545
 21
63.8453
  0
LINE
  8
0
 10
9.13545
 20
63.8453
 11
8.4738
 21
63.2554
  0
LINE
  8
0
 10
8.4738
 20
63.2554
 11
7.7726
 21
62.7131
  0
LINE
  8
0
 10
7.7726
 20
62.7131
 11
7.03528
 21
62.221
  0
LINE
  8
0
 10
7.03528
 20
62.221
 11
6.26543
 21
61.7816
  0
LINE
  8
0
 10
6.26543
 20
61.7816
 11
5.4668
 21
61.3969
  0
LINE
  8
0
 10
5.4668
 20
61.3969
 11
4.64328
 21
61.0688
  0
LINE
  8
0
 10
4.64328
 20
61.0688
 11
3.79889
 21
60.7991
  0
LINE
  8
0
 10
3.79889
 20
60.7991
 11
2.93773
 21
60.5888
  0
LINE
  8
0
 10
2.93773
 20
60.5888
 11
2.064
 21
60.4392
  0
LINE
  8
0
 10
2.064
 20
60.4392
 11
1.18196
 21
60.3509
  0
LINE
  8
0
 10
1.18196
 20
60.3509
 11
0.295914
 21
60.3243
  0
LINE
  8
0
 10
0.295914
 20
60.3243
 11
-0.589813
 21
60.3595
  0
LINE
  8
0
 10
-43.5807
 20
46.6237
 11
-44.4619
 21
46.7207
  0
LINE
  8
0
 10
-44.4619
 20
46.7207
 11
-45.3341
 21
46.8789
  0
LINE
  8
0
 10
-45.3341
 20
46.8789
 11
-46.1931
 21
47.0976
  0
LINE
  8
0
 10
-46.1931
 20
47.0976
 11
-47.0348
 21
47.3757
  0
LINE
  8
0
 10
-47.0348
 20
47.3757
 11
-47.8551
 21
47.7118
  0
LINE
  8
0
 10
-47.8551
 20
47.7118
 11
-48.6499
 21
48.1043
  0
LINE
  8
0
 10
-48.6499
 20
48.1043
 11
-49.4154
 21
48.5512
  0
LINE
  8
0
 10
-49.4154
 20
48.5512
 11
-50.1479
 21
49.0505
  0
LINE
  8
0
 10
-50.1479
 20
49.0505
 11
-50.8437
 21
49.5997
  0
LINE
  8
0
 10
-50.8437
 20
49.5997
 11
-51.4996
 21
50.1961
  0
LINE
  8
0
 10
-51.4996
 20
50.1961
 11
-52.1122
 21
50.8367
  0
LINE
  8
0
 10
-52.1122
 20
50.8367
 11
-52.6786
 21
51.5186
  0
LINE
  8
0
 10
-52.6786
 20
51.5186
 11
-53.1962
 21
52.2383
  0
LINE
  8
0
 10
-53.1962
 20
52.2383
 11
-53.6622
 21
52.9923
  0
LINE
  8
0
 10
-53.6622
 20
52.9923
 11
-54.0745
 21
53.7771
  0
LINE
  8
0
 10
-54.0745
 20
53.7771
 11
-54.4311
 21
54.5886
  0
LINE
  8
0
 10
-54.4311
 20
54.5886
 11
-54.7302
 21
55.4231
  0
LINE
  8
0
 10
-54.7302
 20
55.4231
 11
-54.9704
 21
56.2764
  0
LINE
  8
0
 10
-54.9704
 20
56.2764
 11
-55.1504
 21
57.1444
  0
LINE
  8
0
 10
-55.1504
 20
57.1444
 11
-55.2695
 21
58.0228
  0
LINE
  8
0
 10
-55.2695
 20
58.0228
 11
-55.327
 21
58.9073
  0
LINE
  8
0
 10
-55.327
 20
58.9073
 11
-55.3226
 21
59.7938
  0
LINE
  8
0
 10
-55.3226
 20
59.7938
 11
-55.2564
 21
60.6778
  0
LINE
  8
0
 10
-55.2564
 20
60.6778
 11
-55.1288
 21
61.555
  0
LINE
  8
0
 10
-55.1288
 20
61.555
 11
-54.9402
 21
62.4211
  0
LINE
  8
0
 10
-54.9402
 20
62.4211
 11
-54.6917
 21
63.272
  0
LINE
  8
0
 10
-54.6917
 20
63.272
 11
-54.3844
 21
64.1035
  0
LINE
  8
0
 10
-54.3844
 20
64.1035
 11
-54.0199
 21
64.9115
  0
LINE
  8
0
 10
-54.0199
 20
64.9115
 11
-53.5999
 21
65.6922
  0
LINE
  8
0
 10
-53.5999
 20
65.6922
 11
-53.1265
 21
66.4416
  0
LINE
  8
0
 10
-53.1265
 20
66.4416
 11
-52.6019
 21
67.1562
  0
LINE
  8
0
 10
-52.6019
 20
67.1562
 11
-52.0288
 21
67.8325
  0
LINE
  8
0
 10
-52.0288
 20
67.8325
 11
-51.4099
 21
68.4671
  0
LINE
  8
0
 10
-51.4099
 20
68.4671
 11
-50.7483
 21
69.057
  0
LINE
  8
0
 10
-50.7483
 20
69.057
 11
-50.0471
 21
69.5993
  0
LINE
  8
0
 10
-50.0471
 20
69.5993
 11
-49.3097
 21
70.0914
  0
LINE
  8
0
 10
-49.3097
 20
70.0914
 11
-48.5399
 21
70.5309
  0
LINE
  8
0
 10
-48.5399
 20
70.5309
 11
-47.7413
 21
70.9155
  0
LINE
  8
0
 10
-47.7413
 20
70.9155
 11
-46.9177
 21
71.2436
  0
LINE
  8
0
 10
-46.9177
 20
71.2436
 11
-46.0733
 21
71.5134
  0
LINE
  8
0
 10
-46.0733
 20
71.5134
 11
-45.2122
 21
71.7236
  0
LINE
  8
0
 10
-45.2122
 20
71.7236
 11
-44.3385
 21
71.8732
  0
LINE
  8
0
 10
-44.3385
 20
71.8732
 11
-43.4564
 21
71.9616
  0
LINE
  8
0
 10
-43.4564
 20
71.9616
 11
-42.5704
 21
71.9882
  0
LINE
  8
0
 10
-42.5704
 20
71.9882
 11
-41.6846
 21
71.9529
  0
LINE
  8
0
 10
-41.6846
 20
71.9529
 11
-40.8035
 21
71.8559
  0
LINE
  8
0
 10
-40.8035
 20
71.8559
 11
-39.9313
 21
71.6977
  0
LINE
  8
0
 10
-39.9313
 20
71.6977
 11
-39.0722
 21
71.479
  0
LINE
  8
0
 10
-39.0722
 20
71.479
 11
-38.2305
 21
71.201
  0
LINE
  8
0
 10
-38.2305
 20
71.201
 11
-37.4103
 21
70.8649
  0
LINE
  8
0
 10
-37.4103
 20
70.8649
 11
-36.6155
 21
70.4724
  0
LINE
  8
0
 10
-36.6155
 20
70.4724
 11
-35.85
 21
70.0254
  0
LINE
  8
0
 10
-35.85
 20
70.0254
 11
-35.1175
 21
69.5261
  0
LINE
  8
0
 10
-35.1175
 20
69.5261
 11
-34.4216
 21
68.9769
  0
LINE
  8
0
 10
-34.4216
 20
68.9769
 11
-33.7658
 21
68.3805
  0
LINE
  8
0
 10
-33.7658
 20
68.3805
 11
-33.1532
 21
67.7399
  0
LINE
  8
0
 10
-33.1532
 20
67.7399
 11
-32.5867
 21
67.058
  0
LINE
  8
0
 10
-32.5867
 20
67.058
 11
-32.0692
 21
66.3383
  0
LINE
  8
0
 10
-32.0692
 20
66.3383
 11
-31.6031
 21
65.5843
  0
LINE
  8
0
 10
-31.6031
 20
65.5843
 11
-31.1908
 21
64.7996
  0
LINE
  8
0
 10
-31.1908
 20
64.7996
 11
-30.8342
 21
63.988
  0
LINE
  8
0
 10
-30.8342
 20
63.988
 11
-30.5352
 21
63.1535
  0
LINE
  8
0
 10
-30.5352
 20
63.1535
 11
-30.295
 21
62.3002
  0
LINE
  8
0
 10
-30.295
 20
62.3002
 11
-30.115
 21
61.4323
  0
LINE
  8
0
 10
-30.115
 20
61.4323
 11
-29.9959
 21
60.5538
  0
LINE
  8
0
 10
-29.9959
 20
60.5538
 11
-29.9384
 21
59.6693
  0
LINE
  8
0
 10
-29.9384
 20
59.6693
 11
-29.9427
 21
58.7828
  0
LINE
  8
0
 10
-29.9427
 20
58.7828
 11
-30.0089
 21
57.8988
  0
LINE
  8
0
 10
-30.0089
 20
57.8988
 11
-30.1366
 21
57.0217
  0
LINE
  8
0
 10
-30.1366
 20
57.0217
 11
-30.3251
 21
56.1555
  0
LINE
  8
0
 10
-30.3251
 20
56.1555
 11
-30.5737
 21
55.3046
  0
LINE
  8
0
 10
-30.5737
 20
55.3046
 11
-30.8809
 21
54.4731
  0
LINE
  8
0
 10
-30.8809
 20
54.4731
 11
-31.2455
 21
53.6651
  0
LINE
  8
0
 10
-31.2455
 20
53.6651
 11
-31.6654
 21
52.8844
  0
LINE
  8
0
 10
-31.6654
 20
52.8844
 11
-32.1389
 21
52.135
  0
LINE
  8
0
 10
-32.1389
 20
52.135
 11
-32.6634
 21
51.4204
  0
LINE
  8
0
 10
-32.6634
 20
51.4204
 11
-33.2365
 21
50.7442
  0
LINE
  8
0
 10
-33.2365
 20
50.7442
 11
-33.8554
 21
50.1095
  0
LINE
  8
0
 10
-33.8554
 20
50.1095
 11
-34.5171
 21
49.5196
  0
LINE
  8
0
 10
-34.5171
 20
49.5196
 11
-35.2183
 21
48.9773
  0
LINE
  8
0
 10
-35.2183
 20
48.9773
 11
-35.9556
 21
48.4852
  0
LINE
  8
0
 10
-35.9556
 20
48.4852
 11
-36.7255
 21
48.0458
  0
LINE
  8
0
 10
-36.7255
 20
48.0458
 11
-37.5241
 21
47.6611
  0
LINE
  8
0
 10
-37.5241
 20
47.6611
 11
-38.3476
 21
47.3331
  0
LINE
  8
0
 10
-38.3476
 20
47.3331
 11
-39.192
 21
47.0633
  0
LINE
  8
0
 10
-39.192
 20
47.0633
 11
-40.0532
 21
46.853
  0
LINE
  8
0
 10
-40.0532
 20
46.853
 11
-40.9269
 21
46.7034
  0
LINE
  8
0
 10
-40.9269
 20
46.7034
 11
-41.8089
 21
46.6151
  0
LINE
  8
0
 10
-41.8089
 20
46.6151
 11
-42.695
 21
46.5885
  0
LINE
  8
0
 10
-42.695
 20
46.5885
 11
-43.5807
 21
46.6237
  0
LINE
  8
0
 10
42.2643
 20
46.2026
 11
41.3831
 21
46.2996
  0
LINE
  8
0
 10
41.3831
 20
46.2996
 11
40.5109
 21
46.4578
  0
LINE
  8
0
 10
40.5109
 20
46.4578
 11
39.6519
 21
46.6765
  0
LINE
  8
0
 10
39.6519
 20
46.6765
 11
38.8102
 21
46.9545
  0
LINE
  8
0
 10
38.8102
 20
46.9545
 11
37.9899
 21
47.2906
  0
LINE
  8
0
 10
37.9899
 20
47.2906
 11
37.1951
 21
47.6831
  0
LINE
  8
0
 10
37.1951
 20
47.6831
 11
36.4296
 21
48.1301
  0
LINE
  8
0
 10
36.4296
 20
48.1301
 11
35.6971
 21
48.6294
  0
LINE
  8
0
 10
35.6971
 20
48.6294
 11
35.0013
 21
49.1786
  0
LINE
  8
0
 10
35.0013
 20
49.1786
 11
34.3454
 21
49.775
  0
LINE
  8
0
 10
34.3454
 20
49.775
 11
33.7328
 21
50.4156
  0
LINE
  8
0
 10
33.7328
 20
50.4156
 11
33.1663
 21
51.0975
  0
LINE
  8
0
 10
33.1663
 20
51.0975
 11
32.6488
 21
51.8172
  0
LINE
  8
0
 10
32.6488
 20
51.8172
 11
32.1828
 21
52.5712
  0
LINE
  8
0
 10
32.1828
 20
52.5712
 11
31.7704
 21
53.3559
  0
LINE
  8
0
 10
31.7704
 20
53.3559
 11
31.4139
 21
54.1675
  0
LINE
  8
0
 10
31.4139
 20
54.1675
 11
31.1148
 21
55.002
  0
LINE
  8
0
 10
31.1148
 20
55.002
 11
30.8746
 21
55.8553
  0
LINE
  8
0
 10
30.8746
 20
55.8553
 11
30.6946
 21
56.7232
  0
LINE
  8
0
 10
30.6946
 20
56.7232
 11
30.5755
 21
57.6017
  0
LINE
  8
0
 10
30.5755
 20
57.6017
 11
30.518
 21
58.4862
  0
LINE
  8
0
 10
30.518
 20
58.4862
 11
30.5224
 21
59.3727
  0
LINE
  8
0
 10
30.5224
 20
59.3727
 11
30.5885
 21
60.2566
  0
LINE
  8
0
 10
30.5885
 20
60.2566
 11
30.7162
 21
61.1339
  0
LINE
  8
0
 10
30.7162
 20
61.1339
 11
30.9048
 21
62
  0
LINE
  8
0
 10
30.9048
 20
62
 11
31.1533
 21
62.8509
  0
LINE
  8
0
 10
31.1533
 20
62.8509
 11
31.4606
 21
63.6824
  0
LINE
  8
0
 10
31.4606
 20
63.6824
 11
31.8251
 21
64.4904
  0
LINE
  8
0
 10
31.8251
 20
64.4904
 11
32.2451
 21
65.2711
  0
LINE
  8
0
 10
32.2451
 20
65.2711
 11
32.7185
 21
66.0205
  0
LINE
  8
0
 10
32.7185
 20
66.0205
 11
33.243
 21
66.7351
  0
LINE
  8
0
 10
33.243
 20
66.7351
 11
33.8162
 21
67.4113
  0
LINE
  8
0
 10
33.8162
 20
67.4113
 11
34.4351
 21
68.046
  0
LINE
  8
0
 10
34.4351
 20
68.046
 11
35.0967
 21
68.6359
  0
LINE
  8
0
 10
35.0967
 20
68.6359
 11
35.7979
 21
69.1782
  0
LINE
  8
0
 10
35.7979
 20
69.1782
 11
36.5352
 21
69.6703
  0
LINE
  8
0
 10
36.5352
 20
69.6703
 11
37.3051
 21
70.1097
  0
LINE
  8
0
 10
37.3051
 20
70.1097
 11
38.1037
 21
70.4944
  0
LINE
  8
0
 10
38.1037
 20
70.4944
 11
38.9272
 21
70.8224
  0
LINE
  8
0
 10
38.9272
 20
70.8224
 11
39.7716
 21
71.0922
  0
LINE
  8
0
 10
39.7716
 20
71.0922
 11
40.6328
 21
71.3025
  0
LINE
  8
0
 10
40.6328
 20
71.3025
 11
41.5065
 21
71.4521
  0
LINE
  8
0
 10
41.5065
 20
71.4521
 11
42.3886
 21
71.5405
  0
LINE
  8
0
 10
42.3886
 20
71.5405
 11
43.2746
 21
71.567
  0
LINE
  8
0
 10
43.2746
 20
71.567
 11
44.1604
 21
71.5318
  0
LINE
  8
0
 10
44.1604
 20
71.5318
 11
45.0415
 21
71.4348
  0
LINE
  8
0
 10
45.0415
 20
71.4348
 11
45.9137
 21
71.2766
  0
LINE
  8
0
 10
45.9137
 20
71.2766
 11
46.7728
 21
71.0579
  0
LINE
  8
0
 10
46.7728
 20
71.0579
 11
47.6145
 21
70.7798
  0
LINE
  8
0
 10
47.6145
 20
70.7798
 11
48.4347
 21
70.4437
  0
LINE
  8
0
 10
48.4347
 20
70.4437
 11
49.2295
 21
70.0512
  0
LINE
  8
0
 10
49.2295
 20
70.0512
 11
49.995
 21
69.6042
  0
LINE
  8
0
 10
49.995
 20
69.6042
 11
50.7275
 21
69.105
  0
LINE
  8
0
 10
50.7275
 20
69.105
 11
51.4233
 21
68.5558
  0
LINE
  8
0
 10
51.4233
 20
68.5558
 11
52.0792
 21
67.9594
  0
LINE
  8
0
 10
52.0792
 20
67.9594
 11
52.6918
 21
67.3187
  0
LINE
  8
0
 10
52.6918
 20
67.3187
 11
53.2583
 21
66.6369
  0
LINE
  8
0
 10
53.2583
 20
66.6369
 11
53.7758
 21
65.9172
  0
LINE
  8
0
 10
53.7758
 20
65.9172
 11
54.2419
 21
65.1632
  0
LINE
  8
0
 10
54.2419
 20
65.1632
 11
54.6542
 21
64.3784
  0
LINE
  8
0
 10
54.6542
 20
64.3784
 11
55.0107
 21
63.5669
  0
LINE
  8
0
 10
55.0107
 20
63.5669
 11
55.3098
 21
62.7324
  0
LINE
  8
0
 10
55.3098
 20
62.7324
 11
55.55
 21
61.8791
  0
LINE
  8
0
 10
55.55
 20
61.8791
 11
55.73
 21
61.0111
  0
LINE
  8
0
 10
55.73
 20
61.0111
 11
55.8491
 21
60.1327
  0
LINE
  8
0
 10
55.8491
 20
60.1327
 11
55.9066
 21
59.2481
  0
LINE
  8
0
 10
55.9066
 20
59.2481
 11
55.9022
 21
58.3617
  0
LINE
  8
0
 10
55.9022
 20
58.3617
 11
55.8361
 21
57.4777
  0
LINE
  8
0
 10
55.8361
 20
57.4777
 11
55.7084
 21
56.6005
  0
LINE
  8
0
 10
55.7084
 20
56.6005
 11
55.5198
 21
55.7344
  0
LINE
  8
0
 10
55.5198
 20
55.7344
 11
55.2713
 21
54.8835
  0
LINE
  8
0
 10
55.2713
 20
54.8835
 11
54.9641
 21
54.052
  0
LINE
  8
0
 10
54.9641
 20
54.052
 11
54.5995
 21
53.2439
  0
LINE
  8
0
 10
54.5995
 20
53.2439
 11
54.1796
 21
52.4633
  0
LINE
  8
0
 10
54.1796
 20
52.4633
 11
53.7061
 21
51.7139
  0
LINE
  8
0
 10
53.7061
 20
51.7139
 11
53.1816
 21
50.9993
  0
LINE
  8
0
 10
53.1816
 20
50.9993
 11
52.6084
 21
50.323
  0
LINE
  8
0
 10
52.6084
 20
50.323
 11
51.9895
 21
49.6884
  0
LINE
  8
0
 10
51.9895
 20
49.6884
 11
51.3279
 21
49.0985
  0
LINE
  8
0
 10
51.3279
 20
49.0985
 11
50.6267
 21
48.5562
  0
LINE
  8
0
 10
50.6267
 20
48.5562
 11
49.8894
 21
48.0641
  0
LINE
  8
0
 10
49.8894
 20
48.0641
 11
49.1195
 21
47.6246
  0
LINE
  8
0
 10
49.1195
 20
47.6246
 11
48.3209
 21
47.24
  0
LINE
  8
0
 10
48.3209
 20
47.24
 11
47.4974
 21
46.9119
  0
LINE
  8
0
 10
47.4974
 20
46.9119
 11
46.653
 21
46.6421
  0
LINE
  8
0
 10
46.653
 20
46.6421
 11
45.7918
 21
46.4319
  0
LINE
  8
0
 10
45.7918
 20
46.4319
 11
44.9181
 21
46.2823
  0
LINE
  8
0
 10
44.9181
 20
46.2823
 11
44.0361
 21
46.1939
  0
LINE
  8
0
 10
44.0361
 20
46.1939
 11
43.15
 21
46.1673
  0
LINE
  8
0
 10
43.15
 20
46.1673
 11
42.2643
 21
46.2026
  0
LINE
  8
0
 10
9.24246
 20
35.8424
 11
8.87605
 21
35.868
  0
LINE
  8
0
 10
8.87605
 20
35.868
 11
8.5123
 21
35.9192
  0
LINE
  8
0
 10
8.5123
 20
35.9192
 11
8.15302
 21
35.9955
  0
LINE
  8
0
 10
8.15302
 20
35.9955
 11
7.79993
 21
36.0968
  0
LINE
  8
0
 10
7.79993
 20
36.0968
 11
7.45476
 21
36.2224
  0
LINE
  8
0
 10
7.45476
 20
36.2224
 11
7.1192
 21
36.3718
  0
LINE
  8
0
 10
7.1192
 20
36.3718
 11
6.79488
 21
36.5443
  0
LINE
  8
0
 10
6.79488
 20
36.5443
 11
6.48337
 21
36.7389
  0
LINE
  8
0
 10
6.48337
 20
36.7389
 11
6.1862
 21
36.9548
  0
LINE
  8
0
 10
6.1862
 20
36.9548
 11
5.90483
 21
37.1909
  0
LINE
  8
0
 10
5.90483
 20
37.1909
 11
5.64059
 21
37.4461
  0
LINE
  8
0
 10
5.64059
 20
37.4461
 11
5.39482
 21
37.719
  0
LINE
  8
0
 10
5.39482
 20
37.719
 11
5.16867
 21
38.0085
  0
LINE
  8
0
 10
5.16867
 20
38.0085
 11
4.96327
 21
38.313
  0
LINE
  8
0
 10
4.96327
 20
38.313
 11
4.77962
 21
38.6311
  0
LINE
  8
0
 10
4.77962
 20
38.6311
 11
4.61859
 21
38.9613
  0
LINE
  8
0
 10
4.61859
 20
38.9613
 11
4.48099
 21
39.3018
  0
LINE
  8
0
 10
4.48099
 20
39.3018
 11
4.36749
 21
39.6512
  0
LINE
  8
0
 10
4.36749
 20
39.6512
 11
4.27863
 21
40.0076
  0
LINE
  8
0
 10
4.27863
 20
40.0076
 11
4.21484
 21
40.3693
  0
LINE
  8
0
 10
4.21484
 20
40.3693
 11
4.17645
 21
40.7346
  0
LINE
  8
0
 10
4.17645
 20
40.7346
 11
4.16362
 21
41.1017
  0
LINE
  8
0
 10
4.16362
 20
41.1017
 11
4.17645
 21
41.4688
  0
LINE
  8
0
 10
4.17645
 20
41.4688
 11
4.21484
 21
41.8341
  0
LINE
  8
0
 10
4.21484
 20
41.8341
 11
4.27863
 21
42.1958
  0
LINE
  8
0
 10
4.27863
 20
42.1958
 11
4.36749
 21
42.5523
  0
LINE
  8
0
 10
4.36749
 20
42.5523
 11
4.48099
 21
42.9016
  0
LINE
  8
0
 10
4.48099
 20
42.9016
 11
4.61859
 21
43.2422
  0
LINE
  8
0
 10
4.61859
 20
43.2422
 11
4.77962
 21
43.5723
  0
LINE
  8
0
 10
4.77962
 20
43.5723
 11
4.96327
 21
43.8904
  0
LINE
  8
0
 10
4.96327
 20
43.8904
 11
5.16867
 21
44.1949
  0
LINE
  8
0
 10
5.16867
 20
44.1949
 11
5.39482
 21
44.4844
  0
LINE
  8
0
 10
5.39482
 20
44.4844
 11
5.64059
 21
44.7574
  0
LINE
  8
0
 10
5.64059
 20
44.7574
 11
5.90483
 21
45.0125
  0
LINE
  8
0
 10
5.90483
 20
45.0125
 11
6.1862
 21
45.2486
  0
LINE
  8
0
 10
6.1862
 20
45.2486
 11
6.48337
 21
45.4645
  0
LINE
  8
0
 10
6.48337
 20
45.4645
 11
6.79488
 21
45.6592
  0
LINE
  8
0
 10
6.79488
 20
45.6592
 11
7.1192
 21
45.8316
  0
LINE
  8
0
 10
7.1192
 20
45.8316
 11
7.45476
 21
45.981
  0
LINE
  8
0
 10
7.45476
 20
45.981
 11
7.79993
 21
46.1066
  0
LINE
  8
0
 10
7.79993
 20
46.1066
 11
8.15302
 21
46.2079
  0
LINE
  8
0
 10
8.15302
 20
46.2079
 11
8.5123
 21
46.2843
  0
LINE
  8
0
 10
8.5123
 20
46.2843
 11
8.87605
 21
46.3354
  0
LINE
  8
0
 10
8.87605
 20
46.3354
 11
9.24246
 21
46.361
  0
LINE
  8
0
 10
9.24246
 20
46.361
 11
9.60979
 21
46.361
  0
LINE
  8
0
 10
9.60979
 20
46.361
 11
9.97621
 21
46.3354
  0
LINE
  8
0
 10
9.97621
 20
46.3354
 11
10.34
 21
46.2843
  0
LINE
  8
0
 10
10.34
 20
46.2843
 11
10.6992
 21
46.2079
  0
LINE
  8
0
 10
10.6992
 20
46.2079
 11
11.0523
 21
46.1066
  0
LINE
  8
0
 10
11.0523
 20
46.1066
 11
11.3975
 21
45.981
  0
LINE
  8
0
 10
11.3975
 20
45.981
 11
11.7331
 21
45.8316
  0
LINE
  8
0
 10
11.7331
 20
45.8316
 11
12.0574
 21
45.6592
  0
LINE
  8
0
 10
12.0574
 20
45.6592
 11
12.3689
 21
45.4645
  0
LINE
  8
0
 10
12.3689
 20
45.4645
 11
12.666
 21
45.2486
  0
LINE
  8
0
 10
12.666
 20
45.2486
 11
12.9474
 21
45.0125
  0
LINE
  8
0
 10
12.9474
 20
45.0125
 11
13.2117
 21
44.7574
  0
LINE
  8
0
 10
13.2117
 20
44.7574
 11
13.4574
 21
44.4844
  0
LINE
  8
0
 10
13.4574
 20
44.4844
 11
13.6836
 21
44.1949
  0
LINE
  8
0
 10
13.6836
 20
44.1949
 11
13.889
 21
43.8904
  0
LINE
  8
0
 10
13.889
 20
43.8904
 11
14.0726
 21
43.5723
  0
LINE
  8
0
 10
14.0726
 20
43.5723
 11
14.2337
 21
43.2422
  0
LINE
  8
0
 10
14.2337
 20
43.2422
 11
14.3713
 21
42.9016
  0
LINE
  8
0
 10
14.3713
 20
42.9016
 11
14.4848
 21
42.5523
  0
LINE
  8
0
 10
14.4848
 20
42.5523
 11
14.5736
 21
42.1958
  0
LINE
  8
0
 10
14.5736
 20
42.1958
 11
14.6374
 21
41.8341
  0
LINE
  8
0
 10
14.6374
 20
41.8341
 11
14.6758
 21
41.4688
  0
LINE
  8
0
 10
14.6758
 20
41.4688
 11
14.6886
 21
41.1017
  0
LINE
  8
0
 10
14.6886
 20
41.1017
 11
14.6758
 21
40.7346
  0
LINE
  8
0
 10
14.6758
 20
40.7346
 11
14.6374
 21
40.3693
  0
LINE
  8
0
 10
14.6374
 20
40.3693
 11
14.5736
 21
40.0076
  0
LINE
  8
0
 10
14.5736
 20
40.0076
 11
14.4848
 21
39.6512
  0
LINE
  8
0
 10
14.4848
 20
39.6512
 11
14.3713
 21
39.3018
  0
LINE
  8
0
 10
14.3713
 20
39.3018
 11
14.2337
 21
38.9613
  0
LINE
  8
0
 10
14.2337
 20
38.9613
 11
14.0726
 21
38.6311
  0
LINE
  8
0
 10
14.0726
 20
38.6311
 11
13.889
 21
38.313
  0
LINE
  8
0
 10
13.889
 20
38.313
 11
13.6836
 21
38.0085
  0
LINE
  8
0
 10
13.6836
 20
38.0085
 11
13.4574
 21
37.719
  0
LINE
  8
0
 10
13.4574
 20
37.719
 11
13.2117
 21
37.4461
  0
LINE
  8
0
 10
13.2117
 20
37.4461
 11
12.9474
 21
37.1909
  0
LINE
  8
0
 10
12.9474
 20
37.1909
 11
12.666
 21
36.9548
  0
LINE
  8
0
 10
12.666
 20
36.9548
 11
12.3689
 21
36.7389
  0
LINE
  8
0
 10
12.3689
 20
36.7389
 11
12.0574
 21
36.5443
  0
LINE
  8
0
 10
12.0574
 20
36.5443
 11
11.7331
 21
36.3718
  0
LINE
  8
0
 10
11.7331
 20
36.3718
 11
11.3975
 21
36.2224
  0
LINE
  8
0
 10
11.3975
 20
36.2224
 11
11.0523
 21
36.0968
  0
LINE
  8
0
 10
11.0523
 20
36.0968
 11
10.6992
 21
35.9955
  0
LINE
  8
0
 10
10.6992
 20
35.9955
 11
10.34
 21
35.9192
  0
LINE
  8
0
 10
10.34
 20
35.9192
 11
9.97621
 21
35.868
  0
LINE
  8
0
 10
9.97621
 20
35.868
 11
9.60979
 21
35.8424
  0
LINE
  8
0
 10
9.60979
 20
35.8424
 11
9.24246
 21
35.8424
  0
LINE
  8
0
 10
-13.1562
 20
34.8645
 11
-13.5226
 21
34.8901
  0
LINE
  8
0
 10
-13.5226
 20
34.8901
 11
-13.8863
 21
34.9412
  0
LINE
  8
0
 10
-13.8863
 20
34.9412
 11
-14.2456
 21
35.0176
  0
LINE
  8
0
 10
-14.2456
 20
35.0176
 11
-14.5987
 21
35.1188
  0
LINE
  8
0
 10
-14.5987
 20
35.1188
 11
-14.9439
 21
35.2445
  0
LINE
  8
0
 10
-14.9439
 20
35.2445
 11
-15.2794
 21
35.3939
  0
LINE
  8
0
 10
-15.2794
 20
35.3939
 11
-15.6038
 21
35.5663
  0
LINE
  8
0
 10
-15.6038
 20
35.5663
 11
-15.9153
 21
35.761
  0
LINE
  8
0
 10
-15.9153
 20
35.761
 11
-16.2124
 21
35.9769
  0
LINE
  8
0
 10
-16.2124
 20
35.9769
 11
-16.4938
 21
36.213
  0
LINE
  8
0
 10
-16.4938
 20
36.213
 11
-16.758
 21
36.4681
  0
LINE
  8
0
 10
-16.758
 20
36.4681
 11
-17.0038
 21
36.7411
  0
LINE
  8
0
 10
-17.0038
 20
36.7411
 11
-17.23
 21
37.0305
  0
LINE
  8
0
 10
-17.23
 20
37.0305
 11
-17.4354
 21
37.3351
  0
LINE
  8
0
 10
-17.4354
 20
37.3351
 11
-17.619
 21
37.6532
  0
LINE
  8
0
 10
-17.619
 20
37.6532
 11
-17.78
 21
37.9833
  0
LINE
  8
0
 10
-17.78
 20
37.9833
 11
-17.9176
 21
38.3239
  0
LINE
  8
0
 10
-17.9176
 20
38.3239
 11
-18.0311
 21
38.6732
  0
LINE
  8
0
 10
-18.0311
 20
38.6732
 11
-18.12
 21
39.0296
  0
LINE
  8
0
 10
-18.12
 20
39.0296
 11
-18.1838
 21
39.3914
  0
LINE
  8
0
 10
-18.1838
 20
39.3914
 11
-18.2222
 21
39.7567
  0
LINE
  8
0
 10
-18.2222
 20
39.7567
 11
-18.235
 21
40.1238
  0
LINE
  8
0
 10
-18.235
 20
40.1238
 11
-18.2222
 21
40.4909
  0
LINE
  8
0
 10
-18.2222
 20
40.4909
 11
-18.1838
 21
40.8562
  0
LINE
  8
0
 10
-18.1838
 20
40.8562
 11
-18.12
 21
41.2179
  0
LINE
  8
0
 10
-18.12
 20
41.2179
 11
-18.0311
 21
41.5743
  0
LINE
  8
0
 10
-18.0311
 20
41.5743
 11
-17.9176
 21
41.9236
  0
LINE
  8
0
 10
-17.9176
 20
41.9236
 11
-17.78
 21
42.2642
  0
LINE
  8
0
 10
-17.78
 20
42.2642
 11
-17.619
 21
42.5944
  0
LINE
  8
0
 10
-17.619
 20
42.5944
 11
-17.4354
 21
42.9125
  0
LINE
  8
0
 10
-17.4354
 20
42.9125
 11
-17.23
 21
43.217
  0
LINE
  8
0
 10
-17.23
 20
43.217
 11
-17.0038
 21
43.5064
  0
LINE
  8
0
 10
-17.0038
 20
43.5064
 11
-16.758
 21
43.7794
  0
LINE
  8
0
 10
-16.758
 20
43.7794
 11
-16.4938
 21
44.0346
  0
LINE
  8
0
 10
-16.4938
 20
44.0346
 11
-16.2124
 21
44.2707
  0
LINE
  8
0
 10
-16.2124
 20
44.2707
 11
-15.9153
 21
44.4866
  0
LINE
  8
0
 10
-15.9153
 20
44.4866
 11
-15.6038
 21
44.6812
  0
LINE
  8
0
 10
-15.6038
 20
44.6812
 11
-15.2794
 21
44.8537
  0
LINE
  8
0
 10
-15.2794
 20
44.8537
 11
-14.9439
 21
45.0031
  0
LINE
  8
0
 10
-14.9439
 20
45.0031
 11
-14.5987
 21
45.1287
  0
LINE
  8
0
 10
-14.5987
 20
45.1287
 11
-14.2456
 21
45.2299
  0
LINE
  8
0
 10
-14.2456
 20
45.2299
 11
-13.8863
 21
45.3063
  0
LINE
  8
0
 10
-13.8863
 20
45.3063
 11
-13.5226
 21
45.3574
  0
LINE
  8
0
 10
-13.5226
 20
45.3574
 11
-13.1562
 21
45.3831
  0
LINE
  8
0
 10
-13.1562
 20
45.3831
 11
-12.7888
 21
45.3831
  0
LINE
  8
0
 10
-12.7888
 20
45.3831
 11
-12.4224
 21
45.3574
  0
LINE
  8
0
 10
-12.4224
 20
45.3574
 11
-12.0587
 21
45.3063
  0
LINE
  8
0
 10
-12.0587
 20
45.3063
 11
-11.6994
 21
45.2299
  0
LINE
  8
0
 10
-11.6994
 20
45.2299
 11
-11.3463
 21
45.1287
  0
LINE
  8
0
 10
-11.3463
 20
45.1287
 11
-11.0011
 21
45.0031
  0
LINE
  8
0
 10
-11.0011
 20
45.0031
 11
-10.6656
 21
44.8537
  0
LINE
  8
0
 10
-10.6656
 20
44.8537
 11
-10.3413
 21
44.6812
  0
LINE
  8
0
 10
-10.3413
 20
44.6812
 11
-10.0298
 21
44.4866
  0
LINE
  8
0
 10
-10.0298
 20
44.4866
 11
-9.73259
 21
44.2707
  0
LINE
  8
0
 10
-9.73259
 20
44.2707
 11
-9.4512
 21
44.0346
  0
LINE
  8
0
 10
-9.4512
 20
44.0346
 11
-9.18698
 21
43.7794
  0
LINE
  8
0
 10
-9.18698
 20
43.7794
 11
-8.94119
 21
43.5064
  0
LINE
  8
0
 10
-8.94119
 20
43.5064
 11
-8.71506
 21
43.217
  0
LINE
  8
0
 10
-8.71506
 20
43.217
 11
-8.50966
 21
42.9125
  0
LINE
  8
0
 10
-8.50966
 20
42.9125
 11
-8.326
 21
42.5944
  0
LINE
  8
0
 10
-8.326
 20
42.5944
 11
-8.16498
 21
42.2642
  0
LINE
  8
0
 10
-8.16498
 20
42.2642
 11
-8.02737
 21
41.9236
  0
LINE
  8
0
 10
-8.02737
 20
41.9236
 11
-7.91386
 21
41.5743
  0
LINE
  8
0
 10
-7.91386
 20
41.5743
 11
-7.82501
 21
41.2179
  0
LINE
  8
0
 10
-7.82501
 20
41.2179
 11
-7.76123
 21
40.8562
  0
LINE
  8
0
 10
-7.76123
 20
40.8562
 11
-7.72282
 21
40.4909
  0
LINE
  8
0
 10
-7.72282
 20
40.4909
 11
-7.71001
 21
40.1238
  0
LINE
  8
0
 10
-7.71001
 20
40.1238
 11
-7.72282
 21
39.7567
  0
LINE
  8
0
 10
-7.72282
 20
39.7567
 11
-7.76123
 21
39.3914
  0
LINE
  8
0
 10
-7.76123
 20
39.3914
 11
-7.82501
 21
39.0296
  0
LINE
  8
0
 10
-7.82501
 20
39.0296
 11
-7.91386
 21
38.6732
  0
LINE
  8
0
 10
-7.91386
 20
38.6732
 11
-8.02737
 21
38.3239
  0
LINE
  8
0
 10
-8.02737
 20
38.3239
 11
-8.16498
 21
37.9833
  0
LINE
  8
0
 10
-8.16498
 20
37.9833
 11
-8.326
 21
37.6532
  0
LINE
  8
0
 10
-8.326
 20
37.6532
 11
-8.50966
 21
37.3351
  0
LINE
  8
0
 10
-8.50966
 20
37.3351
 11
-8.71506
 21
37.0305
  0
LINE
  8
0
 10
-8.71506
 20
37.0305
 11
-8.94119
 21
36.7411
  0
LINE
  8
0
 10
-8.94119
 20
36.7411
 11
-9.18698
 21
36.4681
  0
LINE
  8
0
 10
-9.18698
 20
36.4681
 11
-9.4512
 21
36.213
  0
LINE
  8
0
 10
-9.4512
 20
36.213
 11
-9.73259
 21
35.9769
  0
LINE
  8
0
 10
-9.73259
 20
35.9769
 11
-10.0298
 21
35.761
  0
LINE
  8
0
 10
-10.0298
 20
35.761
 11
-10.3413
 21
35.5663
  0
LINE
  8
0
 10
-10.3413
 20
35.5663
 11
-10.6656
 21
35.3939
  0
LINE
  8
0
 10
-10.6656
 20
35.3939
 11
-11.0011
 21
35.2445
  0
LINE
  8
0
 10
-11.0011
 20
35.2445
 11
-11.3463
 21
35.1188
  0
LINE
  8
0
 10
-11.3463
 20
35.1188
 11
-11.6994
 21
35.0176
  0
LINE
  8
0
 10
-11.6994
 20
35.0176
 11
-12.0587
 21
34.9412
  0
LINE
  8
0
 10
-12.0587
 20
34.9412
 11
-12.4224
 21
34.8901
  0
LINE
  8
0
 10
-12.4224
 20
34.8901
 11
-12.7888
 21
34.8645
  0
LINE
  8
0
 10
-12.7888
 20
34.8645
 11
-13.1562
 21
34.8645
  0
LINE
  8
0
 10
28.9766
 20
25.2019
 11
28.6102
 21
25.2275
  0
LINE
  8
0
 10
28.6102
 20
25.2275
 11
28.2464
 21
25.2786
  0
LINE
  8
0
 10
28.2464
 20
25.2786
 11
27.8871
 21
25.355
  0
LINE
  8
0
 10
27.8871
 20
25.355
 11
27.534
 21
25.4562
  0
LINE
  8
0
 10
27.534
 20
25.4562
 11
27.1889
 21
25.5819
  0
LINE
  8
0
 10
27.1889
 20
25.5819
 11
26.8533
 21
25.7313
  0
LINE
  8
0
 10
26.8533
 20
25.7313
 11
26.529
 21
25.9037
  0
LINE
  8
0
 10
26.529
 20
25.9037
 11
26.2175
 21
26.0984
  0
LINE
  8
0
 10
26.2175
 20
26.0984
 11
25.9203
 21
26.3143
  0
LINE
  8
0
 10
25.9203
 20
26.3143
 11
25.6389
 21
26.5504
  0
LINE
  8
0
 10
25.6389
 20
26.5504
 11
25.3747
 21
26.8055
  0
LINE
  8
0
 10
25.3747
 20
26.8055
 11
25.1289
 21
27.0785
  0
LINE
  8
0
 10
25.1289
 20
27.0785
 11
24.9028
 21
27.368
  0
LINE
  8
0
 10
24.9028
 20
27.368
 11
24.6974
 21
27.6725
  0
LINE
  8
0
 10
24.6974
 20
27.6725
 11
24.5137
 21
27.9906
  0
LINE
  8
0
 10
24.5137
 20
27.9906
 11
24.3527
 21
28.3207
  0
LINE
  8
0
 10
24.3527
 20
28.3207
 11
24.2151
 21
28.6613
  0
LINE
  8
0
 10
24.2151
 20
28.6613
 11
24.1016
 21
29.0106
  0
LINE
  8
0
 10
24.1016
 20
29.0106
 11
24.0127
 21
29.367
  0
LINE
  8
0
 10
24.0127
 20
29.367
 11
23.9489
 21
29.7288
  0
LINE
  8
0
 10
23.9489
 20
29.7288
 11
23.9106
 21
30.0941
  0
LINE
  8
0
 10
23.9106
 20
30.0941
 11
23.8977
 21
30.4612
  0
LINE
  8
0
 10
23.8977
 20
30.4612
 11
23.9106
 21
30.8283
  0
LINE
  8
0
 10
23.9106
 20
30.8283
 11
23.9489
 21
31.1936
  0
LINE
  8
0
 10
23.9489
 20
31.1936
 11
24.0127
 21
31.5553
  0
LINE
  8
0
 10
24.0127
 20
31.5553
 11
24.1016
 21
31.9117
  0
LINE
  8
0
 10
24.1016
 20
31.9117
 11
24.2151
 21
32.2611
  0
LINE
  8
0
 10
24.2151
 20
32.2611
 11
24.3527
 21
32.6016
  0
LINE
  8
0
 10
24.3527
 20
32.6016
 11
24.5137
 21
32.9318
  0
LINE
  8
0
 10
24.5137
 20
32.9318
 11
24.6974
 21
33.2499
  0
LINE
  8
0
 10
24.6974
 20
33.2499
 11
24.9028
 21
33.5544
  0
LINE
  8
0
 10
24.9028
 20
33.5544
 11
25.1289
 21
33.8438
  0
LINE
  8
0
 10
25.1289
 20
33.8438
 11
25.3747
 21
34.1168
  0
LINE
  8
0
 10
25.3747
 20
34.1168
 11
25.6389
 21
34.372
  0
LINE
  8
0
 10
25.6389
 20
34.372
 11
25.9203
 21
34.6081
  0
LINE
  8
0
 10
25.9203
 20
34.6081
 11
26.2175
 21
34.824
  0
LINE
  8
0
 10
26.2175
 20
34.824
 11
26.529
 21
35.0186
  0
LINE
  8
0
 10
26.529
 20
35.0186
 11
26.8533
 21
35.1911
  0
LINE
  8
0
 10
26.8533
 20
35.1911
 11
27.1889
 21
35.3405
  0
LINE
  8
0
 10
27.1889
 20
35.3405
 11
27.534
 21
35.4661
  0
LINE
  8
0
 10
27.534
 20
35.4661
 11
27.8871
 21
35.5674
  0
LINE
  8
0
 10
27.8871
 20
35.5674
 11
28.2464
 21
35.6437
  0
LINE
  8
0
 10
28.2464
 20
35.6437
 11
28.6102
 21
35.6949
  0
LINE
  8
0
 10
28.6102
 20
35.6949
 11
28.9766
 21
35.7205
  0
LINE
  8
0
 10
28.9766
 20
35.7205
 11
29.3439
 21
35.7205
  0
LINE
  8
0
 10
29.3439
 20
35.7205
 11
29.7103
 21
35.6949
  0
LINE
  8
0
 10
29.7103
 20
35.6949
 11
30.0741
 21
35.6437
  0
LINE
  8
0
 10
30.0741
 20
35.6437
 11
30.4333
 21
35.5674
  0
LINE
  8
0
 10
30.4333
 20
35.5674
 11
30.7864
 21
35.4661
  0
LINE
  8
0
 10
30.7864
 20
35.4661
 11
31.1316
 21
35.3405
  0
LINE
  8
0
 10
31.1316
 20
35.3405
 11
31.4672
 21
35.1911
  0
LINE
  8
0
 10
31.4672
 20
35.1911
 11
31.7915
 21
35.0186
  0
LINE
  8
0
 10
31.7915
 20
35.0186
 11
32.103
 21
34.824
  0
LINE
  8
0
 10
32.103
 20
34.824
 11
32.4001
 21
34.6081
  0
LINE
  8
0
 10
32.4001
 20
34.6081
 11
32.6815
 21
34.372
  0
LINE
  8
0
 10
32.6815
 20
34.372
 11
32.9458
 21
34.1168
  0
LINE
  8
0
 10
32.9458
 20
34.1168
 11
33.1915
 21
33.8438
  0
LINE
  8
0
 10
33.1915
 20
33.8438
 11
33.4177
 21
33.5544
  0
LINE
  8
0
 10
33.4177
 20
33.5544
 11
33.6231
 21
33.2499
  0
LINE
  8
0
 10
33.6231
 20
33.2499
 11
33.8067
 21
32.9318
  0
LINE
  8
0
 10
33.8067
 20
32.9318
 11
33.9678
 21
32.6016
  0
LINE
  8
0
 10
33.9678
 20
32.6016
 11
34.1054
 21
32.2611
  0
LINE
  8
0
 10
34.1054
 20
32.2611
 11
34.2189
 21
31.9117
  0
LINE
  8
0
 10
34.2189
 20
31.9117
 11
34.3077
 21
31.5553
  0
LINE
  8
0
 10
34.3077
 20
31.5553
 11
34.3715
 21
31.1936
  0
LINE
  8
0
 10
34.3715
 20
31.1936
 11
34.4099
 21
30.8283
  0
LINE
  8
0
 10
34.4099
 20
30.8283
 11
34.4227
 21
30.4612
  0
LINE
  8
0
 10
34.4227
 20
30.4612
 11
34.4099
 21
30.0941
  0
LINE
  8
0
 10
34.4099
 20
30.0941
 11
34.3715
 21
29.7288
  0
LINE
  8
0
 10
34.3715
 20
29.7288
 11
34.3077
 21
29.367
  0
LINE
  8
0
 10
34.3077
 20
29.367
 11
34.2189
 21
29.0106
  0
LINE
  8
0
 10
34.2189
 20
29.0106
 11
34.1054
 21
28.6613
  0
LINE
  8
0
 10
34.1054
 20
28.6613
 11
33.9678
 21
28.3207
  0
LINE
  8
0
 10
33.9678
 20
28.3207
 11
33.8067
 21
27.9906
  0
LINE
  8
0
 10
33.8067
 20
27.9906
 11
33.6231
 21
27.6725
  0
LINE
  8
0
 10
33.6231
 20
27.6725
 11
33.4177
 21
27.368
  0
LINE
  8
0
 10
33.4177
 20
27.368
 11
33.1915
 21
27.0785
  0
LINE
  8
0
 10
33.1915
 20
27.0785
 11
32.9458
 21
26.8055
  0
LINE
  8
0
 10
32.9458
 20
26.8055
 11
32.6815
 21
26.5504
  0
LINE
  8
0
 10
32.6815
 20
26.5504
 11
32.4001
 21
26.3143
  0
LINE
  8
0
 10
32.4001
 20
26.3143
 11
32.103
 21
26.0984
  0
LINE
  8
0
 10
32.103
 20
26.0984
 11
31.7915
 21
25.9037
  0
LINE
  8
0
 10
31.7915
 20
25.9037
 11
31.4672
 21
25.7313
  0
LINE
  8
0
 10
31.4672
 20
25.7313
 11
31.1316
 21
25.5819
  0
LINE
  8
0
 10
31.1316
 20
25.5819
 11
30.7864
 21
25.4562
  0
LINE
  8
0
 10
30.7864
 20
25.4562
 11
30.4333
 21
25.355
  0
LINE
  8
0
 10
30.4333
 20
25.355
 11
30.0741
 21
25.2786
  0
LINE
  8
0
 10
30.0741
 20
25.2786
 11
29.7103
 21
25.2275
  0
LINE
  8
0
 10
29.7103
 20
25.2275
 11
29.3439
 21
25.2019
  0
LINE
  8
0
 10
29.3439
 20
25.2019
 11
28.9766
 21
25.2019
  0
LINE
  8
0
 10
-70.2874
 20
10.2418
 11
-71.1685
 21
10.3388
  0
LINE
  8
0
 10
-71.1685
 20
10.3388
 11
-72.0407
 21
10.497
  0
LINE
  8
0
 10
-72.0407
 20
10.497
 11
-72.8998
 21
10.7157
  0
LINE
  8
0
 10
-72.8998
 20
10.7157
 11
-73.7415
 21
10.9937
  0
LINE
  8
0
 10
-73.7415
 20
10.9937
 11
-74.5618
 21
11.3298
  0
LINE
  8
0
 10
-74.5618
 20
11.3298
 11
-75.3566
 21
11.7223
  0
LINE
  8
0
 10
-75.3566
 20
11.7223
 11
-76.1221
 21
12.1693
  0
LINE
  8
0
 10
-76.1221
 20
12.1693
 11
-76.8545
 21
12.6686
  0
LINE
  8
0
 10
-76.8545
 20
12.6686
 11
-77.5504
 21
13.2178
  0
LINE
  8
0
 10
-77.5504
 20
13.2178
 11
-78.2062
 21
13.8141
  0
LINE
  8
0
 10
-78.2062
 20
13.8141
 11
-78.8189
 21
14.4548
  0
LINE
  8
0
 10
-78.8189
 20
14.4548
 11
-79.3853
 21
15.1367
  0
LINE
  8
0
 10
-79.3853
 20
15.1367
 11
-79.9028
 21
15.8564
  0
LINE
  8
0
 10
-79.9028
 20
15.8564
 11
-80.3689
 21
16.6104
  0
LINE
  8
0
 10
-80.3689
 20
16.6104
 11
-80.7812
 21
17.3951
  0
LINE
  8
0
 10
-80.7812
 20
17.3951
 11
-81.1378
 21
18.2067
  0
LINE
  8
0
 10
-81.1378
 20
18.2067
 11
-81.4369
 21
19.0412
  0
LINE
  8
0
 10
-81.4369
 20
19.0412
 11
-81.677
 21
19.8945
  0
LINE
  8
0
 10
-81.677
 20
19.8945
 11
-81.8571
 21
20.7624
  0
LINE
  8
0
 10
-81.8571
 20
20.7624
 11
-81.9762
 21
21.6408
  0
LINE
  8
0
 10
-81.9762
 20
21.6408
 11
-82.0336
 21
22.5254
  0
LINE
  8
0
 10
-82.0336
 20
22.5254
 11
-82.0293
 21
23.4119
  0
LINE
  8
0
 10
-82.0293
 20
23.4119
 11
-81.9631
 21
24.2958
  0
LINE
  8
0
 10
-81.9631
 20
24.2958
 11
-81.8354
 21
25.173
  0
LINE
  8
0
 10
-81.8354
 20
25.173
 11
-81.6469
 21
26.0392
  0
LINE
  8
0
 10
-81.6469
 20
26.0392
 11
-81.3984
 21
26.8901
  0
LINE
  8
0
 10
-81.3984
 20
26.8901
 11
-81.0911
 21
27.7216
  0
LINE
  8
0
 10
-81.0911
 20
27.7216
 11
-80.7266
 21
28.5296
  0
LINE
  8
0
 10
-80.7266
 20
28.5296
 11
-80.3066
 21
29.3103
  0
LINE
  8
0
 10
-80.3066
 20
29.3103
 11
-79.8332
 21
30.0597
  0
LINE
  8
0
 10
-79.8332
 20
30.0597
 11
-79.3086
 21
30.7743
  0
LINE
  8
0
 10
-79.3086
 20
30.7743
 11
-78.7355
 21
31.4505
  0
LINE
  8
0
 10
-78.7355
 20
31.4505
 11
-78.1166
 21
32.0852
  0
LINE
  8
0
 10
-78.1166
 20
32.0852
 11
-77.4549
 21
32.6751
  0
LINE
  8
0
 10
-77.4549
 20
32.6751
 11
-76.7537
 21
33.2174
  0
LINE
  8
0
 10
-76.7537
 20
33.2174
 11
-76.0164
 21
33.7095
  0
LINE
  8
0
 10
-76.0164
 20
33.7095
 11
-75.2466
 21
34.1489
  0
LINE
  8
0
 10
-75.2466
 20
34.1489
 11
-74.4479
 21
34.5336
  0
LINE
  8
0
 10
-74.4479
 20
34.5336
 11
-73.6244
 21
34.8616
  0
LINE
  8
0
 10
-73.6244
 20
34.8616
 11
-72.78
 21
35.1314
  0
LINE
  8
0
 10
-72.78
 20
35.1314
 11
-71.9189
 21
35.3417
  0
LINE
  8
0
 10
-71.9189
 20
35.3417
 11
-71.0452
 21
35.4913
  0
LINE
  8
0
 10
-71.0452
 20
35.4913
 11
-70.1631
 21
35.5796
  0
LINE
  8
0
 10
-70.1631
 20
35.5796
 11
-69.2771
 21
35.6062
  0
LINE
  8
0
 10
-69.2771
 20
35.6062
 11
-68.3913
 21
35.571
  0
LINE
  8
0
 10
-68.3913
 20
35.571
 11
-67.5102
 21
35.474
  0
LINE
  8
0
 10
-67.5102
 20
35.474
 11
-66.638
 21
35.3158
  0
LINE
  8
0
 10
-66.638
 20
35.3158
 11
-65.7789
 21
35.0971
  0
LINE
  8
0
 10
-65.7789
 20
35.0971
 11
-64.9372
 21
34.819
  0
LINE
  8
0
 10
-64.9372
 20
34.819
 11
-64.117
 21
34.4829
  0
LINE
  8
0
 10
-64.117
 20
34.4829
 11
-63.3221
 21
34.0904
  0
LINE
  8
0
 10
-63.3221
 20
34.0904
 11
-62.5566
 21
33.6434
  0
LINE
  8
0
 10
-62.5566
 20
33.6434
 11
-61.8242
 21
33.1441
  0
LINE
  8
0
 10
-61.8242
 20
33.1441
 11
-61.1283
 21
32.595
  0
LINE
  8
0
 10
-61.1283
 20
32.595
 11
-60.4725
 21
31.9986
  0
LINE
  8
0
 10
-60.4725
 20
31.9986
 11
-59.8598
 21
31.3579
  0
LINE
  8
0
 10
-59.8598
 20
31.3579
 11
-59.2934
 21
30.6761
  0
LINE
  8
0
 10
-59.2934
 20
30.6761
 11
-58.7759
 21
29.9564
  0
LINE
  8
0
 10
-58.7759
 20
29.9564
 11
-58.3098
 21
29.2023
  0
LINE
  8
0
 10
-58.3098
 20
29.2023
 11
-57.8975
 21
28.4176
  0
LINE
  8
0
 10
-57.8975
 20
28.4176
 11
-57.5409
 21
27.6061
  0
LINE
  8
0
 10
-57.5409
 20
27.6061
 11
-57.2418
 21
26.7716
  0
LINE
  8
0
 10
-57.2418
 20
26.7716
 11
-57.0017
 21
25.9183
  0
LINE
  8
0
 10
-57.0017
 20
25.9183
 11
-56.8216
 21
25.0503
  0
LINE
  8
0
 10
-56.8216
 20
25.0503
 11
-56.7026
 21
24.1719
  0
LINE
  8
0
 10
-56.7026
 20
24.1719
 11
-56.6451
 21
23.2873
  0
LINE
  8
0
 10
-56.6451
 20
23.2873
 11
-56.6494
 21
22.4009
  0
LINE
  8
0
 10
-56.6494
 20
22.4009
 11
-56.7156
 21
21.5169
  0
LINE
  8
0
 10
-56.7156
 20
21.5169
 11
-56.8433
 21
20.6397
  0
LINE
  8
0
 10
-56.8433
 20
20.6397
 11
-57.0318
 21
19.7736
  0
LINE
  8
0
 10
-57.0318
 20
19.7736
 11
-57.2803
 21
18.9227
  0
LINE
  8
0
 10
-57.2803
 20
18.9227
 11
-57.5876
 21
18.0912
  0
LINE
  8
0
 10
-57.5876
 20
18.0912
 11
-57.9521
 21
17.2831
  0
LINE
  8
0
 10
-57.9521
 20
17.2831
 11
-58.3721
 21
16.5025
  0
LINE
  8
0
 10
-58.3721
 20
16.5025
 11
-58.8456
 21
15.7531
  0
LINE
  8
0
 10
-58.8456
 20
15.7531
 11
-59.3701
 21
15.0385
  0
LINE
  8
0
 10
-59.3701
 20
15.0385
 11
-59.9432
 21
14.3622
  0
LINE
  8
0
 10
-59.9432
 20
14.3622
 11
-60.5621
 21
13.7276
  0
LINE
  8
0
 10
-60.5621
 20
13.7276
 11
-61.2238
 21
13.1377
  0
LINE
  8
0
 10
-61.2238
 20
13.1377
 11
-61.925
 21
12.5954
  0
LINE
  8
0
 10
-61.925
 20
12.5954
 11
-62.6623
 21
12.1033
  0
LINE
  8
0
 10
-62.6623
 20
12.1033
 11
-63.4321
 21
11.6638
  0
LINE
  8
0
 10
-63.4321
 20
11.6638
 11
-64.2308
 21
11.2792
  0
LINE
  8
0
 10
-64.2308
 20
11.2792
 11
-65.0543
 21
10.9511
  0
LINE
  8
0
 10
-65.0543
 20
10.9511
 11
-65.8987
 21
10.6813
  0
LINE
  8
0
 10
-65.8987
 20
10.6813
 11
-66.7599
 21
10.4711
  0
LINE
  8
0
 10
-66.7599
 20
10.4711
 11
-67.6336
 21
10.3215
  0
LINE
  8
0
 10
-67.6336
 20
10.3215
 11
-68.5156
 21
10.2331
  0
LINE
  8
0
 10
-68.5156
 20
10.2331
 11
-69.4017
 21
10.2065
  0
LINE
  8
0
 10
-69.4017
 20
10.2065
 11
-70.2874
 21
10.2418
  0
LINE
  8
0
 10
68.6127
 20
9.56042
 11
67.7316
 21
9.65741
  0
LINE
  8
0
 10
67.7316
 20
9.65741
 11
66.8594
 21
9.81561
  0
LINE
  8
0
 10
66.8594
 20
9.81561
 11
66.0003
 21
10.0343
  0
LINE
  8
0
 10
66.0003
 20
10.0343
 11
65.1586
 21
10.3123
  0
LINE
  8
0
 10
65.1586
 20
10.3123
 11
64.3383
 21
10.6484
  0
LINE
  8
0
 10
64.3383
 20
10.6484
 11
63.5435
 21
11.0409
  0
LINE
  8
0
 10
63.5435
 20
11.0409
 11
62.778
 21
11.4879
  0
LINE
  8
0
 10
62.778
 20
11.4879
 11
62.0456
 21
11.9872
  0
LINE
  8
0
 10
62.0456
 20
11.9872
 11
61.3497
 21
12.5364
  0
LINE
  8
0
 10
61.3497
 20
12.5364
 11
60.6939
 21
13.1328
  0
LINE
  8
0
 10
60.6939
 20
13.1328
 11
60.0812
 21
13.7734
  0
LINE
  8
0
 10
60.0812
 20
13.7734
 11
59.5148
 21
14.4553
  0
LINE
  8
0
 10
59.5148
 20
14.4553
 11
58.9973
 21
15.175
  0
LINE
  8
0
 10
58.9973
 20
15.175
 11
58.5312
 21
15.929
  0
LINE
  8
0
 10
58.5312
 20
15.929
 11
58.1189
 21
16.7137
  0
LINE
  8
0
 10
58.1189
 20
16.7137
 11
57.7623
 21
17.5253
  0
LINE
  8
0
 10
57.7623
 20
17.5253
 11
57.4632
 21
18.3598
  0
LINE
  8
0
 10
57.4632
 20
18.3598
 11
57.2231
 21
19.2131
  0
LINE
  8
0
 10
57.2231
 20
19.2131
 11
57.043
 21
20.081
  0
LINE
  8
0
 10
57.043
 20
20.081
 11
56.924
 21
20.9595
  0
LINE
  8
0
 10
56.924
 20
20.9595
 11
56.8665
 21
21.844
  0
LINE
  8
0
 10
56.8665
 20
21.844
 11
56.8708
 21
22.7305
  0
LINE
  8
0
 10
56.8708
 20
22.7305
 11
56.937
 21
23.6144
  0
LINE
  8
0
 10
56.937
 20
23.6144
 11
57.0647
 21
24.4917
  0
LINE
  8
0
 10
57.0647
 20
24.4917
 11
57.2532
 21
25.3578
  0
LINE
  8
0
 10
57.2532
 20
25.3578
 11
57.5017
 21
26.2087
  0
LINE
  8
0
 10
57.5017
 20
26.2087
 11
57.809
 21
27.0402
  0
LINE
  8
0
 10
57.809
 20
27.0402
 11
58.1735
 21
27.8482
  0
LINE
  8
0
 10
58.1735
 20
27.8482
 11
58.5935
 21
28.6289
  0
LINE
  8
0
 10
58.5935
 20
28.6289
 11
59.0669
 21
29.3783
  0
LINE
  8
0
 10
59.0669
 20
29.3783
 11
59.5915
 21
30.0929
  0
LINE
  8
0
 10
59.5915
 20
30.0929
 11
60.1646
 21
30.7691
  0
LINE
  8
0
 10
60.1646
 20
30.7691
 11
60.7835
 21
31.4038
  0
LINE
  8
0
 10
60.7835
 20
31.4038
 11
61.4452
 21
31.9937
  0
LINE
  8
0
 10
61.4452
 20
31.9937
 11
62.1464
 21
32.536
  0
LINE
  8
0
 10
62.1464
 20
32.536
 11
62.8837
 21
33.0281
  0
LINE
  8
0
 10
62.8837
 20
33.0281
 11
63.6535
 21
33.4675
  0
LINE
  8
0
 10
63.6535
 20
33.4675
 11
64.4522
 21
33.8522
  0
LINE
  8
0
 10
64.4522
 20
33.8522
 11
65.2757
 21
34.1803
  0
LINE
  8
0
 10
65.2757
 20
34.1803
 11
66.1201
 21
34.45
  0
LINE
  8
0
 10
66.1201
 20
34.45
 11
66.9812
 21
34.6603
  0
LINE
  8
0
 10
66.9812
 20
34.6603
 11
67.855
 21
34.8099
  0
LINE
  8
0
 10
67.855
 20
34.8099
 11
68.737
 21
34.8983
  0
LINE
  8
0
 10
68.737
 20
34.8983
 11
69.6231
 21
34.9248
  0
LINE
  8
0
 10
69.6231
 20
34.9248
 11
70.5088
 21
34.8896
  0
LINE
  8
0
 10
70.5088
 20
34.8896
 11
71.3899
 21
34.7926
  0
LINE
  8
0
 10
71.3899
 20
34.7926
 11
72.2621
 21
34.6344
  0
LINE
  8
0
 10
72.2621
 20
34.6344
 11
73.1212
 21
34.4157
  0
LINE
  8
0
 10
73.1212
 20
34.4157
 11
73.9629
 21
34.1376
  0
LINE
  8
0
 10
73.9629
 20
34.1376
 11
74.7832
 21
33.8015
  0
LINE
  8
0
 10
74.7832
 20
33.8015
 11
75.578
 21
33.409
  0
LINE
  8
0
 10
75.578
 20
33.409
 11
76.3435
 21
32.9621
  0
LINE
  8
0
 10
76.3435
 20
32.9621
 11
77.0759
 21
32.4628
  0
LINE
  8
0
 10
77.0759
 20
32.4628
 11
77.7718
 21
31.9136
  0
LINE
  8
0
 10
77.7718
 20
31.9136
 11
78.4276
 21
31.3172
  0
LINE
  8
0
 10
78.4276
 20
31.3172
 11
79.0403
 21
30.6765
  0
LINE
  8
0
 10
79.0403
 20
30.6765
 11
79.6067
 21
29.9947
  0
LINE
  8
0
 10
79.6067
 20
29.9947
 11
80.1243
 21
29.275
  0
LINE
  8
0
 10
80.1243
 20
29.275
 11
80.5903
 21
28.521
  0
LINE
  8
0
 10
80.5903
 20
28.521
 11
81.0026
 21
27.7362
  0
LINE
  8
0
 10
81.0026
 20
27.7362
 11
81.3592
 21
26.9247
  0
LINE
  8
0
 10
81.3592
 20
26.9247
 11
81.6583
 21
26.0902
  0
LINE
  8
0
 10
81.6583
 20
26.0902
 11
81.8984
 21
25.2369
  0
LINE
  8
0
 10
81.8984
 20
25.2369
 11
82.0785
 21
24.3689
  0
LINE
  8
0
 10
82.0785
 20
24.3689
 11
82.1975
 21
23.4905
  0
LINE
  8
0
 10
82.1975
 20
23.4905
 11
82.255
 21
22.6059
  0
LINE
  8
0
 10
82.255
 20
22.6059
 11
82.2507
 21
21.7195
  0
LINE
  8
0
 10
82.2507
 20
21.7195
 11
82.1845
 21
20.8355
  0
LINE
  8
0
 10
82.1845
 20
20.8355
 11
82.0569
 21
19.9583
  0
LINE
  8
0
 10
82.0569
 20
19.9583
 11
81.8683
 21
19.0922
  0
LINE
  8
0
 10
81.8683
 20
19.0922
 11
81.6198
 21
18.2413
  0
LINE
  8
0
 10
81.6198
 20
18.2413
 11
81.3125
 21
17.4098
  0
LINE
  8
0
 10
81.3125
 20
17.4098
 11
80.948
 21
16.6017
  0
LINE
  8
0
 10
80.948
 20
16.6017
 11
80.528
 21
15.8211
  0
LINE
  8
0
 10
80.528
 20
15.8211
 11
80.0546
 21
15.0717
  0
LINE
  8
0
 10
80.0546
 20
15.0717
 11
79.53
 21
14.3571
  0
LINE
  8
0
 10
79.53
 20
14.3571
 11
78.9569
 21
13.6808
  0
LINE
  8
0
 10
78.9569
 20
13.6808
 11
78.338
 21
13.0462
  0
LINE
  8
0
 10
78.338
 20
13.0462
 11
77.6763
 21
12.4563
  0
LINE
  8
0
 10
77.6763
 20
12.4563
 11
76.9751
 21
11.914
  0
LINE
  8
0
 10
76.9751
 20
11.914
 11
76.2378
 21
11.4219
  0
LINE
  8
0
 10
76.2378
 20
11.4219
 11
75.468
 21
10.9824
  0
LINE
  8
0
 10
75.468
 20
10.9824
 11
74.6693
 21
10.5978
  0
LINE
  8
0
 10
74.6693
 20
10.5978
 11
73.8458
 21
10.2697
  0
LINE
  8
0
 10
73.8458
 20
10.2697
 11
73.0014
 21
9.99994
  0
LINE
  8
0
 10
73.0014
 20
9.99994
 11
72.1403
 21
9.78972
  0
LINE
  8
0
 10
72.1403
 20
9.78972
 11
71.2665
 21
9.64008
  0
LINE
  8
0
 10
71.2665
 20
9.64008
 11
70.3845
 21
9.55174
  0
LINE
  8
0
 10
70.3845
 20
9.55174
 11
69.4985
 21
9.52515
  0
LINE
  8
0
 10
69.4985
 20
9.52515
 11
68.6127
 21
9.56042
  0
LINE
  8
0
 10
-31.8878
 20
22.5445
 11
-32.2542
 21
22.5701
  0
LINE
  8
0
 10
-32.2542
 20
22.5701
 11
-32.618
 21
22.6212
  0
LINE
  8
0
 10
-32.618
 20
22.6212
 11
-32.9772
 21
22.6976
  0
LINE
  8
0
 10
-32.9772
 20
22.6976
 11
-33.3303
 21
22.7988
  0
LINE
  8
0
 10
-33.3303
 20
22.7988
 11
-33.6755
 21
22.9245
  0
LINE
  8
0
 10
-33.6755
 20
22.9245
 11
-34.0111
 21
23.0739
  0
LINE
  8
0
 10
-34.0111
 20
23.0739
 11
-34.3354
 21
23.2463
  0
LINE
  8
0
 10
-34.3354
 20
23.2463
 11
-34.6469
 21
23.441
  0
LINE
  8
0
 10
-34.6469
 20
23.441
 11
-34.9441
 21
23.6569
  0
LINE
  8
0
 10
-34.9441
 20
23.6569
 11
-35.2254
 21
23.893
  0
LINE
  8
0
 10
-35.2254
 20
23.893
 11
-35.4897
 21
24.1481
  0
LINE
  8
0
 10
-35.4897
 20
24.1481
 11
-35.7354
 21
24.4211
  0
LINE
  8
0
 10
-35.7354
 20
24.4211
 11
-35.9616
 21
24.7106
  0
LINE
  8
0
 10
-35.9616
 20
24.7106
 11
-36.167
 21
25.0151
  0
LINE
  8
0
 10
-36.167
 20
25.0151
 11
-36.3506
 21
25.3332
  0
LINE
  8
0
 10
-36.3506
 20
25.3332
 11
-36.5117
 21
25.6633
  0
LINE
  8
0
 10
-36.5117
 20
25.6633
 11
-36.6493
 21
26.0039
  0
LINE
  8
0
 10
-36.6493
 20
26.0039
 11
-36.7628
 21
26.3532
  0
LINE
  8
0
 10
-36.7628
 20
26.3532
 11
-36.8516
 21
26.7096
  0
LINE
  8
0
 10
-36.8516
 20
26.7096
 11
-36.9154
 21
27.0714
  0
LINE
  8
0
 10
-36.9154
 20
27.0714
 11
-36.9538
 21
27.4367
  0
LINE
  8
0
 10
-36.9538
 20
27.4367
 11
-36.9666
 21
27.8038
  0
LINE
  8
0
 10
-36.9666
 20
27.8038
 11
-36.9538
 21
28.1709
  0
LINE
  8
0
 10
-36.9538
 20
28.1709
 11
-36.9154
 21
28.5362
  0
LINE
  8
0
 10
-36.9154
 20
28.5362
 11
-36.8516
 21
28.8979
  0
LINE
  8
0
 10
-36.8516
 20
28.8979
 11
-36.7628
 21
29.2543
  0
LINE
  8
0
 10
-36.7628
 20
29.2543
 11
-36.6493
 21
29.6037
  0
LINE
  8
0
 10
-36.6493
 20
29.6037
 11
-36.5117
 21
29.9442
  0
LINE
  8
0
 10
-36.5117
 20
29.9442
 11
-36.3506
 21
30.2744
  0
LINE
  8
0
 10
-36.3506
 20
30.2744
 11
-36.167
 21
30.5925
  0
LINE
  8
0
 10
-36.167
 20
30.5925
 11
-35.9616
 21
30.897
  0
LINE
  8
0
 10
-35.9616
 20
30.897
 11
-35.7354
 21
31.1864
  0
LINE
  8
0
 10
-35.7354
 20
31.1864
 11
-35.4897
 21
31.4594
  0
LINE
  8
0
 10
-35.4897
 20
31.4594
 11
-35.2254
 21
31.7146
  0
LINE
  8
0
 10
-35.2254
 20
31.7146
 11
-34.9441
 21
31.9507
  0
LINE
  8
0
 10
-34.9441
 20
31.9507
 11
-34.6469
 21
32.1666
  0
LINE
  8
0
 10
-34.6469
 20
32.1666
 11
-34.3354
 21
32.3612
  0
LINE
  8
0
 10
-34.3354
 20
32.3612
 11
-34.0111
 21
32.5337
  0
LINE
  8
0
 10
-34.0111
 20
32.5337
 11
-33.6755
 21
32.6831
  0
LINE
  8
0
 10
-33.6755
 20
32.6831
 11
-33.3303
 21
32.8087
  0
LINE
  8
0
 10
-33.3303
 20
32.8087
 11
-32.9772
 21
32.91
  0
LINE
  8
0
 10
-32.9772
 20
32.91
 11
-32.618
 21
32.9863
  0
LINE
  8
0
 10
-32.618
 20
32.9863
 11
-32.2542
 21
33.0374
  0
LINE
  8
0
 10
-32.2542
 20
33.0374
 11
-31.8878
 21
33.0631
  0
LINE
  8
0
 10
-31.8878
 20
33.0631
 11
-31.5205
 21
33.0631
  0
LINE
  8
0
 10
-31.5205
 20
33.0631
 11
-31.1541
 21
33.0374
  0
LINE
  8
0
 10
-31.1541
 20
33.0374
 11
-30.7903
 21
32.9863
  0
LINE
  8
0
 10
-30.7903
 20
32.9863
 11
-30.431
 21
32.91
  0
LINE
  8
0
 10
-30.431
 20
32.91
 11
-30.0779
 21
32.8087
  0
LINE
  8
0
 10
-30.0779
 20
32.8087
 11
-29.7328
 21
32.6831
  0
LINE
  8
0
 10
-29.7328
 20
32.6831
 11
-29.3972
 21
32.5337
  0
LINE
  8
0
 10
-29.3972
 20
32.5337
 11
-29.0729
 21
32.3612
  0
LINE
  8
0
 10
-29.0729
 20
32.3612
 11
-28.7614
 21
32.1666
  0
LINE
  8
0
 10
-28.7614
 20
32.1666
 11
-28.4642
 21
31.9507
  0
LINE
  8
0
 10
-28.4642
 20
31.9507
 11
-28.1828
 21
31.7146
  0
LINE
  8
0
 10
-28.1828
 20
31.7146
 11
-27.9186
 21
31.4594
  0
LINE
  8
0
 10
-27.9186
 20
31.4594
 11
-27.6728
 21
31.1864
  0
LINE
  8
0
 10
-27.6728
 20
31.1864
 11
-27.4467
 21
30.897
  0
LINE
  8
0
 10
-27.4467
 20
30.897
 11
-27.2413
 21
30.5925
  0
LINE
  8
0
 10
-27.2413
 20
30.5925
 11
-27.0576
 21
30.2744
  0
LINE
  8
0
 10
-27.0576
 20
30.2744
 11
-26.8966
 21
29.9442
  0
LINE
  8
0
 10
-26.8966
 20
29.9442
 11
-26.759
 21
29.6037
  0
LINE
  8
0
 10
-26.759
 20
29.6037
 11
-26.6455
 21
29.2543
  0
LINE
  8
0
 10
-26.6455
 20
29.2543
 11
-26.5566
 21
28.8979
  0
LINE
  8
0
 10
-26.5566
 20
28.8979
 11
-26.4929
 21
28.5362
  0
LINE
  8
0
 10
-26.4929
 20
28.5362
 11
-26.4545
 21
28.1709
  0
LINE
  8
0
 10
-26.4545
 20
28.1709
 11
-26.4416
 21
27.8038
  0
LINE
  8
0
 10
-26.4416
 20
27.8038
 11
-26.4545
 21
27.4367
  0
LINE
  8
0
 10
-26.4545
 20
27.4367
 11
-26.4929
 21
27.0714
  0
LINE
  8
0
 10
-26.4929
 20
27.0714
 11
-26.5566
 21
26.7096
  0
LINE
  8
0
 10
-26.5566
 20
26.7096
 11
-26.6455
 21
26.3532
  0
LINE
  8
0
 10
-26.6455
 20
26.3532
 11
-26.759
 21
26.0039
  0
LINE
  8
0
 10
-26.759
 20
26.0039
 11
-26.8966
 21
25.6633
  0
LINE
  8
0
 10
-26.8966
 20
25.6633
 11
-27.0576
 21
25.3332
  0
LINE
  8
0
 10
-27.0576
 20
25.3332
 11
-27.2413
 21
25.0151
  0
LINE
  8
0
 10
-27.2413
 20
25.0151
 11
-27.4467
 21
24.7106
  0
LINE
  8
0
 10
-27.4467
 20
24.7106
 11
-27.6728
 21
24.4211
  0
LINE
  8
0
 10
-27.6728
 20
24.4211
 11
-27.9186
 21
24.1481
  0
LINE
  8
0
 10
-27.9186
 20
24.1481
 11
-28.1828
 21
23.893
  0
LINE
  8
0
 10
-28.1828
 20
23.893
 11
-28.4642
 21
23.6569
  0
LINE
  8
0
 10
-28.4642
 20
23.6569
 11
-28.7614
 21
23.441
  0
LINE
  8
0
 10
-28.7614
 20
23.441
 11
-29.0729
 21
23.2463
  0
LINE
  8
0
 10
-29.0729
 20
23.2463
 11
-29.3972
 21
23.0739
  0
LINE
  8
0
 10
-29.3972
 20
23.0739
 11
-29.7328
 21
22.9245
  0
LINE
  8
0
 10
-29.7328
 20
22.9245
 11
-30.0779
 21
22.7988
  0
LINE
  8
0
 10
-30.0779
 20
22.7988
 11
-30.431
 21
22.6976
  0
LINE
  8
0
 10
-30.431
 20
22.6976
 11
-30.7903
 21
22.6212
  0
LINE
  8
0
 10
-30.7903
 20
22.6212
 11
-31.1541
 21
22.5701
  0
LINE
  8
0
 10
-31.1541
 20
22.5701
 11
-31.5205
 21
22.5445
  0
LINE
  8
0
 10
-31.5205
 20
22.5445
 11
-31.8878
 21
22.5445
  0
LINE
  8
0
 10
40.4678
 20
5.9507
 11
40.1013
 21
5.97632
  0
LINE
  8
0
 10
40.1013
 20
5.97632
 11
39.7376
 21
6.02744
  0
LINE
  8
0
 10
39.7376
 20
6.02744
 11
39.3783
 21
6.10381
  0
LINE
  8
0
 10
39.3783
 20
6.10381
 11
39.0252
 21
6.20505
  0
LINE
  8
0
 10
39.0252
 20
6.20505
 11
38.6801
 21
6.33069
  0
LINE
  8
0
 10
38.6801
 20
6.33069
 11
38.3445
 21
6.48009
  0
LINE
  8
0
 10
38.3445
 20
6.48009
 11
38.0202
 21
6.65253
  0
LINE
  8
0
 10
38.0202
 20
6.65253
 11
37.7087
 21
6.84718
  0
LINE
  8
0
 10
37.7087
 20
6.84718
 11
37.4115
 21
7.06308
  0
LINE
  8
0
 10
37.4115
 20
7.06308
 11
37.1301
 21
7.29919
  0
LINE
  8
0
 10
37.1301
 20
7.29919
 11
36.8659
 21
7.55435
  0
LINE
  8
0
 10
36.8659
 20
7.55435
 11
36.6201
 21
7.82732
  0
LINE
  8
0
 10
36.6201
 20
7.82732
 11
36.394
 21
8.11676
  0
LINE
  8
0
 10
36.394
 20
8.11676
 11
36.1886
 21
8.42128
  0
LINE
  8
0
 10
36.1886
 20
8.42128
 11
36.0049
 21
8.7394
  0
LINE
  8
0
 10
36.0049
 20
8.7394
 11
35.8439
 21
9.06953
  0
LINE
  8
0
 10
35.8439
 20
9.06953
 11
35.7063
 21
9.41011
  0
LINE
  8
0
 10
35.7063
 20
9.41011
 11
35.5928
 21
9.75945
  0
LINE
  8
0
 10
35.5928
 20
9.75945
 11
35.5039
 21
10.1158
  0
LINE
  8
0
 10
35.5039
 20
10.1158
 11
35.4401
 21
10.4776
  0
LINE
  8
0
 10
35.4401
 20
10.4776
 11
35.4017
 21
10.8429
  0
LINE
  8
0
 10
35.4017
 20
10.8429
 11
35.3889
 21
11.21
  0
LINE
  8
0
 10
35.3889
 20
11.21
 11
35.4017
 21
11.5771
  0
LINE
  8
0
 10
35.4017
 20
11.5771
 11
35.4401
 21
11.9424
  0
LINE
  8
0
 10
35.4401
 20
11.9424
 11
35.5039
 21
12.3041
  0
LINE
  8
0
 10
35.5039
 20
12.3041
 11
35.5928
 21
12.6605
  0
LINE
  8
0
 10
35.5928
 20
12.6605
 11
35.7063
 21
13.0099
  0
LINE
  8
0
 10
35.7063
 20
13.0099
 11
35.8439
 21
13.3504
  0
LINE
  8
0
 10
35.8439
 20
13.3504
 11
36.0049
 21
13.6806
  0
LINE
  8
0
 10
36.0049
 20
13.6806
 11
36.1886
 21
13.9987
  0
LINE
  8
0
 10
36.1886
 20
13.9987
 11
36.394
 21
14.3032
  0
LINE
  8
0
 10
36.394
 20
14.3032
 11
36.6201
 21
14.5927
  0
LINE
  8
0
 10
36.6201
 20
14.5927
 11
36.8659
 21
14.8656
  0
LINE
  8
0
 10
36.8659
 20
14.8656
 11
37.1301
 21
15.1208
  0
LINE
  8
0
 10
37.1301
 20
15.1208
 11
37.4115
 21
15.3569
  0
LINE
  8
0
 10
37.4115
 20
15.3569
 11
37.7087
 21
15.5728
  0
LINE
  8
0
 10
37.7087
 20
15.5728
 11
38.0202
 21
15.7674
  0
LINE
  8
0
 10
38.0202
 20
15.7674
 11
38.3445
 21
15.9399
  0
LINE
  8
0
 10
38.3445
 20
15.9399
 11
38.6801
 21
16.0893
  0
LINE
  8
0
 10
38.6801
 20
16.0893
 11
39.0252
 21
16.2149
  0
LINE
  8
0
 10
39.0252
 20
16.2149
 11
39.3783
 21
16.3162
  0
LINE
  8
0
 10
39.3783
 20
16.3162
 11
39.7376
 21
16.3925
  0
LINE
  8
0
 10
39.7376
 20
16.3925
 11
40.1013
 21
16.4437
  0
LINE
  8
0
 10
40.1013
 20
16.4437
 11
40.4678
 21
16.4693
  0
LINE
  8
0
 10
40.4678
 20
16.4693
 11
40.8351
 21
16.4693
  0
LINE
  8
0
 10
40.8351
 20
16.4693
 11
41.2015
 21
16.4437
  0
LINE
  8
0
 10
41.2015
 20
16.4437
 11
41.5653
 21
16.3925
  0
LINE
  8
0
 10
41.5653
 20
16.3925
 11
41.9245
 21
16.3162
  0
LINE
  8
0
 10
41.9245
 20
16.3162
 11
42.2776
 21
16.2149
  0
LINE
  8
0
 10
42.2776
 20
16.2149
 11
42.6228
 21
16.0893
  0
LINE
  8
0
 10
42.6228
 20
16.0893
 11
42.9584
 21
15.9399
  0
LINE
  8
0
 10
42.9584
 20
15.9399
 11
43.2827
 21
15.7674
  0
LINE
  8
0
 10
43.2827
 20
15.7674
 11
43.5942
 21
15.5728
  0
LINE
  8
0
 10
43.5942
 20
15.5728
 11
43.8914
 21
15.3569
  0
LINE
  8
0
 10
43.8914
 20
15.3569
 11
44.1727
 21
15.1208
  0
LINE
  8
0
 10
44.1727
 20
15.1208
 11
44.437
 21
14.8656
  0
LINE
  8
0
 10
44.437
 20
14.8656
 11
44.6827
 21
14.5927
  0
LINE
  8
0
 10
44.6827
 20
14.5927
 11
44.9089
 21
14.3032
  0
LINE
  8
0
 10
44.9089
 20
14.3032
 11
45.1143
 21
13.9987
  0
LINE
  8
0
 10
45.1143
 20
13.9987
 11
45.2979
 21
13.6806
  0
LINE
  8
0
 10
45.2979
 20
13.6806
 11
45.459
 21
13.3504
  0
LINE
  8
0
 10
45.459
 20
13.3504
 11
45.5966
 21
13.0099
  0
LINE
  8
0
 10
45.5966
 20
13.0099
 11
45.7101
 21
12.6605
  0
LINE
  8
0
 10
45.7101
 20
12.6605
 11
45.7989
 21
12.3041
  0
LINE
  8
0
 10
45.7989
 20
12.3041
 11
45.8627
 21
11.9424
  0
LINE
  8
0
 10
45.8627
 20
11.9424
 11
45.9011
 21
11.5771
  0
LINE
  8
0
 10
45.9011
 20
11.5771
 11
45.9139
 21
11.21
  0
LINE
  8
0
 10
45.9139
 20
11.21
 11
45.9011
 21
10.8429
  0
LINE
  8
0
 10
45.9011
 20
10.8429
 11
45.8627
 21
10.4776
  0
LINE
  8
0
 10
45.8627
 20
10.4776
 11
45.7989
 21
10.1158
  0
LINE
  8
0
 10
45.7989
 20
10.1158
 11
45.7101
 21
9.75945
  0
LINE
  8
0
 10
45.7101
 20
9.75945
 11
45.5966
 21
9.41011
  0
LINE
  8
0
 10
45.5966
 20
9.41011
 11
45.459
 21
9.06953
  0
LINE
  8
0
 10
45.459
 20
9.06953
 11
45.2979
 21
8.7394
  0
LINE
  8
0
 10
45.2979
 20
8.7394
 11
45.1143
 21
8.42128
  0
LINE
  8
0
 10
45.1143
 20
8.42128
 11
44.9089
 21
8.11676
  0
LINE
  8
0
 10
44.9089
 20
8.11676
 11
44.6827
 21
7.82732
  0
LINE
  8
0
 10
44.6827
 20
7.82732
 11
44.437
 21
7.55435
  0
LINE
  8
0
 10
44.437
 20
7.55435
 11
44.1727
 21
7.29919
  0
LINE
  8
0
 10
44.1727
 20
7.29919
 11
43.8914
 21
7.06308
  0
LINE
  8
0
 10
43.8914
 20
7.06308
 11
43.5942
 21
6.84718
  0
LINE
  8
0
 10
43.5942
 20
6.84718
 11
43.2827
 21
6.65253
  0
LINE
  8
0
 10
43.2827
 20
6.65253
 11
42.9584
 21
6.48009
  0
LINE
  8
0
 10
42.9584
 20
6.48009
 11
42.6228
 21
6.33069
  0
LINE
  8
0
 10
42.6228
 20
6.33069
 11
42.2776
 21
6.20505
  0
LINE
  8
0
 10
42.2776
 20
6.20505
 11
41.9245
 21
6.10381
  0
LINE
  8
0
 10
41.9245
 20
6.10381
 11
41.5653
 21
6.02744
  0
LINE
  8
0
 10
41.5653
 20
6.02744
 11
41.2015
 21
5.97632
  0
LINE
  8
0
 10
41.2015
 20
5.97632
 11
40.8351
 21
5.9507
  0
LINE
  8
0
 10
40.8351
 20
5.9507
 11
40.4678
 21
5.9507
  0
LINE
  8
0
 10
-0.5056
 20
-14.4787
 11
-1.51434
 21
-14.4081
  0
LINE
  8
0
 10
-1.51434
 20
-14.4081
 11
-2.51572
 21
-14.2674
  0
LINE
  8
0
 10
-2.51572
 20
-14.2674
 11
-3.50484
 21
-14.0571
  0
LINE
  8
0
 10
-3.50484
 20
-14.0571
 11
-4.47688
 21
-13.7784
  0
LINE
  8
0
 10
-4.47688
 20
-13.7784
 11
-5.42711
 21
-13.4326
  0
LINE
  8
0
 10
-5.42711
 20
-13.4326
 11
-6.35089
 21
-13.0213
  0
LINE
  8
0
 10
-6.35089
 20
-13.0213
 11
-7.24374
 21
-12.5465
  0
LINE
  8
0
 10
-7.24374
 20
-12.5465
 11
-8.1013
 21
-12.0107
  0
LINE
  8
0
 10
-8.1013
 20
-12.0107
 11
-8.91939
 21
-11.4163
  0
LINE
  8
0
 10
-8.91939
 20
-11.4163
 11
-9.69402
 21
-10.7663
  0
LINE
  8
0
 10
-9.69402
 20
-10.7663
 11
-10.4214
 21
-10.0639
  0
LINE
  8
0
 10
-10.4214
 20
-10.0639
 11
-11.0981
 21
-9.31238
  0
LINE
  8
0
 10
-11.0981
 20
-9.31238
 11
-11.7206
 21
-8.51553
  0
LINE
  8
0
 10
-11.7206
 20
-8.51553
 11
-12.2861
 21
-7.6772
  0
LINE
  8
0
 10
-12.2861
 20
-7.6772
 11
-12.7917
 21
-6.80147
  0
LINE
  8
0
 10
-12.7917
 20
-6.80147
 11
-13.235
 21
-5.89259
  0
LINE
  8
0
 10
-13.235
 20
-5.89259
 11
-13.6138
 21
-4.955
  0
LINE
  8
0
 10
-13.6138
 20
-4.955
 11
-13.9263
 21
-3.99329
  0
LINE
  8
0
 10
-13.9263
 20
-3.99329
 11
-14.1709
 21
-3.01212
  0
LINE
  8
0
 10
-14.1709
 20
-3.01212
 11
-14.3465
 21
-2.01627
  0
LINE
  8
0
 10
-14.3465
 20
-2.01627
 11
-14.4522
 21
-1.01059
  0
LINE
  8
0
 10
-14.4522
 20
-1.01059
 11
-14.4875
 21
0
  0
LINE
  8
0
 10
-14.4875
 20
0
 11
-14.4522
 21
1.01059
  0
LINE
  8
0
 10
-14.4522
 20
1.01059
 11
-14.3465
 21
2.01627
  0
LINE
  8
0
 10
-14.3465
 20
2.01627
 11
-14.1709
 21
3.01212
  0
LINE
  8
0
 10
-14.1709
 20
3.01212
 11
-13.9263
 21
3.99329
  0
LINE
  8
0
 10
-13.9263
 20
3.99329
 11
-13.6138
 21
4.955
  0
LINE
  8
0
 10
-13.6138
 20
4.955
 11
-13.235
 21
5.89259
  0
LINE
  8
0
 10
-13.235
 20
5.89259
 11
-12.7917
 21
6.80147
  0
LINE
  8
0
 10
-12.7917
 20
6.80147
 11
-12.2861
 21
7.6772
  0
LINE
  8
0
 10
-12.2861
 20
7.6772
 11
-11.7206
 21
8.51553
  0
LINE
  8
0
 10
-11.7206
 20
8.51553
 11
-11.0981
 21
9.31238
  0
LINE
  8
0
 10
-11.0981
 20
9.31238
 11
-10.4214
 21
10.0639
  0
LINE
  8
0
 10
-10.4214
 20
10.0639
 11
-9.69402
 21
10.7663
  0
LINE
  8
0
 10
-9.69402
 20
10.7663
 11
-8.91939
 21
11.4163
  0
LINE
  8
0
 10
-8.91939
 20
11.4163
 11
-8.1013
 21
12.0107
  0
LINE
  8
0
 10
-8.1013
 20
12.0107
 11
-7.24374
 21
12.5465
  0
LINE
  8
0
 10
-7.24374
 20
12.5465
 11
-6.35089
 21
13.0213
  0
LINE
  8
0
 10
-6.35089
 20
13.0213
 11
-5.42711
 21
13.4326
  0
LINE
  8
0
 10
-5.42711
 20
13.4326
 11
-4.47688
 21
13.7784
  0
LINE
  8
0
 10
-4.47688
 20
13.7784
 11
-3.50484
 21
14.0571
  0
LINE
  8
0
 10
-3.50484
 20
14.0571
 11
-2.51572
 21
14.2674
  0
LINE
  8
0
 10
-2.51572
 20
14.2674
 11
-1.51434
 21
14.4081
  0
LINE
  8
0
 10
-1.51434
 20
14.4081
 11
-0.5056
 21
14.4787
  0
LINE
  8
0
 10
-0.5056
 20
14.4787
 11
0.5056
 21
14.4787
  0
LINE
  8
0
 10
0.5056
 20
14.4787
 11
1.51434
 21
14.4081
  0
LINE
  8
0
 10
1.51434
 20
14.4081
 11
2.51572
 21
14.2674
  0
LINE
  8
0
 10
2.51572
 20
14.2674
 11
3.50484
 21
14.0571
  0
LINE
  8
0
 10
3.50484
 20
14.0571
 11
4.47688
 21
13.7784
  0
LINE
  8
0
 10
4.47688
 20
13.7784
 11
5.42711
 21
13.4326
  0
LINE
  8
0
 10
5.42711
 20
13.4326
 11
6.35089
 21
13.0213
  0
LINE
  8
0
 10
6.35089
 20
13.0213
 11
7.24374
 21
12.5465
  0
LINE
  8
0
 10
7.24374
 20
12.5465
 11
8.1013
 21
12.0107
  0
LINE
  8
0
 10
8.1013
 20
12.0107
 11
8.91939
 21
11.4163
  0
LINE
  8
0
 10
8.91939
 20
11.4163
 11
9.69402
 21
10.7663
  0
LINE
  8
0
 10
9.69402
 20
10.7663
 11
10.4214
 21
10.0639
  0
LINE
  8
0
 10
10.4214
 20
10.0639
 11
11.0981
 21
9.31238
  0
LINE
  8
0
 10
11.0981
 20
9.31238
 11
11.7206
 21
8.51553
  0
LINE
  8
0
 10
11.7206
 20
8.51553
 11
12.2861
 21
7.6772
  0
LINE
  8
0
 10
12.2861
 20
7.6772
 11
12.7917
 21
6.80147
  0
LINE
  8
0
 10
12.7917
 20
6.80147
 11
13.235
 21
5.89259
  0
LINE
  8
0
 10
13.235
 20
5.89259
 11
13.6138
 21
4.955
  0
LINE
  8
0
 10
13.6138
 20
4.955
 11
13.9263
 21
3.99329
  0
LINE
  8
0
 10
13.9263
 20
3.99329
 11
14.1709
 21
3.01212
  0
LINE
  8
0
 10
14.1709
 20
3.01212
 11
14.3465
 21
2.01627
  0
LINE
  8
0
 10
14.3465
 20
2.01627
 11
14.4522
 21
1.01059
  0
LINE
  8
0
 10
14.4522
 20
1.01059
 11
14.4875
 21
0
  0
LINE
  8
0
 10
14.4875
 20
0
 11
14.4522
 21
-1.01059
  0
LINE
  8
0
 10
14.4522
 20
-1.01059
 11
14.3465
 21
-2.01627
  0
LINE
  8
0
 10
14.3465
 20
-2.01627
 11
14.1709
 21
-3.01212
  0
LINE
  8
0
 10
14.1709
 20
-3.01212
 11
13.9263
 21
-3.99329
  0
LINE
  8
0
 10
13.9263
 20
-3.99329
 11
13.6138
 21
-4.955
  0
LINE
  8
0
 10
13.6138
 20
-4.955
 11
13.235
 21
-5.89259
  0
LINE
  8
0
 10
13.235
 20
-5.89259
 11
12.7917
 21
-6.80147
  0
LINE
  8
0
 10
12.7917
 20
-6.80147
 11
12.2861
 21
-7.6772
  0
LINE
  8
0
 10
12.2861
 20
-7.6772
 11
11.7206
 21
-8.51553
  0
LINE
  8
0
 10
11.7206
 20
-8.51553
 11
11.0981
 21
-9.31238
  0
LINE
  8
0
 10
11.0981
 20
-9.31238
 11
10.4214
 21
-10.0639
  0
LINE
  8
0
 10
10.4214
 20
-10.0639
 11
9.69402
 21
-10.7663
  0
LINE
  8
0
 10
9.69402
 20
-10.7663
 11
8.91939
 21
-11.4163
  0
LINE
  8
0
 10
8.91939
 20
-11.4163
 11
8.1013
 21
-12.0107
  0
LINE
  8
0
 10
8.1013
 20
-12.0107
 11
7.24374
 21
-12.5465
  0
LINE
  8
0
 10
7.24374
 20
-12.5465
 11
6.35089
 21
-13.0213
  0
LINE
  8
0
 10
6.35089
 20
-13.0213
 11
5.42711
 21
-13.4326
  0
LINE
  8
0
 10
5.42711
 20
-13.4326
 11
4.47688
 21
-13.7784
  0
LINE
  8
0
 10
4.47688
 20
-13.7784
 11
3.50484
 21
-14.0571
  0
LINE
  8
0
 10
3.50484
 20
-14.0571
 11
2.51572
 21
-14.2674
  0
LINE
  8
0
 10
2.51572
 20
-14.2674
 11
1.51434
 21
-14.4081
  0
LINE
  8
0
 10
1.51434
 20
-14.4081
 11
0.5056
 21
-14.4787
  0
LINE
  8
0
 10
0.5056
 20
-14.4787
 11
-0.5056
 21
-14.4787
  0
LINE
  8
0
 10
-41.6574
 20
2.36504
 11
-42.0238
 21
2.39066
  0
LINE
  8
0
 10
-42.0238
 20
2.39066
 11
-42.3876
 21
2.44177
  0
LINE
  8
0
 10
-42.3876
 20
2.44177
 11
-42.7469
 21
2.51814
  0
LINE
  8
0
 10
-42.7469
 20
2.51814
 11
-43.1
 21
2.61938
  0
LINE
  8
0
 10
-43.1
 20
2.61938
 11
-43.4451
 21
2.74503
  0
LINE
  8
0
 10
-43.4451
 20
2.74503
 11
-43.7807
 21
2.89442
  0
LINE
  8
0
 10
-43.7807
 20
2.89442
 11
-44.105
 21
3.06686
  0
LINE
  8
0
 10
-44.105
 20
3.06686
 11
-44.4165
 21
3.26152
  0
LINE
  8
0
 10
-44.4165
 20
3.26152
 11
-44.7137
 21
3.47742
  0
LINE
  8
0
 10
-44.7137
 20
3.47742
 11
-44.9951
 21
3.71353
  0
LINE
  8
0
 10
-44.9951
 20
3.71353
 11
-45.2593
 21
3.96869
  0
LINE
  8
0
 10
-45.2593
 20
3.96869
 11
-45.5051
 21
4.24165
  0
LINE
  8
0
 10
-45.5051
 20
4.24165
 11
-45.7312
 21
4.5311
  0
LINE
  8
0
 10
-45.7312
 20
4.5311
 11
-45.9366
 21
4.83562
  0
LINE
  8
0
 10
-45.9366
 20
4.83562
 11
-46.1203
 21
5.15373
  0
LINE
  8
0
 10
-46.1203
 20
5.15373
 11
-46.2813
 21
5.48387
  0
LINE
  8
0
 10
-46.2813
 20
5.48387
 11
-46.4189
 21
5.82445
  0
LINE
  8
0
 10
-46.4189
 20
5.82445
 11
-46.5324
 21
6.17378
  0
LINE
  8
0
 10
-46.5324
 20
6.17378
 11
-46.6213
 21
6.53018
  0
LINE
  8
0
 10
-46.6213
 20
6.53018
 11
-46.685
 21
6.89192
  0
LINE
  8
0
 10
-46.685
 20
6.89192
 11
-46.7234
 21
7.25723
  0
LINE
  8
0
 10
-46.7234
 20
7.25723
 11
-46.7363
 21
7.62433
  0
LINE
  8
0
 10
-46.7363
 20
7.62433
 11
-46.7234
 21
7.99142
  0
LINE
  8
0
 10
-46.7234
 20
7.99142
 11
-46.685
 21
8.35672
  0
LINE
  8
0
 10
-46.685
 20
8.35672
 11
-46.6213
 21
8.71846
  0
LINE
  8
0
 10
-46.6213
 20
8.71846
 11
-46.5324
 21
9.07486
  0
LINE
  8
0
 10
-46.5324
 20
9.07486
 11
-46.4189
 21
9.42421
  0
LINE
  8
0
 10
-46.4189
 20
9.42421
 11
-46.2813
 21
9.76477
  0
LINE
  8
0
 10
-46.2813
 20
9.76477
 11
-46.1203
 21
10.0949
  0
LINE
  8
0
 10
-46.1203
 20
10.0949
 11
-45.9366
 21
10.413
  0
LINE
  8
0
 10
-45.9366
 20
10.413
 11
-45.7312
 21
10.7175
  0
LINE
  8
0
 10
-45.7312
 20
10.7175
 11
-45.5051
 21
11.007
  0
LINE
  8
0
 10
-45.5051
 20
11.007
 11
-45.2593
 21
11.28
  0
LINE
  8
0
 10
-45.2593
 20
11.28
 11
-44.9951
 21
11.5351
  0
LINE
  8
0
 10
-44.9951
 20
11.5351
 11
-44.7137
 21
11.7712
  0
LINE
  8
0
 10
-44.7137
 20
11.7712
 11
-44.4165
 21
11.9871
  0
LINE
  8
0
 10
-44.4165
 20
11.9871
 11
-44.105
 21
12.1818
  0
LINE
  8
0
 10
-44.105
 20
12.1818
 11
-43.7807
 21
12.3542
  0
LINE
  8
0
 10
-43.7807
 20
12.3542
 11
-43.4451
 21
12.5036
  0
LINE
  8
0
 10
-43.4451
 20
12.5036
 11
-43.1
 21
12.6293
  0
LINE
  8
0
 10
-43.1
 20
12.6293
 11
-42.7469
 21
12.7305
  0
LINE
  8
0
 10
-42.7469
 20
12.7305
 11
-42.3876
 21
12.8069
  0
LINE
  8
0
 10
-42.3876
 20
12.8069
 11
-42.0238
 21
12.858
  0
LINE
  8
0
 10
-42.0238
 20
12.858
 11
-41.6574
 21
12.8836
  0
LINE
  8
0
 10
-41.6574
 20
12.8836
 11
-41.2901
 21
12.8836
  0
LINE
  8
0
 10
-41.2901
 20
12.8836
 11
-40.9237
 21
12.858
  0
LINE
  8
0
 10
-40.9237
 20
12.858
 11
-40.5599
 21
12.8069
  0
LINE
  8
0
 10
-40.5599
 20
12.8069
 11
-40.2006
 21
12.7305
  0
LINE
  8
0
 10
-40.2006
 20
12.7305
 11
-39.8475
 21
12.6293
  0
LINE
  8
0
 10
-39.8475
 20
12.6293
 11
-39.5024
 21
12.5036
  0
LINE
  8
0
 10
-39.5024
 20
12.5036
 11
-39.1668
 21
12.3542
  0
LINE
  8
0
 10
-39.1668
 20
12.3542
 11
-38.8425
 21
12.1818
  0
LINE
  8
0
 10
-38.8425
 20
12.1818
 11
-38.531
 21
11.9871
  0
LINE
  8
0
 10
-38.531
 20
11.9871
 11
-38.2338
 21
11.7712
  0
LINE
  8
0
 10
-38.2338
 20
11.7712
 11
-37.9525
 21
11.5351
  0
LINE
  8
0
 10
-37.9525
 20
11.5351
 11
-37.6882
 21
11.28
  0
LINE
  8
0
 10
-37.6882
 20
11.28
 11
-37.4424
 21
11.007
  0
LINE
  8
0
 10
-37.4424
 20
11.007
 11
-37.2163
 21
10.7175
  0
LINE
  8
0
 10
-37.2163
 20
10.7175
 11
-37.0109
 21
10.413
  0
LINE
  8
0
 10
-37.0109
 20
10.413
 11
-36.8272
 21
10.0949
  0
LINE
  8
0
 10
-36.8272
 20
10.0949
 11
-36.6662
 21
9.76477
  0
LINE
  8
0
 10
-36.6662
 20
9.76477
 11
-36.5286
 21
9.42421
  0
LINE
  8
0
 10
-36.5286
 20
9.42421
 11
-36.4151
 21
9.07486
  0
LINE
  8
0
 10
-36.4151
 20
9.07486
 11
-36.3262
 21
8.71846
  0
LINE
  8
0
 10
-36.3262
 20
8.71846
 11
-36.2625
 21
8.35672
  0
LINE
  8
0
 10
-36.2625
 20
8.35672
 11
-36.2241
 21
7.99142
  0
LINE
  8
0
 10
-36.2241
 20
7.99142
 11
-36.2113
 21
7.62433
  0
LINE
  8
0
 10
-36.2113
 20
7.62433
 11
-36.2241
 21
7.25723
  0
LINE
  8
0
 10
-36.2241
 20
7.25723
 11
-36.2625
 21
6.89192
  0
LINE
  8
0
 10
-36.2625
 20
6.89192
 11
-36.3262
 21
6.53018
  0
LINE
  8
0
 10
-36.3262
 20
6.53018
 11
-36.4151
 21
6.17378
  0
LINE
  8
0
 10
-36.4151
 20
6.17378
 11
-36.5286
 21
5.82445
  0
LINE
  8
0
 10
-36.5286
 20
5.82445
 11
-36.6662
 21
5.48387
  0
LINE
  8
0
 10
-36.6662
 20
5.48387
 11
-36.8272
 21
5.15373
  0
LINE
  8
0
 10
-36.8272
 20
5.15373
 11
-37.0109
 21
4.83562
  0
LINE
  8
0
 10
-37.0109
 20
4.83562
 11
-37.2163
 21
4.5311
  0
LINE
  8
0
 10
-37.2163
 20
4.5311
 11
-37.4424
 21
4.24165
  0
LINE
  8
0
 10
-37.4424
 20
4.24165
 11
-37.6882
 21
3.96869
  0
LINE
  8
0
 10
-37.6882
 20
3.96869
 11
-37.9525
 21
3.71353
  0
LINE
  8
0
 10
-37.9525
 20
3.71353
 11
-38.2338
 21
3.47742
  0
LINE
  8
0
 10
-38.2338
 20
3.47742
 11
-38.531
 21
3.26152
  0
LINE
  8
0
 10
-38.531
 20
3.26152
 11
-38.8425
 21
3.06686
  0
LINE
  8
0
 10
-38.8425
 20
3.06686
 11
-39.1668
 21
2.89442
  0
LINE
  8
0
 10
-39.1668
 20
2.89442
 11
-39.5024
 21
2.74503
  0
LINE
  8
0
 10
-39.5024
 20
2.74503
 11
-39.8475
 21
2.61938
  0
LINE
  8
0
 10
-39.8475
 20
2.61938
 11
-40.2006
 21
2.51814
  0
LINE
  8
0
 10
-40.2006
 20
2.51814
 11
-40.5599
 21
2.44177
  0
LINE
  8
0
 10
-40.5599
 20
2.44177
 11
-40.9237
 21
2.39066
  0
LINE
  8
0
 10
-40.9237
 20
2.39066
 11
-41.2901
 21
2.36504
  0
LINE
  8
0
 10
-41.2901
 20
2.36504
 11
-41.6574
 21
2.36504
  0
LINE
  8
0
 10
150.729
 20
-27.1825
 11
150.162
 21
-27.1429
  0
LINE
  8
0
 10
150.162
 20
-27.1429
 11
149.599
 21
-27.0639
  0
LINE
  8
0
 10
149.599
 20
-27.0639
 11
149.044
 21
-26.9458
  0
LINE
  8
0
 10
149.044
 20
-26.9458
 11
148.498
 21
-26.7892
  0
LINE
  8
0
 10
148.498
 20
-26.7892
 11
147.964
 21
-26.595
  0
LINE
  8
0
 10
147.964
 20
-26.595
 11
147.445
 21
-26.3639
  0
LINE
  8
0
 10
147.445
 20
-26.3639
 11
146.944
 21
-26.0973
  0
LINE
  8
0
 10
146.944
 20
-26.0973
 11
146.462
 21
-25.7963
  0
LINE
  8
0
 10
146.462
 20
-25.7963
 11
146.003
 21
-25.4624
  0
LINE
  8
0
 10
146.003
 20
-25.4624
 11
145.567
 21
-25.0973
  0
LINE
  8
0
 10
145.567
 20
-25.0973
 11
145.159
 21
-24.7028
  0
LINE
  8
0
 10
145.159
 20
-24.7028
 11
144.779
 21
-24.2807
  0
LINE
  8
0
 10
144.779
 20
-24.2807
 11
144.429
 21
-23.8331
  0
LINE
  8
0
 10
144.429
 20
-23.8331
 11
144.111
 21
-23.3622
  0
LINE
  8
0
 10
144.111
 20
-23.3622
 11
143.827
 21
-22.8703
  0
LINE
  8
0
 10
143.827
 20
-22.8703
 11
143.579
 21
-22.3598
  0
LINE
  8
0
 10
143.579
 20
-22.3598
 11
143.366
 21
-21.8332
  0
LINE
  8
0
 10
143.366
 20
-21.8332
 11
143.19
 21
-21.293
  0
LINE
  8
0
 10
143.19
 20
-21.293
 11
143.053
 21
-20.7419
  0
LINE
  8
0
 10
143.053
 20
-20.7419
 11
142.954
 21
-20.1825
  0
LINE
  8
0
 10
142.954
 20
-20.1825
 11
142.895
 21
-19.6176
  0
LINE
  8
0
 10
142.895
 20
-19.6176
 11
142.875
 21
-19.05
  0
LINE
  8
0
 10
142.875
 20
-19.05
 11
142.895
 21
-18.4823
  0
LINE
  8
0
 10
142.895
 20
-18.4823
 11
142.954
 21
-17.9175
  0
LINE
  8
0
 10
142.954
 20
-17.9175
 11
143.053
 21
-17.3581
  0
LINE
  8
0
 10
143.053
 20
-17.3581
 11
143.19
 21
-16.807
  0
LINE
  8
0
 10
143.19
 20
-16.807
 11
143.366
 21
-16.2668
  0
LINE
  8
0
 10
143.366
 20
-16.2668
 11
143.579
 21
-15.7402
  0
LINE
  8
0
 10
143.579
 20
-15.7402
 11
143.827
 21
-15.2297
  0
LINE
  8
0
 10
143.827
 20
-15.2297
 11
144.111
 21
-14.7378
  0
LINE
  8
0
 10
144.111
 20
-14.7378
 11
144.429
 21
-14.2669
  0
LINE
  8
0
 10
144.429
 20
-14.2669
 11
144.779
 21
-13.8193
  0
LINE
  8
0
 10
144.779
 20
-13.8193
 11
145.159
 21
-13.3972
  0
LINE
  8
0
 10
145.159
 20
-13.3972
 11
145.567
 21
-13.0027
  0
LINE
  8
0
 10
145.567
 20
-13.0027
 11
146.003
 21
-12.6376
  0
LINE
  8
0
 10
146.003
 20
-12.6376
 11
146.462
 21
-12.3037
  0
LINE
  8
0
 10
146.462
 20
-12.3037
 11
146.944
 21
-12.0027
  0
LINE
  8
0
 10
146.944
 20
-12.0027
 11
147.445
 21
-11.7361
  0
LINE
  8
0
 10
147.445
 20
-11.7361
 11
147.964
 21
-11.505
  0
LINE
  8
0
 10
147.964
 20
-11.505
 11
148.498
 21
-11.3108
  0
LINE
  8
0
 10
148.498
 20
-11.3108
 11
149.044
 21
-11.1542
  0
LINE
  8
0
 10
149.044
 20
-11.1542
 11
149.599
 21
-11.0361
  0
LINE
  8
0
 10
149.599
 20
-11.0361
 11
150.162
 21
-10.9571
  0
LINE
  8
0
 10
150.162
 20
-10.9571
 11
150.729
 21
-10.9174
  0
LINE
  8
0
 10
150.729
 20
-10.9174
 11
151.296
 21
-10.9174
  0
LINE
  8
0
 10
151.296
 20
-10.9174
 11
151.863
 21
-10.9571
  0
LINE
  8
0
 10
151.863
 20
-10.9571
 11
152.426
 21
-11.0361
  0
LINE
  8
0
 10
152.426
 20
-11.0361
 11
152.981
 21
-11.1542
  0
LINE
  8
0
 10
152.981
 20
-11.1542
 11
153.527
 21
-11.3108
  0
LINE
  8
0
 10
153.527
 20
-11.3108
 11
154.061
 21
-11.505
  0
LINE
  8
0
 10
154.061
 20
-11.505
 11
154.58
 21
-11.7361
  0
LINE
  8
0
 10
154.58
 20
-11.7361
 11
155.081
 21
-12.0027
  0
LINE
  8
0
 10
155.081
 20
-12.0027
 11
155.563
 21
-12.3037
  0
LINE
  8
0
 10
155.563
 20
-12.3037
 11
156.022
 21
-12.6376
  0
LINE
  8
0
 10
156.022
 20
-12.6376
 11
156.458
 21
-13.0027
  0
LINE
  8
0
 10
156.458
 20
-13.0027
 11
156.866
 21
-13.3972
  0
LINE
  8
0
 10
156.866
 20
-13.3972
 11
157.246
 21
-13.8193
  0
LINE
  8
0
 10
157.246
 20
-13.8193
 11
157.596
 21
-14.2669
  0
LINE
  8
0
 10
157.596
 20
-14.2669
 11
157.913
 21
-14.7378
  0
LINE
  8
0
 10
157.913
 20
-14.7378
 11
158.197
 21
-15.2297
  0
LINE
  8
0
 10
158.197
 20
-15.2297
 11
158.446
 21
-15.7402
  0
LINE
  8
0
 10
158.446
 20
-15.7402
 11
158.659
 21
-16.2668
  0
LINE
  8
0
 10
158.659
 20
-16.2668
 11
158.835
 21
-16.807
  0
LINE
  8
0
 10
158.835
 20
-16.807
 11
158.972
 21
-17.3581
  0
LINE
  8
0
 10
158.972
 20
-17.3581
 11
159.071
 21
-17.9175
  0
LINE
  8
0
 10
159.071
 20
-17.9175
 11
159.13
 21
-18.4823
  0
LINE
  8
0
 10
159.13
 20
-18.4823
 11
159.15
 21
-19.05
  0
LINE
  8
0
 10
159.15
 20
-19.05
 11
159.13
 21
-19.6176
  0
LINE
  8
0
 10
159.13
 20
-19.6176
 11
159.071
 21
-20.1825
  0
LINE
  8
0
 10
159.071
 20
-20.1825
 11
158.972
 21
-20.7419
  0
LINE
  8
0
 10
158.972
 20
-20.7419
 11
158.835
 21
-21.293
  0
LINE
  8
0
 10
158.835
 20
-21.293
 11
158.659
 21
-21.8332
  0
LINE
  8
0
 10
158.659
 20
-21.8332
 11
158.446
 21
-22.3598
  0
LINE
  8
0
 10
158.446
 20
-22.3598
 11
158.197
 21
-22.8703
  0
LINE
  8
0
 10
158.197
 20
-22.8703
 11
157.913
 21
-23.3622
  0
LINE
  8
0
 10
157.913
 20
-23.3622
 11
157.596
 21
-23.8331
  0
LINE
  8
0
 10
157.596
 20
-23.8331
 11
157.246
 21
-24.2807
  0
LINE
  8
0
 10
157.246
 20
-24.2807
 11
156.866
 21
-24.7028
  0
LINE
  8
0
 10
156.866
 20
-24.7028
 11
156.458
 21
-25.0973
  0
LINE
  8
0
 10
156.458
 20
-25.0973
 11
156.022
 21
-25.4624
  0
LINE
  8
0
 10
156.022
 20
-25.4624
 11
155.563
 21
-25.7963
  0
LINE
  8
0
 10
155.563
 20
-25.7963
 11
155.081
 21
-26.0973
  0
LINE
  8
0
 10
155.081
 20
-26.0973
 11
154.58
 21
-26.3639
  0
LINE
  8
0
 10
154.58
 20
-26.3639
 11
154.061
 21
-26.595
  0
LINE
  8
0
 10
154.061
 20
-26.595
 11
153.527
 21
-26.7892
  0
LINE
  8
0
 10
153.527
 20
-26.7892
 11
152.981
 21
-26.9458
  0
LINE
  8
0
 10
152.981
 20
-26.9458
 11
152.426
 21
-27.0639
  0
LINE
  8
0
 10
152.426
 20
-27.0639
 11
151.863
 21
-27.1429
  0
LINE
  8
0
 10
151.863
 20
-27.1429
 11
151.296
 21
-27.1825
  0
LINE
  8
0
 10
151.296
 20
-27.1825
 11
150.729
 21
-27.1825
  0
LINE
  8
0
 10
150.729
 20
-65.2825
 11
150.162
 21
-65.2429
  0
LINE
  8
0
 10
150.162
 20
-65.2429
 11
149.599
 21
-65.1639
  0
LINE
  8
0
 10
149.599
 20
-65.1639
 11
149.044
 21
-65.0458
  0
LINE
  8
0
 10
149.044
 20
-65.0458
 11
148.498
 21
-64.8892
  0
LINE
  8
0
 10
148.498
 20
-64.8892
 11
147.964
 21
-64.6949
  0
LINE
  8
0
 10
147.964
 20
-64.6949
 11
147.445
 21
-64.4639
  0
LINE
  8
0
 10
147.445
 20
-64.4639
 11
146.944
 21
-64.1973
  0
LINE
  8
0
 10
146.944
 20
-64.1973
 11
146.462
 21
-63.8963
  0
LINE
  8
0
 10
146.462
 20
-63.8963
 11
146.003
 21
-63.5624
  0
LINE
  8
0
 10
146.003
 20
-63.5624
 11
145.567
 21
-63.1973
  0
LINE
  8
0
 10
145.567
 20
-63.1973
 11
145.159
 21
-62.8028
  0
LINE
  8
0
 10
145.159
 20
-62.8028
 11
144.779
 21
-62.3807
  0
LINE
  8
0
 10
144.779
 20
-62.3807
 11
144.429
 21
-61.9331
  0
LINE
  8
0
 10
144.429
 20
-61.9331
 11
144.111
 21
-61.4622
  0
LINE
  8
0
 10
144.111
 20
-61.4622
 11
143.827
 21
-60.9703
  0
LINE
  8
0
 10
143.827
 20
-60.9703
 11
143.579
 21
-60.4598
  0
LINE
  8
0
 10
143.579
 20
-60.4598
 11
143.366
 21
-59.9332
  0
LINE
  8
0
 10
143.366
 20
-59.9332
 11
143.19
 21
-59.393
  0
LINE
  8
0
 10
143.19
 20
-59.393
 11
143.053
 21
-58.8419
  0
LINE
  8
0
 10
143.053
 20
-58.8419
 11
142.954
 21
-58.2825
  0
LINE
  8
0
 10
142.954
 20
-58.2825
 11
142.895
 21
-57.7176
  0
LINE
  8
0
 10
142.895
 20
-57.7176
 11
142.875
 21
-57.15
  0
LINE
  8
0
 10
142.875
 20
-57.15
 11
142.895
 21
-56.5824
  0
LINE
  8
0
 10
142.895
 20
-56.5824
 11
142.954
 21
-56.0175
  0
LINE
  8
0
 10
142.954
 20
-56.0175
 11
143.053
 21
-55.4581
  0
LINE
  8
0
 10
143.053
 20
-55.4581
 11
143.19
 21
-54.907
  0
LINE
  8
0
 10
143.19
 20
-54.907
 11
143.366
 21
-54.3668
  0
LINE
  8
0
 10
143.366
 20
-54.3668
 11
143.579
 21
-53.8402
  0
LINE
  8
0
 10
143.579
 20
-53.8402
 11
143.827
 21
-53.3297
  0
LINE
  8
0
 10
143.827
 20
-53.3297
 11
144.111
 21
-52.8378
  0
LINE
  8
0
 10
144.111
 20
-52.8378
 11
144.429
 21
-52.3669
  0
LINE
  8
0
 10
144.429
 20
-52.3669
 11
144.779
 21
-51.9193
  0
LINE
  8
0
 10
144.779
 20
-51.9193
 11
145.159
 21
-51.4972
  0
LINE
  8
0
 10
145.159
 20
-51.4972
 11
145.567
 21
-51.1026
  0
LINE
  8
0
 10
145.567
 20
-51.1026
 11
146.003
 21
-50.7375
  0
LINE
  8
0
 10
146.003
 20
-50.7375
 11
146.462
 21
-50.4037
  0
LINE
  8
0
 10
146.462
 20
-50.4037
 11
146.944
 21
-50.1027
  0
LINE
  8
0
 10
146.944
 20
-50.1027
 11
147.445
 21
-49.8361
  0
LINE
  8
0
 10
147.445
 20
-49.8361
 11
147.964
 21
-49.605
  0
LINE
  8
0
 10
147.964
 20
-49.605
 11
148.498
 21
-49.4108
  0
LINE
  8
0
 10
148.498
 20
-49.4108
 11
149.044
 21
-49.2542
  0
LINE
  8
0
 10
149.044
 20
-49.2542
 11
149.599
 21
-49.1361
  0
LINE
  8
0
 10
149.599
 20
-49.1361
 11
150.162
 21
-49.0571
  0
LINE
  8
0
 10
150.162
 20
-49.0571
 11
150.729
 21
-49.0175
  0
LINE
  8
0
 10
150.729
 20
-49.0175
 11
151.296
 21
-49.0175
  0
LINE
  8
0
 10
151.296
 20
-49.0175
 11
151.863
 21
-49.0571
  0
LINE
  8
0
 10
151.863
 20
-49.0571
 11
152.426
 21
-49.1361
  0
LINE
  8
0
 10
152.426
 20
-49.1361
 11
152.981
 21
-49.2542
  0
LINE
  8
0
 10
152.981
 20
-49.2542
 11
153.527
 21
-49.4108
  0
LINE
  8
0
 10
153.527
 20
-49.4108
 11
154.061
 21
-49.605
  0
LINE
  8
0
 10
154.061
 20
-49.605
 11
154.58
 21
-49.8361
  0
LINE
  8
0
 10
154.58
 20
-49.8361
 11
155.081
 21
-50.1027
  0
LINE
  8
0
 10
155.081
 20
-50.1027
 11
155.563
 21
-50.4037
  0
LINE
  8
0
 10
155.563
 20
-50.4037
 11
156.022
 21
-50.7375
  0
LINE
  8
0
 10
156.022
 20
-50.7375
 11
156.458
 21
-51.1026
  0
LINE
  8
0
 10
156.458
 20
-51.1026
 11
156.866
 21
-51.4972
  0
LINE
  8
0
 10
156.866
 20
-51.4972
 11
157.246
 21
-51.9193
  0
LINE
  8
0
 10
157.246
 20
-51.9193
 11
157.596
 21
-52.3669
  0
LINE
  8
0
 10
157.596
 20
-52.3669
 11
157.913
 21
-52.8378
  0
LINE
  8
0
 10
157.913
 20
-52.8378
 11
158.197
 21
-53.3297
  0
LINE
  8
0
 10
158.197
 20
-53.3297
 11
158.446
 21
-53.8402
  0
LINE
  8
0
 10
158.446
 20
-53.8402
 11
158.659
 21
-54.3668
  0
LINE
  8
0
 10
158.659
 20
-54.3668
 11
158.835
 21
-54.907
  0
LINE
  8
0
 10
158.835
 20
-54.907
 11
158.972
 21
-55.4581
  0
LINE
  8
0
 10
158.972
 20
-55.4581
 11
159.071
 21
-56.0175
  0
LINE
  8
0
 10
159.071
 20
-56.0175
 11
159.13
 21
-56.5824
  0
LINE
  8
0
 10
159.13
 20
-56.5824
 11
159.15
 21
-57.15
  0
LINE
  8
0
 10
159.15
 20
-57.15
 11
159.13
 21
-57.7176
  0
LINE
  8
0
 10
159.13
 20
-57.7176
 11
159.071
 21
-58.2825
  0
LINE
  8
0
 10
159.071
 20
-58.2825
 11
158.972
 21
-58.8419
  0
LINE
  8
0
 10
158.972
 20
-58.8419
 11
158.835
 21
-59.393
  0
LINE
  8
0
 10
158.835
 20
-59.393
 11
158.659
 21
-59.9332
  0
LINE
  8
0
 10
158.659
 20
-59.9332
 11
158.446
 21
-60.4598
  0
LINE
  8
0
 10
158.446
 20
-60.4598
 11
158.197
 21
-60.9703
  0
LINE
  8
0
 10
158.197
 20
-60.9703
 11
157.913
 21
-61.4622
  0
LINE
  8
0
 10
157.913
 20
-61.4622
 11
157.596
 21
-61.9331
  0
LINE
  8
0
 10
157.596
 20
-61.9331
 11
157.246
 21
-62.3807
  0
LINE
  8
0
 10
157.246
 20
-62.3807
 11
156.866
 21
-62.8028
  0
LINE
  8
0
 10
156.866
 20
-62.8028
 11
156.458
 21
-63.1973
  0
LINE
  8
0
 10
156.458
 20
-63.1973
 11
156.022
 21
-63.5624
  0
LINE
  8
0
 10
156.022
 20
-63.5624
 11
155.563
 21
-63.8963
  0
LINE
  8
0
 10
155.563
 20
-63.8963
 11
155.081
 21
-64.1973
  0
LINE
  8
0
 10
155.081
 20
-64.1973
 11
154.58
 21
-64.4639
  0
LINE
  8
0
 10
154.58
 20
-64.4639
 11
154.061
 21
-64.6949
  0
LINE
  8
0
 10
154.061
 20
-64.6949
 11
153.527
 21
-64.8892
  0
LINE
  8
0
 10
153.527
 20
-64.8892
 11
152.981
 21
-65.0458
  0
LINE
  8
0
 10
152.981
 20
-65.0458
 11
152.426
 21
-65.1639
  0
LINE
  8
0
 10
152.426
 20
-65.1639
 11
151.863
 21
-65.2429
  0
LINE
  8
0
 10
151.863
 20
-65.2429
 11
151.296
 21
-65.2825
  0
LINE
  8
0
 10
151.296
 20
-65.2825
 11
150.729
 21
-65.2825
  0
ENDSEC
  0
SECTION
  2
OBJECTS
  0
DICTIONARY
  0
ENDSEC
  0
EOF
