  0
SECTION
  2
BLOCKS
  0
ENDSEC
  0
SECTION
  2
ENTITIES
  0
LINE
  8
0
 10
155.658
 20
-43.2244
 11
158.662
 21
-42.8022
  0
LINE
  8
0
 10
158.662
 20
-42.8022
 11
161.629
 21
-42.1715
  0
LINE
  8
0
 10
161.629
 20
-42.1715
 11
232.236
 21
-26.2926
  0
LINE
  8
0
 10
232.236
 20
-26.2926
 11
308.192
 21
-25.7299
  0
LINE
  8
0
 10
308.192
 20
-25.7299
 11
386.261
 21
-25.1384
  0
LINE
  8
0
 10
386.261
 20
-25.1384
 11
464.329
 21
-24.5325
  0
LINE
  8
0
 10
464.329
 20
-24.5325
 11
542.397
 21
-23.9114
  0
LINE
  8
0
 10
542.397
 20
-23.9114
 11
620.464
 21
-23.2736
  0
LINE
  8
0
 10
620.464
 20
-23.2736
 11
698.531
 21
-22.6179
  0
LINE
  8
0
 10
698.531
 20
-22.6179
 11
776.596
 21
-21.9426
  0
LINE
  8
0
 10
776.596
 20
-21.9426
 11
854.662
 21
-21.2458
  0
LINE
  8
0
 10
854.662
 20
-21.2458
 11
932.726
 21
-20.5254
  0
LINE
  8
0
 10
932.726
 20
-20.5254
 11
1010.79
 21
-19.7788
  0
LINE
  8
0
 10
1010.79
 20
-19.7788
 11
1088.85
 21
-19.0028
  0
LINE
  8
0
 10
1088.85
 20
-19.0028
 11
1166.91
 21
-18.1938
  0
LINE
  8
0
 10
1166.91
 20
-18.1938
 11
1244.97
 21
-17.3471
  0
LINE
  8
0
 10
1244.97
 20
-17.3471
 11
1323.03
 21
-16.4569
  0
LINE
  8
0
 10
1323.03
 20
-16.4569
 11
1401.09
 21
-15.5157
  0
LINE
  8
0
 10
1401.09
 20
-15.5157
 11
1479.14
 21
-14.5136
  0
LINE
  8
0
 10
1479.14
 20
-14.5136
 11
1557.19
 21
-13.437
  0
LINE
  8
0
 10
1557.19
 20
-13.437
 11
1635.25
 21
-12.4986
  0
LINE
  8
0
 10
1635.25
 20
-12.4986
 11
1947.61
 21
-12.4986
  0
LINE
  8
0
 10
1947.61
 20
-12.4986
 11
1948.48
 21
-12.4377
  0
LINE
  8
0
 10
1948.48
 20
-12.4377
 11
1949.34
 21
-12.3162
  0
LINE
  8
0
 10
1949.34
 20
-12.3162
 11
1950.2
 21
-12.1348
  0
LINE
  8
0
 10
1950.2
 20
-12.1348
 11
1951.04
 21
-11.8941
  0
LINE
  8
0
 10
1951.04
 20
-11.8941
 11
1951.86
 21
-11.5956
  0
LINE
  8
0
 10
1951.86
 20
-11.5956
 11
1952.65
 21
-11.2405
  0
LINE
  8
0
 10
1952.65
 20
-11.2405
 11
1953.43
 21
-10.8307
  0
LINE
  8
0
 10
1953.43
 20
-10.8307
 11
1954.17
 21
-10.3681
  0
LINE
  8
0
 10
1954.17
 20
-10.3681
 11
1954.87
 21
-9.85506
  0
LINE
  8
0
 10
1954.87
 20
-9.85506
 11
1955.54
 21
-9.29395
  0
LINE
  8
0
 10
1955.54
 20
-9.29395
 11
1956.17
 21
-8.68756
  0
LINE
  8
0
 10
1956.17
 20
-8.68756
 11
1956.75
 21
-8.03885
  0
LINE
  8
0
 10
1956.75
 20
-8.03885
 11
1957.29
 21
-7.35098
  0
LINE
  8
0
 10
1957.29
 20
-7.35098
 11
1957.78
 21
-6.62729
  0
LINE
  8
0
 10
1957.78
 20
-6.62729
 11
1958.21
 21
-5.87132
  0
LINE
  8
0
 10
1958.21
 20
-5.87132
 11
1958.6
 21
-5.08675
  0
LINE
  8
0
 10
1958.6
 20
-5.08675
 11
1958.92
 21
-4.27737
  0
LINE
  8
0
 10
1958.92
 20
-4.27737
 11
1959.19
 21
-3.44719
  0
LINE
  8
0
 10
1959.19
 20
-3.44719
 11
1959.41
 21
-2.60019
  0
LINE
  8
0
 10
1959.41
 20
-2.60019
 11
1959.56
 21
-1.74052
  0
LINE
  8
0
 10
1959.56
 20
-1.74052
 11
1959.65
 21
-0.872391
  0
LINE
  8
0
 10
1959.65
 20
-0.872391
 11
1959.68
 21
0
  0
LINE
  8
0
 10
1959.68
 20
0
 11
1959.65
 21
0.872391
  0
LINE
  8
0
 10
1959.65
 20
0.872391
 11
1959.56
 21
1.74052
  0
LINE
  8
0
 10
1959.56
 20
1.74052
 11
1959.41
 21
2.60019
  0
LINE
  8
0
 10
1959.41
 20
2.60019
 11
1959.19
 21
3.44719
  0
LINE
  8
0
 10
1959.19
 20
3.44719
 11
1958.92
 21
4.27737
  0
LINE
  8
0
 10
1958.92
 20
4.27737
 11
1958.6
 21
5.08675
  0
LINE
  8
0
 10
1958.6
 20
5.08675
 11
1958.21
 21
5.87132
  0
LINE
  8
0
 10
1958.21
 20
5.87132
 11
1957.78
 21
6.62729
  0
LINE
  8
0
 10
1957.78
 20
6.62729
 11
1957.29
 21
7.35098
  0
LINE
  8
0
 10
1957.29
 20
7.35098
 11
1956.75
 21
8.03885
  0
LINE
  8
0
 10
1956.75
 20
8.03885
 11
1956.17
 21
8.68756
  0
LINE
  8
0
 10
1956.17
 20
8.68756
 11
1955.54
 21
9.29395
  0
LINE
  8
0
 10
1955.54
 20
9.29395
 11
1954.87
 21
9.85506
  0
LINE
  8
0
 10
1954.87
 20
9.85506
 11
1954.17
 21
10.3681
  0
LINE
  8
0
 10
1954.17
 20
10.3681
 11
1953.43
 21
10.8307
  0
LINE
  8
0
 10
1953.43
 20
10.8307
 11
1952.65
 21
11.2405
  0
LINE
  8
0
 10
1952.65
 20
11.2405
 11
1951.86
 21
11.5956
  0
LINE
  8
0
 10
1951.86
 20
11.5956
 11
1951.04
 21
11.8941
  0
LINE
  8
0
 10
1951.04
 20
11.8941
 11
1950.2
 21
12.1348
  0
LINE
  8
0
 10
1950.2
 20
12.1348
 11
1949.34
 21
12.3162
  0
LINE
  8
0
 10
1949.34
 20
12.3162
 11
1948.48
 21
12.4377
  0
LINE
  8
0
 10
1948.48
 20
12.4377
 11
1947.61
 21
12.4986
  0
LINE
  8
0
 10
1947.61
 20
12.4986
 11
1635.25
 21
12.4986
  0
LINE
  8
0
 10
1635.25
 20
12.4986
 11
1557.19
 21
13.437
  0
LINE
  8
0
 10
1557.19
 20
13.437
 11
1479.14
 21
14.5136
  0
LINE
  8
0
 10
1479.14
 20
14.5136
 11
1401.09
 21
15.5157
  0
LINE
  8
0
 10
1401.09
 20
15.5157
 11
1323.03
 21
16.4569
  0
LINE
  8
0
 10
1323.03
 20
16.4569
 11
1244.97
 21
17.3471
  0
LINE
  8
0
 10
1244.97
 20
17.3471
 11
1166.91
 21
18.1938
  0
LINE
  8
0
 10
1166.91
 20
18.1938
 11
1088.85
 21
19.0028
  0
LINE
  8
0
 10
1088.85
 20
19.0028
 11
1010.79
 21
19.7788
  0
LINE
  8
0
 10
1010.79
 20
19.7788
 11
932.726
 21
20.5254
  0
LINE
  8
0
 10
932.726
 20
20.5254
 11
854.662
 21
21.2458
  0
LINE
  8
0
 10
854.662
 20
21.2458
 11
776.596
 21
21.9426
  0
LINE
  8
0
 10
776.596
 20
21.9426
 11
698.531
 21
22.6179
  0
LINE
  8
0
 10
698.531
 20
22.6179
 11
620.464
 21
23.2736
  0
LINE
  8
0
 10
620.464
 20
23.2736
 11
542.397
 21
23.9114
  0
LINE
  8
0
 10
542.397
 20
23.9114
 11
464.329
 21
24.5325
  0
LINE
  8
0
 10
464.329
 20
24.5325
 11
386.261
 21
25.1384
  0
LINE
  8
0
 10
386.261
 20
25.1384
 11
308.192
 21
25.7299
  0
LINE
  8
0
 10
308.192
 20
25.7299
 11
232.236
 21
26.2926
  0
LINE
  8
0
 10
232.236
 20
26.2926
 11
161.629
 21
42.1715
  0
LINE
  8
0
 10
161.629
 20
42.1715
 11
158.662
 21
42.8022
  0
LINE
  8
0
 10
158.662
 20
42.8022
 11
155.658
 21
43.2244
  0
LINE
  8
0
 10
155.658
 20
43.2244
 11
152.631
 21
43.436
  0
LINE
  8
0
 10
152.631
 20
43.436
 11
-1.51682
 21
43.436
  0
LINE
  8
0
 10
-1.51682
 20
43.436
 11
-4.54306
 21
43.2244
  0
LINE
  8
0
 10
-4.54306
 20
43.2244
 11
-7.54718
 21
42.8022
  0
LINE
  8
0
 10
-7.54718
 20
42.8022
 11
-10.5145
 21
42.1715
  0
LINE
  8
0
 10
-10.5145
 20
42.1715
 11
-13.4306
 21
41.3353
  0
LINE
  8
0
 10
-13.4306
 20
41.3353
 11
-16.2813
 21
40.2977
  0
LINE
  8
0
 10
-16.2813
 20
40.2977
 11
-19.0527
 21
39.0638
  0
LINE
  8
0
 10
-19.0527
 20
39.0638
 11
-21.7312
 21
37.6396
  0
LINE
  8
0
 10
-21.7312
 20
37.6396
 11
-24.3039
 21
36.032
  0
LINE
  8
0
 10
-24.3039
 20
36.032
 11
-26.7582
 21
34.2489
  0
LINE
  8
0
 10
-26.7582
 20
34.2489
 11
-29.0821
 21
32.2989
  0
LINE
  8
0
 10
-29.0821
 20
32.2989
 11
-31.2643
 21
30.1916
  0
LINE
  8
0
 10
-31.2643
 20
30.1916
 11
-33.2942
 21
27.9371
  0
LINE
  8
0
 10
-33.2942
 20
27.9371
 11
-35.1619
 21
25.5466
  0
LINE
  8
0
 10
-35.1619
 20
25.5466
 11
-36.8583
 21
23.0316
  0
LINE
  8
0
 10
-36.8583
 20
23.0316
 11
-38.3751
 21
20.4044
  0
LINE
  8
0
 10
-38.3751
 20
20.4044
 11
-39.705
 21
17.6778
  0
LINE
  8
0
 10
-39.705
 20
17.6778
 11
-40.8414
 21
14.865
  0
LINE
  8
0
 10
-40.8414
 20
14.865
 11
-41.7788
 21
11.9799
  0
LINE
  8
0
 10
-41.7788
 20
11.9799
 11
-42.5127
 21
9.03636
  0
LINE
  8
0
 10
-42.5127
 20
9.03636
 11
-43.0395
 21
6.0488
  0
LINE
  8
0
 10
-43.0395
 20
6.0488
 11
-43.3566
 21
3.03178
  0
LINE
  8
0
 10
-43.3566
 20
3.03178
 11
-43.4625
 21
0
  0
LINE
  8
0
 10
-43.4625
 20
0
 11
-43.3566
 21
-3.03178
  0
LINE
  8
0
 10
-43.3566
 20
-3.03178
 11
-43.0395
 21
-6.0488
  0
LINE
  8
0
 10
-43.0395
 20
-6.0488
 11
-42.5127
 21
-9.03636
  0
LINE
  8
0
 10
-42.5127
 20
-9.03636
 11
-41.7788
 21
-11.9799
  0
LINE
  8
0
 10
-41.7788
 20
-11.9799
 11
-40.8414
 21
-14.865
  0
LINE
  8
0
 10
-40.8414
 20
-14.865
 11
-39.705
 21
-17.6778
  0
LINE
  8
0
 10
-39.705
 20
-17.6778
 11
-38.3751
 21
-20.4044
  0
LINE
  8
0
 10
-38.3751
 20
-20.4044
 11
-36.8583
 21
-23.0316
  0
LINE
  8
0
 10
-36.8583
 20
-23.0316
 11
-35.1619
 21
-25.5466
  0
LINE
  8
0
 10
-35.1619
 20
-25.5466
 11
-33.2942
 21
-27.9371
  0
LINE
  8
0
 10
-33.2942
 20
-27.9371
 11
-31.2643
 21
-30.1916
  0
LINE
  8
0
 10
-31.2643
 20
-30.1916
 11
-29.0821
 21
-32.2989
  0
LINE
  8
0
 10
-29.0821
 20
-32.2989
 11
-26.7582
 21
-34.2489
  0
LINE
  8
0
 10
-26.7582
 20
-34.2489
 11
-24.3039
 21
-36.032
  0
LINE
  8
0
 10
-24.3039
 20
-36.032
 11
-21.7312
 21
-37.6396
  0
LINE
  8
0
 10
-21.7312
 20
-37.6396
 11
-19.0527
 21
-39.0638
  0
LINE
  8
0
 10
-19.0527
 20
-39.0638
 11
-16.2813
 21
-40.2977
  0
LINE
  8
0
 10
-16.2813
 20
-40.2977
 11
-13.4306
 21
-41.3353
  0
LINE
  8
0
 10
-13.4306
 20
-41.3353
 11
-10.5145
 21
-42.1715
  0
LINE
  8
0
 10
-10.5145
 20
-42.1715
 11
-7.54718
 21
-42.8022
  0
LINE
  8
0
 10
-7.54718
 20
-42.8022
 11
-4.54306
 21
-43.2244
  0
LINE
  8
0
 10
-4.54306
 20
-43.2244
 11
-1.51682
 21
-43.436
  0
LINE
  8
0
 10
-1.51682
 20
-43.436
 11
152.631
 21
-43.436
  0
LINE
  8
0
 10
152.631
 20
-43.436
 11
155.658
 21
-43.2244
  0
LINE
  8
0
 10
-0.5056
 20
-14.4787
 11
-1.51434
 21
-14.4081
  0
LINE
  8
0
 10
-1.51434
 20
-14.4081
 11
-2.51572
 21
-14.2674
  0
LINE
  8
0
 10
-2.51572
 20
-14.2674
 11
-3.50484
 21
-14.0571
  0
LINE
  8
0
 10
-3.50484
 20
-14.0571
 11
-4.47688
 21
-13.7784
  0
LINE
  8
0
 10
-4.47688
 20
-13.7784
 11
-5.42711
 21
-13.4326
  0
LINE
  8
0
 10
-5.42711
 20
-13.4326
 11
-6.35089
 21
-13.0213
  0
LINE
  8
0
 10
-6.35089
 20
-13.0213
 11
-7.24374
 21
-12.5465
  0
LINE
  8
0
 10
-7.24374
 20
-12.5465
 11
-8.1013
 21
-12.0107
  0
LINE
  8
0
 10
-8.1013
 20
-12.0107
 11
-8.91939
 21
-11.4163
  0
LINE
  8
0
 10
-8.91939
 20
-11.4163
 11
-9.69402
 21
-10.7663
  0
LINE
  8
0
 10
-9.69402
 20
-10.7663
 11
-10.4214
 21
-10.0639
  0
LINE
  8
0
 10
-10.4214
 20
-10.0639
 11
-11.0981
 21
-9.31238
  0
LINE
  8
0
 10
-11.0981
 20
-9.31238
 11
-11.7206
 21
-8.51553
  0
LINE
  8
0
 10
-11.7206
 20
-8.51553
 11
-12.2861
 21
-7.6772
  0
LINE
  8
0
 10
-12.2861
 20
-7.6772
 11
-12.7917
 21
-6.80147
  0
LINE
  8
0
 10
-12.7917
 20
-6.80147
 11
-13.235
 21
-5.89259
  0
LINE
  8
0
 10
-13.235
 20
-5.89259
 11
-13.6138
 21
-4.955
  0
LINE
  8
0
 10
-13.6138
 20
-4.955
 11
-13.9263
 21
-3.99329
  0
LINE
  8
0
 10
-13.9263
 20
-3.99329
 11
-14.1709
 21
-3.01212
  0
LINE
  8
0
 10
-14.1709
 20
-3.01212
 11
-14.3465
 21
-2.01627
  0
LINE
  8
0
 10
-14.3465
 20
-2.01627
 11
-14.4522
 21
-1.01059
  0
LINE
  8
0
 10
-14.4522
 20
-1.01059
 11
-14.4875
 21
0
  0
LINE
  8
0
 10
-14.4875
 20
0
 11
-14.4522
 21
1.01059
  0
LINE
  8
0
 10
-14.4522
 20
1.01059
 11
-14.3465
 21
2.01627
  0
LINE
  8
0
 10
-14.3465
 20
2.01627
 11
-14.1709
 21
3.01212
  0
LINE
  8
0
 10
-14.1709
 20
3.01212
 11
-13.9263
 21
3.99329
  0
LINE
  8
0
 10
-13.9263
 20
3.99329
 11
-13.6138
 21
4.955
  0
LINE
  8
0
 10
-13.6138
 20
4.955
 11
-13.235
 21
5.89259
  0
LINE
  8
0
 10
-13.235
 20
5.89259
 11
-12.7917
 21
6.80147
  0
LINE
  8
0
 10
-12.7917
 20
6.80147
 11
-12.2861
 21
7.6772
  0
LINE
  8
0
 10
-12.2861
 20
7.6772
 11
-11.7206
 21
8.51553
  0
LINE
  8
0
 10
-11.7206
 20
8.51553
 11
-11.0981
 21
9.31238
  0
LINE
  8
0
 10
-11.0981
 20
9.31238
 11
-10.4214
 21
10.0639
  0
LINE
  8
0
 10
-10.4214
 20
10.0639
 11
-9.69402
 21
10.7663
  0
LINE
  8
0
 10
-9.69402
 20
10.7663
 11
-8.91939
 21
11.4163
  0
LINE
  8
0
 10
-8.91939
 20
11.4163
 11
-8.1013
 21
12.0107
  0
LINE
  8
0
 10
-8.1013
 20
12.0107
 11
-7.24374
 21
12.5465
  0
LINE
  8
0
 10
-7.24374
 20
12.5465
 11
-6.35089
 21
13.0213
  0
LINE
  8
0
 10
-6.35089
 20
13.0213
 11
-5.42711
 21
13.4326
  0
LINE
  8
0
 10
-5.42711
 20
13.4326
 11
-4.47688
 21
13.7784
  0
LINE
  8
0
 10
-4.47688
 20
13.7784
 11
-3.50484
 21
14.0571
  0
LINE
  8
0
 10
-3.50484
 20
14.0571
 11
-2.51572
 21
14.2674
  0
LINE
  8
0
 10
-2.51572
 20
14.2674
 11
-1.51434
 21
14.4081
  0
LINE
  8
0
 10
-1.51434
 20
14.4081
 11
-0.5056
 21
14.4787
  0
LINE
  8
0
 10
-0.5056
 20
14.4787
 11
0.5056
 21
14.4787
  0
LINE
  8
0
 10
0.5056
 20
14.4787
 11
1.51434
 21
14.4081
  0
LINE
  8
0
 10
1.51434
 20
14.4081
 11
2.51572
 21
14.2674
  0
LINE
  8
0
 10
2.51572
 20
14.2674
 11
3.50484
 21
14.0571
  0
LINE
  8
0
 10
3.50484
 20
14.0571
 11
4.47688
 21
13.7784
  0
LINE
  8
0
 10
4.47688
 20
13.7784
 11
5.42711
 21
13.4326
  0
LINE
  8
0
 10
5.42711
 20
13.4326
 11
6.35089
 21
13.0213
  0
LINE
  8
0
 10
6.35089
 20
13.0213
 11
7.24374
 21
12.5465
  0
LINE
  8
0
 10
7.24374
 20
12.5465
 11
8.1013
 21
12.0107
  0
LINE
  8
0
 10
8.1013
 20
12.0107
 11
8.91939
 21
11.4163
  0
LINE
  8
0
 10
8.91939
 20
11.4163
 11
9.69402
 21
10.7663
  0
LINE
  8
0
 10
9.69402
 20
10.7663
 11
10.4214
 21
10.0639
  0
LINE
  8
0
 10
10.4214
 20
10.0639
 11
11.0981
 21
9.31238
  0
LINE
  8
0
 10
11.0981
 20
9.31238
 11
11.7206
 21
8.51553
  0
LINE
  8
0
 10
11.7206
 20
8.51553
 11
12.2861
 21
7.6772
  0
LINE
  8
0
 10
12.2861
 20
7.6772
 11
12.7917
 21
6.80147
  0
LINE
  8
0
 10
12.7917
 20
6.80147
 11
13.235
 21
5.89259
  0
LINE
  8
0
 10
13.235
 20
5.89259
 11
13.6138
 21
4.955
  0
LINE
  8
0
 10
13.6138
 20
4.955
 11
13.9263
 21
3.99329
  0
LINE
  8
0
 10
13.9263
 20
3.99329
 11
14.1709
 21
3.01212
  0
LINE
  8
0
 10
14.1709
 20
3.01212
 11
14.3465
 21
2.01627
  0
LINE
  8
0
 10
14.3465
 20
2.01627
 11
14.4522
 21
1.01059
  0
LINE
  8
0
 10
14.4522
 20
1.01059
 11
14.4875
 21
0
  0
LINE
  8
0
 10
14.4875
 20
0
 11
14.4522
 21
-1.01059
  0
LINE
  8
0
 10
14.4522
 20
-1.01059
 11
14.3465
 21
-2.01627
  0
LINE
  8
0
 10
14.3465
 20
-2.01627
 11
14.1709
 21
-3.01212
  0
LINE
  8
0
 10
14.1709
 20
-3.01212
 11
13.9263
 21
-3.99329
  0
LINE
  8
0
 10
13.9263
 20
-3.99329
 11
13.6138
 21
-4.955
  0
LINE
  8
0
 10
13.6138
 20
-4.955
 11
13.235
 21
-5.89259
  0
LINE
  8
0
 10
13.235
 20
-5.89259
 11
12.7917
 21
-6.80147
  0
LINE
  8
0
 10
12.7917
 20
-6.80147
 11
12.2861
 21
-7.6772
  0
LINE
  8
0
 10
12.2861
 20
-7.6772
 11
11.7206
 21
-8.51553
  0
LINE
  8
0
 10
11.7206
 20
-8.51553
 11
11.0981
 21
-9.31238
  0
LINE
  8
0
 10
11.0981
 20
-9.31238
 11
10.4214
 21
-10.0639
  0
LINE
  8
0
 10
10.4214
 20
-10.0639
 11
9.69402
 21
-10.7663
  0
LINE
  8
0
 10
9.69402
 20
-10.7663
 11
8.91939
 21
-11.4163
  0
LINE
  8
0
 10
8.91939
 20
-11.4163
 11
8.1013
 21
-12.0107
  0
LINE
  8
0
 10
8.1013
 20
-12.0107
 11
7.24374
 21
-12.5465
  0
LINE
  8
0
 10
7.24374
 20
-12.5465
 11
6.35089
 21
-13.0213
  0
LINE
  8
0
 10
6.35089
 20
-13.0213
 11
5.42711
 21
-13.4326
  0
LINE
  8
0
 10
5.42711
 20
-13.4326
 11
4.47688
 21
-13.7784
  0
LINE
  8
0
 10
4.47688
 20
-13.7784
 11
3.50484
 21
-14.0571
  0
LINE
  8
0
 10
3.50484
 20
-14.0571
 11
2.51572
 21
-14.2674
  0
LINE
  8
0
 10
2.51572
 20
-14.2674
 11
1.51434
 21
-14.4081
  0
LINE
  8
0
 10
1.51434
 20
-14.4081
 11
0.5056
 21
-14.4787
  0
LINE
  8
0
 10
0.5056
 20
-14.4787
 11
-0.5056
 21
-14.4787
  0
LINE
  8
0
 10
72.5818
 20
-12.6923
 11
71.6975
 21
-12.6304
  0
LINE
  8
0
 10
71.6975
 20
-12.6304
 11
70.8197
 21
-12.507
  0
LINE
  8
0
 10
70.8197
 20
-12.507
 11
69.9526
 21
-12.3228
  0
LINE
  8
0
 10
69.9526
 20
-12.3228
 11
69.1005
 21
-12.0784
  0
LINE
  8
0
 10
69.1005
 20
-12.0784
 11
68.2675
 21
-11.7752
  0
LINE
  8
0
 10
68.2675
 20
-11.7752
 11
67.4577
 21
-11.4147
  0
LINE
  8
0
 10
67.4577
 20
-11.4147
 11
66.675
 21
-10.9985
  0
LINE
  8
0
 10
66.675
 20
-10.9985
 11
65.9232
 21
-10.5288
  0
LINE
  8
0
 10
65.9232
 20
-10.5288
 11
65.2061
 21
-10.0077
  0
LINE
  8
0
 10
65.2061
 20
-10.0077
 11
64.527
 21
-9.43793
  0
LINE
  8
0
 10
64.527
 20
-9.43793
 11
63.8894
 21
-8.82216
  0
LINE
  8
0
 10
63.8894
 20
-8.82216
 11
63.2962
 21
-8.16339
  0
LINE
  8
0
 10
63.2962
 20
-8.16339
 11
62.7505
 21
-7.46486
  0
LINE
  8
0
 10
62.7505
 20
-7.46486
 11
62.2548
 21
-6.72997
  0
LINE
  8
0
 10
62.2548
 20
-6.72997
 11
61.8116
 21
-5.96228
  0
LINE
  8
0
 10
61.8116
 20
-5.96228
 11
61.423
 21
-5.16554
  0
LINE
  8
0
 10
61.423
 20
-5.16554
 11
61.0909
 21
-4.34364
  0
LINE
  8
0
 10
61.0909
 20
-4.34364
 11
60.817
 21
-3.50058
  0
LINE
  8
0
 10
60.817
 20
-3.50058
 11
60.6025
 21
-2.64047
  0
LINE
  8
0
 10
60.6025
 20
-2.64047
 11
60.4486
 21
-1.76749
  0
LINE
  8
0
 10
60.4486
 20
-1.76749
 11
60.3559
 21
-0.885895
  0
LINE
  8
0
 10
60.3559
 20
-0.885895
 11
60.325
 21
0
  0
LINE
  8
0
 10
60.325
 20
0
 11
60.3559
 21
0.885895
  0
LINE
  8
0
 10
60.3559
 20
0.885895
 11
60.4486
 21
1.76749
  0
LINE
  8
0
 10
60.4486
 20
1.76749
 11
60.6025
 21
2.64047
  0
LINE
  8
0
 10
60.6025
 20
2.64047
 11
60.817
 21
3.50058
  0
LINE
  8
0
 10
60.817
 20
3.50058
 11
61.0909
 21
4.34364
  0
LINE
  8
0
 10
61.0909
 20
4.34364
 11
61.423
 21
5.16554
  0
LINE
  8
0
 10
61.423
 20
5.16554
 11
61.8116
 21
5.96228
  0
LINE
  8
0
 10
61.8116
 20
5.96228
 11
62.2548
 21
6.72997
  0
LINE
  8
0
 10
62.2548
 20
6.72997
 11
62.7505
 21
7.46486
  0
LINE
  8
0
 10
62.7505
 20
7.46486
 11
63.2962
 21
8.16339
  0
LINE
  8
0
 10
63.2962
 20
8.16339
 11
63.8894
 21
8.82216
  0
LINE
  8
0
 10
63.8894
 20
8.82216
 11
64.527
 21
9.43793
  0
LINE
  8
0
 10
64.527
 20
9.43793
 11
65.2061
 21
10.0077
  0
LINE
  8
0
 10
65.2061
 20
10.0077
 11
65.9232
 21
10.5288
  0
LINE
  8
0
 10
65.9232
 20
10.5288
 11
66.675
 21
10.9985
  0
LINE
  8
0
 10
66.675
 20
10.9985
 11
67.4577
 21
11.4147
  0
LINE
  8
0
 10
67.4577
 20
11.4147
 11
68.2675
 21
11.7752
  0
LINE
  8
0
 10
68.2675
 20
11.7752
 11
69.1005
 21
12.0784
  0
LINE
  8
0
 10
69.1005
 20
12.0784
 11
69.9526
 21
12.3228
  0
LINE
  8
0
 10
69.9526
 20
12.3228
 11
70.8197
 21
12.507
  0
LINE
  8
0
 10
70.8197
 20
12.507
 11
71.6975
 21
12.6304
  0
LINE
  8
0
 10
71.6975
 20
12.6304
 11
72.5818
 21
12.6923
  0
LINE
  8
0
 10
72.5818
 20
12.6923
 11
73.4682
 21
12.6923
  0
LINE
  8
0
 10
73.4682
 20
12.6923
 11
74.3525
 21
12.6304
  0
LINE
  8
0
 10
74.3525
 20
12.6304
 11
75.2303
 21
12.507
  0
LINE
  8
0
 10
75.2303
 20
12.507
 11
76.0974
 21
12.3228
  0
LINE
  8
0
 10
76.0974
 20
12.3228
 11
76.9495
 21
12.0784
  0
LINE
  8
0
 10
76.9495
 20
12.0784
 11
77.7825
 21
11.7752
  0
LINE
  8
0
 10
77.7825
 20
11.7752
 11
78.5923
 21
11.4147
  0
LINE
  8
0
 10
78.5923
 20
11.4147
 11
79.375
 21
10.9985
  0
LINE
  8
0
 10
79.375
 20
10.9985
 11
80.1267
 21
10.5288
  0
LINE
  8
0
 10
80.1267
 20
10.5288
 11
80.8439
 21
10.0077
  0
LINE
  8
0
 10
80.8439
 20
10.0077
 11
81.5229
 21
9.43793
  0
LINE
  8
0
 10
81.5229
 20
9.43793
 11
82.1606
 21
8.82216
  0
LINE
  8
0
 10
82.1606
 20
8.82216
 11
82.7538
 21
8.16339
  0
LINE
  8
0
 10
82.7538
 20
8.16339
 11
83.2995
 21
7.46486
  0
LINE
  8
0
 10
83.2995
 20
7.46486
 11
83.7952
 21
6.72997
  0
LINE
  8
0
 10
83.7952
 20
6.72997
 11
84.2384
 21
5.96228
  0
LINE
  8
0
 10
84.2384
 20
5.96228
 11
84.627
 21
5.16554
  0
LINE
  8
0
 10
84.627
 20
5.16554
 11
84.9591
 21
4.34364
  0
LINE
  8
0
 10
84.9591
 20
4.34364
 11
85.233
 21
3.50058
  0
LINE
  8
0
 10
85.233
 20
3.50058
 11
85.4475
 21
2.64047
  0
LINE
  8
0
 10
85.4475
 20
2.64047
 11
85.6014
 21
1.76749
  0
LINE
  8
0
 10
85.6014
 20
1.76749
 11
85.6941
 21
0.885895
  0
LINE
  8
0
 10
85.6941
 20
0.885895
 11
85.725
 21
0
  0
LINE
  8
0
 10
85.725
 20
0
 11
85.6941
 21
-0.885895
  0
LINE
  8
0
 10
85.6941
 20
-0.885895
 11
85.6014
 21
-1.76749
  0
LINE
  8
0
 10
85.6014
 20
-1.76749
 11
85.4475
 21
-2.64047
  0
LINE
  8
0
 10
85.4475
 20
-2.64047
 11
85.233
 21
-3.50058
  0
LINE
  8
0
 10
85.233
 20
-3.50058
 11
84.9591
 21
-4.34364
  0
LINE
  8
0
 10
84.9591
 20
-4.34364
 11
84.627
 21
-5.16554
  0
LINE
  8
0
 10
84.627
 20
-5.16554
 11
84.2384
 21
-5.96228
  0
LINE
  8
0
 10
84.2384
 20
-5.96228
 11
83.7952
 21
-6.72997
  0
LINE
  8
0
 10
83.7952
 20
-6.72997
 11
83.2995
 21
-7.46486
  0
LINE
  8
0
 10
83.2995
 20
-7.46486
 11
82.7538
 21
-8.16339
  0
LINE
  8
0
 10
82.7538
 20
-8.16339
 11
82.1606
 21
-8.82216
  0
LINE
  8
0
 10
82.1606
 20
-8.82216
 11
81.5229
 21
-9.43793
  0
LINE
  8
0
 10
81.5229
 20
-9.43793
 11
80.8439
 21
-10.0077
  0
LINE
  8
0
 10
80.8439
 20
-10.0077
 11
80.1267
 21
-10.5288
  0
LINE
  8
0
 10
80.1267
 20
-10.5288
 11
79.375
 21
-10.9985
  0
LINE
  8
0
 10
79.375
 20
-10.9985
 11
78.5923
 21
-11.4147
  0
LINE
  8
0
 10
78.5923
 20
-11.4147
 11
77.7825
 21
-11.7752
  0
LINE
  8
0
 10
77.7825
 20
-11.7752
 11
76.9495
 21
-12.0784
  0
LINE
  8
0
 10
76.9495
 20
-12.0784
 11
76.0974
 21
-12.3228
  0
LINE
  8
0
 10
76.0974
 20
-12.3228
 11
75.2303
 21
-12.507
  0
LINE
  8
0
 10
75.2303
 20
-12.507
 11
74.3525
 21
-12.6304
  0
LINE
  8
0
 10
74.3525
 20
-12.6304
 11
73.4682
 21
-12.6923
  0
LINE
  8
0
 10
73.4682
 20
-12.6923
 11
72.5818
 21
-12.6923
  0
LINE
  8
0
 10
1859.53
 20
-4.1662
 11
1859.24
 21
-4.1459
  0
LINE
  8
0
 10
1859.24
 20
-4.1459
 11
1858.95
 21
-4.10541
  0
LINE
  8
0
 10
1858.95
 20
-4.10541
 11
1858.67
 21
-4.04491
  0
LINE
  8
0
 10
1858.67
 20
-4.04491
 11
1858.39
 21
-3.96471
  0
LINE
  8
0
 10
1858.39
 20
-3.96471
 11
1858.12
 21
-3.86519
  0
LINE
  8
0
 10
1858.12
 20
-3.86519
 11
1857.85
 21
-3.74684
  0
LINE
  8
0
 10
1857.85
 20
-3.74684
 11
1857.59
 21
-3.61023
  0
LINE
  8
0
 10
1857.59
 20
-3.61023
 11
1857.35
 21
-3.45604
  0
LINE
  8
0
 10
1857.35
 20
-3.45604
 11
1857.11
 21
-3.28502
  0
LINE
  8
0
 10
1857.11
 20
-3.28502
 11
1856.89
 21
-3.09798
  0
LINE
  8
0
 10
1856.89
 20
-3.09798
 11
1856.68
 21
-2.89584
  0
LINE
  8
0
 10
1856.68
 20
-2.89584
 11
1856.49
 21
-2.67961
  0
LINE
  8
0
 10
1856.49
 20
-2.67961
 11
1856.31
 21
-2.45032
  0
LINE
  8
0
 10
1856.31
 20
-2.45032
 11
1856.14
 21
-2.20909
  0
LINE
  8
0
 10
1856.14
 20
-2.20909
 11
1856
 21
-1.95711
  0
LINE
  8
0
 10
1856
 20
-1.95711
 11
1855.87
 21
-1.69557
  0
LINE
  8
0
 10
1855.87
 20
-1.69557
 11
1855.76
 21
-1.42578
  0
LINE
  8
0
 10
1855.76
 20
-1.42578
 11
1855.67
 21
-1.14906
  0
LINE
  8
0
 10
1855.67
 20
-1.14906
 11
1855.6
 21
-0.86673
  0
LINE
  8
0
 10
1855.6
 20
-0.86673
 11
1855.55
 21
-0.58017
  0
LINE
  8
0
 10
1855.55
 20
-0.58017
 11
1855.52
 21
-0.290787
  0
LINE
  8
0
 10
1855.52
 20
-0.290787
 11
1855.51
 21
0
  0
LINE
  8
0
 10
1855.51
 20
0
 11
1855.52
 21
0.290787
  0
LINE
  8
0
 10
1855.52
 20
0.290787
 11
1855.55
 21
0.58017
  0
LINE
  8
0
 10
1855.55
 20
0.58017
 11
1855.6
 21
0.86673
  0
LINE
  8
0
 10
1855.6
 20
0.86673
 11
1855.67
 21
1.14906
  0
LINE
  8
0
 10
1855.67
 20
1.14906
 11
1855.76
 21
1.42578
  0
LINE
  8
0
 10
1855.76
 20
1.42578
 11
1855.87
 21
1.69557
  0
LINE
  8
0
 10
1855.87
 20
1.69557
 11
1856
 21
1.95711
  0
LINE
  8
0
 10
1856
 20
1.95711
 11
1856.14
 21
2.20909
  0
LINE
  8
0
 10
1856.14
 20
2.20909
 11
1856.31
 21
2.45032
  0
LINE
  8
0
 10
1856.31
 20
2.45032
 11
1856.49
 21
2.67961
  0
LINE
  8
0
 10
1856.49
 20
2.67961
 11
1856.68
 21
2.89584
  0
LINE
  8
0
 10
1856.68
 20
2.89584
 11
1856.89
 21
3.09798
  0
LINE
  8
0
 10
1856.89
 20
3.09798
 11
1857.11
 21
3.28502
  0
LINE
  8
0
 10
1857.11
 20
3.28502
 11
1857.35
 21
3.45604
  0
LINE
  8
0
 10
1857.35
 20
3.45604
 11
1857.59
 21
3.61023
  0
LINE
  8
0
 10
1857.59
 20
3.61023
 11
1857.85
 21
3.74684
  0
LINE
  8
0
 10
1857.85
 20
3.74684
 11
1858.12
 21
3.86519
  0
LINE
  8
0
 10
1858.12
 20
3.86519
 11
1858.39
 21
3.96471
  0
LINE
  8
0
 10
1858.39
 20
3.96471
 11
1858.67
 21
4.04491
  0
LINE
  8
0
 10
1858.67
 20
4.04491
 11
1858.95
 21
4.10541
  0
LINE
  8
0
 10
1858.95
 20
4.10541
 11
1859.24
 21
4.1459
  0
LINE
  8
0
 10
1859.24
 20
4.1459
 11
1859.53
 21
4.1662
  0
LINE
  8
0
 10
1859.53
 20
4.1662
 11
1859.82
 21
4.1662
  0
LINE
  8
0
 10
1859.82
 20
4.1662
 11
1860.11
 21
4.1459
  0
LINE
  8
0
 10
1860.11
 20
4.1459
 11
1860.4
 21
4.10541
  0
LINE
  8
0
 10
1860.4
 20
4.10541
 11
1860.69
 21
4.04491
  0
LINE
  8
0
 10
1860.69
 20
4.04491
 11
1860.97
 21
3.96471
  0
LINE
  8
0
 10
1860.97
 20
3.96471
 11
1861.24
 21
3.86519
  0
LINE
  8
0
 10
1861.24
 20
3.86519
 11
1861.51
 21
3.74684
  0
LINE
  8
0
 10
1861.51
 20
3.74684
 11
1861.76
 21
3.61023
  0
LINE
  8
0
 10
1861.76
 20
3.61023
 11
1862.01
 21
3.45604
  0
LINE
  8
0
 10
1862.01
 20
3.45604
 11
1862.24
 21
3.28502
  0
LINE
  8
0
 10
1862.24
 20
3.28502
 11
1862.47
 21
3.09798
  0
LINE
  8
0
 10
1862.47
 20
3.09798
 11
1862.68
 21
2.89584
  0
LINE
  8
0
 10
1862.68
 20
2.89584
 11
1862.87
 21
2.67961
  0
LINE
  8
0
 10
1862.87
 20
2.67961
 11
1863.05
 21
2.45032
  0
LINE
  8
0
 10
1863.05
 20
2.45032
 11
1863.21
 21
2.20909
  0
LINE
  8
0
 10
1863.21
 20
2.20909
 11
1863.36
 21
1.95711
  0
LINE
  8
0
 10
1863.36
 20
1.95711
 11
1863.49
 21
1.69557
  0
LINE
  8
0
 10
1863.49
 20
1.69557
 11
1863.6
 21
1.42578
  0
LINE
  8
0
 10
1863.6
 20
1.42578
 11
1863.69
 21
1.14906
  0
LINE
  8
0
 10
1863.69
 20
1.14906
 11
1863.76
 21
0.86673
  0
LINE
  8
0
 10
1863.76
 20
0.86673
 11
1863.81
 21
0.58017
  0
LINE
  8
0
 10
1863.81
 20
0.58017
 11
1863.84
 21
0.290787
  0
LINE
  8
0
 10
1863.84
 20
0.290787
 11
1863.85
 21
0
  0
LINE
  8
0
 10
1863.85
 20
0
 11
1863.84
 21
-0.290787
  0
LINE
  8
0
 10
1863.84
 20
-0.290787
 11
1863.81
 21
-0.58017
  0
LINE
  8
0
 10
1863.81
 20
-0.58017
 11
1863.76
 21
-0.86673
  0
LINE
  8
0
 10
1863.76
 20
-0.86673
 11
1863.69
 21
-1.14906
  0
LINE
  8
0
 10
1863.69
 20
-1.14906
 11
1863.6
 21
-1.42578
  0
LINE
  8
0
 10
1863.6
 20
-1.42578
 11
1863.49
 21
-1.69557
  0
LINE
  8
0
 10
1863.49
 20
-1.69557
 11
1863.36
 21
-1.95711
  0
LINE
  8
0
 10
1863.36
 20
-1.95711
 11
1863.21
 21
-2.20909
  0
LINE
  8
0
 10
1863.21
 20
-2.20909
 11
1863.05
 21
-2.45032
  0
LINE
  8
0
 10
1863.05
 20
-2.45032
 11
1862.87
 21
-2.67961
  0
LINE
  8
0
 10
1862.87
 20
-2.67961
 11
1862.68
 21
-2.89584
  0
LINE
  8
0
 10
1862.68
 20
-2.89584
 11
1862.47
 21
-3.09798
  0
LINE
  8
0
 10
1862.47
 20
-3.09798
 11
1862.24
 21
-3.28502
  0
LINE
  8
0
 10
1862.24
 20
-3.28502
 11
1862.01
 21
-3.45604
  0
LINE
  8
0
 10
1862.01
 20
-3.45604
 11
1861.76
 21
-3.61023
  0
LINE
  8
0
 10
1861.76
 20
-3.61023
 11
1861.51
 21
-3.74684
  0
LINE
  8
0
 10
1861.51
 20
-3.74684
 11
1861.24
 21
-3.86519
  0
LINE
  8
0
 10
1861.24
 20
-3.86519
 11
1860.97
 21
-3.96471
  0
LINE
  8
0
 10
1860.97
 20
-3.96471
 11
1860.69
 21
-4.04491
  0
LINE
  8
0
 10
1860.69
 20
-4.04491
 11
1860.4
 21
-4.10541
  0
LINE
  8
0
 10
1860.4
 20
-4.10541
 11
1860.11
 21
-4.1459
  0
LINE
  8
0
 10
1860.11
 20
-4.1459
 11
1859.82
 21
-4.1662
  0
LINE
  8
0
 10
1859.82
 20
-4.1662
 11
1859.53
 21
-4.1662
  0
LINE
  8
0
 10
1934.52
 20
-4.1662
 11
1934.23
 21
-4.1459
  0
LINE
  8
0
 10
1934.23
 20
-4.1459
 11
1933.94
 21
-4.10541
  0
LINE
  8
0
 10
1933.94
 20
-4.10541
 11
1933.66
 21
-4.04491
  0
LINE
  8
0
 10
1933.66
 20
-4.04491
 11
1933.38
 21
-3.96471
  0
LINE
  8
0
 10
1933.38
 20
-3.96471
 11
1933.1
 21
-3.86519
  0
LINE
  8
0
 10
1933.1
 20
-3.86519
 11
1932.84
 21
-3.74684
  0
LINE
  8
0
 10
1932.84
 20
-3.74684
 11
1932.58
 21
-3.61023
  0
LINE
  8
0
 10
1932.58
 20
-3.61023
 11
1932.33
 21
-3.45604
  0
LINE
  8
0
 10
1932.33
 20
-3.45604
 11
1932.1
 21
-3.28502
  0
LINE
  8
0
 10
1932.1
 20
-3.28502
 11
1931.88
 21
-3.09798
  0
LINE
  8
0
 10
1931.88
 20
-3.09798
 11
1931.67
 21
-2.89584
  0
LINE
  8
0
 10
1931.67
 20
-2.89584
 11
1931.47
 21
-2.67961
  0
LINE
  8
0
 10
1931.47
 20
-2.67961
 11
1931.29
 21
-2.45032
  0
LINE
  8
0
 10
1931.29
 20
-2.45032
 11
1931.13
 21
-2.20909
  0
LINE
  8
0
 10
1931.13
 20
-2.20909
 11
1930.99
 21
-1.95711
  0
LINE
  8
0
 10
1930.99
 20
-1.95711
 11
1930.86
 21
-1.69557
  0
LINE
  8
0
 10
1930.86
 20
-1.69557
 11
1930.75
 21
-1.42578
  0
LINE
  8
0
 10
1930.75
 20
-1.42578
 11
1930.66
 21
-1.14906
  0
LINE
  8
0
 10
1930.66
 20
-1.14906
 11
1930.59
 21
-0.86673
  0
LINE
  8
0
 10
1930.59
 20
-0.86673
 11
1930.54
 21
-0.58017
  0
LINE
  8
0
 10
1930.54
 20
-0.58017
 11
1930.51
 21
-0.290787
  0
LINE
  8
0
 10
1930.51
 20
-0.290787
 11
1930.5
 21
0
  0
LINE
  8
0
 10
1930.5
 20
0
 11
1930.51
 21
0.290787
  0
LINE
  8
0
 10
1930.51
 20
0.290787
 11
1930.54
 21
0.58017
  0
LINE
  8
0
 10
1930.54
 20
0.58017
 11
1930.59
 21
0.86673
  0
LINE
  8
0
 10
1930.59
 20
0.86673
 11
1930.66
 21
1.14906
  0
LINE
  8
0
 10
1930.66
 20
1.14906
 11
1930.75
 21
1.42578
  0
LINE
  8
0
 10
1930.75
 20
1.42578
 11
1930.86
 21
1.69557
  0
LINE
  8
0
 10
1930.86
 20
1.69557
 11
1930.99
 21
1.95711
  0
LINE
  8
0
 10
1930.99
 20
1.95711
 11
1931.13
 21
2.20909
  0
LINE
  8
0
 10
1931.13
 20
2.20909
 11
1931.29
 21
2.45032
  0
LINE
  8
0
 10
1931.29
 20
2.45032
 11
1931.47
 21
2.67961
  0
LINE
  8
0
 10
1931.47
 20
2.67961
 11
1931.67
 21
2.89584
  0
LINE
  8
0
 10
1931.67
 20
2.89584
 11
1931.88
 21
3.09798
  0
LINE
  8
0
 10
1931.88
 20
3.09798
 11
1932.1
 21
3.28502
  0
LINE
  8
0
 10
1932.1
 20
3.28502
 11
1932.33
 21
3.45604
  0
LINE
  8
0
 10
1932.33
 20
3.45604
 11
1932.58
 21
3.61023
  0
LINE
  8
0
 10
1932.58
 20
3.61023
 11
1932.84
 21
3.74684
  0
LINE
  8
0
 10
1932.84
 20
3.74684
 11
1933.1
 21
3.86519
  0
LINE
  8
0
 10
1933.1
 20
3.86519
 11
1933.38
 21
3.96471
  0
LINE
  8
0
 10
1933.38
 20
3.96471
 11
1933.66
 21
4.04491
  0
LINE
  8
0
 10
1933.66
 20
4.04491
 11
1933.94
 21
4.10541
  0
LINE
  8
0
 10
1933.94
 20
4.10541
 11
1934.23
 21
4.1459
  0
LINE
  8
0
 10
1934.23
 20
4.1459
 11
1934.52
 21
4.1662
  0
LINE
  8
0
 10
1934.52
 20
4.1662
 11
1934.81
 21
4.1662
  0
LINE
  8
0
 10
1934.81
 20
4.1662
 11
1935.1
 21
4.1459
  0
LINE
  8
0
 10
1935.1
 20
4.1459
 11
1935.39
 21
4.10541
  0
LINE
  8
0
 10
1935.39
 20
4.10541
 11
1935.67
 21
4.04491
  0
LINE
  8
0
 10
1935.67
 20
4.04491
 11
1935.95
 21
3.96471
  0
LINE
  8
0
 10
1935.95
 20
3.96471
 11
1936.23
 21
3.86519
  0
LINE
  8
0
 10
1936.23
 20
3.86519
 11
1936.49
 21
3.74684
  0
LINE
  8
0
 10
1936.49
 20
3.74684
 11
1936.75
 21
3.61023
  0
LINE
  8
0
 10
1936.75
 20
3.61023
 11
1937
 21
3.45604
  0
LINE
  8
0
 10
1937
 20
3.45604
 11
1937.23
 21
3.28502
  0
LINE
  8
0
 10
1937.23
 20
3.28502
 11
1937.46
 21
3.09798
  0
LINE
  8
0
 10
1937.46
 20
3.09798
 11
1937.66
 21
2.89584
  0
LINE
  8
0
 10
1937.66
 20
2.89584
 11
1937.86
 21
2.67961
  0
LINE
  8
0
 10
1937.86
 20
2.67961
 11
1938.04
 21
2.45032
  0
LINE
  8
0
 10
1938.04
 20
2.45032
 11
1938.2
 21
2.20909
  0
LINE
  8
0
 10
1938.2
 20
2.20909
 11
1938.35
 21
1.95711
  0
LINE
  8
0
 10
1938.35
 20
1.95711
 11
1938.47
 21
1.69557
  0
LINE
  8
0
 10
1938.47
 20
1.69557
 11
1938.58
 21
1.42578
  0
LINE
  8
0
 10
1938.58
 20
1.42578
 11
1938.67
 21
1.14906
  0
LINE
  8
0
 10
1938.67
 20
1.14906
 11
1938.74
 21
0.86673
  0
LINE
  8
0
 10
1938.74
 20
0.86673
 11
1938.79
 21
0.58017
  0
LINE
  8
0
 10
1938.79
 20
0.58017
 11
1938.82
 21
0.290787
  0
LINE
  8
0
 10
1938.82
 20
0.290787
 11
1938.83
 21
0
  0
LINE
  8
0
 10
1938.83
 20
0
 11
1938.82
 21
-0.290787
  0
LINE
  8
0
 10
1938.82
 20
-0.290787
 11
1938.79
 21
-0.58017
  0
LINE
  8
0
 10
1938.79
 20
-0.58017
 11
1938.74
 21
-0.86673
  0
LINE
  8
0
 10
1938.74
 20
-0.86673
 11
1938.67
 21
-1.14906
  0
LINE
  8
0
 10
1938.67
 20
-1.14906
 11
1938.58
 21
-1.42578
  0
LINE
  8
0
 10
1938.58
 20
-1.42578
 11
1938.47
 21
-1.69557
  0
LINE
  8
0
 10
1938.47
 20
-1.69557
 11
1938.35
 21
-1.95711
  0
LINE
  8
0
 10
1938.35
 20
-1.95711
 11
1938.2
 21
-2.20909
  0
LINE
  8
0
 10
1938.2
 20
-2.20909
 11
1938.04
 21
-2.45032
  0
LINE
  8
0
 10
1938.04
 20
-2.45032
 11
1937.86
 21
-2.67961
  0
LINE
  8
0
 10
1937.86
 20
-2.67961
 11
1937.66
 21
-2.89584
  0
LINE
  8
0
 10
1937.66
 20
-2.89584
 11
1937.46
 21
-3.09798
  0
LINE
  8
0
 10
1937.46
 20
-3.09798
 11
1937.23
 21
-3.28502
  0
LINE
  8
0
 10
1937.23
 20
-3.28502
 11
1937
 21
-3.45604
  0
LINE
  8
0
 10
1937
 20
-3.45604
 11
1936.75
 21
-3.61023
  0
LINE
  8
0
 10
1936.75
 20
-3.61023
 11
1936.49
 21
-3.74684
  0
LINE
  8
0
 10
1936.49
 20
-3.74684
 11
1936.23
 21
-3.86519
  0
LINE
  8
0
 10
1936.23
 20
-3.86519
 11
1935.95
 21
-3.96471
  0
LINE
  8
0
 10
1935.95
 20
-3.96471
 11
1935.67
 21
-4.04491
  0
LINE
  8
0
 10
1935.67
 20
-4.04491
 11
1935.39
 21
-4.10541
  0
LINE
  8
0
 10
1935.39
 20
-4.10541
 11
1935.1
 21
-4.1459
  0
LINE
  8
0
 10
1935.1
 20
-4.1459
 11
1934.81
 21
-4.1662
  0
LINE
  8
0
 10
1934.81
 20
-4.1662
 11
1934.52
 21
-4.1662
  0
ENDSEC
  0
SECTION
  2
OBJECTS
  0
DICTIONARY
  0
ENDSEC
  0
EOF
