  0
SECTION
  2
BLOCKS
  0
ENDSEC
  0
SECTION
  2
ENTITIES
  0
LINE
  8
0
 10
157.143
 20
-167.049
 11
160.147
 21
-166.627
  0
LINE
  8
0
 10
160.147
 20
-166.627
 11
163.115
 21
-165.996
  0
LINE
  8
0
 10
163.115
 20
-165.996
 11
166.031
 21
-165.16
  0
LINE
  8
0
 10
166.031
 20
-165.16
 11
168.881
 21
-164.123
  0
LINE
  8
0
 10
168.881
 20
-164.123
 11
171.653
 21
-162.889
  0
LINE
  8
0
 10
171.653
 20
-162.889
 11
174.331
 21
-161.465
  0
LINE
  8
0
 10
174.331
 20
-161.465
 11
176.904
 21
-159.857
  0
LINE
  8
0
 10
176.904
 20
-159.857
 11
179.358
 21
-158.074
  0
LINE
  8
0
 10
179.358
 20
-158.074
 11
181.682
 21
-156.124
  0
LINE
  8
0
 10
181.682
 20
-156.124
 11
183.864
 21
-154.017
  0
LINE
  8
0
 10
183.864
 20
-154.017
 11
185.894
 21
-151.762
  0
LINE
  8
0
 10
185.894
 20
-151.762
 11
187.762
 21
-149.372
  0
LINE
  8
0
 10
187.762
 20
-149.372
 11
189.458
 21
-146.857
  0
LINE
  8
0
 10
189.458
 20
-146.857
 11
190.975
 21
-144.229
  0
LINE
  8
0
 10
190.975
 20
-144.229
 11
192.305
 21
-141.503
  0
LINE
  8
0
 10
192.305
 20
-141.503
 11
193.441
 21
-138.69
  0
LINE
  8
0
 10
193.441
 20
-138.69
 11
194.379
 21
-135.805
  0
LINE
  8
0
 10
194.379
 20
-135.805
 11
195.113
 21
-132.861
  0
LINE
  8
0
 10
195.113
 20
-132.861
 11
195.64
 21
-129.874
  0
LINE
  8
0
 10
195.64
 20
-129.874
 11
195.957
 21
-126.857
  0
LINE
  8
0
 10
195.957
 20
-126.857
 11
196.062
 21
-123.825
  0
LINE
  8
0
 10
196.062
 20
-123.825
 11
195.957
 21
-120.793
  0
LINE
  8
0
 10
195.957
 20
-120.793
 11
195.64
 21
-117.776
  0
LINE
  8
0
 10
195.64
 20
-117.776
 11
195.113
 21
-114.789
  0
LINE
  8
0
 10
195.113
 20
-114.789
 11
194.379
 21
-111.845
  0
LINE
  8
0
 10
194.379
 20
-111.845
 11
193.441
 21
-108.96
  0
LINE
  8
0
 10
193.441
 20
-108.96
 11
192.305
 21
-106.147
  0
LINE
  8
0
 10
192.305
 20
-106.147
 11
190.975
 21
-103.421
  0
LINE
  8
0
 10
190.975
 20
-103.421
 11
189.458
 21
-100.793
  0
LINE
  8
0
 10
189.458
 20
-100.793
 11
187.762
 21
-98.2784
  0
LINE
  8
0
 10
187.762
 20
-98.2784
 11
185.894
 21
-95.8878
  0
LINE
  8
0
 10
185.894
 20
-95.8878
 11
183.864
 21
-93.6334
  0
LINE
  8
0
 10
183.864
 20
-93.6334
 11
181.682
 21
-91.5261
  0
LINE
  8
0
 10
181.682
 20
-91.5261
 11
179.358
 21
-89.5761
  0
LINE
  8
0
 10
179.358
 20
-89.5761
 11
26.7582
 21
34.2489
  0
LINE
  8
0
 10
26.7582
 20
34.2489
 11
24.3039
 21
36.032
  0
LINE
  8
0
 10
24.3039
 20
36.032
 11
21.7312
 21
37.6396
  0
LINE
  8
0
 10
21.7312
 20
37.6396
 11
19.0527
 21
39.0638
  0
LINE
  8
0
 10
19.0527
 20
39.0638
 11
16.2813
 21
40.2977
  0
LINE
  8
0
 10
16.2813
 20
40.2977
 11
13.4306
 21
41.3353
  0
LINE
  8
0
 10
13.4306
 20
41.3353
 11
10.5145
 21
42.1715
  0
LINE
  8
0
 10
10.5145
 20
42.1715
 11
7.54718
 21
42.8022
  0
LINE
  8
0
 10
7.54718
 20
42.8022
 11
4.54306
 21
43.2244
  0
LINE
  8
0
 10
4.54306
 20
43.2244
 11
1.51682
 21
43.436
  0
LINE
  8
0
 10
1.51682
 20
43.436
 11
-1.51682
 21
43.436
  0
LINE
  8
0
 10
-1.51682
 20
43.436
 11
-4.54306
 21
43.2244
  0
LINE
  8
0
 10
-4.54306
 20
43.2244
 11
-133.746
 21
27.3494
  0
LINE
  8
0
 10
-133.746
 20
27.3494
 11
-136.751
 21
26.9272
  0
LINE
  8
0
 10
-136.751
 20
26.9272
 11
-139.718
 21
26.2965
  0
LINE
  8
0
 10
-139.718
 20
26.2965
 11
-142.634
 21
25.4603
  0
LINE
  8
0
 10
-142.634
 20
25.4603
 11
-145.485
 21
24.4227
  0
LINE
  8
0
 10
-145.485
 20
24.4227
 11
-148.256
 21
23.1888
  0
LINE
  8
0
 10
-148.256
 20
23.1888
 11
-150.935
 21
21.7646
  0
LINE
  8
0
 10
-150.935
 20
21.7646
 11
-153.507
 21
20.157
  0
LINE
  8
0
 10
-153.507
 20
20.157
 11
-155.962
 21
18.3739
  0
LINE
  8
0
 10
-155.962
 20
18.3739
 11
-158.285
 21
16.4239
  0
LINE
  8
0
 10
-158.285
 20
16.4239
 11
-160.468
 21
14.3166
  0
LINE
  8
0
 10
-160.468
 20
14.3166
 11
-162.498
 21
12.0621
  0
LINE
  8
0
 10
-162.498
 20
12.0621
 11
-164.365
 21
9.67162
  0
LINE
  8
0
 10
-164.365
 20
9.67162
 11
-166.062
 21
7.1566
  0
LINE
  8
0
 10
-166.062
 20
7.1566
 11
-167.578
 21
4.5294
  0
LINE
  8
0
 10
-167.578
 20
4.5294
 11
-168.908
 21
1.80278
  0
LINE
  8
0
 10
-168.908
 20
1.80278
 11
-170.045
 21
-1.00995
  0
LINE
  8
0
 10
-170.045
 20
-1.00995
 11
-170.982
 21
-3.89511
  0
LINE
  8
0
 10
-170.982
 20
-3.89511
 11
-171.716
 21
-6.83862
  0
LINE
  8
0
 10
-171.716
 20
-6.83862
 11
-172.243
 21
-9.82619
  0
LINE
  8
0
 10
-172.243
 20
-9.82619
 11
-172.56
 21
-12.8432
  0
LINE
  8
0
 10
-172.56
 20
-12.8432
 11
-172.666
 21
-15.875
  0
LINE
  8
0
 10
-172.666
 20
-15.875
 11
-172.56
 21
-18.9068
  0
LINE
  8
0
 10
-172.56
 20
-18.9068
 11
-172.243
 21
-21.9238
  0
LINE
  8
0
 10
-172.243
 20
-21.9238
 11
-171.716
 21
-24.9114
  0
LINE
  8
0
 10
-171.716
 20
-24.9114
 11
-170.982
 21
-27.8549
  0
LINE
  8
0
 10
-170.982
 20
-27.8549
 11
-170.045
 21
-30.74
  0
LINE
  8
0
 10
-170.045
 20
-30.74
 11
-168.908
 21
-33.5528
  0
LINE
  8
0
 10
-168.908
 20
-33.5528
 11
-167.578
 21
-36.2794
  0
LINE
  8
0
 10
-167.578
 20
-36.2794
 11
-166.062
 21
-38.9066
  0
LINE
  8
0
 10
-166.062
 20
-38.9066
 11
-164.365
 21
-41.4216
  0
LINE
  8
0
 10
-164.365
 20
-41.4216
 11
-162.498
 21
-43.8121
  0
LINE
  8
0
 10
-162.498
 20
-43.8121
 11
-160.468
 21
-46.0666
  0
LINE
  8
0
 10
-160.468
 20
-46.0666
 11
-158.285
 21
-48.1739
  0
LINE
  8
0
 10
-158.285
 20
-48.1739
 11
-155.962
 21
-50.1239
  0
LINE
  8
0
 10
-155.962
 20
-50.1239
 11
-153.507
 21
-51.907
  0
LINE
  8
0
 10
-153.507
 20
-51.907
 11
-150.935
 21
-53.5146
  0
LINE
  8
0
 10
-150.935
 20
-53.5146
 11
-148.256
 21
-54.9388
  0
LINE
  8
0
 10
-148.256
 20
-54.9388
 11
-145.485
 21
-56.1727
  0
LINE
  8
0
 10
-145.485
 20
-56.1727
 11
-142.634
 21
-57.2103
  0
LINE
  8
0
 10
-142.634
 20
-57.2103
 11
-139.718
 21
-58.0465
  0
LINE
  8
0
 10
-139.718
 20
-58.0465
 11
-136.751
 21
-58.6772
  0
LINE
  8
0
 10
-136.751
 20
-58.6772
 11
-133.746
 21
-59.0994
  0
LINE
  8
0
 10
-133.746
 20
-59.0994
 11
-130.72
 21
-59.311
  0
LINE
  8
0
 10
-130.72
 20
-59.311
 11
-127.687
 21
-59.311
  0
LINE
  8
0
 10
-127.687
 20
-59.311
 11
-124.66
 21
-59.0994
  0
LINE
  8
0
 10
-124.66
 20
-59.0994
 11
-97.2096
 21
-55.7266
  0
LINE
  8
0
 10
-97.2096
 20
-55.7266
 11
-96.3189
 21
-56.4739
  0
LINE
  8
0
 10
-96.3189
 20
-56.4739
 11
-93.8647
 21
-58.257
  0
LINE
  8
0
 10
-93.8647
 20
-58.257
 11
-91.292
 21
-59.8646
  0
LINE
  8
0
 10
-91.292
 20
-59.8646
 11
-88.6135
 21
-61.2888
  0
LINE
  8
0
 10
-88.6135
 20
-61.2888
 11
-85.8421
 21
-62.5227
  0
LINE
  8
0
 10
-85.8421
 20
-62.5227
 11
-82.9914
 21
-63.5603
  0
LINE
  8
0
 10
-82.9914
 20
-63.5603
 11
-80.0753
 21
-64.3965
  0
LINE
  8
0
 10
-80.0753
 20
-64.3965
 11
-77.1079
 21
-65.0272
  0
LINE
  8
0
 10
-77.1079
 20
-65.0272
 11
-74.1038
 21
-65.4494
  0
LINE
  8
0
 10
-74.1038
 20
-65.4494
 11
-71.0776
 21
-65.661
  0
LINE
  8
0
 10
-71.0776
 20
-65.661
 11
-68.0439
 21
-65.661
  0
LINE
  8
0
 10
-68.0439
 20
-65.661
 11
-65.0177
 21
-65.4494
  0
LINE
  8
0
 10
-65.0177
 20
-65.4494
 11
-62.0136
 21
-65.0272
  0
LINE
  8
0
 10
-62.0136
 20
-65.0272
 11
-59.0462
 21
-64.3965
  0
LINE
  8
0
 10
-59.0462
 20
-64.3965
 11
-56.1301
 21
-63.5603
  0
LINE
  8
0
 10
-56.1301
 20
-63.5603
 11
-21.2085
 21
-52.4027
  0
LINE
  8
0
 10
-21.2085
 20
-52.4027
 11
23.1649
 21
-135.114
  0
LINE
  8
0
 10
23.1649
 20
-135.114
 11
24.6818
 21
-137.741
  0
LINE
  8
0
 10
24.6818
 20
-137.741
 11
26.3781
 21
-140.256
  0
LINE
  8
0
 10
26.3781
 20
-140.256
 11
28.2458
 21
-142.647
  0
LINE
  8
0
 10
28.2458
 20
-142.647
 11
30.2757
 21
-144.901
  0
LINE
  8
0
 10
30.2757
 20
-144.901
 11
32.458
 21
-147.009
  0
LINE
  8
0
 10
32.458
 20
-147.009
 11
34.7819
 21
-148.959
  0
LINE
  8
0
 10
34.7819
 20
-148.959
 11
37.2361
 21
-150.742
  0
LINE
  8
0
 10
37.2361
 20
-150.742
 11
39.8088
 21
-152.349
  0
LINE
  8
0
 10
39.8088
 20
-152.349
 11
42.4874
 21
-153.774
  0
LINE
  8
0
 10
42.4874
 20
-153.774
 11
45.2587
 21
-155.008
  0
LINE
  8
0
 10
45.2587
 20
-155.008
 11
48.1094
 21
-156.045
  0
LINE
  8
0
 10
48.1094
 20
-156.045
 11
51.0255
 21
-156.881
  0
LINE
  8
0
 10
51.0255
 20
-156.881
 11
53.9929
 21
-157.512
  0
LINE
  8
0
 10
53.9929
 20
-157.512
 11
56.997
 21
-157.934
  0
LINE
  8
0
 10
56.997
 20
-157.934
 11
60.0232
 21
-158.146
  0
LINE
  8
0
 10
60.0232
 20
-158.146
 11
63.0569
 21
-158.146
  0
LINE
  8
0
 10
63.0569
 20
-158.146
 11
66.0831
 21
-157.934
  0
LINE
  8
0
 10
66.0831
 20
-157.934
 11
69.0872
 21
-157.512
  0
LINE
  8
0
 10
69.0872
 20
-157.512
 11
72.0546
 21
-156.881
  0
LINE
  8
0
 10
72.0546
 20
-156.881
 11
74.9707
 21
-156.045
  0
LINE
  8
0
 10
74.9707
 20
-156.045
 11
77.8214
 21
-155.008
  0
LINE
  8
0
 10
77.8214
 20
-155.008
 11
80.5928
 21
-153.774
  0
LINE
  8
0
 10
80.5928
 20
-153.774
 11
83.2713
 21
-152.349
  0
LINE
  8
0
 10
83.2713
 20
-152.349
 11
85.844
 21
-150.742
  0
LINE
  8
0
 10
85.844
 20
-150.742
 11
88.2982
 21
-148.959
  0
LINE
  8
0
 10
88.2982
 20
-148.959
 11
90.6221
 21
-147.009
  0
LINE
  8
0
 10
90.6221
 20
-147.009
 11
92.8044
 21
-144.901
  0
LINE
  8
0
 10
92.8044
 20
-144.901
 11
94.8343
 21
-142.647
  0
LINE
  8
0
 10
94.8343
 20
-142.647
 11
96.702
 21
-140.256
  0
LINE
  8
0
 10
96.702
 20
-140.256
 11
98.3983
 21
-137.741
  0
LINE
  8
0
 10
98.3983
 20
-137.741
 11
99.1596
 21
-136.423
  0
LINE
  8
0
 10
99.1596
 20
-136.423
 11
125.842
 21
-158.074
  0
LINE
  8
0
 10
125.842
 20
-158.074
 11
128.296
 21
-159.857
  0
LINE
  8
0
 10
128.296
 20
-159.857
 11
130.869
 21
-161.465
  0
LINE
  8
0
 10
130.869
 20
-161.465
 11
133.547
 21
-162.889
  0
LINE
  8
0
 10
133.547
 20
-162.889
 11
136.319
 21
-164.123
  0
LINE
  8
0
 10
136.319
 20
-164.123
 11
139.169
 21
-165.16
  0
LINE
  8
0
 10
139.169
 20
-165.16
 11
142.085
 21
-165.996
  0
LINE
  8
0
 10
142.085
 20
-165.996
 11
145.053
 21
-166.627
  0
LINE
  8
0
 10
145.053
 20
-166.627
 11
148.057
 21
-167.049
  0
LINE
  8
0
 10
148.057
 20
-167.049
 11
151.083
 21
-167.261
  0
LINE
  8
0
 10
151.083
 20
-167.261
 11
154.117
 21
-167.261
  0
LINE
  8
0
 10
154.117
 20
-167.261
 11
157.143
 21
-167.049
  0
LINE
  8
0
 10
-0.5056
 20
-14.4787
 11
-1.51434
 21
-14.4081
  0
LINE
  8
0
 10
-1.51434
 20
-14.4081
 11
-2.51572
 21
-14.2674
  0
LINE
  8
0
 10
-2.51572
 20
-14.2674
 11
-3.50484
 21
-14.0571
  0
LINE
  8
0
 10
-3.50484
 20
-14.0571
 11
-4.47688
 21
-13.7784
  0
LINE
  8
0
 10
-4.47688
 20
-13.7784
 11
-5.42711
 21
-13.4326
  0
LINE
  8
0
 10
-5.42711
 20
-13.4326
 11
-6.35089
 21
-13.0213
  0
LINE
  8
0
 10
-6.35089
 20
-13.0213
 11
-7.24374
 21
-12.5465
  0
LINE
  8
0
 10
-7.24374
 20
-12.5465
 11
-8.1013
 21
-12.0107
  0
LINE
  8
0
 10
-8.1013
 20
-12.0107
 11
-8.91939
 21
-11.4163
  0
LINE
  8
0
 10
-8.91939
 20
-11.4163
 11
-9.69402
 21
-10.7663
  0
LINE
  8
0
 10
-9.69402
 20
-10.7663
 11
-10.4214
 21
-10.0639
  0
LINE
  8
0
 10
-10.4214
 20
-10.0639
 11
-11.0981
 21
-9.31238
  0
LINE
  8
0
 10
-11.0981
 20
-9.31238
 11
-11.7206
 21
-8.51553
  0
LINE
  8
0
 10
-11.7206
 20
-8.51553
 11
-12.2861
 21
-7.6772
  0
LINE
  8
0
 10
-12.2861
 20
-7.6772
 11
-12.7917
 21
-6.80147
  0
LINE
  8
0
 10
-12.7917
 20
-6.80147
 11
-13.235
 21
-5.89259
  0
LINE
  8
0
 10
-13.235
 20
-5.89259
 11
-13.6138
 21
-4.955
  0
LINE
  8
0
 10
-13.6138
 20
-4.955
 11
-13.9263
 21
-3.99329
  0
LINE
  8
0
 10
-13.9263
 20
-3.99329
 11
-14.1709
 21
-3.01212
  0
LINE
  8
0
 10
-14.1709
 20
-3.01212
 11
-14.3465
 21
-2.01627
  0
LINE
  8
0
 10
-14.3465
 20
-2.01627
 11
-14.4522
 21
-1.01059
  0
LINE
  8
0
 10
-14.4522
 20
-1.01059
 11
-14.4875
 21
0
  0
LINE
  8
0
 10
-14.4875
 20
0
 11
-14.4522
 21
1.01059
  0
LINE
  8
0
 10
-14.4522
 20
1.01059
 11
-14.3465
 21
2.01627
  0
LINE
  8
0
 10
-14.3465
 20
2.01627
 11
-14.1709
 21
3.01212
  0
LINE
  8
0
 10
-14.1709
 20
3.01212
 11
-13.9263
 21
3.99329
  0
LINE
  8
0
 10
-13.9263
 20
3.99329
 11
-13.6138
 21
4.955
  0
LINE
  8
0
 10
-13.6138
 20
4.955
 11
-13.235
 21
5.89259
  0
LINE
  8
0
 10
-13.235
 20
5.89259
 11
-12.7917
 21
6.80147
  0
LINE
  8
0
 10
-12.7917
 20
6.80147
 11
-12.2861
 21
7.6772
  0
LINE
  8
0
 10
-12.2861
 20
7.6772
 11
-11.7206
 21
8.51553
  0
LINE
  8
0
 10
-11.7206
 20
8.51553
 11
-11.0981
 21
9.31238
  0
LINE
  8
0
 10
-11.0981
 20
9.31238
 11
-10.4214
 21
10.0639
  0
LINE
  8
0
 10
-10.4214
 20
10.0639
 11
-9.69402
 21
10.7663
  0
LINE
  8
0
 10
-9.69402
 20
10.7663
 11
-8.91939
 21
11.4163
  0
LINE
  8
0
 10
-8.91939
 20
11.4163
 11
-8.1013
 21
12.0107
  0
LINE
  8
0
 10
-8.1013
 20
12.0107
 11
-7.24374
 21
12.5465
  0
LINE
  8
0
 10
-7.24374
 20
12.5465
 11
-6.35089
 21
13.0213
  0
LINE
  8
0
 10
-6.35089
 20
13.0213
 11
-5.42711
 21
13.4326
  0
LINE
  8
0
 10
-5.42711
 20
13.4326
 11
-4.47688
 21
13.7784
  0
LINE
  8
0
 10
-4.47688
 20
13.7784
 11
-3.50484
 21
14.0571
  0
LINE
  8
0
 10
-3.50484
 20
14.0571
 11
-2.51572
 21
14.2674
  0
LINE
  8
0
 10
-2.51572
 20
14.2674
 11
-1.51434
 21
14.4081
  0
LINE
  8
0
 10
-1.51434
 20
14.4081
 11
-0.5056
 21
14.4787
  0
LINE
  8
0
 10
-0.5056
 20
14.4787
 11
0.5056
 21
14.4787
  0
LINE
  8
0
 10
0.5056
 20
14.4787
 11
1.51434
 21
14.4081
  0
LINE
  8
0
 10
1.51434
 20
14.4081
 11
2.51572
 21
14.2674
  0
LINE
  8
0
 10
2.51572
 20
14.2674
 11
3.50484
 21
14.0571
  0
LINE
  8
0
 10
3.50484
 20
14.0571
 11
4.47688
 21
13.7784
  0
LINE
  8
0
 10
4.47688
 20
13.7784
 11
5.42711
 21
13.4326
  0
LINE
  8
0
 10
5.42711
 20
13.4326
 11
6.35089
 21
13.0213
  0
LINE
  8
0
 10
6.35089
 20
13.0213
 11
7.24374
 21
12.5465
  0
LINE
  8
0
 10
7.24374
 20
12.5465
 11
8.1013
 21
12.0107
  0
LINE
  8
0
 10
8.1013
 20
12.0107
 11
8.91939
 21
11.4163
  0
LINE
  8
0
 10
8.91939
 20
11.4163
 11
9.69402
 21
10.7663
  0
LINE
  8
0
 10
9.69402
 20
10.7663
 11
10.4214
 21
10.0639
  0
LINE
  8
0
 10
10.4214
 20
10.0639
 11
11.0981
 21
9.31238
  0
LINE
  8
0
 10
11.0981
 20
9.31238
 11
11.7206
 21
8.51553
  0
LINE
  8
0
 10
11.7206
 20
8.51553
 11
12.2861
 21
7.6772
  0
LINE
  8
0
 10
12.2861
 20
7.6772
 11
12.7917
 21
6.80147
  0
LINE
  8
0
 10
12.7917
 20
6.80147
 11
13.235
 21
5.89259
  0
LINE
  8
0
 10
13.235
 20
5.89259
 11
13.6138
 21
4.955
  0
LINE
  8
0
 10
13.6138
 20
4.955
 11
13.9263
 21
3.99329
  0
LINE
  8
0
 10
13.9263
 20
3.99329
 11
14.1709
 21
3.01212
  0
LINE
  8
0
 10
14.1709
 20
3.01212
 11
14.3465
 21
2.01627
  0
LINE
  8
0
 10
14.3465
 20
2.01627
 11
14.4522
 21
1.01059
  0
LINE
  8
0
 10
14.4522
 20
1.01059
 11
14.4875
 21
0
  0
LINE
  8
0
 10
14.4875
 20
0
 11
14.4522
 21
-1.01059
  0
LINE
  8
0
 10
14.4522
 20
-1.01059
 11
14.3465
 21
-2.01627
  0
LINE
  8
0
 10
14.3465
 20
-2.01627
 11
14.1709
 21
-3.01212
  0
LINE
  8
0
 10
14.1709
 20
-3.01212
 11
13.9263
 21
-3.99329
  0
LINE
  8
0
 10
13.9263
 20
-3.99329
 11
13.6138
 21
-4.955
  0
LINE
  8
0
 10
13.6138
 20
-4.955
 11
13.235
 21
-5.89259
  0
LINE
  8
0
 10
13.235
 20
-5.89259
 11
12.7917
 21
-6.80147
  0
LINE
  8
0
 10
12.7917
 20
-6.80147
 11
12.2861
 21
-7.6772
  0
LINE
  8
0
 10
12.2861
 20
-7.6772
 11
11.7206
 21
-8.51553
  0
LINE
  8
0
 10
11.7206
 20
-8.51553
 11
11.0981
 21
-9.31238
  0
LINE
  8
0
 10
11.0981
 20
-9.31238
 11
10.4214
 21
-10.0639
  0
LINE
  8
0
 10
10.4214
 20
-10.0639
 11
9.69402
 21
-10.7663
  0
LINE
  8
0
 10
9.69402
 20
-10.7663
 11
8.91939
 21
-11.4163
  0
LINE
  8
0
 10
8.91939
 20
-11.4163
 11
8.1013
 21
-12.0107
  0
LINE
  8
0
 10
8.1013
 20
-12.0107
 11
7.24374
 21
-12.5465
  0
LINE
  8
0
 10
7.24374
 20
-12.5465
 11
6.35089
 21
-13.0213
  0
LINE
  8
0
 10
6.35089
 20
-13.0213
 11
5.42711
 21
-13.4326
  0
LINE
  8
0
 10
5.42711
 20
-13.4326
 11
4.47688
 21
-13.7784
  0
LINE
  8
0
 10
4.47688
 20
-13.7784
 11
3.50484
 21
-14.0571
  0
LINE
  8
0
 10
3.50484
 20
-14.0571
 11
2.51572
 21
-14.2674
  0
LINE
  8
0
 10
2.51572
 20
-14.2674
 11
1.51434
 21
-14.4081
  0
LINE
  8
0
 10
1.51434
 20
-14.4081
 11
0.5056
 21
-14.4787
  0
LINE
  8
0
 10
0.5056
 20
-14.4787
 11
-0.5056
 21
-14.4787
  0
LINE
  8
0
 10
-69.9556
 20
-33.5306
 11
-70.7432
 21
-33.4755
  0
LINE
  8
0
 10
-70.7432
 20
-33.4755
 11
-71.5251
 21
-33.3656
  0
LINE
  8
0
 10
-71.5251
 20
-33.3656
 11
-72.2975
 21
-33.2015
  0
LINE
  8
0
 10
-72.2975
 20
-33.2015
 11
-73.0565
 21
-32.9838
  0
LINE
  8
0
 10
-73.0565
 20
-32.9838
 11
-73.7985
 21
-32.7138
  0
LINE
  8
0
 10
-73.7985
 20
-32.7138
 11
-74.5198
 21
-32.3926
  0
LINE
  8
0
 10
-74.5198
 20
-32.3926
 11
-75.217
 21
-32.0219
  0
LINE
  8
0
 10
-75.217
 20
-32.0219
 11
-75.8866
 21
-31.6035
  0
LINE
  8
0
 10
-75.8866
 20
-31.6035
 11
-76.5254
 21
-31.1394
  0
LINE
  8
0
 10
-76.5254
 20
-31.1394
 11
-77.1303
 21
-30.6318
  0
LINE
  8
0
 10
-77.1303
 20
-30.6318
 11
-77.6983
 21
-30.0833
  0
LINE
  8
0
 10
-77.6983
 20
-30.0833
 11
-78.2266
 21
-29.4965
  0
LINE
  8
0
 10
-78.2266
 20
-29.4965
 11
-78.7128
 21
-28.8743
  0
LINE
  8
0
 10
-78.7128
 20
-28.8743
 11
-79.1543
 21
-28.2197
  0
LINE
  8
0
 10
-79.1543
 20
-28.2197
 11
-79.5491
 21
-27.5359
  0
LINE
  8
0
 10
-79.5491
 20
-27.5359
 11
-79.8952
 21
-26.8262
  0
LINE
  8
0
 10
-79.8952
 20
-26.8262
 11
-80.191
 21
-26.0941
  0
LINE
  8
0
 10
-80.191
 20
-26.0941
 11
-80.435
 21
-25.3431
  0
LINE
  8
0
 10
-80.435
 20
-25.3431
 11
-80.6261
 21
-24.577
  0
LINE
  8
0
 10
-80.6261
 20
-24.577
 11
-80.7632
 21
-23.7994
  0
LINE
  8
0
 10
-80.7632
 20
-23.7994
 11
-80.8457
 21
-23.0141
  0
LINE
  8
0
 10
-80.8457
 20
-23.0141
 11
-80.8733
 21
-22.225
  0
LINE
  8
0
 10
-80.8733
 20
-22.225
 11
-80.8457
 21
-21.4359
  0
LINE
  8
0
 10
-80.8457
 20
-21.4359
 11
-80.7632
 21
-20.6506
  0
LINE
  8
0
 10
-80.7632
 20
-20.6506
 11
-80.6261
 21
-19.873
  0
LINE
  8
0
 10
-80.6261
 20
-19.873
 11
-80.435
 21
-19.1068
  0
LINE
  8
0
 10
-80.435
 20
-19.1068
 11
-80.191
 21
-18.3559
  0
LINE
  8
0
 10
-80.191
 20
-18.3559
 11
-79.8952
 21
-17.6238
  0
LINE
  8
0
 10
-79.8952
 20
-17.6238
 11
-79.5491
 21
-16.9141
  0
LINE
  8
0
 10
-79.5491
 20
-16.9141
 11
-79.1543
 21
-16.2303
  0
LINE
  8
0
 10
-79.1543
 20
-16.2303
 11
-78.7128
 21
-15.5757
  0
LINE
  8
0
 10
-78.7128
 20
-15.5757
 11
-78.2266
 21
-14.9535
  0
LINE
  8
0
 10
-78.2266
 20
-14.9535
 11
-77.6983
 21
-14.3667
  0
LINE
  8
0
 10
-77.6983
 20
-14.3667
 11
-77.1303
 21
-13.8182
  0
LINE
  8
0
 10
-77.1303
 20
-13.8182
 11
-76.5254
 21
-13.3106
  0
LINE
  8
0
 10
-76.5254
 20
-13.3106
 11
-75.8866
 21
-12.8465
  0
LINE
  8
0
 10
-75.8866
 20
-12.8465
 11
-75.217
 21
-12.4281
  0
LINE
  8
0
 10
-75.217
 20
-12.4281
 11
-74.5198
 21
-12.0574
  0
LINE
  8
0
 10
-74.5198
 20
-12.0574
 11
-73.7985
 21
-11.7362
  0
LINE
  8
0
 10
-73.7985
 20
-11.7362
 11
-73.0565
 21
-11.4662
  0
LINE
  8
0
 10
-73.0565
 20
-11.4662
 11
-72.2975
 21
-11.2485
  0
LINE
  8
0
 10
-72.2975
 20
-11.2485
 11
-71.5251
 21
-11.0844
  0
LINE
  8
0
 10
-71.5251
 20
-11.0844
 11
-70.7432
 21
-10.9745
  0
LINE
  8
0
 10
-70.7432
 20
-10.9745
 11
-69.9556
 21
-10.9194
  0
LINE
  8
0
 10
-69.9556
 20
-10.9194
 11
-69.166
 21
-10.9194
  0
LINE
  8
0
 10
-69.166
 20
-10.9194
 11
-68.3783
 21
-10.9745
  0
LINE
  8
0
 10
-68.3783
 20
-10.9745
 11
-67.5964
 21
-11.0844
  0
LINE
  8
0
 10
-67.5964
 20
-11.0844
 11
-66.824
 21
-11.2485
  0
LINE
  8
0
 10
-66.824
 20
-11.2485
 11
-66.065
 21
-11.4662
  0
LINE
  8
0
 10
-66.065
 20
-11.4662
 11
-65.323
 21
-11.7362
  0
LINE
  8
0
 10
-65.323
 20
-11.7362
 11
-64.6017
 21
-12.0574
  0
LINE
  8
0
 10
-64.6017
 20
-12.0574
 11
-63.9045
 21
-12.4281
  0
LINE
  8
0
 10
-63.9045
 20
-12.4281
 11
-63.2349
 21
-12.8465
  0
LINE
  8
0
 10
-63.2349
 20
-12.8465
 11
-62.5961
 21
-13.3106
  0
LINE
  8
0
 10
-62.5961
 20
-13.3106
 11
-61.9912
 21
-13.8182
  0
LINE
  8
0
 10
-61.9912
 20
-13.8182
 11
-61.4232
 21
-14.3667
  0
LINE
  8
0
 10
-61.4232
 20
-14.3667
 11
-60.8949
 21
-14.9535
  0
LINE
  8
0
 10
-60.8949
 20
-14.9535
 11
-60.4088
 21
-15.5757
  0
LINE
  8
0
 10
-60.4088
 20
-15.5757
 11
-59.9672
 21
-16.2303
  0
LINE
  8
0
 10
-59.9672
 20
-16.2303
 11
-59.5724
 21
-16.9141
  0
LINE
  8
0
 10
-59.5724
 20
-16.9141
 11
-59.2263
 21
-17.6238
  0
LINE
  8
0
 10
-59.2263
 20
-17.6238
 11
-58.9305
 21
-18.3559
  0
LINE
  8
0
 10
-58.9305
 20
-18.3559
 11
-58.6865
 21
-19.1068
  0
LINE
  8
0
 10
-58.6865
 20
-19.1068
 11
-58.4955
 21
-19.873
  0
LINE
  8
0
 10
-58.4955
 20
-19.873
 11
-58.3584
 21
-20.6506
  0
LINE
  8
0
 10
-58.3584
 20
-20.6506
 11
-58.2758
 21
-21.4359
  0
LINE
  8
0
 10
-58.2758
 20
-21.4359
 11
-58.2483
 21
-22.225
  0
LINE
  8
0
 10
-58.2483
 20
-22.225
 11
-58.2758
 21
-23.0141
  0
LINE
  8
0
 10
-58.2758
 20
-23.0141
 11
-58.3584
 21
-23.7994
  0
LINE
  8
0
 10
-58.3584
 20
-23.7994
 11
-58.4955
 21
-24.577
  0
LINE
  8
0
 10
-58.4955
 20
-24.577
 11
-58.6865
 21
-25.3431
  0
LINE
  8
0
 10
-58.6865
 20
-25.3431
 11
-58.9305
 21
-26.0941
  0
LINE
  8
0
 10
-58.9305
 20
-26.0941
 11
-59.2263
 21
-26.8262
  0
LINE
  8
0
 10
-59.2263
 20
-26.8262
 11
-59.5724
 21
-27.5359
  0
LINE
  8
0
 10
-59.5724
 20
-27.5359
 11
-59.9672
 21
-28.2197
  0
LINE
  8
0
 10
-59.9672
 20
-28.2197
 11
-60.4088
 21
-28.8743
  0
LINE
  8
0
 10
-60.4088
 20
-28.8743
 11
-60.8949
 21
-29.4965
  0
LINE
  8
0
 10
-60.8949
 20
-29.4965
 11
-61.4232
 21
-30.0833
  0
LINE
  8
0
 10
-61.4232
 20
-30.0833
 11
-61.9912
 21
-30.6318
  0
LINE
  8
0
 10
-61.9912
 20
-30.6318
 11
-62.5961
 21
-31.1394
  0
LINE
  8
0
 10
-62.5961
 20
-31.1394
 11
-63.2349
 21
-31.6035
  0
LINE
  8
0
 10
-63.2349
 20
-31.6035
 11
-63.9045
 21
-32.0219
  0
LINE
  8
0
 10
-63.9045
 20
-32.0219
 11
-64.6017
 21
-32.3926
  0
LINE
  8
0
 10
-64.6017
 20
-32.3926
 11
-65.323
 21
-32.7138
  0
LINE
  8
0
 10
-65.323
 20
-32.7138
 11
-66.065
 21
-32.9838
  0
LINE
  8
0
 10
-66.065
 20
-32.9838
 11
-66.824
 21
-33.2015
  0
LINE
  8
0
 10
-66.824
 20
-33.2015
 11
-67.5964
 21
-33.3656
  0
LINE
  8
0
 10
-67.5964
 20
-33.3656
 11
-68.3783
 21
-33.4755
  0
LINE
  8
0
 10
-68.3783
 20
-33.4755
 11
-69.166
 21
-33.5306
  0
LINE
  8
0
 10
-69.166
 20
-33.5306
 11
-69.9556
 21
-33.5306
  0
LINE
  8
0
 10
-129.359
 20
-20.341
 11
-129.67
 21
-20.3193
  0
LINE
  8
0
 10
-129.67
 20
-20.3193
 11
-129.979
 21
-20.2758
  0
LINE
  8
0
 10
-129.979
 20
-20.2758
 11
-130.284
 21
-20.211
  0
LINE
  8
0
 10
-130.284
 20
-20.211
 11
-130.584
 21
-20.125
  0
LINE
  8
0
 10
-130.584
 20
-20.125
 11
-130.877
 21
-20.0183
  0
LINE
  8
0
 10
-130.877
 20
-20.0183
 11
-131.162
 21
-19.8915
  0
LINE
  8
0
 10
-131.162
 20
-19.8915
 11
-131.438
 21
-19.745
  0
LINE
  8
0
 10
-131.438
 20
-19.745
 11
-131.702
 21
-19.5798
  0
LINE
  8
0
 10
-131.702
 20
-19.5798
 11
-131.955
 21
-19.3964
  0
LINE
  8
0
 10
-131.955
 20
-19.3964
 11
-132.194
 21
-19.1959
  0
LINE
  8
0
 10
-132.194
 20
-19.1959
 11
-132.418
 21
-18.9792
  0
LINE
  8
0
 10
-132.418
 20
-18.9792
 11
-132.627
 21
-18.7475
  0
LINE
  8
0
 10
-132.627
 20
-18.7475
 11
-132.819
 21
-18.5017
  0
LINE
  8
0
 10
-132.819
 20
-18.5017
 11
-132.993
 21
-18.2431
  0
LINE
  8
0
 10
-132.993
 20
-18.2431
 11
-133.149
 21
-17.9729
  0
LINE
  8
0
 10
-133.149
 20
-17.9729
 11
-133.286
 21
-17.6926
  0
LINE
  8
0
 10
-133.286
 20
-17.6926
 11
-133.403
 21
-17.4034
  0
LINE
  8
0
 10
-133.403
 20
-17.4034
 11
-133.499
 21
-17.1068
  0
LINE
  8
0
 10
-133.499
 20
-17.1068
 11
-133.574
 21
-16.8041
  0
LINE
  8
0
 10
-133.574
 20
-16.8041
 11
-133.629
 21
-16.4969
  0
LINE
  8
0
 10
-133.629
 20
-16.4969
 11
-133.661
 21
-16.1867
  0
LINE
  8
0
 10
-133.661
 20
-16.1867
 11
-133.672
 21
-15.875
  0
LINE
  8
0
 10
-133.672
 20
-15.875
 11
-133.661
 21
-15.5633
  0
LINE
  8
0
 10
-133.661
 20
-15.5633
 11
-133.629
 21
-15.2531
  0
LINE
  8
0
 10
-133.629
 20
-15.2531
 11
-133.574
 21
-14.9459
  0
LINE
  8
0
 10
-133.574
 20
-14.9459
 11
-133.499
 21
-14.6432
  0
LINE
  8
0
 10
-133.499
 20
-14.6432
 11
-133.403
 21
-14.3466
  0
LINE
  8
0
 10
-133.403
 20
-14.3466
 11
-133.286
 21
-14.0574
  0
LINE
  8
0
 10
-133.286
 20
-14.0574
 11
-133.149
 21
-13.777
  0
LINE
  8
0
 10
-133.149
 20
-13.777
 11
-132.993
 21
-13.5069
  0
LINE
  8
0
 10
-132.993
 20
-13.5069
 11
-132.819
 21
-13.2483
  0
LINE
  8
0
 10
-132.819
 20
-13.2483
 11
-132.627
 21
-13.0025
  0
LINE
  8
0
 10
-132.627
 20
-13.0025
 11
-132.418
 21
-12.7707
  0
LINE
  8
0
 10
-132.418
 20
-12.7707
 11
-132.194
 21
-12.5541
  0
LINE
  8
0
 10
-132.194
 20
-12.5541
 11
-131.955
 21
-12.3536
  0
LINE
  8
0
 10
-131.955
 20
-12.3536
 11
-131.702
 21
-12.1702
  0
LINE
  8
0
 10
-131.702
 20
-12.1702
 11
-131.438
 21
-12.0049
  0
LINE
  8
0
 10
-131.438
 20
-12.0049
 11
-131.162
 21
-11.8585
  0
LINE
  8
0
 10
-131.162
 20
-11.8585
 11
-130.877
 21
-11.7316
  0
LINE
  8
0
 10
-130.877
 20
-11.7316
 11
-130.584
 21
-11.625
  0
LINE
  8
0
 10
-130.584
 20
-11.625
 11
-130.284
 21
-11.539
  0
LINE
  8
0
 10
-130.284
 20
-11.539
 11
-129.979
 21
-11.4741
  0
LINE
  8
0
 10
-129.979
 20
-11.4741
 11
-129.67
 21
-11.4307
  0
LINE
  8
0
 10
-129.67
 20
-11.4307
 11
-129.359
 21
-11.409
  0
LINE
  8
0
 10
-129.359
 20
-11.409
 11
-129.047
 21
-11.409
  0
LINE
  8
0
 10
-129.047
 20
-11.409
 11
-128.736
 21
-11.4307
  0
LINE
  8
0
 10
-128.736
 20
-11.4307
 11
-128.427
 21
-11.4741
  0
LINE
  8
0
 10
-128.427
 20
-11.4741
 11
-128.122
 21
-11.539
  0
LINE
  8
0
 10
-128.122
 20
-11.539
 11
-127.822
 21
-11.625
  0
LINE
  8
0
 10
-127.822
 20
-11.625
 11
-127.529
 21
-11.7316
  0
LINE
  8
0
 10
-127.529
 20
-11.7316
 11
-127.244
 21
-11.8585
  0
LINE
  8
0
 10
-127.244
 20
-11.8585
 11
-126.969
 21
-12.0049
  0
LINE
  8
0
 10
-126.969
 20
-12.0049
 11
-126.704
 21
-12.1702
  0
LINE
  8
0
 10
-126.704
 20
-12.1702
 11
-126.452
 21
-12.3536
  0
LINE
  8
0
 10
-126.452
 20
-12.3536
 11
-126.213
 21
-12.5541
  0
LINE
  8
0
 10
-126.213
 20
-12.5541
 11
-125.989
 21
-12.7707
  0
LINE
  8
0
 10
-125.989
 20
-12.7707
 11
-125.78
 21
-13.0025
  0
LINE
  8
0
 10
-125.78
 20
-13.0025
 11
-125.588
 21
-13.2483
  0
LINE
  8
0
 10
-125.588
 20
-13.2483
 11
-125.414
 21
-13.5069
  0
LINE
  8
0
 10
-125.414
 20
-13.5069
 11
-125.258
 21
-13.777
  0
LINE
  8
0
 10
-125.258
 20
-13.777
 11
-125.121
 21
-14.0574
  0
LINE
  8
0
 10
-125.121
 20
-14.0574
 11
-125.004
 21
-14.3466
  0
LINE
  8
0
 10
-125.004
 20
-14.3466
 11
-124.908
 21
-14.6432
  0
LINE
  8
0
 10
-124.908
 20
-14.6432
 11
-124.832
 21
-14.9459
  0
LINE
  8
0
 10
-124.832
 20
-14.9459
 11
-124.778
 21
-15.2531
  0
LINE
  8
0
 10
-124.778
 20
-15.2531
 11
-124.746
 21
-15.5633
  0
LINE
  8
0
 10
-124.746
 20
-15.5633
 11
-124.735
 21
-15.875
  0
LINE
  8
0
 10
-124.735
 20
-15.875
 11
-124.746
 21
-16.1867
  0
LINE
  8
0
 10
-124.746
 20
-16.1867
 11
-124.778
 21
-16.4969
  0
LINE
  8
0
 10
-124.778
 20
-16.4969
 11
-124.832
 21
-16.8041
  0
LINE
  8
0
 10
-124.832
 20
-16.8041
 11
-124.908
 21
-17.1068
  0
LINE
  8
0
 10
-124.908
 20
-17.1068
 11
-125.004
 21
-17.4034
  0
LINE
  8
0
 10
-125.004
 20
-17.4034
 11
-125.121
 21
-17.6926
  0
LINE
  8
0
 10
-125.121
 20
-17.6926
 11
-125.258
 21
-17.9729
  0
LINE
  8
0
 10
-125.258
 20
-17.9729
 11
-125.414
 21
-18.2431
  0
LINE
  8
0
 10
-125.414
 20
-18.2431
 11
-125.588
 21
-18.5017
  0
LINE
  8
0
 10
-125.588
 20
-18.5017
 11
-125.78
 21
-18.7475
  0
LINE
  8
0
 10
-125.78
 20
-18.7475
 11
-125.989
 21
-18.9792
  0
LINE
  8
0
 10
-125.989
 20
-18.9792
 11
-126.213
 21
-19.1959
  0
LINE
  8
0
 10
-126.213
 20
-19.1959
 11
-126.452
 21
-19.3964
  0
LINE
  8
0
 10
-126.452
 20
-19.3964
 11
-126.704
 21
-19.5798
  0
LINE
  8
0
 10
-126.704
 20
-19.5798
 11
-126.969
 21
-19.745
  0
LINE
  8
0
 10
-126.969
 20
-19.745
 11
-127.244
 21
-19.8915
  0
LINE
  8
0
 10
-127.244
 20
-19.8915
 11
-127.529
 21
-20.0183
  0
LINE
  8
0
 10
-127.529
 20
-20.0183
 11
-127.822
 21
-20.125
  0
LINE
  8
0
 10
-127.822
 20
-20.125
 11
-128.122
 21
-20.211
  0
LINE
  8
0
 10
-128.122
 20
-20.211
 11
-128.427
 21
-20.2758
  0
LINE
  8
0
 10
-128.427
 20
-20.2758
 11
-128.736
 21
-20.3193
  0
LINE
  8
0
 10
-128.736
 20
-20.3193
 11
-129.047
 21
-20.341
  0
LINE
  8
0
 10
-129.047
 20
-20.341
 11
-129.359
 21
-20.341
  0
LINE
  8
0
 10
61.3841
 20
-119.176
 11
61.0729
 21
-119.154
  0
LINE
  8
0
 10
61.0729
 20
-119.154
 11
60.7641
 21
-119.111
  0
LINE
  8
0
 10
60.7641
 20
-119.111
 11
60.459
 21
-119.046
  0
LINE
  8
0
 10
60.459
 20
-119.046
 11
60.1591
 21
-118.96
  0
LINE
  8
0
 10
60.1591
 20
-118.96
 11
59.866
 21
-118.853
  0
LINE
  8
0
 10
59.866
 20
-118.853
 11
59.5811
 21
-118.726
  0
LINE
  8
0
 10
59.5811
 20
-118.726
 11
59.3057
 21
-118.58
  0
LINE
  8
0
 10
59.3057
 20
-118.58
 11
59.0412
 21
-118.415
  0
LINE
  8
0
 10
59.0412
 20
-118.415
 11
58.7888
 21
-118.231
  0
LINE
  8
0
 10
58.7888
 20
-118.231
 11
58.5499
 21
-118.031
  0
LINE
  8
0
 10
58.5499
 20
-118.031
 11
58.3255
 21
-117.814
  0
LINE
  8
0
 10
58.3255
 20
-117.814
 11
58.1168
 21
-117.582
  0
LINE
  8
0
 10
58.1168
 20
-117.582
 11
57.9248
 21
-117.337
  0
LINE
  8
0
 10
57.9248
 20
-117.337
 11
57.7503
 21
-117.078
  0
LINE
  8
0
 10
57.7503
 20
-117.078
 11
57.5944
 21
-116.808
  0
LINE
  8
0
 10
57.5944
 20
-116.808
 11
57.4576
 21
-116.527
  0
LINE
  8
0
 10
57.4576
 20
-116.527
 11
57.3408
 21
-116.238
  0
LINE
  8
0
 10
57.3408
 20
-116.238
 11
57.2444
 21
-115.942
  0
LINE
  8
0
 10
57.2444
 20
-115.942
 11
57.1689
 21
-115.639
  0
LINE
  8
0
 10
57.1689
 20
-115.639
 11
57.1148
 21
-115.332
  0
LINE
  8
0
 10
57.1148
 20
-115.332
 11
57.0822
 21
-115.022
  0
LINE
  8
0
 10
57.0822
 20
-115.022
 11
57.0713
 21
-114.71
  0
LINE
  8
0
 10
57.0713
 20
-114.71
 11
57.0822
 21
-114.398
  0
LINE
  8
0
 10
57.0822
 20
-114.398
 11
57.1148
 21
-114.088
  0
LINE
  8
0
 10
57.1148
 20
-114.088
 11
57.1689
 21
-113.781
  0
LINE
  8
0
 10
57.1689
 20
-113.781
 11
57.2444
 21
-113.478
  0
LINE
  8
0
 10
57.2444
 20
-113.478
 11
57.3408
 21
-113.181
  0
LINE
  8
0
 10
57.3408
 20
-113.181
 11
57.4576
 21
-112.892
  0
LINE
  8
0
 10
57.4576
 20
-112.892
 11
57.5944
 21
-112.612
  0
LINE
  8
0
 10
57.5944
 20
-112.612
 11
57.7503
 21
-112.342
  0
LINE
  8
0
 10
57.7503
 20
-112.342
 11
57.9248
 21
-112.083
  0
LINE
  8
0
 10
57.9248
 20
-112.083
 11
58.1168
 21
-111.837
  0
LINE
  8
0
 10
58.1168
 20
-111.837
 11
58.3255
 21
-111.606
  0
LINE
  8
0
 10
58.3255
 20
-111.606
 11
58.5499
 21
-111.389
  0
LINE
  8
0
 10
58.5499
 20
-111.389
 11
58.7888
 21
-111.188
  0
LINE
  8
0
 10
58.7888
 20
-111.188
 11
59.0412
 21
-111.005
  0
LINE
  8
0
 10
59.0412
 20
-111.005
 11
59.3057
 21
-110.84
  0
LINE
  8
0
 10
59.3057
 20
-110.84
 11
59.5811
 21
-110.693
  0
LINE
  8
0
 10
59.5811
 20
-110.693
 11
59.866
 21
-110.566
  0
LINE
  8
0
 10
59.866
 20
-110.566
 11
60.1591
 21
-110.46
  0
LINE
  8
0
 10
60.1591
 20
-110.46
 11
60.459
 21
-110.374
  0
LINE
  8
0
 10
60.459
 20
-110.374
 11
60.7641
 21
-110.309
  0
LINE
  8
0
 10
60.7641
 20
-110.309
 11
61.0729
 21
-110.266
  0
LINE
  8
0
 10
61.0729
 20
-110.266
 11
61.3841
 21
-110.244
  0
LINE
  8
0
 10
61.3841
 20
-110.244
 11
61.696
 21
-110.244
  0
LINE
  8
0
 10
61.696
 20
-110.244
 11
62.0072
 21
-110.266
  0
LINE
  8
0
 10
62.0072
 20
-110.266
 11
62.316
 21
-110.309
  0
LINE
  8
0
 10
62.316
 20
-110.309
 11
62.6211
 21
-110.374
  0
LINE
  8
0
 10
62.6211
 20
-110.374
 11
62.921
 21
-110.46
  0
LINE
  8
0
 10
62.921
 20
-110.46
 11
63.2141
 21
-110.566
  0
LINE
  8
0
 10
63.2141
 20
-110.566
 11
63.499
 21
-110.693
  0
LINE
  8
0
 10
63.499
 20
-110.693
 11
63.7744
 21
-110.84
  0
LINE
  8
0
 10
63.7744
 20
-110.84
 11
64.0389
 21
-111.005
  0
LINE
  8
0
 10
64.0389
 20
-111.005
 11
64.2913
 21
-111.188
  0
LINE
  8
0
 10
64.2913
 20
-111.188
 11
64.5302
 21
-111.389
  0
LINE
  8
0
 10
64.5302
 20
-111.389
 11
64.7546
 21
-111.606
  0
LINE
  8
0
 10
64.7546
 20
-111.606
 11
64.9633
 21
-111.837
  0
LINE
  8
0
 10
64.9633
 20
-111.837
 11
65.1553
 21
-112.083
  0
LINE
  8
0
 10
65.1553
 20
-112.083
 11
65.3298
 21
-112.342
  0
LINE
  8
0
 10
65.3298
 20
-112.342
 11
65.4857
 21
-112.612
  0
LINE
  8
0
 10
65.4857
 20
-112.612
 11
65.6225
 21
-112.892
  0
LINE
  8
0
 10
65.6225
 20
-112.892
 11
65.7393
 21
-113.181
  0
LINE
  8
0
 10
65.7393
 20
-113.181
 11
65.8357
 21
-113.478
  0
LINE
  8
0
 10
65.8357
 20
-113.478
 11
65.9111
 21
-113.781
  0
LINE
  8
0
 10
65.9111
 20
-113.781
 11
65.9653
 21
-114.088
  0
LINE
  8
0
 10
65.9653
 20
-114.088
 11
65.9979
 21
-114.398
  0
LINE
  8
0
 10
65.9979
 20
-114.398
 11
66.0088
 21
-114.71
  0
LINE
  8
0
 10
66.0088
 20
-114.71
 11
65.9979
 21
-115.022
  0
LINE
  8
0
 10
65.9979
 20
-115.022
 11
65.9653
 21
-115.332
  0
LINE
  8
0
 10
65.9653
 20
-115.332
 11
65.9111
 21
-115.639
  0
LINE
  8
0
 10
65.9111
 20
-115.639
 11
65.8357
 21
-115.942
  0
LINE
  8
0
 10
65.8357
 20
-115.942
 11
65.7393
 21
-116.238
  0
LINE
  8
0
 10
65.7393
 20
-116.238
 11
65.6225
 21
-116.527
  0
LINE
  8
0
 10
65.6225
 20
-116.527
 11
65.4857
 21
-116.808
  0
LINE
  8
0
 10
65.4857
 20
-116.808
 11
65.3298
 21
-117.078
  0
LINE
  8
0
 10
65.3298
 20
-117.078
 11
65.1553
 21
-117.337
  0
LINE
  8
0
 10
65.1553
 20
-117.337
 11
64.9633
 21
-117.582
  0
LINE
  8
0
 10
64.9633
 20
-117.582
 11
64.7546
 21
-117.814
  0
LINE
  8
0
 10
64.7546
 20
-117.814
 11
64.5302
 21
-118.031
  0
LINE
  8
0
 10
64.5302
 20
-118.031
 11
64.2913
 21
-118.231
  0
LINE
  8
0
 10
64.2913
 20
-118.231
 11
64.0389
 21
-118.415
  0
LINE
  8
0
 10
64.0389
 20
-118.415
 11
63.7744
 21
-118.58
  0
LINE
  8
0
 10
63.7744
 20
-118.58
 11
63.499
 21
-118.726
  0
LINE
  8
0
 10
63.499
 20
-118.726
 11
63.2141
 21
-118.853
  0
LINE
  8
0
 10
63.2141
 20
-118.853
 11
62.921
 21
-118.96
  0
LINE
  8
0
 10
62.921
 20
-118.96
 11
62.6211
 21
-119.046
  0
LINE
  8
0
 10
62.6211
 20
-119.046
 11
62.316
 21
-119.111
  0
LINE
  8
0
 10
62.316
 20
-119.111
 11
62.0072
 21
-119.154
  0
LINE
  8
0
 10
62.0072
 20
-119.154
 11
61.696
 21
-119.176
  0
LINE
  8
0
 10
61.696
 20
-119.176
 11
61.3841
 21
-119.176
  0
LINE
  8
0
 10
152.261
 20
-133.544
 11
151.583
 21
-133.497
  0
LINE
  8
0
 10
151.583
 20
-133.497
 11
150.911
 21
-133.402
  0
LINE
  8
0
 10
150.911
 20
-133.402
 11
150.247
 21
-133.261
  0
LINE
  8
0
 10
150.247
 20
-133.261
 11
149.595
 21
-133.074
  0
LINE
  8
0
 10
149.595
 20
-133.074
 11
148.957
 21
-132.842
  0
LINE
  8
0
 10
148.957
 20
-132.842
 11
148.337
 21
-132.566
  0
LINE
  8
0
 10
148.337
 20
-132.566
 11
147.737
 21
-132.247
  0
LINE
  8
0
 10
147.737
 20
-132.247
 11
147.162
 21
-131.887
  0
LINE
  8
0
 10
147.162
 20
-131.887
 11
146.613
 21
-131.488
  0
LINE
  8
0
 10
146.613
 20
-131.488
 11
146.093
 21
-131.052
  0
LINE
  8
0
 10
146.093
 20
-131.052
 11
145.604
 21
-130.581
  0
LINE
  8
0
 10
145.604
 20
-130.581
 11
145.15
 21
-130.076
  0
LINE
  8
0
 10
145.15
 20
-130.076
 11
144.732
 21
-129.541
  0
LINE
  8
0
 10
144.732
 20
-129.541
 11
144.353
 21
-128.978
  0
LINE
  8
0
 10
144.353
 20
-128.978
 11
144.013
 21
-128.391
  0
LINE
  8
0
 10
144.013
 20
-128.391
 11
143.716
 21
-127.781
  0
LINE
  8
0
 10
143.716
 20
-127.781
 11
143.461
 21
-127.151
  0
LINE
  8
0
 10
143.461
 20
-127.151
 11
143.252
 21
-126.506
  0
LINE
  8
0
 10
143.252
 20
-126.506
 11
143.088
 21
-125.847
  0
LINE
  8
0
 10
143.088
 20
-125.847
 11
142.97
 21
-125.178
  0
LINE
  8
0
 10
142.97
 20
-125.178
 11
142.899
 21
-124.503
  0
LINE
  8
0
 10
142.899
 20
-124.503
 11
142.875
 21
-123.825
  0
LINE
  8
0
 10
142.875
 20
-123.825
 11
142.899
 21
-123.147
  0
LINE
  8
0
 10
142.899
 20
-123.147
 11
142.97
 21
-122.472
  0
LINE
  8
0
 10
142.97
 20
-122.472
 11
143.088
 21
-121.803
  0
LINE
  8
0
 10
143.088
 20
-121.803
 11
143.252
 21
-121.144
  0
LINE
  8
0
 10
143.252
 20
-121.144
 11
143.461
 21
-120.499
  0
LINE
  8
0
 10
143.461
 20
-120.499
 11
143.716
 21
-119.869
  0
LINE
  8
0
 10
143.716
 20
-119.869
 11
144.013
 21
-119.259
  0
LINE
  8
0
 10
144.013
 20
-119.259
 11
144.353
 21
-118.672
  0
LINE
  8
0
 10
144.353
 20
-118.672
 11
144.732
 21
-118.109
  0
LINE
  8
0
 10
144.732
 20
-118.109
 11
145.15
 21
-117.574
  0
LINE
  8
0
 10
145.15
 20
-117.574
 11
145.604
 21
-117.069
  0
LINE
  8
0
 10
145.604
 20
-117.069
 11
146.093
 21
-116.598
  0
LINE
  8
0
 10
146.093
 20
-116.598
 11
146.613
 21
-116.162
  0
LINE
  8
0
 10
146.613
 20
-116.162
 11
147.162
 21
-115.763
  0
LINE
  8
0
 10
147.162
 20
-115.763
 11
147.737
 21
-115.403
  0
LINE
  8
0
 10
147.737
 20
-115.403
 11
148.337
 21
-115.084
  0
LINE
  8
0
 10
148.337
 20
-115.084
 11
148.957
 21
-114.808
  0
LINE
  8
0
 10
148.957
 20
-114.808
 11
149.595
 21
-114.576
  0
LINE
  8
0
 10
149.595
 20
-114.576
 11
150.247
 21
-114.389
  0
LINE
  8
0
 10
150.247
 20
-114.389
 11
150.911
 21
-114.248
  0
LINE
  8
0
 10
150.911
 20
-114.248
 11
151.583
 21
-114.153
  0
LINE
  8
0
 10
151.583
 20
-114.153
 11
152.261
 21
-114.106
  0
LINE
  8
0
 10
152.261
 20
-114.106
 11
152.939
 21
-114.106
  0
LINE
  8
0
 10
152.939
 20
-114.106
 11
153.617
 21
-114.153
  0
LINE
  8
0
 10
153.617
 20
-114.153
 11
154.289
 21
-114.248
  0
LINE
  8
0
 10
154.289
 20
-114.248
 11
154.953
 21
-114.389
  0
LINE
  8
0
 10
154.953
 20
-114.389
 11
155.605
 21
-114.576
  0
LINE
  8
0
 10
155.605
 20
-114.576
 11
156.243
 21
-114.808
  0
LINE
  8
0
 10
156.243
 20
-114.808
 11
156.863
 21
-115.084
  0
LINE
  8
0
 10
156.863
 20
-115.084
 11
157.462
 21
-115.403
  0
LINE
  8
0
 10
157.462
 20
-115.403
 11
158.038
 21
-115.763
  0
LINE
  8
0
 10
158.038
 20
-115.763
 11
158.587
 21
-116.162
  0
LINE
  8
0
 10
158.587
 20
-116.162
 11
159.107
 21
-116.598
  0
LINE
  8
0
 10
159.107
 20
-116.598
 11
159.596
 21
-117.069
  0
LINE
  8
0
 10
159.596
 20
-117.069
 11
160.05
 21
-117.574
  0
LINE
  8
0
 10
160.05
 20
-117.574
 11
160.468
 21
-118.109
  0
LINE
  8
0
 10
160.468
 20
-118.109
 11
160.847
 21
-118.672
  0
LINE
  8
0
 10
160.847
 20
-118.672
 11
161.187
 21
-119.259
  0
LINE
  8
0
 10
161.187
 20
-119.259
 11
161.484
 21
-119.869
  0
LINE
  8
0
 10
161.484
 20
-119.869
 11
161.739
 21
-120.499
  0
LINE
  8
0
 10
161.739
 20
-120.499
 11
161.948
 21
-121.144
  0
LINE
  8
0
 10
161.948
 20
-121.144
 11
162.112
 21
-121.803
  0
LINE
  8
0
 10
162.112
 20
-121.803
 11
162.23
 21
-122.472
  0
LINE
  8
0
 10
162.23
 20
-122.472
 11
162.301
 21
-123.147
  0
LINE
  8
0
 10
162.301
 20
-123.147
 11
162.325
 21
-123.825
  0
LINE
  8
0
 10
162.325
 20
-123.825
 11
162.301
 21
-124.503
  0
LINE
  8
0
 10
162.301
 20
-124.503
 11
162.23
 21
-125.178
  0
LINE
  8
0
 10
162.23
 20
-125.178
 11
162.112
 21
-125.847
  0
LINE
  8
0
 10
162.112
 20
-125.847
 11
161.948
 21
-126.506
  0
LINE
  8
0
 10
161.948
 20
-126.506
 11
161.739
 21
-127.151
  0
LINE
  8
0
 10
161.739
 20
-127.151
 11
161.484
 21
-127.781
  0
LINE
  8
0
 10
161.484
 20
-127.781
 11
161.187
 21
-128.391
  0
LINE
  8
0
 10
161.187
 20
-128.391
 11
160.847
 21
-128.978
  0
LINE
  8
0
 10
160.847
 20
-128.978
 11
160.468
 21
-129.541
  0
LINE
  8
0
 10
160.468
 20
-129.541
 11
160.05
 21
-130.076
  0
LINE
  8
0
 10
160.05
 20
-130.076
 11
159.596
 21
-130.581
  0
LINE
  8
0
 10
159.596
 20
-130.581
 11
159.107
 21
-131.052
  0
LINE
  8
0
 10
159.107
 20
-131.052
 11
158.587
 21
-131.488
  0
LINE
  8
0
 10
158.587
 20
-131.488
 11
158.038
 21
-131.887
  0
LINE
  8
0
 10
158.038
 20
-131.887
 11
157.462
 21
-132.247
  0
LINE
  8
0
 10
157.462
 20
-132.247
 11
156.863
 21
-132.566
  0
LINE
  8
0
 10
156.863
 20
-132.566
 11
156.243
 21
-132.842
  0
LINE
  8
0
 10
156.243
 20
-132.842
 11
155.605
 21
-133.074
  0
LINE
  8
0
 10
155.605
 20
-133.074
 11
154.953
 21
-133.261
  0
LINE
  8
0
 10
154.953
 20
-133.261
 11
154.289
 21
-133.402
  0
LINE
  8
0
 10
154.289
 20
-133.402
 11
153.617
 21
-133.497
  0
LINE
  8
0
 10
153.617
 20
-133.497
 11
152.939
 21
-133.544
  0
LINE
  8
0
 10
152.939
 20
-133.544
 11
152.261
 21
-133.544
  0
ENDSEC
  0
SECTION
  2
OBJECTS
  0
DICTIONARY
  0
ENDSEC
  0
EOF
