  0
SECTION
  2
BLOCKS
  0
ENDSEC
  0
SECTION
  2
ENTITIES
  0
LINE
  8
0
 10
85.725
 20
85.725
 11
-85.725
 21
85.725
  0
LINE
  8
0
 10
-85.725
 20
85.725
 11
-85.725
 21
-85.725
  0
LINE
  8
0
 10
-85.725
 20
-85.725
 11
85.725
 21
-85.725
  0
LINE
  8
0
 10
85.725
 20
-85.725
 11
85.725
 21
85.725
  0
LINE
  8
0
 10
-64.414
 20
57.3292
 11
-64.891
 21
57.3625
  0
LINE
  8
0
 10
-64.891
 20
57.3625
 11
-65.3645
 21
57.4291
  0
LINE
  8
0
 10
-65.3645
 20
57.4291
 11
-65.8322
 21
57.5285
  0
LINE
  8
0
 10
-65.8322
 20
57.5285
 11
-66.2918
 21
57.6602
  0
LINE
  8
0
 10
-66.2918
 20
57.6602
 11
-66.741
 21
57.8238
  0
LINE
  8
0
 10
-66.741
 20
57.8238
 11
-67.1778
 21
58.0182
  0
LINE
  8
0
 10
-67.1778
 20
58.0182
 11
-67.6
 21
58.2427
  0
LINE
  8
0
 10
-67.6
 20
58.2427
 11
-68.0055
 21
58.4961
  0
LINE
  8
0
 10
-68.0055
 20
58.4961
 11
-68.3923
 21
58.7771
  0
LINE
  8
0
 10
-68.3923
 20
58.7771
 11
-68.7585
 21
59.0845
  0
LINE
  8
0
 10
-68.7585
 20
59.0845
 11
-69.1025
 21
59.4166
  0
LINE
  8
0
 10
-69.1025
 20
59.4166
 11
-69.4224
 21
59.7719
  0
LINE
  8
0
 10
-69.4224
 20
59.7719
 11
-69.7168
 21
60.1487
  0
LINE
  8
0
 10
-69.7168
 20
60.1487
 11
-69.9841
 21
60.545
  0
LINE
  8
0
 10
-69.9841
 20
60.545
 11
-70.2232
 21
60.9591
  0
LINE
  8
0
 10
-70.2232
 20
60.9591
 11
-70.4328
 21
61.3888
  0
LINE
  8
0
 10
-70.4328
 20
61.3888
 11
-70.6119
 21
61.8322
  0
LINE
  8
0
 10
-70.6119
 20
61.8322
 11
-70.7596
 21
62.2869
  0
LINE
  8
0
 10
-70.7596
 20
62.2869
 11
-70.8753
 21
62.7508
  0
LINE
  8
0
 10
-70.8753
 20
62.7508
 11
-70.9583
 21
63.2216
  0
LINE
  8
0
 10
-70.9583
 20
63.2216
 11
-71.0083
 21
63.6972
  0
LINE
  8
0
 10
-71.0083
 20
63.6972
 11
-71.025
 21
64.175
  0
LINE
  8
0
 10
-71.025
 20
64.175
 11
-71.0083
 21
64.6528
  0
LINE
  8
0
 10
-71.0083
 20
64.6528
 11
-70.9583
 21
65.1283
  0
LINE
  8
0
 10
-70.9583
 20
65.1283
 11
-70.8753
 21
65.5992
  0
LINE
  8
0
 10
-70.8753
 20
65.5992
 11
-70.7596
 21
66.0631
  0
LINE
  8
0
 10
-70.7596
 20
66.0631
 11
-70.6119
 21
66.5178
  0
LINE
  8
0
 10
-70.6119
 20
66.5178
 11
-70.4328
 21
66.9611
  0
LINE
  8
0
 10
-70.4328
 20
66.9611
 11
-70.2232
 21
67.3909
  0
LINE
  8
0
 10
-70.2232
 20
67.3909
 11
-69.9841
 21
67.8049
  0
LINE
  8
0
 10
-69.9841
 20
67.8049
 11
-69.7168
 21
68.2013
  0
LINE
  8
0
 10
-69.7168
 20
68.2013
 11
-69.4224
 21
68.5781
  0
LINE
  8
0
 10
-69.4224
 20
68.5781
 11
-69.1025
 21
68.9334
  0
LINE
  8
0
 10
-69.1025
 20
68.9334
 11
-68.7585
 21
69.2655
  0
LINE
  8
0
 10
-68.7585
 20
69.2655
 11
-68.3923
 21
69.5729
  0
LINE
  8
0
 10
-68.3923
 20
69.5729
 11
-68.0055
 21
69.8539
  0
LINE
  8
0
 10
-68.0055
 20
69.8539
 11
-67.6
 21
70.1073
  0
LINE
  8
0
 10
-67.6
 20
70.1073
 11
-67.1778
 21
70.3317
  0
LINE
  8
0
 10
-67.1778
 20
70.3317
 11
-66.741
 21
70.5262
  0
LINE
  8
0
 10
-66.741
 20
70.5262
 11
-66.2918
 21
70.6897
  0
LINE
  8
0
 10
-66.2918
 20
70.6897
 11
-65.8322
 21
70.8215
  0
LINE
  8
0
 10
-65.8322
 20
70.8215
 11
-65.3645
 21
70.9209
  0
LINE
  8
0
 10
-65.3645
 20
70.9209
 11
-64.891
 21
70.9875
  0
LINE
  8
0
 10
-64.891
 20
70.9875
 11
-64.414
 21
71.0208
  0
LINE
  8
0
 10
-64.414
 20
71.0208
 11
-63.9359
 21
71.0208
  0
LINE
  8
0
 10
-63.9359
 20
71.0208
 11
-63.459
 21
70.9875
  0
LINE
  8
0
 10
-63.459
 20
70.9875
 11
-62.9855
 21
70.9209
  0
LINE
  8
0
 10
-62.9855
 20
70.9209
 11
-62.5178
 21
70.8215
  0
LINE
  8
0
 10
-62.5178
 20
70.8215
 11
-62.0582
 21
70.6897
  0
LINE
  8
0
 10
-62.0582
 20
70.6897
 11
-61.6089
 21
70.5262
  0
LINE
  8
0
 10
-61.6089
 20
70.5262
 11
-61.1721
 21
70.3317
  0
LINE
  8
0
 10
-61.1721
 20
70.3317
 11
-60.75
 21
70.1073
  0
LINE
  8
0
 10
-60.75
 20
70.1073
 11
-60.3445
 21
69.8539
  0
LINE
  8
0
 10
-60.3445
 20
69.8539
 11
-59.9577
 21
69.5729
  0
LINE
  8
0
 10
-59.9577
 20
69.5729
 11
-59.5914
 21
69.2655
  0
LINE
  8
0
 10
-59.5914
 20
69.2655
 11
-59.2475
 21
68.9334
  0
LINE
  8
0
 10
-59.2475
 20
68.9334
 11
-58.9276
 21
68.5781
  0
LINE
  8
0
 10
-58.9276
 20
68.5781
 11
-58.6332
 21
68.2013
  0
LINE
  8
0
 10
-58.6332
 20
68.2013
 11
-58.3659
 21
67.8049
  0
LINE
  8
0
 10
-58.3659
 20
67.8049
 11
-58.1268
 21
67.3909
  0
LINE
  8
0
 10
-58.1268
 20
67.3909
 11
-57.9172
 21
66.9611
  0
LINE
  8
0
 10
-57.9172
 20
66.9611
 11
-57.7381
 21
66.5178
  0
LINE
  8
0
 10
-57.7381
 20
66.5178
 11
-57.5903
 21
66.0631
  0
LINE
  8
0
 10
-57.5903
 20
66.0631
 11
-57.4747
 21
65.5992
  0
LINE
  8
0
 10
-57.4747
 20
65.5992
 11
-57.3917
 21
65.1283
  0
LINE
  8
0
 10
-57.3917
 20
65.1283
 11
-57.3417
 21
64.6528
  0
LINE
  8
0
 10
-57.3417
 20
64.6528
 11
-57.325
 21
64.175
  0
LINE
  8
0
 10
-57.325
 20
64.175
 11
-57.3417
 21
63.6972
  0
LINE
  8
0
 10
-57.3417
 20
63.6972
 11
-57.3917
 21
63.2216
  0
LINE
  8
0
 10
-57.3917
 20
63.2216
 11
-57.4747
 21
62.7508
  0
LINE
  8
0
 10
-57.4747
 20
62.7508
 11
-57.5903
 21
62.2869
  0
LINE
  8
0
 10
-57.5903
 20
62.2869
 11
-57.7381
 21
61.8322
  0
LINE
  8
0
 10
-57.7381
 20
61.8322
 11
-57.9172
 21
61.3888
  0
LINE
  8
0
 10
-57.9172
 20
61.3888
 11
-58.1268
 21
60.9591
  0
LINE
  8
0
 10
-58.1268
 20
60.9591
 11
-58.3659
 21
60.545
  0
LINE
  8
0
 10
-58.3659
 20
60.545
 11
-58.6332
 21
60.1487
  0
LINE
  8
0
 10
-58.6332
 20
60.1487
 11
-58.9276
 21
59.7719
  0
LINE
  8
0
 10
-58.9276
 20
59.7719
 11
-59.2475
 21
59.4166
  0
LINE
  8
0
 10
-59.2475
 20
59.4166
 11
-59.5914
 21
59.0845
  0
LINE
  8
0
 10
-59.5914
 20
59.0845
 11
-59.9577
 21
58.7771
  0
LINE
  8
0
 10
-59.9577
 20
58.7771
 11
-60.3445
 21
58.4961
  0
LINE
  8
0
 10
-60.3445
 20
58.4961
 11
-60.75
 21
58.2427
  0
LINE
  8
0
 10
-60.75
 20
58.2427
 11
-61.1721
 21
58.0182
  0
LINE
  8
0
 10
-61.1721
 20
58.0182
 11
-61.6089
 21
57.8238
  0
LINE
  8
0
 10
-61.6089
 20
57.8238
 11
-62.0582
 21
57.6602
  0
LINE
  8
0
 10
-62.0582
 20
57.6602
 11
-62.5178
 21
57.5285
  0
LINE
  8
0
 10
-62.5178
 20
57.5285
 11
-62.9855
 21
57.4291
  0
LINE
  8
0
 10
-62.9855
 20
57.4291
 11
-63.459
 21
57.3625
  0
LINE
  8
0
 10
-63.459
 20
57.3625
 11
-63.9359
 21
57.3292
  0
LINE
  8
0
 10
-63.9359
 20
57.3292
 11
-64.414
 21
57.3292
  0
LINE
  8
0
 10
63.9359
 20
57.3292
 11
63.459
 21
57.3625
  0
LINE
  8
0
 10
63.459
 20
57.3625
 11
62.9855
 21
57.4291
  0
LINE
  8
0
 10
62.9855
 20
57.4291
 11
62.5178
 21
57.5285
  0
LINE
  8
0
 10
62.5178
 20
57.5285
 11
62.0582
 21
57.6602
  0
LINE
  8
0
 10
62.0582
 20
57.6602
 11
61.6089
 21
57.8238
  0
LINE
  8
0
 10
61.6089
 20
57.8238
 11
61.1721
 21
58.0182
  0
LINE
  8
0
 10
61.1721
 20
58.0182
 11
60.75
 21
58.2427
  0
LINE
  8
0
 10
60.75
 20
58.2427
 11
60.3445
 21
58.4961
  0
LINE
  8
0
 10
60.3445
 20
58.4961
 11
59.9577
 21
58.7771
  0
LINE
  8
0
 10
59.9577
 20
58.7771
 11
59.5914
 21
59.0845
  0
LINE
  8
0
 10
59.5914
 20
59.0845
 11
59.2475
 21
59.4166
  0
LINE
  8
0
 10
59.2475
 20
59.4166
 11
58.9276
 21
59.7719
  0
LINE
  8
0
 10
58.9276
 20
59.7719
 11
58.6332
 21
60.1487
  0
LINE
  8
0
 10
58.6332
 20
60.1487
 11
58.3659
 21
60.545
  0
LINE
  8
0
 10
58.3659
 20
60.545
 11
58.1268
 21
60.9591
  0
LINE
  8
0
 10
58.1268
 20
60.9591
 11
57.9172
 21
61.3888
  0
LINE
  8
0
 10
57.9172
 20
61.3888
 11
57.7381
 21
61.8322
  0
LINE
  8
0
 10
57.7381
 20
61.8322
 11
57.5903
 21
62.2869
  0
LINE
  8
0
 10
57.5903
 20
62.2869
 11
57.4747
 21
62.7508
  0
LINE
  8
0
 10
57.4747
 20
62.7508
 11
57.3917
 21
63.2216
  0
LINE
  8
0
 10
57.3917
 20
63.2216
 11
57.3417
 21
63.6972
  0
LINE
  8
0
 10
57.3417
 20
63.6972
 11
57.325
 21
64.175
  0
LINE
  8
0
 10
57.325
 20
64.175
 11
57.3417
 21
64.6528
  0
LINE
  8
0
 10
57.3417
 20
64.6528
 11
57.3917
 21
65.1283
  0
LINE
  8
0
 10
57.3917
 20
65.1283
 11
57.4747
 21
65.5992
  0
LINE
  8
0
 10
57.4747
 20
65.5992
 11
57.5903
 21
66.0631
  0
LINE
  8
0
 10
57.5903
 20
66.0631
 11
57.7381
 21
66.5178
  0
LINE
  8
0
 10
57.7381
 20
66.5178
 11
57.9172
 21
66.9611
  0
LINE
  8
0
 10
57.9172
 20
66.9611
 11
58.1268
 21
67.3909
  0
LINE
  8
0
 10
58.1268
 20
67.3909
 11
58.3659
 21
67.8049
  0
LINE
  8
0
 10
58.3659
 20
67.8049
 11
58.6332
 21
68.2013
  0
LINE
  8
0
 10
58.6332
 20
68.2013
 11
58.9276
 21
68.5781
  0
LINE
  8
0
 10
58.9276
 20
68.5781
 11
59.2475
 21
68.9334
  0
LINE
  8
0
 10
59.2475
 20
68.9334
 11
59.5914
 21
69.2655
  0
LINE
  8
0
 10
59.5914
 20
69.2655
 11
59.9577
 21
69.5729
  0
LINE
  8
0
 10
59.9577
 20
69.5729
 11
60.3445
 21
69.8539
  0
LINE
  8
0
 10
60.3445
 20
69.8539
 11
60.75
 21
70.1073
  0
LINE
  8
0
 10
60.75
 20
70.1073
 11
61.1721
 21
70.3317
  0
LINE
  8
0
 10
61.1721
 20
70.3317
 11
61.6089
 21
70.5262
  0
LINE
  8
0
 10
61.6089
 20
70.5262
 11
62.0582
 21
70.6897
  0
LINE
  8
0
 10
62.0582
 20
70.6897
 11
62.5178
 21
70.8215
  0
LINE
  8
0
 10
62.5178
 20
70.8215
 11
62.9855
 21
70.9209
  0
LINE
  8
0
 10
62.9855
 20
70.9209
 11
63.459
 21
70.9875
  0
LINE
  8
0
 10
63.459
 20
70.9875
 11
63.9359
 21
71.0208
  0
LINE
  8
0
 10
63.9359
 20
71.0208
 11
64.414
 21
71.0208
  0
LINE
  8
0
 10
64.414
 20
71.0208
 11
64.891
 21
70.9875
  0
LINE
  8
0
 10
64.891
 20
70.9875
 11
65.3645
 21
70.9209
  0
LINE
  8
0
 10
65.3645
 20
70.9209
 11
65.8322
 21
70.8215
  0
LINE
  8
0
 10
65.8322
 20
70.8215
 11
66.2918
 21
70.6897
  0
LINE
  8
0
 10
66.2918
 20
70.6897
 11
66.741
 21
70.5262
  0
LINE
  8
0
 10
66.741
 20
70.5262
 11
67.1778
 21
70.3317
  0
LINE
  8
0
 10
67.1778
 20
70.3317
 11
67.6
 21
70.1073
  0
LINE
  8
0
 10
67.6
 20
70.1073
 11
68.0055
 21
69.8539
  0
LINE
  8
0
 10
68.0055
 20
69.8539
 11
68.3923
 21
69.5729
  0
LINE
  8
0
 10
68.3923
 20
69.5729
 11
68.7585
 21
69.2655
  0
LINE
  8
0
 10
68.7585
 20
69.2655
 11
69.1025
 21
68.9334
  0
LINE
  8
0
 10
69.1025
 20
68.9334
 11
69.4224
 21
68.5781
  0
LINE
  8
0
 10
69.4224
 20
68.5781
 11
69.7168
 21
68.2013
  0
LINE
  8
0
 10
69.7168
 20
68.2013
 11
69.9841
 21
67.8049
  0
LINE
  8
0
 10
69.9841
 20
67.8049
 11
70.2232
 21
67.3909
  0
LINE
  8
0
 10
70.2232
 20
67.3909
 11
70.4328
 21
66.9611
  0
LINE
  8
0
 10
70.4328
 20
66.9611
 11
70.6119
 21
66.5178
  0
LINE
  8
0
 10
70.6119
 20
66.5178
 11
70.7596
 21
66.0631
  0
LINE
  8
0
 10
70.7596
 20
66.0631
 11
70.8753
 21
65.5992
  0
LINE
  8
0
 10
70.8753
 20
65.5992
 11
70.9583
 21
65.1283
  0
LINE
  8
0
 10
70.9583
 20
65.1283
 11
71.0083
 21
64.6528
  0
LINE
  8
0
 10
71.0083
 20
64.6528
 11
71.025
 21
64.175
  0
LINE
  8
0
 10
71.025
 20
64.175
 11
71.0083
 21
63.6972
  0
LINE
  8
0
 10
71.0083
 20
63.6972
 11
70.9583
 21
63.2216
  0
LINE
  8
0
 10
70.9583
 20
63.2216
 11
70.8753
 21
62.7508
  0
LINE
  8
0
 10
70.8753
 20
62.7508
 11
70.7596
 21
62.2869
  0
LINE
  8
0
 10
70.7596
 20
62.2869
 11
70.6119
 21
61.8322
  0
LINE
  8
0
 10
70.6119
 20
61.8322
 11
70.4328
 21
61.3888
  0
LINE
  8
0
 10
70.4328
 20
61.3888
 11
70.2232
 21
60.9591
  0
LINE
  8
0
 10
70.2232
 20
60.9591
 11
69.9841
 21
60.545
  0
LINE
  8
0
 10
69.9841
 20
60.545
 11
69.7168
 21
60.1487
  0
LINE
  8
0
 10
69.7168
 20
60.1487
 11
69.4224
 21
59.7719
  0
LINE
  8
0
 10
69.4224
 20
59.7719
 11
69.1025
 21
59.4166
  0
LINE
  8
0
 10
69.1025
 20
59.4166
 11
68.7585
 21
59.0845
  0
LINE
  8
0
 10
68.7585
 20
59.0845
 11
68.3923
 21
58.7771
  0
LINE
  8
0
 10
68.3923
 20
58.7771
 11
68.0055
 21
58.4961
  0
LINE
  8
0
 10
68.0055
 20
58.4961
 11
67.6
 21
58.2427
  0
LINE
  8
0
 10
67.6
 20
58.2427
 11
67.1778
 21
58.0182
  0
LINE
  8
0
 10
67.1778
 20
58.0182
 11
66.741
 21
57.8238
  0
LINE
  8
0
 10
66.741
 20
57.8238
 11
66.2918
 21
57.6602
  0
LINE
  8
0
 10
66.2918
 20
57.6602
 11
65.8322
 21
57.5285
  0
LINE
  8
0
 10
65.8322
 20
57.5285
 11
65.3645
 21
57.4291
  0
LINE
  8
0
 10
65.3645
 20
57.4291
 11
64.891
 21
57.3625
  0
LINE
  8
0
 10
64.891
 20
57.3625
 11
64.414
 21
57.3292
  0
LINE
  8
0
 10
64.414
 20
57.3292
 11
63.9359
 21
57.3292
  0
LINE
  8
0
 10
-0.890869
 20
-25.5114
 11
-2.66829
 21
-25.3871
  0
LINE
  8
0
 10
-2.66829
 20
-25.3871
 11
-4.43271
 21
-25.1392
  0
LINE
  8
0
 10
-4.43271
 20
-25.1392
 11
-6.17554
 21
-24.7687
  0
LINE
  8
0
 10
-6.17554
 20
-24.7687
 11
-7.88828
 21
-24.2776
  0
LINE
  8
0
 10
-7.88828
 20
-24.2776
 11
-9.56258
 21
-23.6682
  0
LINE
  8
0
 10
-9.56258
 20
-23.6682
 11
-11.1903
 21
-22.9435
  0
LINE
  8
0
 10
-11.1903
 20
-22.9435
 11
-12.7635
 21
-22.107
  0
LINE
  8
0
 10
-12.7635
 20
-22.107
 11
-14.2745
 21
-21.1628
  0
LINE
  8
0
 10
-14.2745
 20
-21.1628
 11
-15.716
 21
-20.1155
  0
LINE
  8
0
 10
-15.716
 20
-20.1155
 11
-17.0809
 21
-18.9702
  0
LINE
  8
0
 10
-17.0809
 20
-18.9702
 11
-18.3626
 21
-17.7325
  0
LINE
  8
0
 10
-18.3626
 20
-17.7325
 11
-19.5548
 21
-16.4084
  0
LINE
  8
0
 10
-19.5548
 20
-16.4084
 11
-20.6518
 21
-15.0044
  0
LINE
  8
0
 10
-20.6518
 20
-15.0044
 11
-21.6481
 21
-13.5272
  0
LINE
  8
0
 10
-21.6481
 20
-13.5272
 11
-22.539
 21
-11.9842
  0
LINE
  8
0
 10
-22.539
 20
-11.9842
 11
-23.3201
 21
-10.3828
  0
LINE
  8
0
 10
-23.3201
 20
-10.3828
 11
-23.9875
 21
-8.73074
  0
LINE
  8
0
 10
-23.9875
 20
-8.73074
 11
-24.5381
 21
-7.03619
  0
LINE
  8
0
 10
-24.5381
 20
-7.03619
 11
-24.9692
 21
-5.30736
  0
LINE
  8
0
 10
-24.9692
 20
-5.30736
 11
-25.2786
 21
-3.55266
  0
LINE
  8
0
 10
-25.2786
 20
-3.55266
 11
-25.4648
 21
-1.78067
  0
LINE
  8
0
 10
-25.4648
 20
-1.78067
 11
-25.527
 21
0
  0
LINE
  8
0
 10
-25.527
 20
0
 11
-25.4648
 21
1.78067
  0
LINE
  8
0
 10
-25.4648
 20
1.78067
 11
-25.2786
 21
3.55266
  0
LINE
  8
0
 10
-25.2786
 20
3.55266
 11
-24.9692
 21
5.30736
  0
LINE
  8
0
 10
-24.9692
 20
5.30736
 11
-24.5381
 21
7.03619
  0
LINE
  8
0
 10
-24.5381
 20
7.03619
 11
-23.9875
 21
8.73074
  0
LINE
  8
0
 10
-23.9875
 20
8.73074
 11
-23.3201
 21
10.3828
  0
LINE
  8
0
 10
-23.3201
 20
10.3828
 11
-22.539
 21
11.9842
  0
LINE
  8
0
 10
-22.539
 20
11.9842
 11
-21.6481
 21
13.5272
  0
LINE
  8
0
 10
-21.6481
 20
13.5272
 11
-20.6518
 21
15.0044
  0
LINE
  8
0
 10
-20.6518
 20
15.0044
 11
-19.5548
 21
16.4084
  0
LINE
  8
0
 10
-19.5548
 20
16.4084
 11
-18.3626
 21
17.7325
  0
LINE
  8
0
 10
-18.3626
 20
17.7325
 11
-17.0809
 21
18.9702
  0
LINE
  8
0
 10
-17.0809
 20
18.9702
 11
-15.716
 21
20.1155
  0
LINE
  8
0
 10
-15.716
 20
20.1155
 11
-14.2745
 21
21.1628
  0
LINE
  8
0
 10
-14.2745
 20
21.1628
 11
-12.7635
 21
22.107
  0
LINE
  8
0
 10
-12.7635
 20
22.107
 11
-11.1903
 21
22.9435
  0
LINE
  8
0
 10
-11.1903
 20
22.9435
 11
-9.56258
 21
23.6682
  0
LINE
  8
0
 10
-9.56258
 20
23.6682
 11
-7.88828
 21
24.2776
  0
LINE
  8
0
 10
-7.88828
 20
24.2776
 11
-6.17554
 21
24.7687
  0
LINE
  8
0
 10
-6.17554
 20
24.7687
 11
-4.43271
 21
25.1392
  0
LINE
  8
0
 10
-4.43271
 20
25.1392
 11
-2.66829
 21
25.3871
  0
LINE
  8
0
 10
-2.66829
 20
25.3871
 11
-0.890869
 21
25.5114
  0
LINE
  8
0
 10
-0.890869
 20
25.5114
 11
0.890869
 21
25.5114
  0
LINE
  8
0
 10
0.890869
 20
25.5114
 11
2.66829
 21
25.3871
  0
LINE
  8
0
 10
2.66829
 20
25.3871
 11
4.43271
 21
25.1392
  0
LINE
  8
0
 10
4.43271
 20
25.1392
 11
6.17554
 21
24.7687
  0
LINE
  8
0
 10
6.17554
 20
24.7687
 11
7.88828
 21
24.2776
  0
LINE
  8
0
 10
7.88828
 20
24.2776
 11
9.56258
 21
23.6682
  0
LINE
  8
0
 10
9.56258
 20
23.6682
 11
11.1903
 21
22.9435
  0
LINE
  8
0
 10
11.1903
 20
22.9435
 11
12.7635
 21
22.107
  0
LINE
  8
0
 10
12.7635
 20
22.107
 11
14.2745
 21
21.1628
  0
LINE
  8
0
 10
14.2745
 20
21.1628
 11
15.716
 21
20.1155
  0
LINE
  8
0
 10
15.716
 20
20.1155
 11
17.0809
 21
18.9702
  0
LINE
  8
0
 10
17.0809
 20
18.9702
 11
18.3626
 21
17.7325
  0
LINE
  8
0
 10
18.3626
 20
17.7325
 11
19.5548
 21
16.4084
  0
LINE
  8
0
 10
19.5548
 20
16.4084
 11
20.6518
 21
15.0044
  0
LINE
  8
0
 10
20.6518
 20
15.0044
 11
21.6481
 21
13.5272
  0
LINE
  8
0
 10
21.6481
 20
13.5272
 11
22.539
 21
11.9842
  0
LINE
  8
0
 10
22.539
 20
11.9842
 11
23.3201
 21
10.3828
  0
LINE
  8
0
 10
23.3201
 20
10.3828
 11
23.9875
 21
8.73074
  0
LINE
  8
0
 10
23.9875
 20
8.73074
 11
24.5381
 21
7.03619
  0
LINE
  8
0
 10
24.5381
 20
7.03619
 11
24.9692
 21
5.30736
  0
LINE
  8
0
 10
24.9692
 20
5.30736
 11
25.2786
 21
3.55266
  0
LINE
  8
0
 10
25.2786
 20
3.55266
 11
25.4648
 21
1.78067
  0
LINE
  8
0
 10
25.4648
 20
1.78067
 11
25.527
 21
0
  0
LINE
  8
0
 10
25.527
 20
0
 11
25.4648
 21
-1.78067
  0
LINE
  8
0
 10
25.4648
 20
-1.78067
 11
25.2786
 21
-3.55266
  0
LINE
  8
0
 10
25.2786
 20
-3.55266
 11
24.9692
 21
-5.30736
  0
LINE
  8
0
 10
24.9692
 20
-5.30736
 11
24.5381
 21
-7.03619
  0
LINE
  8
0
 10
24.5381
 20
-7.03619
 11
23.9875
 21
-8.73074
  0
LINE
  8
0
 10
23.9875
 20
-8.73074
 11
23.3201
 21
-10.3828
  0
LINE
  8
0
 10
23.3201
 20
-10.3828
 11
22.539
 21
-11.9842
  0
LINE
  8
0
 10
22.539
 20
-11.9842
 11
21.6481
 21
-13.5272
  0
LINE
  8
0
 10
21.6481
 20
-13.5272
 11
20.6518
 21
-15.0044
  0
LINE
  8
0
 10
20.6518
 20
-15.0044
 11
19.5548
 21
-16.4084
  0
LINE
  8
0
 10
19.5548
 20
-16.4084
 11
18.3626
 21
-17.7325
  0
LINE
  8
0
 10
18.3626
 20
-17.7325
 11
17.0809
 21
-18.9702
  0
LINE
  8
0
 10
17.0809
 20
-18.9702
 11
15.716
 21
-20.1155
  0
LINE
  8
0
 10
15.716
 20
-20.1155
 11
14.2745
 21
-21.1628
  0
LINE
  8
0
 10
14.2745
 20
-21.1628
 11
12.7635
 21
-22.107
  0
LINE
  8
0
 10
12.7635
 20
-22.107
 11
11.1903
 21
-22.9435
  0
LINE
  8
0
 10
11.1903
 20
-22.9435
 11
9.56258
 21
-23.6682
  0
LINE
  8
0
 10
9.56258
 20
-23.6682
 11
7.88828
 21
-24.2776
  0
LINE
  8
0
 10
7.88828
 20
-24.2776
 11
6.17554
 21
-24.7687
  0
LINE
  8
0
 10
6.17554
 20
-24.7687
 11
4.43271
 21
-25.1392
  0
LINE
  8
0
 10
4.43271
 20
-25.1392
 11
2.66829
 21
-25.3871
  0
LINE
  8
0
 10
2.66829
 20
-25.3871
 11
0.890869
 21
-25.5114
  0
LINE
  8
0
 10
0.890869
 20
-25.5114
 11
-0.890869
 21
-25.5114
  0
LINE
  8
0
 10
-64.414
 20
-71.0208
 11
-64.891
 21
-70.9875
  0
LINE
  8
0
 10
-64.891
 20
-70.9875
 11
-65.3645
 21
-70.9209
  0
LINE
  8
0
 10
-65.3645
 20
-70.9209
 11
-65.8322
 21
-70.8215
  0
LINE
  8
0
 10
-65.8322
 20
-70.8215
 11
-66.2918
 21
-70.6897
  0
LINE
  8
0
 10
-66.2918
 20
-70.6897
 11
-66.741
 21
-70.5262
  0
LINE
  8
0
 10
-66.741
 20
-70.5262
 11
-67.1778
 21
-70.3317
  0
LINE
  8
0
 10
-67.1778
 20
-70.3317
 11
-67.6
 21
-70.1073
  0
LINE
  8
0
 10
-67.6
 20
-70.1073
 11
-68.0055
 21
-69.8539
  0
LINE
  8
0
 10
-68.0055
 20
-69.8539
 11
-68.3923
 21
-69.5729
  0
LINE
  8
0
 10
-68.3923
 20
-69.5729
 11
-68.7585
 21
-69.2655
  0
LINE
  8
0
 10
-68.7585
 20
-69.2655
 11
-69.1025
 21
-68.9334
  0
LINE
  8
0
 10
-69.1025
 20
-68.9334
 11
-69.4224
 21
-68.5781
  0
LINE
  8
0
 10
-69.4224
 20
-68.5781
 11
-69.7168
 21
-68.2013
  0
LINE
  8
0
 10
-69.7168
 20
-68.2013
 11
-69.9841
 21
-67.8049
  0
LINE
  8
0
 10
-69.9841
 20
-67.8049
 11
-70.2232
 21
-67.3909
  0
LINE
  8
0
 10
-70.2232
 20
-67.3909
 11
-70.4328
 21
-66.9611
  0
LINE
  8
0
 10
-70.4328
 20
-66.9611
 11
-70.6119
 21
-66.5178
  0
LINE
  8
0
 10
-70.6119
 20
-66.5178
 11
-70.7596
 21
-66.0631
  0
LINE
  8
0
 10
-70.7596
 20
-66.0631
 11
-70.8753
 21
-65.5992
  0
LINE
  8
0
 10
-70.8753
 20
-65.5992
 11
-70.9583
 21
-65.1283
  0
LINE
  8
0
 10
-70.9583
 20
-65.1283
 11
-71.0083
 21
-64.6528
  0
LINE
  8
0
 10
-71.0083
 20
-64.6528
 11
-71.025
 21
-64.175
  0
LINE
  8
0
 10
-71.025
 20
-64.175
 11
-71.0083
 21
-63.6972
  0
LINE
  8
0
 10
-71.0083
 20
-63.6972
 11
-70.9583
 21
-63.2216
  0
LINE
  8
0
 10
-70.9583
 20
-63.2216
 11
-70.8753
 21
-62.7508
  0
LINE
  8
0
 10
-70.8753
 20
-62.7508
 11
-70.7596
 21
-62.2869
  0
LINE
  8
0
 10
-70.7596
 20
-62.2869
 11
-70.6119
 21
-61.8322
  0
LINE
  8
0
 10
-70.6119
 20
-61.8322
 11
-70.4328
 21
-61.3888
  0
LINE
  8
0
 10
-70.4328
 20
-61.3888
 11
-70.2232
 21
-60.9591
  0
LINE
  8
0
 10
-70.2232
 20
-60.9591
 11
-69.9841
 21
-60.545
  0
LINE
  8
0
 10
-69.9841
 20
-60.545
 11
-69.7168
 21
-60.1487
  0
LINE
  8
0
 10
-69.7168
 20
-60.1487
 11
-69.4224
 21
-59.7719
  0
LINE
  8
0
 10
-69.4224
 20
-59.7719
 11
-69.1025
 21
-59.4166
  0
LINE
  8
0
 10
-69.1025
 20
-59.4166
 11
-68.7585
 21
-59.0845
  0
LINE
  8
0
 10
-68.7585
 20
-59.0845
 11
-68.3923
 21
-58.7771
  0
LINE
  8
0
 10
-68.3923
 20
-58.7771
 11
-68.0055
 21
-58.4961
  0
LINE
  8
0
 10
-68.0055
 20
-58.4961
 11
-67.6
 21
-58.2427
  0
LINE
  8
0
 10
-67.6
 20
-58.2427
 11
-67.1778
 21
-58.0182
  0
LINE
  8
0
 10
-67.1778
 20
-58.0182
 11
-66.741
 21
-57.8238
  0
LINE
  8
0
 10
-66.741
 20
-57.8238
 11
-66.2918
 21
-57.6602
  0
LINE
  8
0
 10
-66.2918
 20
-57.6602
 11
-65.8322
 21
-57.5285
  0
LINE
  8
0
 10
-65.8322
 20
-57.5285
 11
-65.3645
 21
-57.4291
  0
LINE
  8
0
 10
-65.3645
 20
-57.4291
 11
-64.891
 21
-57.3625
  0
LINE
  8
0
 10
-64.891
 20
-57.3625
 11
-64.414
 21
-57.3292
  0
LINE
  8
0
 10
-64.414
 20
-57.3292
 11
-63.9359
 21
-57.3292
  0
LINE
  8
0
 10
-63.9359
 20
-57.3292
 11
-63.459
 21
-57.3625
  0
LINE
  8
0
 10
-63.459
 20
-57.3625
 11
-62.9855
 21
-57.4291
  0
LINE
  8
0
 10
-62.9855
 20
-57.4291
 11
-62.5178
 21
-57.5285
  0
LINE
  8
0
 10
-62.5178
 20
-57.5285
 11
-62.0582
 21
-57.6602
  0
LINE
  8
0
 10
-62.0582
 20
-57.6602
 11
-61.6089
 21
-57.8238
  0
LINE
  8
0
 10
-61.6089
 20
-57.8238
 11
-61.1721
 21
-58.0182
  0
LINE
  8
0
 10
-61.1721
 20
-58.0182
 11
-60.75
 21
-58.2427
  0
LINE
  8
0
 10
-60.75
 20
-58.2427
 11
-60.3445
 21
-58.4961
  0
LINE
  8
0
 10
-60.3445
 20
-58.4961
 11
-59.9577
 21
-58.7771
  0
LINE
  8
0
 10
-59.9577
 20
-58.7771
 11
-59.5914
 21
-59.0845
  0
LINE
  8
0
 10
-59.5914
 20
-59.0845
 11
-59.2475
 21
-59.4166
  0
LINE
  8
0
 10
-59.2475
 20
-59.4166
 11
-58.9276
 21
-59.7719
  0
LINE
  8
0
 10
-58.9276
 20
-59.7719
 11
-58.6332
 21
-60.1487
  0
LINE
  8
0
 10
-58.6332
 20
-60.1487
 11
-58.3659
 21
-60.545
  0
LINE
  8
0
 10
-58.3659
 20
-60.545
 11
-58.1268
 21
-60.9591
  0
LINE
  8
0
 10
-58.1268
 20
-60.9591
 11
-57.9172
 21
-61.3888
  0
LINE
  8
0
 10
-57.9172
 20
-61.3888
 11
-57.7381
 21
-61.8322
  0
LINE
  8
0
 10
-57.7381
 20
-61.8322
 11
-57.5903
 21
-62.2869
  0
LINE
  8
0
 10
-57.5903
 20
-62.2869
 11
-57.4747
 21
-62.7508
  0
LINE
  8
0
 10
-57.4747
 20
-62.7508
 11
-57.3917
 21
-63.2216
  0
LINE
  8
0
 10
-57.3917
 20
-63.2216
 11
-57.3417
 21
-63.6972
  0
LINE
  8
0
 10
-57.3417
 20
-63.6972
 11
-57.325
 21
-64.175
  0
LINE
  8
0
 10
-57.325
 20
-64.175
 11
-57.3417
 21
-64.6528
  0
LINE
  8
0
 10
-57.3417
 20
-64.6528
 11
-57.3917
 21
-65.1283
  0
LINE
  8
0
 10
-57.3917
 20
-65.1283
 11
-57.4747
 21
-65.5992
  0
LINE
  8
0
 10
-57.4747
 20
-65.5992
 11
-57.5903
 21
-66.0631
  0
LINE
  8
0
 10
-57.5903
 20
-66.0631
 11
-57.7381
 21
-66.5178
  0
LINE
  8
0
 10
-57.7381
 20
-66.5178
 11
-57.9172
 21
-66.9611
  0
LINE
  8
0
 10
-57.9172
 20
-66.9611
 11
-58.1268
 21
-67.3909
  0
LINE
  8
0
 10
-58.1268
 20
-67.3909
 11
-58.3659
 21
-67.8049
  0
LINE
  8
0
 10
-58.3659
 20
-67.8049
 11
-58.6332
 21
-68.2013
  0
LINE
  8
0
 10
-58.6332
 20
-68.2013
 11
-58.9276
 21
-68.5781
  0
LINE
  8
0
 10
-58.9276
 20
-68.5781
 11
-59.2475
 21
-68.9334
  0
LINE
  8
0
 10
-59.2475
 20
-68.9334
 11
-59.5914
 21
-69.2655
  0
LINE
  8
0
 10
-59.5914
 20
-69.2655
 11
-59.9577
 21
-69.5729
  0
LINE
  8
0
 10
-59.9577
 20
-69.5729
 11
-60.3445
 21
-69.8539
  0
LINE
  8
0
 10
-60.3445
 20
-69.8539
 11
-60.75
 21
-70.1073
  0
LINE
  8
0
 10
-60.75
 20
-70.1073
 11
-61.1721
 21
-70.3317
  0
LINE
  8
0
 10
-61.1721
 20
-70.3317
 11
-61.6089
 21
-70.5262
  0
LINE
  8
0
 10
-61.6089
 20
-70.5262
 11
-62.0582
 21
-70.6897
  0
LINE
  8
0
 10
-62.0582
 20
-70.6897
 11
-62.5178
 21
-70.8215
  0
LINE
  8
0
 10
-62.5178
 20
-70.8215
 11
-62.9855
 21
-70.9209
  0
LINE
  8
0
 10
-62.9855
 20
-70.9209
 11
-63.459
 21
-70.9875
  0
LINE
  8
0
 10
-63.459
 20
-70.9875
 11
-63.9359
 21
-71.0208
  0
LINE
  8
0
 10
-63.9359
 20
-71.0208
 11
-64.414
 21
-71.0208
  0
LINE
  8
0
 10
63.9359
 20
-71.0208
 11
63.459
 21
-70.9875
  0
LINE
  8
0
 10
63.459
 20
-70.9875
 11
62.9855
 21
-70.9209
  0
LINE
  8
0
 10
62.9855
 20
-70.9209
 11
62.5178
 21
-70.8215
  0
LINE
  8
0
 10
62.5178
 20
-70.8215
 11
62.0582
 21
-70.6897
  0
LINE
  8
0
 10
62.0582
 20
-70.6897
 11
61.6089
 21
-70.5262
  0
LINE
  8
0
 10
61.6089
 20
-70.5262
 11
61.1721
 21
-70.3317
  0
LINE
  8
0
 10
61.1721
 20
-70.3317
 11
60.75
 21
-70.1073
  0
LINE
  8
0
 10
60.75
 20
-70.1073
 11
60.3445
 21
-69.8539
  0
LINE
  8
0
 10
60.3445
 20
-69.8539
 11
59.9577
 21
-69.5729
  0
LINE
  8
0
 10
59.9577
 20
-69.5729
 11
59.5914
 21
-69.2655
  0
LINE
  8
0
 10
59.5914
 20
-69.2655
 11
59.2475
 21
-68.9334
  0
LINE
  8
0
 10
59.2475
 20
-68.9334
 11
58.9276
 21
-68.5781
  0
LINE
  8
0
 10
58.9276
 20
-68.5781
 11
58.6332
 21
-68.2013
  0
LINE
  8
0
 10
58.6332
 20
-68.2013
 11
58.3659
 21
-67.8049
  0
LINE
  8
0
 10
58.3659
 20
-67.8049
 11
58.1268
 21
-67.3909
  0
LINE
  8
0
 10
58.1268
 20
-67.3909
 11
57.9172
 21
-66.9611
  0
LINE
  8
0
 10
57.9172
 20
-66.9611
 11
57.7381
 21
-66.5178
  0
LINE
  8
0
 10
57.7381
 20
-66.5178
 11
57.5903
 21
-66.0631
  0
LINE
  8
0
 10
57.5903
 20
-66.0631
 11
57.4747
 21
-65.5992
  0
LINE
  8
0
 10
57.4747
 20
-65.5992
 11
57.3917
 21
-65.1283
  0
LINE
  8
0
 10
57.3917
 20
-65.1283
 11
57.3417
 21
-64.6528
  0
LINE
  8
0
 10
57.3417
 20
-64.6528
 11
57.325
 21
-64.175
  0
LINE
  8
0
 10
57.325
 20
-64.175
 11
57.3417
 21
-63.6972
  0
LINE
  8
0
 10
57.3417
 20
-63.6972
 11
57.3917
 21
-63.2216
  0
LINE
  8
0
 10
57.3917
 20
-63.2216
 11
57.4747
 21
-62.7508
  0
LINE
  8
0
 10
57.4747
 20
-62.7508
 11
57.5903
 21
-62.2869
  0
LINE
  8
0
 10
57.5903
 20
-62.2869
 11
57.7381
 21
-61.8322
  0
LINE
  8
0
 10
57.7381
 20
-61.8322
 11
57.9172
 21
-61.3888
  0
LINE
  8
0
 10
57.9172
 20
-61.3888
 11
58.1268
 21
-60.9591
  0
LINE
  8
0
 10
58.1268
 20
-60.9591
 11
58.3659
 21
-60.545
  0
LINE
  8
0
 10
58.3659
 20
-60.545
 11
58.6332
 21
-60.1487
  0
LINE
  8
0
 10
58.6332
 20
-60.1487
 11
58.9276
 21
-59.7719
  0
LINE
  8
0
 10
58.9276
 20
-59.7719
 11
59.2475
 21
-59.4166
  0
LINE
  8
0
 10
59.2475
 20
-59.4166
 11
59.5914
 21
-59.0845
  0
LINE
  8
0
 10
59.5914
 20
-59.0845
 11
59.9577
 21
-58.7771
  0
LINE
  8
0
 10
59.9577
 20
-58.7771
 11
60.3445
 21
-58.4961
  0
LINE
  8
0
 10
60.3445
 20
-58.4961
 11
60.75
 21
-58.2427
  0
LINE
  8
0
 10
60.75
 20
-58.2427
 11
61.1721
 21
-58.0182
  0
LINE
  8
0
 10
61.1721
 20
-58.0182
 11
61.6089
 21
-57.8238
  0
LINE
  8
0
 10
61.6089
 20
-57.8238
 11
62.0582
 21
-57.6602
  0
LINE
  8
0
 10
62.0582
 20
-57.6602
 11
62.5178
 21
-57.5285
  0
LINE
  8
0
 10
62.5178
 20
-57.5285
 11
62.9855
 21
-57.4291
  0
LINE
  8
0
 10
62.9855
 20
-57.4291
 11
63.459
 21
-57.3625
  0
LINE
  8
0
 10
63.459
 20
-57.3625
 11
63.9359
 21
-57.3292
  0
LINE
  8
0
 10
63.9359
 20
-57.3292
 11
64.414
 21
-57.3292
  0
LINE
  8
0
 10
64.414
 20
-57.3292
 11
64.891
 21
-57.3625
  0
LINE
  8
0
 10
64.891
 20
-57.3625
 11
65.3645
 21
-57.4291
  0
LINE
  8
0
 10
65.3645
 20
-57.4291
 11
65.8322
 21
-57.5285
  0
LINE
  8
0
 10
65.8322
 20
-57.5285
 11
66.2918
 21
-57.6602
  0
LINE
  8
0
 10
66.2918
 20
-57.6602
 11
66.741
 21
-57.8238
  0
LINE
  8
0
 10
66.741
 20
-57.8238
 11
67.1778
 21
-58.0182
  0
LINE
  8
0
 10
67.1778
 20
-58.0182
 11
67.6
 21
-58.2427
  0
LINE
  8
0
 10
67.6
 20
-58.2427
 11
68.0055
 21
-58.4961
  0
LINE
  8
0
 10
68.0055
 20
-58.4961
 11
68.3923
 21
-58.7771
  0
LINE
  8
0
 10
68.3923
 20
-58.7771
 11
68.7585
 21
-59.0845
  0
LINE
  8
0
 10
68.7585
 20
-59.0845
 11
69.1025
 21
-59.4166
  0
LINE
  8
0
 10
69.1025
 20
-59.4166
 11
69.4224
 21
-59.7719
  0
LINE
  8
0
 10
69.4224
 20
-59.7719
 11
69.7168
 21
-60.1487
  0
LINE
  8
0
 10
69.7168
 20
-60.1487
 11
69.9841
 21
-60.545
  0
LINE
  8
0
 10
69.9841
 20
-60.545
 11
70.2232
 21
-60.9591
  0
LINE
  8
0
 10
70.2232
 20
-60.9591
 11
70.4328
 21
-61.3888
  0
LINE
  8
0
 10
70.4328
 20
-61.3888
 11
70.6119
 21
-61.8322
  0
LINE
  8
0
 10
70.6119
 20
-61.8322
 11
70.7596
 21
-62.2869
  0
LINE
  8
0
 10
70.7596
 20
-62.2869
 11
70.8753
 21
-62.7508
  0
LINE
  8
0
 10
70.8753
 20
-62.7508
 11
70.9583
 21
-63.2216
  0
LINE
  8
0
 10
70.9583
 20
-63.2216
 11
71.0083
 21
-63.6972
  0
LINE
  8
0
 10
71.0083
 20
-63.6972
 11
71.025
 21
-64.175
  0
LINE
  8
0
 10
71.025
 20
-64.175
 11
71.0083
 21
-64.6528
  0
LINE
  8
0
 10
71.0083
 20
-64.6528
 11
70.9583
 21
-65.1283
  0
LINE
  8
0
 10
70.9583
 20
-65.1283
 11
70.8753
 21
-65.5992
  0
LINE
  8
0
 10
70.8753
 20
-65.5992
 11
70.7596
 21
-66.0631
  0
LINE
  8
0
 10
70.7596
 20
-66.0631
 11
70.6119
 21
-66.5178
  0
LINE
  8
0
 10
70.6119
 20
-66.5178
 11
70.4328
 21
-66.9611
  0
LINE
  8
0
 10
70.4328
 20
-66.9611
 11
70.2232
 21
-67.3909
  0
LINE
  8
0
 10
70.2232
 20
-67.3909
 11
69.9841
 21
-67.8049
  0
LINE
  8
0
 10
69.9841
 20
-67.8049
 11
69.7168
 21
-68.2013
  0
LINE
  8
0
 10
69.7168
 20
-68.2013
 11
69.4224
 21
-68.5781
  0
LINE
  8
0
 10
69.4224
 20
-68.5781
 11
69.1025
 21
-68.9334
  0
LINE
  8
0
 10
69.1025
 20
-68.9334
 11
68.7585
 21
-69.2655
  0
LINE
  8
0
 10
68.7585
 20
-69.2655
 11
68.3923
 21
-69.5729
  0
LINE
  8
0
 10
68.3923
 20
-69.5729
 11
68.0055
 21
-69.8539
  0
LINE
  8
0
 10
68.0055
 20
-69.8539
 11
67.6
 21
-70.1073
  0
LINE
  8
0
 10
67.6
 20
-70.1073
 11
67.1778
 21
-70.3317
  0
LINE
  8
0
 10
67.1778
 20
-70.3317
 11
66.741
 21
-70.5262
  0
LINE
  8
0
 10
66.741
 20
-70.5262
 11
66.2918
 21
-70.6897
  0
LINE
  8
0
 10
66.2918
 20
-70.6897
 11
65.8322
 21
-70.8215
  0
LINE
  8
0
 10
65.8322
 20
-70.8215
 11
65.3645
 21
-70.9209
  0
LINE
  8
0
 10
65.3645
 20
-70.9209
 11
64.891
 21
-70.9875
  0
LINE
  8
0
 10
64.891
 20
-70.9875
 11
64.414
 21
-71.0208
  0
LINE
  8
0
 10
64.414
 20
-71.0208
 11
63.9359
 21
-71.0208
  0
ENDSEC
  0
SECTION
  2
OBJECTS
  0
DICTIONARY
  0
ENDSEC
  0
EOF
