solid OpenSCAD_Model
  facet normal 0 0 1
    outer loop
      vertex 0 -38.1 -19.0384
      vertex 0.664835 -38.1 -19.0384
      vertex 0 38.1 -19.0384
    endloop
  endfacet
  facet normal -1 0 0
    outer loop
      vertex 0 -38.1 -22.225
      vertex 0 -38.1 -19.0384
      vertex 0 38.1 -19.0384
    endloop
  endfacet
  facet normal -1 0 0
    outer loop
      vertex 0 -38.1 -22.225
      vertex 0 38.1 -19.0384
      vertex 0 38.1 -22.225
    endloop
  endfacet
  facet normal 0 0 -1
    outer loop
      vertex 0 -38.1 -22.225
      vertex 0 38.1 -22.225
      vertex 28.575 0 -22.225
    endloop
  endfacet
  facet normal 0 -1 0
    outer loop
      vertex 0 -38.1 -22.225
      vertex 0.664835 -38.1 -19.0384
      vertex 0 -38.1 -19.0384
    endloop
  endfacet
  facet normal 0 -1 0
    outer loop
      vertex 0 -38.1 -22.225
      vertex 1.99127 -38.1 -18.9456
      vertex 0.664835 -38.1 -19.0384
    endloop
  endfacet
  facet normal 0 0 -1
    outer loop
      vertex 0 -38.1 -22.225
      vertex 28.575 0 -22.225
      vertex 28.5987 -0.678381 -22.225
    endloop
  endfacet
  facet normal 0 0 -1
    outer loop
      vertex 0 -38.1 -22.225
      vertex 28.5987 -0.678381 -22.225
      vertex 28.6696 -1.35346 -22.225
    endloop
  endfacet
  facet normal 0 0 -1
    outer loop
      vertex 0 -38.1 -22.225
      vertex 28.6696 -1.35346 -22.225
      vertex 28.7875 -2.02194 -22.225
    endloop
  endfacet
  facet normal 0 0 -1
    outer loop
      vertex 0 -38.1 -22.225
      vertex 28.7875 -2.02194 -22.225
      vertex 28.9517 -2.68057 -22.225
    endloop
  endfacet
  facet normal 0 0 -1
    outer loop
      vertex 0 -38.1 -22.225
      vertex 28.9517 -2.68057 -22.225
      vertex 29.1615 -3.32615 -22.225
    endloop
  endfacet
  facet normal 0 0 -1
    outer loop
      vertex 0 -38.1 -22.225
      vertex 29.1615 -3.32615 -22.225
      vertex 29.4158 -3.95551 -22.225
    endloop
  endfacet
  facet normal 0 0 -1
    outer loop
      vertex 0 -38.1 -22.225
      vertex 29.4158 -3.95551 -22.225
      vertex 29.7133 -4.56561 -22.225
    endloop
  endfacet
  facet normal 0 0 -1
    outer loop
      vertex 0 -38.1 -22.225
      vertex 29.7133 -4.56561 -22.225
      vertex 30.0527 -5.15346 -22.225
    endloop
  endfacet
  facet normal 0 -1 0
    outer loop
      vertex 0 -38.1 -22.225
      vertex 3.308 -38.1 -18.7606
      vertex 1.99127 -38.1 -18.9456
    endloop
  endfacet
  facet normal 0 0 -1
    outer loop
      vertex 0 -38.1 -22.225
      vertex 30.0527 -5.15346 -22.225
      vertex 30.4323 -5.71621 -22.225
    endloop
  endfacet
  facet normal 0 0 -1
    outer loop
      vertex 0 -38.1 -22.225
      vertex 30.4323 -5.71621 -22.225
      vertex 30.8502 -6.25111 -22.225
    endloop
  endfacet
  facet normal 0 0 -1
    outer loop
      vertex 0 -38.1 -22.225
      vertex 30.8502 -6.25111 -22.225
      vertex 31.3044 -6.75555 -22.225
    endloop
  endfacet
  facet normal 0 0 -1
    outer loop
      vertex 0 -38.1 -22.225
      vertex 31.3044 -6.75555 -22.225
      vertex 31.7927 -7.22708 -22.225
    endloop
  endfacet
  facet normal 0 0 -1
    outer loop
      vertex 0 -38.1 -22.225
      vertex 31.7927 -7.22708 -22.225
      vertex 32.3127 -7.6634 -22.225
    endloop
  endfacet
  facet normal 0 0 -1
    outer loop
      vertex 0 -38.1 -22.225
      vertex 32.3127 -7.6634 -22.225
      vertex 32.8618 -8.06239 -22.225
    endloop
  endfacet
  facet normal 0 0 -1
    outer loop
      vertex 0 -38.1 -22.225
      vertex 32.8618 -8.06239 -22.225
      vertex 33.4375 -8.4221 -22.225
    endloop
  endfacet
  facet normal 0 0 -1
    outer loop
      vertex 0 -38.1 -22.225
      vertex 33.4375 -8.4221 -22.225
      vertex 34.0368 -8.74077 -22.225
    endloop
  endfacet
  facet normal 0 0 -1
    outer loop
      vertex 0 -38.1 -22.225
      vertex 34.0368 -8.74077 -22.225
      vertex 34.657 -9.01686 -22.225
    endloop
  endfacet
  facet normal 0 0 -1
    outer loop
      vertex 0 -38.1 -22.225
      vertex 34.657 -9.01686 -22.225
      vertex 35.2948 -9.24902 -22.225
    endloop
  endfacet
  facet normal 0 0 -1
    outer loop
      vertex 0 -38.1 -22.225
      vertex 35.2948 -9.24902 -22.225
      vertex 35.9473 -9.43613 -22.225
    endloop
  endfacet
  facet normal 0 0 -1
    outer loop
      vertex 0 -38.1 -22.225
      vertex 35.9473 -9.43613 -22.225
      vertex 57.55 -38.1 -22.225
    endloop
  endfacet
  facet normal 0 -1 0
    outer loop
      vertex 0 -38.1 -22.225
      vertex 4.60861 -38.1 -18.4841
      vertex 3.308 -38.1 -18.7606
    endloop
  endfacet
  facet normal 0 -1 0
    outer loop
      vertex 0 -38.1 -22.225
      vertex 5.88677 -38.1 -18.1176
      vertex 4.60861 -38.1 -18.4841
    endloop
  endfacet
  facet normal 0 -1 0
    outer loop
      vertex 0 -38.1 -22.225
      vertex 57.55 -38.1 -22.225
      vertex 8.35097 -38.1 -17.122
    endloop
  endfacet
  facet normal 0 -1 0
    outer loop
      vertex 0 -38.1 -22.225
      vertex 7.13626 -38.1 -17.6629
      vertex 5.88677 -38.1 -18.1176
    endloop
  endfacet
  facet normal 0 -1 0
    outer loop
      vertex 0 -38.1 -22.225
      vertex 8.35097 -38.1 -17.122
      vertex 7.13626 -38.1 -17.6629
    endloop
  endfacet
  facet normal -1 0 0
    outer loop
      vertex 0 -38.1 19.0384
      vertex 0 -38.1 22.225
      vertex 0 38.1 22.225
    endloop
  endfacet
  facet normal 0 0 -1
    outer loop
      vertex 0 -38.1 19.0384
      vertex 0 38.1 19.0384
      vertex 0.664835 38.1 19.0384
    endloop
  endfacet
  facet normal -1 0 0
    outer loop
      vertex 0 -38.1 19.0384
      vertex 0 38.1 22.225
      vertex 0 38.1 19.0384
    endloop
  endfacet
  facet normal 0 -1 0
    outer loop
      vertex 0 -38.1 19.0384
      vertex 0.664835 -38.1 19.0384
      vertex 0 -38.1 22.225
    endloop
  endfacet
  facet normal 0 0 -1
    outer loop
      vertex 0 -38.1 19.0384
      vertex 0.664835 38.1 19.0384
      vertex 0.664835 -38.1 19.0384
    endloop
  endfacet
  facet normal 0 -1 0
    outer loop
      vertex 0 -38.1 22.225
      vertex 0.664835 -38.1 19.0384
      vertex 1.99127 -38.1 18.9456
    endloop
  endfacet
  facet normal 0 -1 0
    outer loop
      vertex 0 -38.1 22.225
      vertex 1.99127 -38.1 18.9456
      vertex 3.308 -38.1 18.7606
    endloop
  endfacet
  facet normal 0 0 1
    outer loop
      vertex 0 -38.1 22.225
      vertex 28.575 0 22.225
      vertex 0 38.1 22.225
    endloop
  endfacet
  facet normal 0 0 1
    outer loop
      vertex 0 -38.1 22.225
      vertex 28.5987 -0.678381 22.225
      vertex 28.575 0 22.225
    endloop
  endfacet
  facet normal 0 0 1
    outer loop
      vertex 0 -38.1 22.225
      vertex 28.6696 -1.35346 22.225
      vertex 28.5987 -0.678381 22.225
    endloop
  endfacet
  facet normal 0 0 1
    outer loop
      vertex 0 -38.1 22.225
      vertex 28.7875 -2.02194 22.225
      vertex 28.6696 -1.35346 22.225
    endloop
  endfacet
  facet normal 0 0 1
    outer loop
      vertex 0 -38.1 22.225
      vertex 28.9517 -2.68057 22.225
      vertex 28.7875 -2.02194 22.225
    endloop
  endfacet
  facet normal 0 0 1
    outer loop
      vertex 0 -38.1 22.225
      vertex 29.1615 -3.32615 22.225
      vertex 28.9517 -2.68057 22.225
    endloop
  endfacet
  facet normal 0 0 1
    outer loop
      vertex 0 -38.1 22.225
      vertex 29.4158 -3.95551 22.225
      vertex 29.1615 -3.32615 22.225
    endloop
  endfacet
  facet normal 0 0 1
    outer loop
      vertex 0 -38.1 22.225
      vertex 29.7133 -4.56561 22.225
      vertex 29.4158 -3.95551 22.225
    endloop
  endfacet
  facet normal 0 -1 0
    outer loop
      vertex 0 -38.1 22.225
      vertex 3.308 -38.1 18.7606
      vertex 4.60861 -38.1 18.4841
    endloop
  endfacet
  facet normal 0 0 1
    outer loop
      vertex 0 -38.1 22.225
      vertex 30.0527 -5.15346 22.225
      vertex 29.7133 -4.56561 22.225
    endloop
  endfacet
  facet normal 0 0 1
    outer loop
      vertex 0 -38.1 22.225
      vertex 30.4323 -5.71621 22.225
      vertex 30.0527 -5.15346 22.225
    endloop
  endfacet
  facet normal 0 0 1
    outer loop
      vertex 0 -38.1 22.225
      vertex 30.8502 -6.25111 22.225
      vertex 30.4323 -5.71621 22.225
    endloop
  endfacet
  facet normal 0 0 1
    outer loop
      vertex 0 -38.1 22.225
      vertex 31.3044 -6.75555 22.225
      vertex 30.8502 -6.25111 22.225
    endloop
  endfacet
  facet normal 0 0 1
    outer loop
      vertex 0 -38.1 22.225
      vertex 31.7927 -7.22708 22.225
      vertex 31.3044 -6.75555 22.225
    endloop
  endfacet
  facet normal 0 0 1
    outer loop
      vertex 0 -38.1 22.225
      vertex 32.3127 -7.6634 22.225
      vertex 31.7927 -7.22708 22.225
    endloop
  endfacet
  facet normal 0 0 1
    outer loop
      vertex 0 -38.1 22.225
      vertex 32.8618 -8.06239 22.225
      vertex 32.3127 -7.6634 22.225
    endloop
  endfacet
  facet normal 0 0 1
    outer loop
      vertex 0 -38.1 22.225
      vertex 33.4375 -8.4221 22.225
      vertex 32.8618 -8.06239 22.225
    endloop
  endfacet
  facet normal 0 0 1
    outer loop
      vertex 0 -38.1 22.225
      vertex 34.0368 -8.74077 22.225
      vertex 33.4375 -8.4221 22.225
    endloop
  endfacet
  facet normal 0 0 1
    outer loop
      vertex 0 -38.1 22.225
      vertex 34.657 -9.01686 22.225
      vertex 34.0368 -8.74077 22.225
    endloop
  endfacet
  facet normal 0 0 1
    outer loop
      vertex 0 -38.1 22.225
      vertex 35.2948 -9.24902 22.225
      vertex 34.657 -9.01686 22.225
    endloop
  endfacet
  facet normal 0 0 1
    outer loop
      vertex 0 -38.1 22.225
      vertex 35.9473 -9.43613 22.225
      vertex 35.2948 -9.24902 22.225
    endloop
  endfacet
  facet normal 0 -1 0
    outer loop
      vertex 0 -38.1 22.225
      vertex 4.60861 -38.1 18.4841
      vertex 5.88677 -38.1 18.1176
    endloop
  endfacet
  facet normal 0 -1 0
    outer loop
      vertex 0 -38.1 22.225
      vertex 5.88677 -38.1 18.1176
      vertex 7.13626 -38.1 17.6629
    endloop
  endfacet
  facet normal 0 0 1
    outer loop
      vertex 0 -38.1 22.225
      vertex 57.55 -38.1 22.225
      vertex 35.9473 -9.43613 22.225
    endloop
  endfacet
  facet normal 0 -1 0
    outer loop
      vertex 0 -38.1 22.225
      vertex 7.13626 -38.1 17.6629
      vertex 8.35097 -38.1 17.122
    endloop
  endfacet
  facet normal 0 -1 0
    outer loop
      vertex 0 -38.1 22.225
      vertex 8.35097 -38.1 17.122
      vertex 57.55 -38.1 22.225
    endloop
  endfacet
  facet normal 0 0 1
    outer loop
      vertex 0 38.1 -19.0384
      vertex 0.664835 -38.1 -19.0384
      vertex 0.664835 38.1 -19.0384
    endloop
  endfacet
  facet normal 0 1 0
    outer loop
      vertex 0 38.1 -22.225
      vertex 0 38.1 -19.0384
      vertex 0.664835 38.1 -19.0384
    endloop
  endfacet
  facet normal 0 1 0
    outer loop
      vertex 0 38.1 -22.225
      vertex 0.664835 38.1 -19.0384
      vertex 1.99127 38.1 -18.9456
    endloop
  endfacet
  facet normal 0 1 0
    outer loop
      vertex 0 38.1 -22.225
      vertex 1.99127 38.1 -18.9456
      vertex 3.308 38.1 -18.7606
    endloop
  endfacet
  facet normal 0 0 -1
    outer loop
      vertex 0 38.1 -22.225
      vertex 28.5987 0.678381 -22.225
      vertex 28.575 0 -22.225
    endloop
  endfacet
  facet normal 0 0 -1
    outer loop
      vertex 0 38.1 -22.225
      vertex 28.6696 1.35346 -22.225
      vertex 28.5987 0.678381 -22.225
    endloop
  endfacet
  facet normal 0 0 -1
    outer loop
      vertex 0 38.1 -22.225
      vertex 28.7875 2.02194 -22.225
      vertex 28.6696 1.35346 -22.225
    endloop
  endfacet
  facet normal 0 0 -1
    outer loop
      vertex 0 38.1 -22.225
      vertex 28.9517 2.68057 -22.225
      vertex 28.7875 2.02194 -22.225
    endloop
  endfacet
  facet normal 0 0 -1
    outer loop
      vertex 0 38.1 -22.225
      vertex 29.1615 3.32615 -22.225
      vertex 28.9517 2.68057 -22.225
    endloop
  endfacet
  facet normal 0 0 -1
    outer loop
      vertex 0 38.1 -22.225
      vertex 29.4158 3.95551 -22.225
      vertex 29.1615 3.32615 -22.225
    endloop
  endfacet
  facet normal 0 0 -1
    outer loop
      vertex 0 38.1 -22.225
      vertex 29.7133 4.56561 -22.225
      vertex 29.4158 3.95551 -22.225
    endloop
  endfacet
  facet normal 0 1 0
    outer loop
      vertex 0 38.1 -22.225
      vertex 3.308 38.1 -18.7606
      vertex 4.60861 38.1 -18.4841
    endloop
  endfacet
  facet normal 0 0 -1
    outer loop
      vertex 0 38.1 -22.225
      vertex 30.0527 5.15346 -22.225
      vertex 29.7133 4.56561 -22.225
    endloop
  endfacet
  facet normal 0 0 -1
    outer loop
      vertex 0 38.1 -22.225
      vertex 30.4323 5.71621 -22.225
      vertex 30.0527 5.15346 -22.225
    endloop
  endfacet
  facet normal 0 0 -1
    outer loop
      vertex 0 38.1 -22.225
      vertex 30.8502 6.25111 -22.225
      vertex 30.4323 5.71621 -22.225
    endloop
  endfacet
  facet normal 0 0 -1
    outer loop
      vertex 0 38.1 -22.225
      vertex 31.3044 6.75555 -22.225
      vertex 30.8502 6.25111 -22.225
    endloop
  endfacet
  facet normal 0 0 -1
    outer loop
      vertex 0 38.1 -22.225
      vertex 31.7927 7.22708 -22.225
      vertex 31.3044 6.75555 -22.225
    endloop
  endfacet
  facet normal 0 0 -1
    outer loop
      vertex 0 38.1 -22.225
      vertex 32.3127 7.6634 -22.225
      vertex 31.7927 7.22708 -22.225
    endloop
  endfacet
  facet normal 0 0 -1
    outer loop
      vertex 0 38.1 -22.225
      vertex 32.8618 8.06239 -22.225
      vertex 32.3127 7.6634 -22.225
    endloop
  endfacet
  facet normal 0 0 -1
    outer loop
      vertex 0 38.1 -22.225
      vertex 33.4375 8.4221 -22.225
      vertex 32.8618 8.06239 -22.225
    endloop
  endfacet
  facet normal 0 0 -1
    outer loop
      vertex 0 38.1 -22.225
      vertex 34.0368 8.74077 -22.225
      vertex 33.4375 8.4221 -22.225
    endloop
  endfacet
  facet normal 0 0 -1
    outer loop
      vertex 0 38.1 -22.225
      vertex 34.657 9.01686 -22.225
      vertex 34.0368 8.74077 -22.225
    endloop
  endfacet
  facet normal 0 0 -1
    outer loop
      vertex 0 38.1 -22.225
      vertex 35.2948 9.24902 -22.225
      vertex 34.657 9.01686 -22.225
    endloop
  endfacet
  facet normal 0 0 -1
    outer loop
      vertex 0 38.1 -22.225
      vertex 35.9473 9.43613 -22.225
      vertex 35.2948 9.24902 -22.225
    endloop
  endfacet
  facet normal 0 1 0
    outer loop
      vertex 0 38.1 -22.225
      vertex 4.60861 38.1 -18.4841
      vertex 5.88677 38.1 -18.1176
    endloop
  endfacet
  facet normal 0 1 0
    outer loop
      vertex 0 38.1 -22.225
      vertex 5.88677 38.1 -18.1176
      vertex 7.13626 38.1 -17.6629
    endloop
  endfacet
  facet normal 0 0 -1
    outer loop
      vertex 0 38.1 -22.225
      vertex 57.55 38.1 -22.225
      vertex 35.9473 9.43613 -22.225
    endloop
  endfacet
  facet normal 0 1 0
    outer loop
      vertex 0 38.1 -22.225
      vertex 7.13626 38.1 -17.6629
      vertex 8.35097 38.1 -17.122
    endloop
  endfacet
  facet normal 0 1 0
    outer loop
      vertex 0 38.1 -22.225
      vertex 8.35097 38.1 -17.122
      vertex 57.55 38.1 -22.225
    endloop
  endfacet
  facet normal 0 1 0
    outer loop
      vertex 0 38.1 19.0384
      vertex 0 38.1 22.225
      vertex 0.664835 38.1 19.0384
    endloop
  endfacet
  facet normal 0 1 0
    outer loop
      vertex 0 38.1 22.225
      vertex 1.99127 38.1 18.9456
      vertex 0.664835 38.1 19.0384
    endloop
  endfacet
  facet normal 0 0 1
    outer loop
      vertex 0 38.1 22.225
      vertex 28.575 0 22.225
      vertex 28.5987 0.678381 22.225
    endloop
  endfacet
  facet normal 0 0 1
    outer loop
      vertex 0 38.1 22.225
      vertex 28.5987 0.678381 22.225
      vertex 28.6696 1.35346 22.225
    endloop
  endfacet
  facet normal 0 0 1
    outer loop
      vertex 0 38.1 22.225
      vertex 28.6696 1.35346 22.225
      vertex 28.7875 2.02194 22.225
    endloop
  endfacet
  facet normal 0 0 1
    outer loop
      vertex 0 38.1 22.225
      vertex 28.7875 2.02194 22.225
      vertex 28.9517 2.68057 22.225
    endloop
  endfacet
  facet normal 0 0 1
    outer loop
      vertex 0 38.1 22.225
      vertex 28.9517 2.68057 22.225
      vertex 29.1615 3.32615 22.225
    endloop
  endfacet
  facet normal 0 0 1
    outer loop
      vertex 0 38.1 22.225
      vertex 29.1615 3.32615 22.225
      vertex 29.4158 3.95551 22.225
    endloop
  endfacet
  facet normal 0 0 1
    outer loop
      vertex 0 38.1 22.225
      vertex 29.4158 3.95551 22.225
      vertex 29.7133 4.56561 22.225
    endloop
  endfacet
  facet normal 0 0 1
    outer loop
      vertex 0 38.1 22.225
      vertex 29.7133 4.56561 22.225
      vertex 30.0527 5.15346 22.225
    endloop
  endfacet
  facet normal 0 1 0
    outer loop
      vertex 0 38.1 22.225
      vertex 3.308 38.1 18.7606
      vertex 1.99127 38.1 18.9456
    endloop
  endfacet
  facet normal 0 0 1
    outer loop
      vertex 0 38.1 22.225
      vertex 30.0527 5.15346 22.225
      vertex 30.4323 5.71621 22.225
    endloop
  endfacet
  facet normal 0 0 1
    outer loop
      vertex 0 38.1 22.225
      vertex 30.4323 5.71621 22.225
      vertex 30.8502 6.25111 22.225
    endloop
  endfacet
  facet normal 0 0 1
    outer loop
      vertex 0 38.1 22.225
      vertex 30.8502 6.25111 22.225
      vertex 31.3044 6.75555 22.225
    endloop
  endfacet
  facet normal 0 0 1
    outer loop
      vertex 0 38.1 22.225
      vertex 31.3044 6.75555 22.225
      vertex 31.7927 7.22708 22.225
    endloop
  endfacet
  facet normal 0 0 1
    outer loop
      vertex 0 38.1 22.225
      vertex 31.7927 7.22708 22.225
      vertex 32.3127 7.6634 22.225
    endloop
  endfacet
  facet normal 0 0 1
    outer loop
      vertex 0 38.1 22.225
      vertex 32.3127 7.6634 22.225
      vertex 32.8618 8.06239 22.225
    endloop
  endfacet
  facet normal 0 0 1
    outer loop
      vertex 0 38.1 22.225
      vertex 32.8618 8.06239 22.225
      vertex 33.4375 8.4221 22.225
    endloop
  endfacet
  facet normal 0 0 1
    outer loop
      vertex 0 38.1 22.225
      vertex 33.4375 8.4221 22.225
      vertex 34.0368 8.74077 22.225
    endloop
  endfacet
  facet normal 0 0 1
    outer loop
      vertex 0 38.1 22.225
      vertex 34.0368 8.74077 22.225
      vertex 34.657 9.01686 22.225
    endloop
  endfacet
  facet normal 0 0 1
    outer loop
      vertex 0 38.1 22.225
      vertex 34.657 9.01686 22.225
      vertex 35.2948 9.24902 22.225
    endloop
  endfacet
  facet normal 0 0 1
    outer loop
      vertex 0 38.1 22.225
      vertex 35.2948 9.24902 22.225
      vertex 35.9473 9.43613 22.225
    endloop
  endfacet
  facet normal 0 0 1
    outer loop
      vertex 0 38.1 22.225
      vertex 35.9473 9.43613 22.225
      vertex 57.55 38.1 22.225
    endloop
  endfacet
  facet normal 0 1 0
    outer loop
      vertex 0 38.1 22.225
      vertex 4.60861 38.1 18.4841
      vertex 3.308 38.1 18.7606
    endloop
  endfacet
  facet normal 0 1 0
    outer loop
      vertex 0 38.1 22.225
      vertex 5.88677 38.1 18.1176
      vertex 4.60861 38.1 18.4841
    endloop
  endfacet
  facet normal 0 1 0
    outer loop
      vertex 0 38.1 22.225
      vertex 57.55 38.1 22.225
      vertex 8.35097 38.1 17.122
    endloop
  endfacet
  facet normal 0 1 0
    outer loop
      vertex 0 38.1 22.225
      vertex 7.13626 38.1 17.6629
      vertex 5.88677 38.1 18.1176
    endloop
  endfacet
  facet normal 0 1 0
    outer loop
      vertex 0 38.1 22.225
      vertex 8.35097 38.1 17.122
      vertex 7.13626 38.1 17.6629
    endloop
  endfacet
  facet normal -0.0697914 0 0.997562
    outer loop
      vertex 0.664835 -38.1 -19.0384
      vertex 1.99127 -38.1 -18.9456
      vertex 0.664835 38.1 -19.0384
    endloop
  endfacet
  facet normal -0.0697914 0 -0.997562
    outer loop
      vertex 0.664835 -38.1 19.0384
      vertex 0.664835 38.1 19.0384
      vertex 1.99127 38.1 18.9456
    endloop
  endfacet
  facet normal -0.0697914 0 -0.997562
    outer loop
      vertex 0.664835 -38.1 19.0384
      vertex 1.99127 38.1 18.9456
      vertex 1.99127 -38.1 18.9456
    endloop
  endfacet
  facet normal -0.0697914 0 0.997562
    outer loop
      vertex 0.664835 38.1 -19.0384
      vertex 1.99127 -38.1 -18.9456
      vertex 1.99127 38.1 -18.9456
    endloop
  endfacet
  facet normal -0.139133 0 0.990274
    outer loop
      vertex 1.99127 -38.1 -18.9456
      vertex 3.308 -38.1 -18.7606
      vertex 1.99127 38.1 -18.9456
    endloop
  endfacet
  facet normal -0.139133 0 -0.990274
    outer loop
      vertex 1.99127 -38.1 18.9456
      vertex 1.99127 38.1 18.9456
      vertex 3.308 38.1 18.7606
    endloop
  endfacet
  facet normal -0.139133 0 -0.990274
    outer loop
      vertex 1.99127 -38.1 18.9456
      vertex 3.308 38.1 18.7606
      vertex 3.308 -38.1 18.7606
    endloop
  endfacet
  facet normal -0.139133 0 0.990274
    outer loop
      vertex 1.99127 38.1 -18.9456
      vertex 3.308 -38.1 -18.7606
      vertex 3.308 38.1 -18.7606
    endloop
  endfacet
  facet normal -0.587778 0 0.809022
    outer loop
      vertex 10.6526 -38.1 -15.7932
      vertex 11.7284 -38.1 -15.0116
      vertex 10.6526 38.1 -15.7932
    endloop
  endfacet
  facet normal 0 -1 0
    outer loop
      vertex 10.6526 -38.1 -15.7932
      vertex 57.55 -38.1 -22.225
      vertex 11.7284 -38.1 -15.0116
    endloop
  endfacet
  facet normal -0.587778 0 -0.809022
    outer loop
      vertex 10.6526 -38.1 15.7932
      vertex 10.6526 38.1 15.7932
      vertex 11.7284 38.1 15.0116
    endloop
  endfacet
  facet normal 0 -1 0
    outer loop
      vertex 10.6526 -38.1 15.7932
      vertex 11.7284 -38.1 15.0116
      vertex 57.55 -38.1 22.225
    endloop
  endfacet
  facet normal -0.587778 0 -0.809022
    outer loop
      vertex 10.6526 -38.1 15.7932
      vertex 11.7284 38.1 15.0116
      vertex 11.7284 -38.1 15.0116
    endloop
  endfacet
  facet normal -0.587778 0 0.809022
    outer loop
      vertex 10.6526 38.1 -15.7932
      vertex 11.7284 -38.1 -15.0116
      vertex 11.7284 38.1 -15.0116
    endloop
  endfacet
  facet normal 0 1 0
    outer loop
      vertex 10.6526 38.1 -15.7932
      vertex 11.7284 38.1 -15.0116
      vertex 57.55 38.1 -22.225
    endloop
  endfacet
  facet normal 0 1 0
    outer loop
      vertex 10.6526 38.1 15.7932
      vertex 57.55 38.1 22.225
      vertex 11.7284 38.1 15.0116
    endloop
  endfacet
  facet normal -0.642822 0 0.766016
    outer loop
      vertex 11.7284 -38.1 -15.0116
      vertex 12.7469 -38.1 -14.1569
      vertex 11.7284 38.1 -15.0116
    endloop
  endfacet
  facet normal 0 -1 0
    outer loop
      vertex 11.7284 -38.1 -15.0116
      vertex 57.55 -38.1 -22.225
      vertex 12.7469 -38.1 -14.1569
    endloop
  endfacet
  facet normal -0.642822 0 -0.766016
    outer loop
      vertex 11.7284 -38.1 15.0116
      vertex 11.7284 38.1 15.0116
      vertex 12.7469 38.1 14.1569
    endloop
  endfacet
  facet normal 0 -1 0
    outer loop
      vertex 11.7284 -38.1 15.0116
      vertex 12.7469 -38.1 14.1569
      vertex 57.55 -38.1 22.225
    endloop
  endfacet
  facet normal -0.642822 0 -0.766016
    outer loop
      vertex 11.7284 -38.1 15.0116
      vertex 12.7469 38.1 14.1569
      vertex 12.7469 -38.1 14.1569
    endloop
  endfacet
  facet normal -0.642822 0 0.766016
    outer loop
      vertex 11.7284 38.1 -15.0116
      vertex 12.7469 -38.1 -14.1569
      vertex 12.7469 38.1 -14.1569
    endloop
  endfacet
  facet normal 0 1 0
    outer loop
      vertex 11.7284 38.1 -15.0116
      vertex 12.7469 38.1 -14.1569
      vertex 57.55 38.1 -22.225
    endloop
  endfacet
  facet normal 0 1 0
    outer loop
      vertex 11.7284 38.1 15.0116
      vertex 57.55 38.1 22.225
      vertex 12.7469 38.1 14.1569
    endloop
  endfacet
  facet normal -0.694666 0 0.719333
    outer loop
      vertex 12.7469 -38.1 -14.1569
      vertex 13.7034 -38.1 -13.2332
      vertex 12.7469 38.1 -14.1569
    endloop
  endfacet
  facet normal 0 -1 0
    outer loop
      vertex 12.7469 -38.1 -14.1569
      vertex 57.55 -38.1 -22.225
      vertex 13.7034 -38.1 -13.2332
    endloop
  endfacet
  facet normal -0.694666 0 -0.719333
    outer loop
      vertex 12.7469 -38.1 14.1569
      vertex 12.7469 38.1 14.1569
      vertex 13.7034 38.1 13.2332
    endloop
  endfacet
  facet normal 0 -1 0
    outer loop
      vertex 12.7469 -38.1 14.1569
      vertex 13.7034 -38.1 13.2332
      vertex 57.55 -38.1 22.225
    endloop
  endfacet
  facet normal -0.694666 0 -0.719333
    outer loop
      vertex 12.7469 -38.1 14.1569
      vertex 13.7034 38.1 13.2332
      vertex 13.7034 -38.1 13.2332
    endloop
  endfacet
  facet normal -0.694666 0 0.719333
    outer loop
      vertex 12.7469 38.1 -14.1569
      vertex 13.7034 -38.1 -13.2332
      vertex 13.7034 38.1 -13.2332
    endloop
  endfacet
  facet normal 0 1 0
    outer loop
      vertex 12.7469 38.1 -14.1569
      vertex 13.7034 38.1 -13.2332
      vertex 57.55 38.1 -22.225
    endloop
  endfacet
  facet normal 0 1 0
    outer loop
      vertex 12.7469 38.1 14.1569
      vertex 57.55 38.1 22.225
      vertex 13.7034 38.1 13.2332
    endloop
  endfacet
  facet normal -0.743141 0 0.669135
    outer loop
      vertex 13.7034 -38.1 -13.2332
      vertex 14.5931 -38.1 -12.2451
      vertex 14.5931 38.1 -12.2451
    endloop
  endfacet
  facet normal -0.743141 0 0.669135
    outer loop
      vertex 13.7034 -38.1 -13.2332
      vertex 14.5931 38.1 -12.2451
      vertex 13.7034 38.1 -13.2332
    endloop
  endfacet
  facet normal 0 -1 0
    outer loop
      vertex 13.7034 -38.1 -13.2332
      vertex 57.55 -38.1 -22.225
      vertex 14.5931 -38.1 -12.2451
    endloop
  endfacet
  facet normal -0.743141 0 -0.669135
    outer loop
      vertex 13.7034 -38.1 13.2332
      vertex 13.7034 38.1 13.2332
      vertex 14.5931 -38.1 12.2451
    endloop
  endfacet
  facet normal 0 -1 0
    outer loop
      vertex 13.7034 -38.1 13.2332
      vertex 14.5931 -38.1 12.2451
      vertex 57.55 -38.1 22.225
    endloop
  endfacet
  facet normal 0 1 0
    outer loop
      vertex 13.7034 38.1 -13.2332
      vertex 14.5931 38.1 -12.2451
      vertex 57.55 38.1 -22.225
    endloop
  endfacet
  facet normal -0.743141 0 -0.669135
    outer loop
      vertex 13.7034 38.1 13.2332
      vertex 14.5931 38.1 12.2451
      vertex 14.5931 -38.1 12.2451
    endloop
  endfacet
  facet normal 0 1 0
    outer loop
      vertex 13.7034 38.1 13.2332
      vertex 57.55 38.1 22.225
      vertex 14.5931 38.1 12.2451
    endloop
  endfacet
  facet normal -0.787986 0 0.615694
    outer loop
      vertex 14.5931 -38.1 -12.2451
      vertex 15.4118 -38.1 -11.1973
      vertex 15.4118 38.1 -11.1973
    endloop
  endfacet
  facet normal -0.787986 0 0.615694
    outer loop
      vertex 14.5931 -38.1 -12.2451
      vertex 15.4118 38.1 -11.1973
      vertex 14.5931 38.1 -12.2451
    endloop
  endfacet
  facet normal 0 -1 0
    outer loop
      vertex 14.5931 -38.1 -12.2451
      vertex 57.55 -38.1 -22.225
      vertex 15.4118 -38.1 -11.1973
    endloop
  endfacet
  facet normal -0.787986 0 -0.615694
    outer loop
      vertex 14.5931 -38.1 12.2451
      vertex 14.5931 38.1 12.2451
      vertex 15.4118 -38.1 11.1973
    endloop
  endfacet
  facet normal 0 -1 0
    outer loop
      vertex 14.5931 -38.1 12.2451
      vertex 15.4118 -38.1 11.1973
      vertex 57.55 -38.1 22.225
    endloop
  endfacet
  facet normal 0 1 0
    outer loop
      vertex 14.5931 38.1 -12.2451
      vertex 15.4118 38.1 -11.1973
      vertex 57.55 38.1 -22.225
    endloop
  endfacet
  facet normal -0.787986 0 -0.615694
    outer loop
      vertex 14.5931 38.1 12.2451
      vertex 15.4118 38.1 11.1973
      vertex 15.4118 -38.1 11.1973
    endloop
  endfacet
  facet normal 0 1 0
    outer loop
      vertex 14.5931 38.1 12.2451
      vertex 57.55 38.1 22.225
      vertex 15.4118 38.1 11.1973
    endloop
  endfacet
  facet normal -0.829041 0 0.559187
    outer loop
      vertex 15.4118 -38.1 -11.1973
      vertex 16.1553 -38.1 -10.095
      vertex 16.1553 38.1 -10.095
    endloop
  endfacet
  facet normal -0.829041 0 0.559187
    outer loop
      vertex 15.4118 -38.1 -11.1973
      vertex 16.1553 38.1 -10.095
      vertex 15.4118 38.1 -11.1973
    endloop
  endfacet
  facet normal 0 -1 0
    outer loop
      vertex 15.4118 -38.1 -11.1973
      vertex 57.55 -38.1 -22.225
      vertex 16.1553 -38.1 -10.095
    endloop
  endfacet
  facet normal -0.829041 0 -0.559187
    outer loop
      vertex 15.4118 -38.1 11.1973
      vertex 15.4118 38.1 11.1973
      vertex 16.1553 -38.1 10.095
    endloop
  endfacet
  facet normal 0 -1 0
    outer loop
      vertex 15.4118 -38.1 11.1973
      vertex 16.1553 -38.1 10.095
      vertex 57.55 -38.1 22.225
    endloop
  endfacet
  facet normal 0 1 0
    outer loop
      vertex 15.4118 38.1 -11.1973
      vertex 16.1553 38.1 -10.095
      vertex 57.55 38.1 -22.225
    endloop
  endfacet
  facet normal -0.829041 0 -0.559187
    outer loop
      vertex 15.4118 38.1 11.1973
      vertex 16.1553 38.1 10.095
      vertex 16.1553 -38.1 10.095
    endloop
  endfacet
  facet normal 0 1 0
    outer loop
      vertex 15.4118 38.1 11.1973
      vertex 57.55 38.1 22.225
      vertex 16.1553 38.1 10.095
    endloop
  endfacet
  facet normal -0.866012 0 0.500023
    outer loop
      vertex 16.1553 -38.1 -10.095
      vertex 16.8202 -38.1 -8.94343
      vertex 16.8202 38.1 -8.94343
    endloop
  endfacet
  facet normal -0.866012 0 0.500023
    outer loop
      vertex 16.1553 -38.1 -10.095
      vertex 16.8202 38.1 -8.94343
      vertex 16.1553 38.1 -10.095
    endloop
  endfacet
  facet normal 0 -1 0
    outer loop
      vertex 16.1553 -38.1 -10.095
      vertex 57.55 -38.1 -22.225
      vertex 16.8202 -38.1 -8.94343
    endloop
  endfacet
  facet normal -0.866012 0 -0.500023
    outer loop
      vertex 16.1553 -38.1 10.095
      vertex 16.1553 38.1 10.095
      vertex 16.8202 -38.1 8.94343
    endloop
  endfacet
  facet normal 0 -1 0
    outer loop
      vertex 16.1553 -38.1 10.095
      vertex 16.8202 -38.1 8.94343
      vertex 57.55 -38.1 22.225
    endloop
  endfacet
  facet normal 0 1 0
    outer loop
      vertex 16.1553 38.1 -10.095
      vertex 16.8202 38.1 -8.94343
      vertex 57.55 38.1 -22.225
    endloop
  endfacet
  facet normal -0.866012 0 -0.500023
    outer loop
      vertex 16.1553 38.1 10.095
      vertex 16.8202 38.1 8.94343
      vertex 16.8202 -38.1 8.94343
    endloop
  endfacet
  facet normal 0 1 0
    outer loop
      vertex 16.1553 38.1 10.095
      vertex 57.55 38.1 22.225
      vertex 16.8202 38.1 8.94343
    endloop
  endfacet
  facet normal -0.89882 0 0.438317
    outer loop
      vertex 16.8202 -38.1 -8.94343
      vertex 17.403 -38.1 -7.74833
      vertex 17.403 38.1 -7.74833
    endloop
  endfacet
  facet normal -0.89882 0 0.438317
    outer loop
      vertex 16.8202 -38.1 -8.94343
      vertex 17.403 38.1 -7.74833
      vertex 16.8202 38.1 -8.94343
    endloop
  endfacet
  facet normal 0 -1 0
    outer loop
      vertex 16.8202 -38.1 -8.94343
      vertex 57.55 -38.1 -22.225
      vertex 17.403 -38.1 -7.74833
    endloop
  endfacet
  facet normal -0.89882 0 -0.438317
    outer loop
      vertex 16.8202 -38.1 8.94343
      vertex 16.8202 38.1 8.94343
      vertex 17.403 -38.1 7.74833
    endloop
  endfacet
  facet normal 0 -1 0
    outer loop
      vertex 16.8202 -38.1 8.94343
      vertex 17.403 -38.1 7.74833
      vertex 57.55 -38.1 22.225
    endloop
  endfacet
  facet normal 0 1 0
    outer loop
      vertex 16.8202 38.1 -8.94343
      vertex 17.403 38.1 -7.74833
      vertex 57.55 38.1 -22.225
    endloop
  endfacet
  facet normal -0.89882 0 -0.438317
    outer loop
      vertex 16.8202 38.1 8.94343
      vertex 17.403 38.1 7.74833
      vertex 17.403 -38.1 7.74833
    endloop
  endfacet
  facet normal 0 1 0
    outer loop
      vertex 16.8202 38.1 8.94343
      vertex 57.55 38.1 22.225
      vertex 17.403 38.1 7.74833
    endloop
  endfacet
  facet normal -0.927185 0 0.374604
    outer loop
      vertex 17.403 -38.1 -7.74833
      vertex 17.9011 -38.1 -6.51548
      vertex 17.9011 38.1 -6.51548
    endloop
  endfacet
  facet normal -0.927185 0 0.374604
    outer loop
      vertex 17.403 -38.1 -7.74833
      vertex 17.9011 38.1 -6.51548
      vertex 17.403 38.1 -7.74833
    endloop
  endfacet
  facet normal 0 -1 0
    outer loop
      vertex 17.403 -38.1 -7.74833
      vertex 57.55 -38.1 -22.225
      vertex 17.9011 -38.1 -6.51548
    endloop
  endfacet
  facet normal -0.927185 0 -0.374604
    outer loop
      vertex 17.403 -38.1 7.74833
      vertex 17.403 38.1 7.74833
      vertex 17.9011 -38.1 6.51548
    endloop
  endfacet
  facet normal 0 -1 0
    outer loop
      vertex 17.403 -38.1 7.74833
      vertex 17.9011 -38.1 6.51548
      vertex 57.55 -38.1 22.225
    endloop
  endfacet
  facet normal 0 1 0
    outer loop
      vertex 17.403 38.1 -7.74833
      vertex 17.9011 38.1 -6.51548
      vertex 57.55 38.1 -22.225
    endloop
  endfacet
  facet normal -0.927185 0 -0.374604
    outer loop
      vertex 17.403 38.1 7.74833
      vertex 17.9011 38.1 6.51548
      vertex 17.9011 -38.1 6.51548
    endloop
  endfacet
  facet normal 0 1 0
    outer loop
      vertex 17.403 38.1 7.74833
      vertex 57.55 38.1 22.225
      vertex 17.9011 38.1 6.51548
    endloop
  endfacet
  facet normal -0.951054 0 0.309024
    outer loop
      vertex 17.9011 -38.1 -6.51548
      vertex 18.312 -38.1 -5.25089
      vertex 18.312 38.1 -5.25089
    endloop
  endfacet
  facet normal -0.951054 0 0.309024
    outer loop
      vertex 17.9011 -38.1 -6.51548
      vertex 18.312 38.1 -5.25089
      vertex 17.9011 38.1 -6.51548
    endloop
  endfacet
  facet normal 0 -1 0
    outer loop
      vertex 17.9011 -38.1 -6.51548
      vertex 57.55 -38.1 -22.225
      vertex 18.312 -38.1 -5.25089
    endloop
  endfacet
  facet normal -0.951054 0 -0.309024
    outer loop
      vertex 17.9011 -38.1 6.51548
      vertex 17.9011 38.1 6.51548
      vertex 18.312 -38.1 5.25089
    endloop
  endfacet
  facet normal 0 -1 0
    outer loop
      vertex 17.9011 -38.1 6.51548
      vertex 18.312 -38.1 5.25089
      vertex 57.55 -38.1 22.225
    endloop
  endfacet
  facet normal 0 1 0
    outer loop
      vertex 17.9011 38.1 -6.51548
      vertex 18.312 38.1 -5.25089
      vertex 57.55 38.1 -22.225
    endloop
  endfacet
  facet normal -0.951054 0 -0.309024
    outer loop
      vertex 17.9011 38.1 6.51548
      vertex 18.312 38.1 5.25089
      vertex 18.312 -38.1 5.25089
    endloop
  endfacet
  facet normal 0 1 0
    outer loop
      vertex 17.9011 38.1 6.51548
      vertex 57.55 38.1 22.225
      vertex 18.312 38.1 5.25089
    endloop
  endfacet
  facet normal -0.970291 0 0.241939
    outer loop
      vertex 18.312 -38.1 -5.25089
      vertex 18.6337 -38.1 -3.96072
      vertex 18.6337 38.1 -3.96072
    endloop
  endfacet
  facet normal -0.970291 0 0.241939
    outer loop
      vertex 18.312 -38.1 -5.25089
      vertex 18.6337 38.1 -3.96072
      vertex 18.312 38.1 -5.25089
    endloop
  endfacet
  facet normal 0 -1 0
    outer loop
      vertex 18.312 -38.1 -5.25089
      vertex 57.55 -38.1 -22.225
      vertex 18.6337 -38.1 -3.96072
    endloop
  endfacet
  facet normal -0.970291 0 -0.241939
    outer loop
      vertex 18.312 -38.1 5.25089
      vertex 18.312 38.1 5.25089
      vertex 18.6337 -38.1 3.96072
    endloop
  endfacet
  facet normal 0 -1 0
    outer loop
      vertex 18.312 -38.1 5.25089
      vertex 18.6337 -38.1 3.96072
      vertex 57.55 -38.1 22.225
    endloop
  endfacet
  facet normal 0 1 0
    outer loop
      vertex 18.312 38.1 -5.25089
      vertex 18.6337 38.1 -3.96072
      vertex 57.55 38.1 -22.225
    endloop
  endfacet
  facet normal -0.970291 0 -0.241939
    outer loop
      vertex 18.312 38.1 5.25089
      vertex 18.6337 38.1 3.96072
      vertex 18.6337 -38.1 3.96072
    endloop
  endfacet
  facet normal 0 1 0
    outer loop
      vertex 18.312 38.1 5.25089
      vertex 57.55 38.1 22.225
      vertex 18.6337 38.1 3.96072
    endloop
  endfacet
  facet normal -0.984807 0 0.173652
    outer loop
      vertex 18.6337 -38.1 -3.96072
      vertex 18.8646 -38.1 -2.65125
      vertex 18.8646 38.1 -2.65125
    endloop
  endfacet
  facet normal -0.984807 0 0.173652
    outer loop
      vertex 18.6337 -38.1 -3.96072
      vertex 18.8646 38.1 -2.65125
      vertex 18.6337 38.1 -3.96072
    endloop
  endfacet
  facet normal 0 -1 0
    outer loop
      vertex 18.6337 -38.1 -3.96072
      vertex 57.55 -38.1 -22.225
      vertex 18.8646 -38.1 -2.65125
    endloop
  endfacet
  facet normal -0.984807 0 -0.173652
    outer loop
      vertex 18.6337 -38.1 3.96072
      vertex 18.6337 38.1 3.96072
      vertex 18.8646 -38.1 2.65125
    endloop
  endfacet
  facet normal 0 -1 0
    outer loop
      vertex 18.6337 -38.1 3.96072
      vertex 18.8646 -38.1 2.65125
      vertex 57.55 -38.1 22.225
    endloop
  endfacet
  facet normal 0 1 0
    outer loop
      vertex 18.6337 38.1 -3.96072
      vertex 18.8646 38.1 -2.65125
      vertex 57.55 38.1 -22.225
    endloop
  endfacet
  facet normal -0.984807 0 -0.173652
    outer loop
      vertex 18.6337 38.1 3.96072
      vertex 18.8646 38.1 2.65125
      vertex 18.8646 -38.1 2.65125
    endloop
  endfacet
  facet normal 0 1 0
    outer loop
      vertex 18.6337 38.1 3.96072
      vertex 57.55 38.1 22.225
      vertex 18.8646 38.1 2.65125
    endloop
  endfacet
  facet normal -0.994521 0 0.104537
    outer loop
      vertex 18.8646 -38.1 -2.65125
      vertex 19.0036 -38.1 -1.32886
      vertex 19.0036 38.1 -1.32886
    endloop
  endfacet
  facet normal -0.994521 0 0.104537
    outer loop
      vertex 18.8646 -38.1 -2.65125
      vertex 19.0036 38.1 -1.32886
      vertex 18.8646 38.1 -2.65125
    endloop
  endfacet
  facet normal 0 -1 0
    outer loop
      vertex 18.8646 -38.1 -2.65125
      vertex 57.55 -38.1 -22.225
      vertex 19.0036 -38.1 -1.32886
    endloop
  endfacet
  facet normal -0.994521 0 -0.104537
    outer loop
      vertex 18.8646 -38.1 2.65125
      vertex 18.8646 38.1 2.65125
      vertex 19.0036 -38.1 1.32886
    endloop
  endfacet
  facet normal 0 -1 0
    outer loop
      vertex 18.8646 -38.1 2.65125
      vertex 19.0036 -38.1 1.32886
      vertex 57.55 -38.1 22.225
    endloop
  endfacet
  facet normal 0 1 0
    outer loop
      vertex 18.8646 38.1 -2.65125
      vertex 19.0036 38.1 -1.32886
      vertex 57.55 38.1 -22.225
    endloop
  endfacet
  facet normal -0.994521 0 -0.104537
    outer loop
      vertex 18.8646 38.1 2.65125
      vertex 19.0036 38.1 1.32886
      vertex 19.0036 -38.1 1.32886
    endloop
  endfacet
  facet normal 0 1 0
    outer loop
      vertex 18.8646 38.1 2.65125
      vertex 57.55 38.1 22.225
      vertex 19.0036 38.1 1.32886
    endloop
  endfacet
  facet normal -0.999391 0 0.0348959
    outer loop
      vertex 19.0036 -38.1 -1.32886
      vertex 19.05 -38.1 0
      vertex 19.05 38.1 0
    endloop
  endfacet
  facet normal -0.999391 0 0.0348959
    outer loop
      vertex 19.0036 -38.1 -1.32886
      vertex 19.05 38.1 0
      vertex 19.0036 38.1 -1.32886
    endloop
  endfacet
  facet normal 0 -1 0
    outer loop
      vertex 19.0036 -38.1 -1.32886
      vertex 57.55 -38.1 -22.225
      vertex 19.05 -38.1 0
    endloop
  endfacet
  facet normal -0.999391 0 -0.0348959
    outer loop
      vertex 19.0036 -38.1 1.32886
      vertex 19.0036 38.1 1.32886
      vertex 19.05 -38.1 0
    endloop
  endfacet
  facet normal 0 -1 0
    outer loop
      vertex 19.0036 -38.1 1.32886
      vertex 19.05 -38.1 0
      vertex 57.55 -38.1 22.225
    endloop
  endfacet
  facet normal 0 1 0
    outer loop
      vertex 19.0036 38.1 -1.32886
      vertex 19.05 38.1 0
      vertex 57.55 38.1 -22.225
    endloop
  endfacet
  facet normal -0.999391 0 -0.0348959
    outer loop
      vertex 19.0036 38.1 1.32886
      vertex 19.05 38.1 0
      vertex 19.05 -38.1 0
    endloop
  endfacet
  facet normal 0 1 0
    outer loop
      vertex 19.0036 38.1 1.32886
      vertex 57.55 38.1 22.225
      vertex 19.05 38.1 0
    endloop
  endfacet
  facet normal 0 -1 0
    outer loop
      vertex 19.05 -38.1 0
      vertex 57.55 -38.1 -22.225
      vertex 57.55 -38.1 22.225
    endloop
  endfacet
  facet normal 0 1 0
    outer loop
      vertex 19.05 38.1 0
      vertex 57.55 38.1 22.225
      vertex 57.55 38.1 -22.225
    endloop
  endfacet
  facet normal 0.99939 0.0349148 0
    outer loop
      vertex 28.575 0 -22.225
      vertex 28.575 0 22.225
      vertex 28.5987 -0.678381 22.225
    endloop
  endfacet
  facet normal 0.99939 0.0349148 0
    outer loop
      vertex 28.575 0 -22.225
      vertex 28.5987 -0.678381 22.225
      vertex 28.5987 -0.678381 -22.225
    endloop
  endfacet
  facet normal 0.99939 -0.0349148 0
    outer loop
      vertex 28.575 0 -22.225
      vertex 28.5987 0.678381 -22.225
      vertex 28.575 0 22.225
    endloop
  endfacet
  facet normal 0.99939 -0.0349148 0
    outer loop
      vertex 28.575 0 22.225
      vertex 28.5987 0.678381 -22.225
      vertex 28.5987 0.678381 22.225
    endloop
  endfacet
  facet normal 0.99453 0.10445 0
    outer loop
      vertex 28.5987 -0.678381 -22.225
      vertex 28.5987 -0.678381 22.225
      vertex 28.6696 -1.35346 22.225
    endloop
  endfacet
  facet normal 0.99453 0.10445 0
    outer loop
      vertex 28.5987 -0.678381 -22.225
      vertex 28.6696 -1.35346 22.225
      vertex 28.6696 -1.35346 -22.225
    endloop
  endfacet
  facet normal 0.99453 -0.10445 0
    outer loop
      vertex 28.5987 0.678381 -22.225
      vertex 28.6696 1.35346 -22.225
      vertex 28.5987 0.678381 22.225
    endloop
  endfacet
  facet normal 0.99453 -0.10445 0
    outer loop
      vertex 28.5987 0.678381 22.225
      vertex 28.6696 1.35346 -22.225
      vertex 28.6696 1.35346 22.225
    endloop
  endfacet
  facet normal 0.9848 0.17369 0
    outer loop
      vertex 28.6696 -1.35346 -22.225
      vertex 28.6696 -1.35346 22.225
      vertex 28.7875 -2.02194 22.225
    endloop
  endfacet
  facet normal 0.9848 0.17369 0
    outer loop
      vertex 28.6696 -1.35346 -22.225
      vertex 28.7875 -2.02194 22.225
      vertex 28.7875 -2.02194 -22.225
    endloop
  endfacet
  facet normal 0.9848 -0.17369 0
    outer loop
      vertex 28.6696 1.35346 -22.225
      vertex 28.7875 2.02194 -22.225
      vertex 28.6696 1.35346 22.225
    endloop
  endfacet
  facet normal 0.9848 -0.17369 0
    outer loop
      vertex 28.6696 1.35346 22.225
      vertex 28.7875 2.02194 -22.225
      vertex 28.7875 2.02194 22.225
    endloop
  endfacet
  facet normal 0.970301 0.241901 0
    outer loop
      vertex 28.7875 -2.02194 -22.225
      vertex 28.7875 -2.02194 22.225
      vertex 28.9517 -2.68057 22.225
    endloop
  endfacet
  facet normal 0.970301 0.241901 0
    outer loop
      vertex 28.7875 -2.02194 -22.225
      vertex 28.9517 -2.68057 22.225
      vertex 28.9517 -2.68057 -22.225
    endloop
  endfacet
  facet normal 0.970301 -0.241901 0
    outer loop
      vertex 28.7875 2.02194 -22.225
      vertex 28.9517 2.68057 -22.225
      vertex 28.7875 2.02194 22.225
    endloop
  endfacet
  facet normal 0.970301 -0.241901 0
    outer loop
      vertex 28.7875 2.02194 22.225
      vertex 28.9517 2.68057 -22.225
      vertex 28.9517 2.68057 22.225
    endloop
  endfacet
  facet normal 0.95104 0.309068 0
    outer loop
      vertex 28.9517 -2.68057 -22.225
      vertex 28.9517 -2.68057 22.225
      vertex 29.1615 -3.32615 22.225
    endloop
  endfacet
  facet normal 0.95104 0.309068 0
    outer loop
      vertex 28.9517 -2.68057 -22.225
      vertex 29.1615 -3.32615 22.225
      vertex 29.1615 -3.32615 -22.225
    endloop
  endfacet
  facet normal 0.95104 -0.309068 0
    outer loop
      vertex 28.9517 2.68057 -22.225
      vertex 29.1615 3.32615 -22.225
      vertex 28.9517 2.68057 22.225
    endloop
  endfacet
  facet normal 0.95104 -0.309068 0
    outer loop
      vertex 28.9517 2.68057 22.225
      vertex 29.1615 3.32615 -22.225
      vertex 29.1615 3.32615 22.225
    endloop
  endfacet
  facet normal 0.927173 0.374635 0
    outer loop
      vertex 29.1615 -3.32615 -22.225
      vertex 29.1615 -3.32615 22.225
      vertex 29.4158 -3.95551 22.225
    endloop
  endfacet
  facet normal 0.927173 0.374635 0
    outer loop
      vertex 29.1615 -3.32615 -22.225
      vertex 29.4158 -3.95551 22.225
      vertex 29.4158 -3.95551 -22.225
    endloop
  endfacet
  facet normal 0.927173 -0.374635 0
    outer loop
      vertex 29.1615 3.32615 -22.225
      vertex 29.4158 3.95551 -22.225
      vertex 29.1615 3.32615 22.225
    endloop
  endfacet
  facet normal 0.927173 -0.374635 0
    outer loop
      vertex 29.1615 3.32615 22.225
      vertex 29.4158 3.95551 -22.225
      vertex 29.4158 3.95551 22.225
    endloop
  endfacet
  facet normal 0.898832 0.438293 0
    outer loop
      vertex 29.4158 -3.95551 -22.225
      vertex 29.4158 -3.95551 22.225
      vertex 29.7133 -4.56561 22.225
    endloop
  endfacet
  facet normal 0.898832 0.438293 0
    outer loop
      vertex 29.4158 -3.95551 -22.225
      vertex 29.7133 -4.56561 22.225
      vertex 29.7133 -4.56561 -22.225
    endloop
  endfacet
  facet normal 0.898832 -0.438293 0
    outer loop
      vertex 29.4158 3.95551 -22.225
      vertex 29.7133 4.56561 -22.225
      vertex 29.4158 3.95551 22.225
    endloop
  endfacet
  facet normal 0.898832 -0.438293 0
    outer loop
      vertex 29.4158 3.95551 22.225
      vertex 29.7133 4.56561 -22.225
      vertex 29.7133 4.56561 22.225
    endloop
  endfacet
  facet normal 0.866022 0.500005 0
    outer loop
      vertex 29.7133 -4.56561 -22.225
      vertex 29.7133 -4.56561 22.225
      vertex 30.0527 -5.15346 22.225
    endloop
  endfacet
  facet normal 0.866022 0.500005 0
    outer loop
      vertex 29.7133 -4.56561 -22.225
      vertex 30.0527 -5.15346 22.225
      vertex 30.0527 -5.15346 -22.225
    endloop
  endfacet
  facet normal 0.866022 -0.500005 0
    outer loop
      vertex 29.7133 4.56561 -22.225
      vertex 30.0527 5.15346 -22.225
      vertex 29.7133 4.56561 22.225
    endloop
  endfacet
  facet normal 0.866022 -0.500005 0
    outer loop
      vertex 29.7133 4.56561 22.225
      vertex 30.0527 5.15346 -22.225
      vertex 30.0527 5.15346 22.225
    endloop
  endfacet
  facet normal -0.207945 0 0.97814
    outer loop
      vertex 3.308 -38.1 -18.7606
      vertex 4.60861 -38.1 -18.4841
      vertex 3.308 38.1 -18.7606
    endloop
  endfacet
  facet normal -0.207945 0 -0.97814
    outer loop
      vertex 3.308 -38.1 18.7606
      vertex 3.308 38.1 18.7606
      vertex 4.60861 38.1 18.4841
    endloop
  endfacet
  facet normal -0.207945 0 -0.97814
    outer loop
      vertex 3.308 -38.1 18.7606
      vertex 4.60861 38.1 18.4841
      vertex 4.60861 -38.1 18.4841
    endloop
  endfacet
  facet normal -0.207945 0 0.97814
    outer loop
      vertex 3.308 38.1 -18.7606
      vertex 4.60861 -38.1 -18.4841
      vertex 4.60861 38.1 -18.4841
    endloop
  endfacet
  facet normal 0.829024 0.559213 0
    outer loop
      vertex 30.0527 -5.15346 -22.225
      vertex 30.0527 -5.15346 22.225
      vertex 30.4323 -5.71621 22.225
    endloop
  endfacet
  facet normal 0.829024 0.559213 0
    outer loop
      vertex 30.0527 -5.15346 -22.225
      vertex 30.4323 -5.71621 22.225
      vertex 30.4323 -5.71621 -22.225
    endloop
  endfacet
  facet normal 0.829024 -0.559213 0
    outer loop
      vertex 30.0527 5.15346 -22.225
      vertex 30.4323 5.71621 -22.225
      vertex 30.0527 5.15346 22.225
    endloop
  endfacet
  facet normal 0.829024 -0.559213 0
    outer loop
      vertex 30.0527 5.15346 22.225
      vertex 30.4323 5.71621 -22.225
      vertex 30.4323 5.71621 22.225
    endloop
  endfacet
  facet normal 0.788018 0.615653 0
    outer loop
      vertex 30.4323 -5.71621 -22.225
      vertex 30.4323 -5.71621 22.225
      vertex 30.8502 -6.25111 22.225
    endloop
  endfacet
  facet normal 0.788018 0.615653 0
    outer loop
      vertex 30.4323 -5.71621 -22.225
      vertex 30.8502 -6.25111 22.225
      vertex 30.8502 -6.25111 -22.225
    endloop
  endfacet
  facet normal 0.788018 -0.615653 0
    outer loop
      vertex 30.4323 5.71621 -22.225
      vertex 30.8502 6.25111 -22.225
      vertex 30.4323 5.71621 22.225
    endloop
  endfacet
  facet normal 0.788018 -0.615653 0
    outer loop
      vertex 30.4323 5.71621 22.225
      vertex 30.8502 6.25111 -22.225
      vertex 30.8502 6.25111 22.225
    endloop
  endfacet
  facet normal 0.743145 0.669131 0
    outer loop
      vertex 30.8502 -6.25111 -22.225
      vertex 30.8502 -6.25111 22.225
      vertex 31.3044 -6.75555 22.225
    endloop
  endfacet
  facet normal 0.743145 0.669131 0
    outer loop
      vertex 30.8502 -6.25111 -22.225
      vertex 31.3044 -6.75555 22.225
      vertex 31.3044 -6.75555 -22.225
    endloop
  endfacet
  facet normal 0.743145 -0.669131 0
    outer loop
      vertex 30.8502 6.25111 -22.225
      vertex 31.3044 6.75555 -22.225
      vertex 30.8502 6.25111 22.225
    endloop
  endfacet
  facet normal 0.743145 -0.669131 0
    outer loop
      vertex 30.8502 6.25111 22.225
      vertex 31.3044 6.75555 -22.225
      vertex 31.3044 6.75555 22.225
    endloop
  endfacet
  facet normal 0.694646 0.719351 0
    outer loop
      vertex 31.3044 -6.75555 -22.225
      vertex 31.3044 -6.75555 22.225
      vertex 31.7927 -7.22708 -22.225
    endloop
  endfacet
  facet normal 0.694646 0.719351 0
    outer loop
      vertex 31.3044 -6.75555 22.225
      vertex 31.7927 -7.22708 22.225
      vertex 31.7927 -7.22708 -22.225
    endloop
  endfacet
  facet normal 0.694646 -0.719351 0
    outer loop
      vertex 31.3044 6.75555 -22.225
      vertex 31.7927 7.22708 -22.225
      vertex 31.7927 7.22708 22.225
    endloop
  endfacet
  facet normal 0.694646 -0.719351 0
    outer loop
      vertex 31.3044 6.75555 -22.225
      vertex 31.7927 7.22708 22.225
      vertex 31.3044 6.75555 22.225
    endloop
  endfacet
  facet normal 0.642777 0.766053 0
    outer loop
      vertex 31.7927 -7.22708 -22.225
      vertex 31.7927 -7.22708 22.225
      vertex 32.3127 -7.6634 -22.225
    endloop
  endfacet
  facet normal 0.642777 0.766053 0
    outer loop
      vertex 31.7927 -7.22708 22.225
      vertex 32.3127 -7.6634 22.225
      vertex 32.3127 -7.6634 -22.225
    endloop
  endfacet
  facet normal 0.642777 -0.766053 0
    outer loop
      vertex 31.7927 7.22708 -22.225
      vertex 32.3127 7.6634 -22.225
      vertex 32.3127 7.6634 22.225
    endloop
  endfacet
  facet normal 0.642777 -0.766053 0
    outer loop
      vertex 31.7927 7.22708 -22.225
      vertex 32.3127 7.6634 22.225
      vertex 31.7927 7.22708 22.225
    endloop
  endfacet
  facet normal 0.587829 0.808985 0
    outer loop
      vertex 32.3127 -7.6634 -22.225
      vertex 32.3127 -7.6634 22.225
      vertex 32.8618 -8.06239 -22.225
    endloop
  endfacet
  facet normal 0.587829 0.808985 0
    outer loop
      vertex 32.3127 -7.6634 22.225
      vertex 32.8618 -8.06239 22.225
      vertex 32.8618 -8.06239 -22.225
    endloop
  endfacet
  facet normal 0.587829 -0.808985 0
    outer loop
      vertex 32.3127 7.6634 -22.225
      vertex 32.8618 8.06239 -22.225
      vertex 32.8618 8.06239 22.225
    endloop
  endfacet
  facet normal 0.587829 -0.808985 0
    outer loop
      vertex 32.3127 7.6634 -22.225
      vertex 32.8618 8.06239 22.225
      vertex 32.3127 7.6634 22.225
    endloop
  endfacet
  facet normal 0.52989 0.848066 0
    outer loop
      vertex 32.8618 -8.06239 -22.225
      vertex 32.8618 -8.06239 22.225
      vertex 33.4375 -8.4221 -22.225
    endloop
  endfacet
  facet normal 0.52989 0.848066 0
    outer loop
      vertex 32.8618 -8.06239 22.225
      vertex 33.4375 -8.4221 22.225
      vertex 33.4375 -8.4221 -22.225
    endloop
  endfacet
  facet normal 0.52989 -0.848066 0
    outer loop
      vertex 32.8618 8.06239 -22.225
      vertex 33.4375 8.4221 -22.225
      vertex 33.4375 8.4221 22.225
    endloop
  endfacet
  facet normal 0.52989 -0.848066 0
    outer loop
      vertex 32.8618 8.06239 -22.225
      vertex 33.4375 8.4221 22.225
      vertex 32.8618 8.06239 22.225
    endloop
  endfacet
  facet normal 0.469491 0.882937 0
    outer loop
      vertex 33.4375 -8.4221 -22.225
      vertex 33.4375 -8.4221 22.225
      vertex 34.0368 -8.74077 -22.225
    endloop
  endfacet
  facet normal 0.469491 0.882937 0
    outer loop
      vertex 33.4375 -8.4221 22.225
      vertex 34.0368 -8.74077 22.225
      vertex 34.0368 -8.74077 -22.225
    endloop
  endfacet
  facet normal 0.469491 -0.882937 0
    outer loop
      vertex 33.4375 8.4221 -22.225
      vertex 34.0368 8.74077 -22.225
      vertex 34.0368 8.74077 22.225
    endloop
  endfacet
  facet normal 0.469491 -0.882937 0
    outer loop
      vertex 33.4375 8.4221 -22.225
      vertex 34.0368 8.74077 22.225
      vertex 33.4375 8.4221 22.225
    endloop
  endfacet
  facet normal 0.406686 0.913568 0
    outer loop
      vertex 34.0368 -8.74077 -22.225
      vertex 34.0368 -8.74077 22.225
      vertex 34.657 -9.01686 -22.225
    endloop
  endfacet
  facet normal 0.406686 0.913568 0
    outer loop
      vertex 34.0368 -8.74077 22.225
      vertex 34.657 -9.01686 22.225
      vertex 34.657 -9.01686 -22.225
    endloop
  endfacet
  facet normal 0.406686 -0.913568 0
    outer loop
      vertex 34.0368 8.74077 -22.225
      vertex 34.657 9.01686 -22.225
      vertex 34.657 9.01686 22.225
    endloop
  endfacet
  facet normal 0.406686 -0.913568 0
    outer loop
      vertex 34.0368 8.74077 -22.225
      vertex 34.657 9.01686 22.225
      vertex 34.0368 8.74077 22.225
    endloop
  endfacet
  facet normal 0.342046 0.939683 0
    outer loop
      vertex 34.657 -9.01686 -22.225
      vertex 34.657 -9.01686 22.225
      vertex 35.2948 -9.24902 -22.225
    endloop
  endfacet
  facet normal 0.342046 0.939683 0
    outer loop
      vertex 34.657 -9.01686 22.225
      vertex 35.2948 -9.24902 22.225
      vertex 35.2948 -9.24902 -22.225
    endloop
  endfacet
  facet normal 0.342046 -0.939683 0
    outer loop
      vertex 34.657 9.01686 -22.225
      vertex 35.2948 9.24902 -22.225
      vertex 35.2948 9.24902 22.225
    endloop
  endfacet
  facet normal 0.342046 -0.939683 0
    outer loop
      vertex 34.657 9.01686 -22.225
      vertex 35.2948 9.24902 22.225
      vertex 34.657 9.01686 22.225
    endloop
  endfacet
  facet normal 0.275649 0.961258 0
    outer loop
      vertex 35.2948 -9.24902 -22.225
      vertex 35.2948 -9.24902 22.225
      vertex 35.9473 -9.43613 -22.225
    endloop
  endfacet
  facet normal 0.275649 0.961258 0
    outer loop
      vertex 35.2948 -9.24902 22.225
      vertex 35.9473 -9.43613 22.225
      vertex 35.9473 -9.43613 -22.225
    endloop
  endfacet
  facet normal 0.275649 -0.961258 0
    outer loop
      vertex 35.2948 9.24902 -22.225
      vertex 35.9473 9.43613 -22.225
      vertex 35.9473 9.43613 22.225
    endloop
  endfacet
  facet normal 0.275649 -0.961258 0
    outer loop
      vertex 35.2948 9.24902 -22.225
      vertex 35.9473 9.43613 22.225
      vertex 35.2948 9.24902 22.225
    endloop
  endfacet
  facet normal 0.207901 0.97815 0
    outer loop
      vertex 35.9473 -9.43613 -22.225
      vertex 35.9473 -9.43613 22.225
      vertex 36.6113 -9.57726 -22.225
    endloop
  endfacet
  facet normal 0 0 -1
    outer loop
      vertex 35.9473 -9.43613 -22.225
      vertex 36.6113 -9.57726 -22.225
      vertex 57.55 -38.1 -22.225
    endloop
  endfacet
  facet normal 0.207901 0.97815 0
    outer loop
      vertex 35.9473 -9.43613 22.225
      vertex 36.6113 -9.57726 22.225
      vertex 36.6113 -9.57726 -22.225
    endloop
  endfacet
  facet normal 0 0 1
    outer loop
      vertex 35.9473 -9.43613 22.225
      vertex 57.55 -38.1 22.225
      vertex 36.6113 -9.57726 22.225
    endloop
  endfacet
  facet normal 0.207901 -0.97815 0
    outer loop
      vertex 35.9473 9.43613 -22.225
      vertex 36.6113 9.57726 -22.225
      vertex 36.6113 9.57726 22.225
    endloop
  endfacet
  facet normal 0.207901 -0.97815 0
    outer loop
      vertex 35.9473 9.43613 -22.225
      vertex 36.6113 9.57726 22.225
      vertex 35.9473 9.43613 22.225
    endloop
  endfacet
  facet normal 0 0 -1
    outer loop
      vertex 35.9473 9.43613 -22.225
      vertex 57.55 38.1 -22.225
      vertex 36.6113 9.57726 -22.225
    endloop
  endfacet
  facet normal 0 0 1
    outer loop
      vertex 35.9473 9.43613 22.225
      vertex 36.6113 9.57726 22.225
      vertex 57.55 38.1 22.225
    endloop
  endfacet
  facet normal 0.139171 0.990268 0
    outer loop
      vertex 36.6113 -9.57726 -22.225
      vertex 36.6113 -9.57726 22.225
      vertex 37.2835 -9.67173 -22.225
    endloop
  endfacet
  facet normal 0 0 -1
    outer loop
      vertex 36.6113 -9.57726 -22.225
      vertex 37.2835 -9.67173 -22.225
      vertex 57.55 -38.1 -22.225
    endloop
  endfacet
  facet normal 0.139171 0.990268 0
    outer loop
      vertex 36.6113 -9.57726 22.225
      vertex 37.2835 -9.67173 22.225
      vertex 37.2835 -9.67173 -22.225
    endloop
  endfacet
  facet normal 0 0 1
    outer loop
      vertex 36.6113 -9.57726 22.225
      vertex 57.55 -38.1 22.225
      vertex 37.2835 -9.67173 22.225
    endloop
  endfacet
  facet normal 0.139171 -0.990268 0
    outer loop
      vertex 36.6113 9.57726 -22.225
      vertex 37.2835 9.67173 -22.225
      vertex 37.2835 9.67173 22.225
    endloop
  endfacet
  facet normal 0.139171 -0.990268 0
    outer loop
      vertex 36.6113 9.57726 -22.225
      vertex 37.2835 9.67173 22.225
      vertex 36.6113 9.57726 22.225
    endloop
  endfacet
  facet normal 0 0 -1
    outer loop
      vertex 36.6113 9.57726 -22.225
      vertex 57.55 38.1 -22.225
      vertex 37.2835 9.67173 -22.225
    endloop
  endfacet
  facet normal 0 0 1
    outer loop
      vertex 36.6113 9.57726 22.225
      vertex 37.2835 9.67173 22.225
      vertex 57.55 38.1 22.225
    endloop
  endfacet
  facet normal 0.0697602 0.997564 0
    outer loop
      vertex 37.2835 -9.67173 -22.225
      vertex 37.2835 -9.67173 22.225
      vertex 37.9606 -9.71908 -22.225
    endloop
  endfacet
  facet normal 0 0 -1
    outer loop
      vertex 37.2835 -9.67173 -22.225
      vertex 37.9606 -9.71908 -22.225
      vertex 57.55 -38.1 -22.225
    endloop
  endfacet
  facet normal 0.0697602 0.997564 0
    outer loop
      vertex 37.2835 -9.67173 22.225
      vertex 37.9606 -9.71908 22.225
      vertex 37.9606 -9.71908 -22.225
    endloop
  endfacet
  facet normal 0 0 1
    outer loop
      vertex 37.2835 -9.67173 22.225
      vertex 57.55 -38.1 22.225
      vertex 37.9606 -9.71908 22.225
    endloop
  endfacet
  facet normal 0.0697602 -0.997564 0
    outer loop
      vertex 37.2835 9.67173 -22.225
      vertex 37.9606 9.71908 -22.225
      vertex 37.9606 9.71908 22.225
    endloop
  endfacet
  facet normal 0.0697602 -0.997564 0
    outer loop
      vertex 37.2835 9.67173 -22.225
      vertex 37.9606 9.71908 22.225
      vertex 37.2835 9.67173 22.225
    endloop
  endfacet
  facet normal 0 0 -1
    outer loop
      vertex 37.2835 9.67173 -22.225
      vertex 57.55 38.1 -22.225
      vertex 37.9606 9.71908 -22.225
    endloop
  endfacet
  facet normal 0 0 1
    outer loop
      vertex 37.2835 9.67173 22.225
      vertex 37.9606 9.71908 22.225
      vertex 57.55 38.1 22.225
    endloop
  endfacet
  facet normal 0 1 0
    outer loop
      vertex 37.9606 -9.71908 -22.225
      vertex 37.9606 -9.71908 22.225
      vertex 38.6394 -9.71908 -22.225
    endloop
  endfacet
  facet normal 0 0 -1
    outer loop
      vertex 37.9606 -9.71908 -22.225
      vertex 38.6394 -9.71908 -22.225
      vertex 57.55 -38.1 -22.225
    endloop
  endfacet
  facet normal 0 1 0
    outer loop
      vertex 37.9606 -9.71908 22.225
      vertex 38.6394 -9.71908 22.225
      vertex 38.6394 -9.71908 -22.225
    endloop
  endfacet
  facet normal 0 0 1
    outer loop
      vertex 37.9606 -9.71908 22.225
      vertex 57.55 -38.1 22.225
      vertex 38.6394 -9.71908 22.225
    endloop
  endfacet
  facet normal 0 -1 0
    outer loop
      vertex 37.9606 9.71908 -22.225
      vertex 38.6394 9.71908 -22.225
      vertex 38.6394 9.71908 22.225
    endloop
  endfacet
  facet normal 0 -1 0
    outer loop
      vertex 37.9606 9.71908 -22.225
      vertex 38.6394 9.71908 22.225
      vertex 37.9606 9.71908 22.225
    endloop
  endfacet
  facet normal 0 0 -1
    outer loop
      vertex 37.9606 9.71908 -22.225
      vertex 57.55 38.1 -22.225
      vertex 38.6394 9.71908 -22.225
    endloop
  endfacet
  facet normal 0 0 1
    outer loop
      vertex 37.9606 9.71908 22.225
      vertex 38.6394 9.71908 22.225
      vertex 57.55 38.1 22.225
    endloop
  endfacet
  facet normal -0.0697602 0.997564 0
    outer loop
      vertex 38.6394 -9.71908 -22.225
      vertex 38.6394 -9.71908 22.225
      vertex 39.3165 -9.67173 -22.225
    endloop
  endfacet
  facet normal 0 0 -1
    outer loop
      vertex 38.6394 -9.71908 -22.225
      vertex 39.3165 -9.67173 -22.225
      vertex 57.55 -38.1 -22.225
    endloop
  endfacet
  facet normal -0.0697602 0.997564 0
    outer loop
      vertex 38.6394 -9.71908 22.225
      vertex 39.3165 -9.67173 22.225
      vertex 39.3165 -9.67173 -22.225
    endloop
  endfacet
  facet normal 0 0 1
    outer loop
      vertex 38.6394 -9.71908 22.225
      vertex 57.55 -38.1 22.225
      vertex 39.3165 -9.67173 22.225
    endloop
  endfacet
  facet normal -0.0697602 -0.997564 0
    outer loop
      vertex 38.6394 9.71908 -22.225
      vertex 39.3165 9.67173 -22.225
      vertex 39.3165 9.67173 22.225
    endloop
  endfacet
  facet normal -0.0697602 -0.997564 0
    outer loop
      vertex 38.6394 9.71908 -22.225
      vertex 39.3165 9.67173 22.225
      vertex 38.6394 9.71908 22.225
    endloop
  endfacet
  facet normal 0 0 -1
    outer loop
      vertex 38.6394 9.71908 -22.225
      vertex 57.55 38.1 -22.225
      vertex 39.3165 9.67173 -22.225
    endloop
  endfacet
  facet normal 0 0 1
    outer loop
      vertex 38.6394 9.71908 22.225
      vertex 39.3165 9.67173 22.225
      vertex 57.55 38.1 22.225
    endloop
  endfacet
  facet normal -0.139171 0.990268 0
    outer loop
      vertex 39.3165 -9.67173 -22.225
      vertex 39.3165 -9.67173 22.225
      vertex 39.9887 -9.57726 -22.225
    endloop
  endfacet
  facet normal 0 0 -1
    outer loop
      vertex 39.3165 -9.67173 -22.225
      vertex 39.9887 -9.57726 -22.225
      vertex 57.55 -38.1 -22.225
    endloop
  endfacet
  facet normal -0.139171 0.990268 0
    outer loop
      vertex 39.3165 -9.67173 22.225
      vertex 39.9887 -9.57726 22.225
      vertex 39.9887 -9.57726 -22.225
    endloop
  endfacet
  facet normal 0 0 1
    outer loop
      vertex 39.3165 -9.67173 22.225
      vertex 57.55 -38.1 22.225
      vertex 39.9887 -9.57726 22.225
    endloop
  endfacet
  facet normal -0.139171 -0.990268 0
    outer loop
      vertex 39.3165 9.67173 -22.225
      vertex 39.9887 9.57726 -22.225
      vertex 39.9887 9.57726 22.225
    endloop
  endfacet
  facet normal -0.139171 -0.990268 0
    outer loop
      vertex 39.3165 9.67173 -22.225
      vertex 39.9887 9.57726 22.225
      vertex 39.3165 9.67173 22.225
    endloop
  endfacet
  facet normal 0 0 -1
    outer loop
      vertex 39.3165 9.67173 -22.225
      vertex 57.55 38.1 -22.225
      vertex 39.9887 9.57726 -22.225
    endloop
  endfacet
  facet normal 0 0 1
    outer loop
      vertex 39.3165 9.67173 22.225
      vertex 39.9887 9.57726 22.225
      vertex 57.55 38.1 22.225
    endloop
  endfacet
  facet normal -0.207901 0.97815 0
    outer loop
      vertex 39.9887 -9.57726 -22.225
      vertex 39.9887 -9.57726 22.225
      vertex 40.6527 -9.43613 -22.225
    endloop
  endfacet
  facet normal 0 0 -1
    outer loop
      vertex 39.9887 -9.57726 -22.225
      vertex 40.6527 -9.43613 -22.225
      vertex 57.55 -38.1 -22.225
    endloop
  endfacet
  facet normal -0.207901 0.97815 0
    outer loop
      vertex 39.9887 -9.57726 22.225
      vertex 40.6527 -9.43613 22.225
      vertex 40.6527 -9.43613 -22.225
    endloop
  endfacet
  facet normal 0 0 1
    outer loop
      vertex 39.9887 -9.57726 22.225
      vertex 57.55 -38.1 22.225
      vertex 40.6527 -9.43613 22.225
    endloop
  endfacet
  facet normal -0.207901 -0.97815 0
    outer loop
      vertex 39.9887 9.57726 -22.225
      vertex 40.6527 9.43613 -22.225
      vertex 40.6527 9.43613 22.225
    endloop
  endfacet
  facet normal -0.207901 -0.97815 0
    outer loop
      vertex 39.9887 9.57726 -22.225
      vertex 40.6527 9.43613 22.225
      vertex 39.9887 9.57726 22.225
    endloop
  endfacet
  facet normal 0 0 -1
    outer loop
      vertex 39.9887 9.57726 -22.225
      vertex 57.55 38.1 -22.225
      vertex 40.6527 9.43613 -22.225
    endloop
  endfacet
  facet normal 0 0 1
    outer loop
      vertex 39.9887 9.57726 22.225
      vertex 40.6527 9.43613 22.225
      vertex 57.55 38.1 22.225
    endloop
  endfacet
  facet normal -0.275633 0 0.961263
    outer loop
      vertex 4.60861 -38.1 -18.4841
      vertex 5.88677 -38.1 -18.1176
      vertex 4.60861 38.1 -18.4841
    endloop
  endfacet
  facet normal -0.275633 0 -0.961263
    outer loop
      vertex 4.60861 -38.1 18.4841
      vertex 4.60861 38.1 18.4841
      vertex 5.88677 38.1 18.1176
    endloop
  endfacet
  facet normal -0.275633 0 -0.961263
    outer loop
      vertex 4.60861 -38.1 18.4841
      vertex 5.88677 38.1 18.1176
      vertex 5.88677 -38.1 18.1176
    endloop
  endfacet
  facet normal -0.275633 0 0.961263
    outer loop
      vertex 4.60861 38.1 -18.4841
      vertex 5.88677 -38.1 -18.1176
      vertex 5.88677 38.1 -18.1176
    endloop
  endfacet
  facet normal -0.275649 0.961258 0
    outer loop
      vertex 40.6527 -9.43613 -22.225
      vertex 40.6527 -9.43613 22.225
      vertex 41.3052 -9.24902 -22.225
    endloop
  endfacet
  facet normal 0 0 -1
    outer loop
      vertex 40.6527 -9.43613 -22.225
      vertex 41.3052 -9.24902 -22.225
      vertex 57.55 -38.1 -22.225
    endloop
  endfacet
  facet normal -0.275649 0.961258 0
    outer loop
      vertex 40.6527 -9.43613 22.225
      vertex 41.3052 -9.24902 22.225
      vertex 41.3052 -9.24902 -22.225
    endloop
  endfacet
  facet normal 0 0 1
    outer loop
      vertex 40.6527 -9.43613 22.225
      vertex 57.55 -38.1 22.225
      vertex 41.3052 -9.24902 22.225
    endloop
  endfacet
  facet normal -0.275649 -0.961258 0
    outer loop
      vertex 40.6527 9.43613 -22.225
      vertex 41.3052 9.24902 -22.225
      vertex 41.3052 9.24902 22.225
    endloop
  endfacet
  facet normal -0.275649 -0.961258 0
    outer loop
      vertex 40.6527 9.43613 -22.225
      vertex 41.3052 9.24902 22.225
      vertex 40.6527 9.43613 22.225
    endloop
  endfacet
  facet normal 0 0 -1
    outer loop
      vertex 40.6527 9.43613 -22.225
      vertex 57.55 38.1 -22.225
      vertex 41.3052 9.24902 -22.225
    endloop
  endfacet
  facet normal 0 0 1
    outer loop
      vertex 40.6527 9.43613 22.225
      vertex 41.3052 9.24902 22.225
      vertex 57.55 38.1 22.225
    endloop
  endfacet
  facet normal -0.342046 0.939683 0
    outer loop
      vertex 41.3052 -9.24902 -22.225
      vertex 41.3052 -9.24902 22.225
      vertex 41.943 -9.01686 -22.225
    endloop
  endfacet
  facet normal 0 0 -1
    outer loop
      vertex 41.3052 -9.24902 -22.225
      vertex 41.943 -9.01686 -22.225
      vertex 57.55 -38.1 -22.225
    endloop
  endfacet
  facet normal -0.342046 0.939683 0
    outer loop
      vertex 41.3052 -9.24902 22.225
      vertex 41.943 -9.01686 22.225
      vertex 41.943 -9.01686 -22.225
    endloop
  endfacet
  facet normal 0 0 1
    outer loop
      vertex 41.3052 -9.24902 22.225
      vertex 57.55 -38.1 22.225
      vertex 41.943 -9.01686 22.225
    endloop
  endfacet
  facet normal -0.342046 -0.939683 0
    outer loop
      vertex 41.3052 9.24902 -22.225
      vertex 41.943 9.01686 -22.225
      vertex 41.943 9.01686 22.225
    endloop
  endfacet
  facet normal -0.342046 -0.939683 0
    outer loop
      vertex 41.3052 9.24902 -22.225
      vertex 41.943 9.01686 22.225
      vertex 41.3052 9.24902 22.225
    endloop
  endfacet
  facet normal 0 0 -1
    outer loop
      vertex 41.3052 9.24902 -22.225
      vertex 57.55 38.1 -22.225
      vertex 41.943 9.01686 -22.225
    endloop
  endfacet
  facet normal 0 0 1
    outer loop
      vertex 41.3052 9.24902 22.225
      vertex 41.943 9.01686 22.225
      vertex 57.55 38.1 22.225
    endloop
  endfacet
  facet normal -0.406686 0.913568 0
    outer loop
      vertex 41.943 -9.01686 -22.225
      vertex 41.943 -9.01686 22.225
      vertex 42.5632 -8.74077 -22.225
    endloop
  endfacet
  facet normal 0 0 -1
    outer loop
      vertex 41.943 -9.01686 -22.225
      vertex 42.5632 -8.74077 -22.225
      vertex 57.55 -38.1 -22.225
    endloop
  endfacet
  facet normal -0.406686 0.913568 0
    outer loop
      vertex 41.943 -9.01686 22.225
      vertex 42.5632 -8.74077 22.225
      vertex 42.5632 -8.74077 -22.225
    endloop
  endfacet
  facet normal 0 0 1
    outer loop
      vertex 41.943 -9.01686 22.225
      vertex 57.55 -38.1 22.225
      vertex 42.5632 -8.74077 22.225
    endloop
  endfacet
  facet normal -0.406686 -0.913568 0
    outer loop
      vertex 41.943 9.01686 -22.225
      vertex 42.5632 8.74077 -22.225
      vertex 42.5632 8.74077 22.225
    endloop
  endfacet
  facet normal -0.406686 -0.913568 0
    outer loop
      vertex 41.943 9.01686 -22.225
      vertex 42.5632 8.74077 22.225
      vertex 41.943 9.01686 22.225
    endloop
  endfacet
  facet normal 0 0 -1
    outer loop
      vertex 41.943 9.01686 -22.225
      vertex 57.55 38.1 -22.225
      vertex 42.5632 8.74077 -22.225
    endloop
  endfacet
  facet normal 0 0 1
    outer loop
      vertex 41.943 9.01686 22.225
      vertex 42.5632 8.74077 22.225
      vertex 57.55 38.1 22.225
    endloop
  endfacet
  facet normal -0.469491 0.882937 0
    outer loop
      vertex 42.5632 -8.74077 -22.225
      vertex 42.5632 -8.74077 22.225
      vertex 43.1625 -8.4221 -22.225
    endloop
  endfacet
  facet normal 0 0 -1
    outer loop
      vertex 42.5632 -8.74077 -22.225
      vertex 43.1625 -8.4221 -22.225
      vertex 57.55 -38.1 -22.225
    endloop
  endfacet
  facet normal -0.469491 0.882937 0
    outer loop
      vertex 42.5632 -8.74077 22.225
      vertex 43.1625 -8.4221 22.225
      vertex 43.1625 -8.4221 -22.225
    endloop
  endfacet
  facet normal 0 0 1
    outer loop
      vertex 42.5632 -8.74077 22.225
      vertex 57.55 -38.1 22.225
      vertex 43.1625 -8.4221 22.225
    endloop
  endfacet
  facet normal -0.469491 -0.882937 0
    outer loop
      vertex 42.5632 8.74077 -22.225
      vertex 43.1625 8.4221 -22.225
      vertex 43.1625 8.4221 22.225
    endloop
  endfacet
  facet normal -0.469491 -0.882937 0
    outer loop
      vertex 42.5632 8.74077 -22.225
      vertex 43.1625 8.4221 22.225
      vertex 42.5632 8.74077 22.225
    endloop
  endfacet
  facet normal 0 0 -1
    outer loop
      vertex 42.5632 8.74077 -22.225
      vertex 57.55 38.1 -22.225
      vertex 43.1625 8.4221 -22.225
    endloop
  endfacet
  facet normal 0 0 1
    outer loop
      vertex 42.5632 8.74077 22.225
      vertex 43.1625 8.4221 22.225
      vertex 57.55 38.1 22.225
    endloop
  endfacet
  facet normal -0.52989 0.848066 0
    outer loop
      vertex 43.1625 -8.4221 -22.225
      vertex 43.1625 -8.4221 22.225
      vertex 43.7382 -8.06239 -22.225
    endloop
  endfacet
  facet normal 0 0 -1
    outer loop
      vertex 43.1625 -8.4221 -22.225
      vertex 43.7382 -8.06239 -22.225
      vertex 57.55 -38.1 -22.225
    endloop
  endfacet
  facet normal -0.52989 0.848066 0
    outer loop
      vertex 43.1625 -8.4221 22.225
      vertex 43.7382 -8.06239 22.225
      vertex 43.7382 -8.06239 -22.225
    endloop
  endfacet
  facet normal 0 0 1
    outer loop
      vertex 43.1625 -8.4221 22.225
      vertex 57.55 -38.1 22.225
      vertex 43.7382 -8.06239 22.225
    endloop
  endfacet
  facet normal -0.52989 -0.848066 0
    outer loop
      vertex 43.1625 8.4221 -22.225
      vertex 43.7382 8.06239 -22.225
      vertex 43.7382 8.06239 22.225
    endloop
  endfacet
  facet normal -0.52989 -0.848066 0
    outer loop
      vertex 43.1625 8.4221 -22.225
      vertex 43.7382 8.06239 22.225
      vertex 43.1625 8.4221 22.225
    endloop
  endfacet
  facet normal 0 0 -1
    outer loop
      vertex 43.1625 8.4221 -22.225
      vertex 57.55 38.1 -22.225
      vertex 43.7382 8.06239 -22.225
    endloop
  endfacet
  facet normal 0 0 1
    outer loop
      vertex 43.1625 8.4221 22.225
      vertex 43.7382 8.06239 22.225
      vertex 57.55 38.1 22.225
    endloop
  endfacet
  facet normal -0.587829 0.808985 0
    outer loop
      vertex 43.7382 -8.06239 -22.225
      vertex 43.7382 -8.06239 22.225
      vertex 44.2873 -7.6634 -22.225
    endloop
  endfacet
  facet normal 0 0 -1
    outer loop
      vertex 43.7382 -8.06239 -22.225
      vertex 44.2873 -7.6634 -22.225
      vertex 57.55 -38.1 -22.225
    endloop
  endfacet
  facet normal -0.587829 0.808985 0
    outer loop
      vertex 43.7382 -8.06239 22.225
      vertex 44.2873 -7.6634 22.225
      vertex 44.2873 -7.6634 -22.225
    endloop
  endfacet
  facet normal 0 0 1
    outer loop
      vertex 43.7382 -8.06239 22.225
      vertex 57.55 -38.1 22.225
      vertex 44.2873 -7.6634 22.225
    endloop
  endfacet
  facet normal -0.587829 -0.808985 0
    outer loop
      vertex 43.7382 8.06239 -22.225
      vertex 44.2873 7.6634 -22.225
      vertex 44.2873 7.6634 22.225
    endloop
  endfacet
  facet normal -0.587829 -0.808985 0
    outer loop
      vertex 43.7382 8.06239 -22.225
      vertex 44.2873 7.6634 22.225
      vertex 43.7382 8.06239 22.225
    endloop
  endfacet
  facet normal 0 0 -1
    outer loop
      vertex 43.7382 8.06239 -22.225
      vertex 57.55 38.1 -22.225
      vertex 44.2873 7.6634 -22.225
    endloop
  endfacet
  facet normal 0 0 1
    outer loop
      vertex 43.7382 8.06239 22.225
      vertex 44.2873 7.6634 22.225
      vertex 57.55 38.1 22.225
    endloop
  endfacet
  facet normal -0.642777 0.766053 0
    outer loop
      vertex 44.2873 -7.6634 -22.225
      vertex 44.2873 -7.6634 22.225
      vertex 44.8073 -7.22708 -22.225
    endloop
  endfacet
  facet normal 0 0 -1
    outer loop
      vertex 44.2873 -7.6634 -22.225
      vertex 44.8073 -7.22708 -22.225
      vertex 57.55 -38.1 -22.225
    endloop
  endfacet
  facet normal -0.642777 0.766053 0
    outer loop
      vertex 44.2873 -7.6634 22.225
      vertex 44.8073 -7.22708 22.225
      vertex 44.8073 -7.22708 -22.225
    endloop
  endfacet
  facet normal 0 0 1
    outer loop
      vertex 44.2873 -7.6634 22.225
      vertex 57.55 -38.1 22.225
      vertex 44.8073 -7.22708 22.225
    endloop
  endfacet
  facet normal -0.642777 -0.766053 0
    outer loop
      vertex 44.2873 7.6634 -22.225
      vertex 44.8073 7.22708 -22.225
      vertex 44.8073 7.22708 22.225
    endloop
  endfacet
  facet normal -0.642777 -0.766053 0
    outer loop
      vertex 44.2873 7.6634 -22.225
      vertex 44.8073 7.22708 22.225
      vertex 44.2873 7.6634 22.225
    endloop
  endfacet
  facet normal 0 0 -1
    outer loop
      vertex 44.2873 7.6634 -22.225
      vertex 57.55 38.1 -22.225
      vertex 44.8073 7.22708 -22.225
    endloop
  endfacet
  facet normal 0 0 1
    outer loop
      vertex 44.2873 7.6634 22.225
      vertex 44.8073 7.22708 22.225
      vertex 57.55 38.1 22.225
    endloop
  endfacet
  facet normal -0.694646 0.719351 0
    outer loop
      vertex 44.8073 -7.22708 -22.225
      vertex 44.8073 -7.22708 22.225
      vertex 45.2956 -6.75555 -22.225
    endloop
  endfacet
  facet normal 0 0 -1
    outer loop
      vertex 44.8073 -7.22708 -22.225
      vertex 45.2956 -6.75555 -22.225
      vertex 57.55 -38.1 -22.225
    endloop
  endfacet
  facet normal -0.694646 0.719351 0
    outer loop
      vertex 44.8073 -7.22708 22.225
      vertex 45.2956 -6.75555 22.225
      vertex 45.2956 -6.75555 -22.225
    endloop
  endfacet
  facet normal 0 0 1
    outer loop
      vertex 44.8073 -7.22708 22.225
      vertex 57.55 -38.1 22.225
      vertex 45.2956 -6.75555 22.225
    endloop
  endfacet
  facet normal -0.694646 -0.719351 0
    outer loop
      vertex 44.8073 7.22708 -22.225
      vertex 45.2956 6.75555 -22.225
      vertex 45.2956 6.75555 22.225
    endloop
  endfacet
  facet normal -0.694646 -0.719351 0
    outer loop
      vertex 44.8073 7.22708 -22.225
      vertex 45.2956 6.75555 22.225
      vertex 44.8073 7.22708 22.225
    endloop
  endfacet
  facet normal 0 0 -1
    outer loop
      vertex 44.8073 7.22708 -22.225
      vertex 57.55 38.1 -22.225
      vertex 45.2956 6.75555 -22.225
    endloop
  endfacet
  facet normal 0 0 1
    outer loop
      vertex 44.8073 7.22708 22.225
      vertex 45.2956 6.75555 22.225
      vertex 57.55 38.1 22.225
    endloop
  endfacet
  facet normal -0.743145 0.669131 0
    outer loop
      vertex 45.2956 -6.75555 -22.225
      vertex 45.2956 -6.75555 22.225
      vertex 45.7498 -6.25111 22.225
    endloop
  endfacet
  facet normal 0 0 -1
    outer loop
      vertex 45.2956 -6.75555 -22.225
      vertex 45.7498 -6.25111 -22.225
      vertex 57.55 -38.1 -22.225
    endloop
  endfacet
  facet normal -0.743145 0.669131 0
    outer loop
      vertex 45.2956 -6.75555 -22.225
      vertex 45.7498 -6.25111 22.225
      vertex 45.7498 -6.25111 -22.225
    endloop
  endfacet
  facet normal 0 0 1
    outer loop
      vertex 45.2956 -6.75555 22.225
      vertex 57.55 -38.1 22.225
      vertex 45.7498 -6.25111 22.225
    endloop
  endfacet
  facet normal -0.743145 -0.669131 0
    outer loop
      vertex 45.2956 6.75555 -22.225
      vertex 45.7498 6.25111 -22.225
      vertex 45.2956 6.75555 22.225
    endloop
  endfacet
  facet normal 0 0 -1
    outer loop
      vertex 45.2956 6.75555 -22.225
      vertex 57.55 38.1 -22.225
      vertex 45.7498 6.25111 -22.225
    endloop
  endfacet
  facet normal -0.743145 -0.669131 0
    outer loop
      vertex 45.2956 6.75555 22.225
      vertex 45.7498 6.25111 -22.225
      vertex 45.7498 6.25111 22.225
    endloop
  endfacet
  facet normal 0 0 1
    outer loop
      vertex 45.2956 6.75555 22.225
      vertex 45.7498 6.25111 22.225
      vertex 57.55 38.1 22.225
    endloop
  endfacet
  facet normal -0.788018 0.615653 0
    outer loop
      vertex 45.7498 -6.25111 -22.225
      vertex 45.7498 -6.25111 22.225
      vertex 46.1677 -5.71621 22.225
    endloop
  endfacet
  facet normal 0 0 -1
    outer loop
      vertex 45.7498 -6.25111 -22.225
      vertex 46.1677 -5.71621 -22.225
      vertex 57.55 -38.1 -22.225
    endloop
  endfacet
  facet normal -0.788018 0.615653 0
    outer loop
      vertex 45.7498 -6.25111 -22.225
      vertex 46.1677 -5.71621 22.225
      vertex 46.1677 -5.71621 -22.225
    endloop
  endfacet
  facet normal 0 0 1
    outer loop
      vertex 45.7498 -6.25111 22.225
      vertex 57.55 -38.1 22.225
      vertex 46.1677 -5.71621 22.225
    endloop
  endfacet
  facet normal -0.788018 -0.615653 0
    outer loop
      vertex 45.7498 6.25111 -22.225
      vertex 46.1677 5.71621 -22.225
      vertex 45.7498 6.25111 22.225
    endloop
  endfacet
  facet normal 0 0 -1
    outer loop
      vertex 45.7498 6.25111 -22.225
      vertex 57.55 38.1 -22.225
      vertex 46.1677 5.71621 -22.225
    endloop
  endfacet
  facet normal -0.788018 -0.615653 0
    outer loop
      vertex 45.7498 6.25111 22.225
      vertex 46.1677 5.71621 -22.225
      vertex 46.1677 5.71621 22.225
    endloop
  endfacet
  facet normal 0 0 1
    outer loop
      vertex 45.7498 6.25111 22.225
      vertex 46.1677 5.71621 22.225
      vertex 57.55 38.1 22.225
    endloop
  endfacet
  facet normal -0.829024 0.559213 0
    outer loop
      vertex 46.1677 -5.71621 -22.225
      vertex 46.1677 -5.71621 22.225
      vertex 46.5473 -5.15346 22.225
    endloop
  endfacet
  facet normal 0 0 -1
    outer loop
      vertex 46.1677 -5.71621 -22.225
      vertex 46.5473 -5.15346 -22.225
      vertex 57.55 -38.1 -22.225
    endloop
  endfacet
  facet normal -0.829024 0.559213 0
    outer loop
      vertex 46.1677 -5.71621 -22.225
      vertex 46.5473 -5.15346 22.225
      vertex 46.5473 -5.15346 -22.225
    endloop
  endfacet
  facet normal 0 0 1
    outer loop
      vertex 46.1677 -5.71621 22.225
      vertex 57.55 -38.1 22.225
      vertex 46.5473 -5.15346 22.225
    endloop
  endfacet
  facet normal -0.829024 -0.559213 0
    outer loop
      vertex 46.1677 5.71621 -22.225
      vertex 46.5473 5.15346 -22.225
      vertex 46.1677 5.71621 22.225
    endloop
  endfacet
  facet normal 0 0 -1
    outer loop
      vertex 46.1677 5.71621 -22.225
      vertex 57.55 38.1 -22.225
      vertex 46.5473 5.15346 -22.225
    endloop
  endfacet
  facet normal -0.829024 -0.559213 0
    outer loop
      vertex 46.1677 5.71621 22.225
      vertex 46.5473 5.15346 -22.225
      vertex 46.5473 5.15346 22.225
    endloop
  endfacet
  facet normal 0 0 1
    outer loop
      vertex 46.1677 5.71621 22.225
      vertex 46.5473 5.15346 22.225
      vertex 57.55 38.1 22.225
    endloop
  endfacet
  facet normal -0.866022 0.500005 0
    outer loop
      vertex 46.5473 -5.15346 -22.225
      vertex 46.5473 -5.15346 22.225
      vertex 46.8867 -4.56561 22.225
    endloop
  endfacet
  facet normal 0 0 -1
    outer loop
      vertex 46.5473 -5.15346 -22.225
      vertex 46.8867 -4.56561 -22.225
      vertex 57.55 -38.1 -22.225
    endloop
  endfacet
  facet normal -0.866022 0.500005 0
    outer loop
      vertex 46.5473 -5.15346 -22.225
      vertex 46.8867 -4.56561 22.225
      vertex 46.8867 -4.56561 -22.225
    endloop
  endfacet
  facet normal 0 0 1
    outer loop
      vertex 46.5473 -5.15346 22.225
      vertex 57.55 -38.1 22.225
      vertex 46.8867 -4.56561 22.225
    endloop
  endfacet
  facet normal -0.866022 -0.500005 0
    outer loop
      vertex 46.5473 5.15346 -22.225
      vertex 46.8867 4.56561 -22.225
      vertex 46.5473 5.15346 22.225
    endloop
  endfacet
  facet normal 0 0 -1
    outer loop
      vertex 46.5473 5.15346 -22.225
      vertex 57.55 38.1 -22.225
      vertex 46.8867 4.56561 -22.225
    endloop
  endfacet
  facet normal -0.866022 -0.500005 0
    outer loop
      vertex 46.5473 5.15346 22.225
      vertex 46.8867 4.56561 -22.225
      vertex 46.8867 4.56561 22.225
    endloop
  endfacet
  facet normal 0 0 1
    outer loop
      vertex 46.5473 5.15346 22.225
      vertex 46.8867 4.56561 22.225
      vertex 57.55 38.1 22.225
    endloop
  endfacet
  facet normal -0.898832 0.438293 0
    outer loop
      vertex 46.8867 -4.56561 -22.225
      vertex 46.8867 -4.56561 22.225
      vertex 47.1842 -3.95551 22.225
    endloop
  endfacet
  facet normal 0 0 -1
    outer loop
      vertex 46.8867 -4.56561 -22.225
      vertex 47.1842 -3.95551 -22.225
      vertex 57.55 -38.1 -22.225
    endloop
  endfacet
  facet normal -0.898832 0.438293 0
    outer loop
      vertex 46.8867 -4.56561 -22.225
      vertex 47.1842 -3.95551 22.225
      vertex 47.1842 -3.95551 -22.225
    endloop
  endfacet
  facet normal 0 0 1
    outer loop
      vertex 46.8867 -4.56561 22.225
      vertex 57.55 -38.1 22.225
      vertex 47.1842 -3.95551 22.225
    endloop
  endfacet
  facet normal -0.898832 -0.438293 0
    outer loop
      vertex 46.8867 4.56561 -22.225
      vertex 47.1842 3.95551 -22.225
      vertex 46.8867 4.56561 22.225
    endloop
  endfacet
  facet normal 0 0 -1
    outer loop
      vertex 46.8867 4.56561 -22.225
      vertex 57.55 38.1 -22.225
      vertex 47.1842 3.95551 -22.225
    endloop
  endfacet
  facet normal -0.898832 -0.438293 0
    outer loop
      vertex 46.8867 4.56561 22.225
      vertex 47.1842 3.95551 -22.225
      vertex 47.1842 3.95551 22.225
    endloop
  endfacet
  facet normal 0 0 1
    outer loop
      vertex 46.8867 4.56561 22.225
      vertex 47.1842 3.95551 22.225
      vertex 57.55 38.1 22.225
    endloop
  endfacet
  facet normal -0.927173 0.374635 0
    outer loop
      vertex 47.1842 -3.95551 -22.225
      vertex 47.1842 -3.95551 22.225
      vertex 47.4385 -3.32615 22.225
    endloop
  endfacet
  facet normal 0 0 -1
    outer loop
      vertex 47.1842 -3.95551 -22.225
      vertex 47.4385 -3.32615 -22.225
      vertex 57.55 -38.1 -22.225
    endloop
  endfacet
  facet normal -0.927173 0.374635 0
    outer loop
      vertex 47.1842 -3.95551 -22.225
      vertex 47.4385 -3.32615 22.225
      vertex 47.4385 -3.32615 -22.225
    endloop
  endfacet
  facet normal 0 0 1
    outer loop
      vertex 47.1842 -3.95551 22.225
      vertex 57.55 -38.1 22.225
      vertex 47.4385 -3.32615 22.225
    endloop
  endfacet
  facet normal -0.927173 -0.374635 0
    outer loop
      vertex 47.1842 3.95551 -22.225
      vertex 47.4385 3.32615 -22.225
      vertex 47.1842 3.95551 22.225
    endloop
  endfacet
  facet normal 0 0 -1
    outer loop
      vertex 47.1842 3.95551 -22.225
      vertex 57.55 38.1 -22.225
      vertex 47.4385 3.32615 -22.225
    endloop
  endfacet
  facet normal -0.927173 -0.374635 0
    outer loop
      vertex 47.1842 3.95551 22.225
      vertex 47.4385 3.32615 -22.225
      vertex 47.4385 3.32615 22.225
    endloop
  endfacet
  facet normal 0 0 1
    outer loop
      vertex 47.1842 3.95551 22.225
      vertex 47.4385 3.32615 22.225
      vertex 57.55 38.1 22.225
    endloop
  endfacet
  facet normal -0.95104 0.309068 0
    outer loop
      vertex 47.4385 -3.32615 -22.225
      vertex 47.4385 -3.32615 22.225
      vertex 47.6483 -2.68057 22.225
    endloop
  endfacet
  facet normal 0 0 -1
    outer loop
      vertex 47.4385 -3.32615 -22.225
      vertex 47.6483 -2.68057 -22.225
      vertex 57.55 -38.1 -22.225
    endloop
  endfacet
  facet normal -0.95104 0.309068 0
    outer loop
      vertex 47.4385 -3.32615 -22.225
      vertex 47.6483 -2.68057 22.225
      vertex 47.6483 -2.68057 -22.225
    endloop
  endfacet
  facet normal 0 0 1
    outer loop
      vertex 47.4385 -3.32615 22.225
      vertex 57.55 -38.1 22.225
      vertex 47.6483 -2.68057 22.225
    endloop
  endfacet
  facet normal -0.95104 -0.309068 0
    outer loop
      vertex 47.4385 3.32615 -22.225
      vertex 47.6483 2.68057 -22.225
      vertex 47.4385 3.32615 22.225
    endloop
  endfacet
  facet normal 0 0 -1
    outer loop
      vertex 47.4385 3.32615 -22.225
      vertex 57.55 38.1 -22.225
      vertex 47.6483 2.68057 -22.225
    endloop
  endfacet
  facet normal -0.95104 -0.309068 0
    outer loop
      vertex 47.4385 3.32615 22.225
      vertex 47.6483 2.68057 -22.225
      vertex 47.6483 2.68057 22.225
    endloop
  endfacet
  facet normal 0 0 1
    outer loop
      vertex 47.4385 3.32615 22.225
      vertex 47.6483 2.68057 22.225
      vertex 57.55 38.1 22.225
    endloop
  endfacet
  facet normal -0.970301 0.241901 0
    outer loop
      vertex 47.6483 -2.68057 -22.225
      vertex 47.6483 -2.68057 22.225
      vertex 47.8125 -2.02194 22.225
    endloop
  endfacet
  facet normal 0 0 -1
    outer loop
      vertex 47.6483 -2.68057 -22.225
      vertex 47.8125 -2.02194 -22.225
      vertex 57.55 -38.1 -22.225
    endloop
  endfacet
  facet normal -0.970301 0.241901 0
    outer loop
      vertex 47.6483 -2.68057 -22.225
      vertex 47.8125 -2.02194 22.225
      vertex 47.8125 -2.02194 -22.225
    endloop
  endfacet
  facet normal 0 0 1
    outer loop
      vertex 47.6483 -2.68057 22.225
      vertex 57.55 -38.1 22.225
      vertex 47.8125 -2.02194 22.225
    endloop
  endfacet
  facet normal -0.970301 -0.241901 0
    outer loop
      vertex 47.6483 2.68057 -22.225
      vertex 47.8125 2.02194 -22.225
      vertex 47.6483 2.68057 22.225
    endloop
  endfacet
  facet normal 0 0 -1
    outer loop
      vertex 47.6483 2.68057 -22.225
      vertex 57.55 38.1 -22.225
      vertex 47.8125 2.02194 -22.225
    endloop
  endfacet
  facet normal -0.970301 -0.241901 0
    outer loop
      vertex 47.6483 2.68057 22.225
      vertex 47.8125 2.02194 -22.225
      vertex 47.8125 2.02194 22.225
    endloop
  endfacet
  facet normal 0 0 1
    outer loop
      vertex 47.6483 2.68057 22.225
      vertex 47.8125 2.02194 22.225
      vertex 57.55 38.1 22.225
    endloop
  endfacet
  facet normal -0.9848 0.17369 0
    outer loop
      vertex 47.8125 -2.02194 -22.225
      vertex 47.8125 -2.02194 22.225
      vertex 47.9304 -1.35346 22.225
    endloop
  endfacet
  facet normal 0 0 -1
    outer loop
      vertex 47.8125 -2.02194 -22.225
      vertex 47.9304 -1.35346 -22.225
      vertex 57.55 -38.1 -22.225
    endloop
  endfacet
  facet normal -0.9848 0.17369 0
    outer loop
      vertex 47.8125 -2.02194 -22.225
      vertex 47.9304 -1.35346 22.225
      vertex 47.9304 -1.35346 -22.225
    endloop
  endfacet
  facet normal 0 0 1
    outer loop
      vertex 47.8125 -2.02194 22.225
      vertex 57.55 -38.1 22.225
      vertex 47.9304 -1.35346 22.225
    endloop
  endfacet
  facet normal -0.9848 -0.17369 0
    outer loop
      vertex 47.8125 2.02194 -22.225
      vertex 47.9304 1.35346 -22.225
      vertex 47.8125 2.02194 22.225
    endloop
  endfacet
  facet normal 0 0 -1
    outer loop
      vertex 47.8125 2.02194 -22.225
      vertex 57.55 38.1 -22.225
      vertex 47.9304 1.35346 -22.225
    endloop
  endfacet
  facet normal -0.9848 -0.17369 0
    outer loop
      vertex 47.8125 2.02194 22.225
      vertex 47.9304 1.35346 -22.225
      vertex 47.9304 1.35346 22.225
    endloop
  endfacet
  facet normal 0 0 1
    outer loop
      vertex 47.8125 2.02194 22.225
      vertex 47.9304 1.35346 22.225
      vertex 57.55 38.1 22.225
    endloop
  endfacet
  facet normal -0.99453 0.10445 0
    outer loop
      vertex 47.9304 -1.35346 -22.225
      vertex 47.9304 -1.35346 22.225
      vertex 48.0013 -0.678381 22.225
    endloop
  endfacet
  facet normal 0 0 -1
    outer loop
      vertex 47.9304 -1.35346 -22.225
      vertex 48.0013 -0.678381 -22.225
      vertex 57.55 -38.1 -22.225
    endloop
  endfacet
  facet normal -0.99453 0.10445 0
    outer loop
      vertex 47.9304 -1.35346 -22.225
      vertex 48.0013 -0.678381 22.225
      vertex 48.0013 -0.678381 -22.225
    endloop
  endfacet
  facet normal 0 0 1
    outer loop
      vertex 47.9304 -1.35346 22.225
      vertex 57.55 -38.1 22.225
      vertex 48.0013 -0.678381 22.225
    endloop
  endfacet
  facet normal -0.99453 -0.10445 0
    outer loop
      vertex 47.9304 1.35346 -22.225
      vertex 48.0013 0.678381 -22.225
      vertex 47.9304 1.35346 22.225
    endloop
  endfacet
  facet normal 0 0 -1
    outer loop
      vertex 47.9304 1.35346 -22.225
      vertex 57.55 38.1 -22.225
      vertex 48.0013 0.678381 -22.225
    endloop
  endfacet
  facet normal -0.99453 -0.10445 0
    outer loop
      vertex 47.9304 1.35346 22.225
      vertex 48.0013 0.678381 -22.225
      vertex 48.0013 0.678381 22.225
    endloop
  endfacet
  facet normal 0 0 1
    outer loop
      vertex 47.9304 1.35346 22.225
      vertex 48.0013 0.678381 22.225
      vertex 57.55 38.1 22.225
    endloop
  endfacet
  facet normal -0.99939 0.0349148 0
    outer loop
      vertex 48.0013 -0.678381 -22.225
      vertex 48.0013 -0.678381 22.225
      vertex 48.025 0 22.225
    endloop
  endfacet
  facet normal 0 0 -1
    outer loop
      vertex 48.0013 -0.678381 -22.225
      vertex 48.025 0 -22.225
      vertex 57.55 -38.1 -22.225
    endloop
  endfacet
  facet normal -0.99939 0.0349148 0
    outer loop
      vertex 48.0013 -0.678381 -22.225
      vertex 48.025 0 22.225
      vertex 48.025 0 -22.225
    endloop
  endfacet
  facet normal 0 0 1
    outer loop
      vertex 48.0013 -0.678381 22.225
      vertex 57.55 -38.1 22.225
      vertex 48.025 0 22.225
    endloop
  endfacet
  facet normal -0.99939 -0.0349148 0
    outer loop
      vertex 48.0013 0.678381 -22.225
      vertex 48.025 0 -22.225
      vertex 48.0013 0.678381 22.225
    endloop
  endfacet
  facet normal 0 0 -1
    outer loop
      vertex 48.0013 0.678381 -22.225
      vertex 57.55 38.1 -22.225
      vertex 48.025 0 -22.225
    endloop
  endfacet
  facet normal -0.99939 -0.0349148 0
    outer loop
      vertex 48.0013 0.678381 22.225
      vertex 48.025 0 -22.225
      vertex 48.025 0 22.225
    endloop
  endfacet
  facet normal 0 0 1
    outer loop
      vertex 48.0013 0.678381 22.225
      vertex 48.025 0 22.225
      vertex 57.55 38.1 22.225
    endloop
  endfacet
  facet normal 0 0 -1
    outer loop
      vertex 48.025 0 -22.225
      vertex 57.55 38.1 -22.225
      vertex 57.55 -38.1 -22.225
    endloop
  endfacet
  facet normal 0 0 1
    outer loop
      vertex 48.025 0 22.225
      vertex 57.55 -38.1 22.225
      vertex 57.55 38.1 22.225
    endloop
  endfacet
  facet normal -0.341969 0 0.939711
    outer loop
      vertex 5.88677 -38.1 -18.1176
      vertex 7.13626 -38.1 -17.6629
      vertex 5.88677 38.1 -18.1176
    endloop
  endfacet
  facet normal -0.341969 0 -0.939711
    outer loop
      vertex 5.88677 -38.1 18.1176
      vertex 5.88677 38.1 18.1176
      vertex 7.13626 38.1 17.6629
    endloop
  endfacet
  facet normal -0.341969 0 -0.939711
    outer loop
      vertex 5.88677 -38.1 18.1176
      vertex 7.13626 38.1 17.6629
      vertex 7.13626 -38.1 17.6629
    endloop
  endfacet
  facet normal -0.341969 0 0.939711
    outer loop
      vertex 5.88677 38.1 -18.1176
      vertex 7.13626 -38.1 -17.6629
      vertex 7.13626 38.1 -17.6629
    endloop
  endfacet
  facet normal 1 0 0
    outer loop
      vertex 57.55 -38.1 -22.225
      vertex 57.55 38.1 -22.225
      vertex 57.55 -38.1 22.225
    endloop
  endfacet
  facet normal 1 0 0
    outer loop
      vertex 57.55 -38.1 22.225
      vertex 57.55 38.1 -22.225
      vertex 57.55 38.1 22.225
    endloop
  endfacet
  facet normal -0.406785 0 0.913524
    outer loop
      vertex 7.13626 -38.1 -17.6629
      vertex 8.35097 -38.1 -17.122
      vertex 7.13626 38.1 -17.6629
    endloop
  endfacet
  facet normal -0.406785 0 -0.913524
    outer loop
      vertex 7.13626 -38.1 17.6629
      vertex 7.13626 38.1 17.6629
      vertex 8.35097 38.1 17.122
    endloop
  endfacet
  facet normal -0.406785 0 -0.913524
    outer loop
      vertex 7.13626 -38.1 17.6629
      vertex 8.35097 38.1 17.122
      vertex 8.35097 -38.1 17.122
    endloop
  endfacet
  facet normal -0.406785 0 0.913524
    outer loop
      vertex 7.13626 38.1 -17.6629
      vertex 8.35097 -38.1 -17.122
      vertex 8.35097 38.1 -17.122
    endloop
  endfacet
  facet normal 0 -1 0
    outer loop
      vertex 8.35097 -38.1 -17.122
      vertex 57.55 -38.1 -22.225
      vertex 9.525 -38.1 -16.4978
    endloop
  endfacet
  facet normal -0.469446 0 0.882961
    outer loop
      vertex 8.35097 -38.1 -17.122
      vertex 9.525 -38.1 -16.4978
      vertex 8.35097 38.1 -17.122
    endloop
  endfacet
  facet normal -0.469446 0 -0.882961
    outer loop
      vertex 8.35097 -38.1 17.122
      vertex 8.35097 38.1 17.122
      vertex 9.525 38.1 16.4978
    endloop
  endfacet
  facet normal 0 -1 0
    outer loop
      vertex 8.35097 -38.1 17.122
      vertex 9.525 -38.1 16.4978
      vertex 57.55 -38.1 22.225
    endloop
  endfacet
  facet normal -0.469446 0 -0.882961
    outer loop
      vertex 8.35097 -38.1 17.122
      vertex 9.525 38.1 16.4978
      vertex 9.525 -38.1 16.4978
    endloop
  endfacet
  facet normal -0.469446 0 0.882961
    outer loop
      vertex 8.35097 38.1 -17.122
      vertex 9.525 -38.1 -16.4978
      vertex 9.525 38.1 -16.4978
    endloop
  endfacet
  facet normal 0 1 0
    outer loop
      vertex 8.35097 38.1 -17.122
      vertex 9.525 38.1 -16.4978
      vertex 57.55 38.1 -22.225
    endloop
  endfacet
  facet normal 0 1 0
    outer loop
      vertex 8.35097 38.1 17.122
      vertex 57.55 38.1 22.225
      vertex 9.525 38.1 16.4978
    endloop
  endfacet
  facet normal -0.529918 0 0.848049
    outer loop
      vertex 9.525 -38.1 -16.4978
      vertex 10.6526 -38.1 -15.7932
      vertex 9.525 38.1 -16.4978
    endloop
  endfacet
  facet normal 0 -1 0
    outer loop
      vertex 9.525 -38.1 -16.4978
      vertex 57.55 -38.1 -22.225
      vertex 10.6526 -38.1 -15.7932
    endloop
  endfacet
  facet normal 0 -1 0
    outer loop
      vertex 9.525 -38.1 16.4978
      vertex 10.6526 -38.1 15.7932
      vertex 57.55 -38.1 22.225
    endloop
  endfacet
  facet normal -0.529918 0 -0.848049
    outer loop
      vertex 9.525 -38.1 16.4978
      vertex 10.6526 38.1 15.7932
      vertex 10.6526 -38.1 15.7932
    endloop
  endfacet
  facet normal -0.529918 0 -0.848049
    outer loop
      vertex 9.525 -38.1 16.4978
      vertex 9.525 38.1 16.4978
      vertex 10.6526 38.1 15.7932
    endloop
  endfacet
  facet normal -0.529918 0 0.848049
    outer loop
      vertex 9.525 38.1 -16.4978
      vertex 10.6526 -38.1 -15.7932
      vertex 10.6526 38.1 -15.7932
    endloop
  endfacet
  facet normal 0 1 0
    outer loop
      vertex 9.525 38.1 -16.4978
      vertex 10.6526 38.1 -15.7932
      vertex 57.55 38.1 -22.225
    endloop
  endfacet
  facet normal 0 1 0
    outer loop
      vertex 9.525 38.1 16.4978
      vertex 57.55 38.1 22.225
      vertex 10.6526 38.1 15.7932
    endloop
  endfacet
endsolid OpenSCAD_Model
